<svg id="efkSOvt48Qw1" xmlns="http://www.w3.org/2000/svg" xmlns:xlink="http://www.w3.org/1999/xlink" viewBox="0 0 300 375" shape-rendering="geometricPrecision" text-rendering="geometricPrecision" project-id="56465527d2b747ddb07d95c171a44ec4" export-id="5409f72e01ec4d36a15870d1b14326a6" cached="false"><defs><linearGradient id="efkSOvt48Qw7-fill" x1="0.5" y1="0" x2="0.5" y2="1" spreadMethod="pad" gradientUnits="objectBoundingBox" gradientTransform="translate(0 0)"><stop id="efkSOvt48Qw7-fill-0" offset="0%" stop-color="rgba(255,255,255,0)"/><stop id="efkSOvt48Qw7-fill-1" offset="100%" stop-color="#010022"/></linearGradient></defs><g><g id="efkSOvt48Qw3" transform="matrix(.999997-.002443 0.002443 0.999997 48.577118 347.334627)"><path d="M16.3797,11.62h-1.295c-.5017,0-.7467-.3733-.5484-.8283l2.52-5.84505c.3967-.92166-.0933-1.66833-1.085-1.66833h-1.54c-.7933,0-1.715.595-2.0183,1.33L9.55466,11.2583c-.09333.1867-.33833.35-.54833.35h-3.57c-1.12,0-2.46167.8284-2.975,1.82-.175.35-.175.77,0,1.12.51333,1.0034,1.84333,1.8317,2.96333,1.8317h3.57c.21,0,.455.1633.54833.35l.51331,1.2133L16.3797,11.62Z"/><path d="M14.4316,24.7217h1.54c.9917,0,1.4817-.7467,1.085-1.6683l-2.52-5.845c-.1866-.4667.0467-.8284.5484-.8284h3.395c.2683,0,.6533.1517.84.35l2.7183,2.7067c.28.28.84.4083,1.225.28l1.5867-.525c.6883-.2333,1.0033-1.015.6883-1.6567L23.205,14.7584c-.3617-.42-.3617-1.1084,0-1.5284l2.3333-2.7766c.3267-.64171,0-1.42338-.6883-1.63338l-1.5867-.525c-.3967-.12833-.945,0-1.225.28L19.32,11.2817c-.1867.1867-.5717.3383-.84.3383h-2.1l-6.3234,6.3234l2.345,5.4483c.315.735,1.2367,1.33,2.03,1.33Z"/></g><path d="M273.333,88c0,1.4728,1.194,2.6667,2.667,2.6667s2.667-1.1939,2.667-2.6667-1.194-2.6667-2.667-2.6667-2.667,1.1939-2.667,2.6667ZM51.5605,348.5h-1.91v1h1.91v-1Zm-5.7301,0h-3.82v1h3.82v-1Zm-7.6401,0h-3.8201v1h3.8201v-1Zm-7.6401,0h-3.8201v1h3.8201v-1Zm-7.6402,0h-1.91v1h1.91v-1Zm-1.91,0c-.6455,0-1.2835-.031-1.9127-.093l-.0968.996c.6613.064,1.3316.097,2.0095.097v-1Zm-5.6627-.835c-1.233-.373-2.4143-.866-3.5308-1.464l-.4722.882c1.1739.629,2.4163,1.146,3.7131,1.539l.2899-.957Zm-6.70795-3.591c-.98696-.81-1.89291-1.716-2.70382-2.703l-.77266.634c.85226,1.038,1.80437,1.99,2.84166,2.842l.63482-.773Zm-4.83057-5.88c-.59801-1.117-1.09044-2.298-1.46399-3.531l-.95704.29c.39288,1.296.91074,2.539,1.53951,3.713l.88152-.472Zm-2.2062-7.281C1.53135,330.284,1.5,329.646,1.5,329h-1c0,.678.032921,1.348.097278,2.01l.995302-.097ZM1.5,329v-1.974h-1v1.974h1Zm0-5.923v-3.949h-1v3.949h1Zm0-7.898v-3.948h-1v3.948h1Zm0-7.897v-3.949h-1v3.949h1Zm0-7.897v-3.949h-1v3.949h1Zm0-7.898v-3.949h-1v3.949h1Zm0-7.897v-3.949h-1v3.949h1Zm0-7.898v-3.948h-1v3.948h1Zm0-7.897v-3.949h-1v3.949h1Zm0-7.898v-3.948h-1v3.948h1ZM1.5,252v-3.949h-1v3.949h1Zm0-7.897v-3.949h-1v3.949h1Zm0-7.898v-3.949h-1v3.949h1Zm0-7.897v-3.949h-1v3.949h1Zm0-7.898v-3.948h-1v3.948h1Zm0-7.897v-3.949h-1v3.949h1Zm0-7.898v-3.948h-1v3.948h1Zm0-7.897v-3.949h-1v3.949h1Zm0-7.897v-3.949h-1v3.949h1Zm0-7.898v-3.949h-1v3.949h1Zm0-7.897v-3.949h-1v3.949h1Zm0-7.898v-3.948h-1v3.948h1Zm0-7.897v-3.949h-1v3.949h1Zm0-7.898v-3.948h-1v3.948h1Zm0-7.897v-3.949h-1v3.949h1Zm0-7.897v-3.949h-1v3.949h1Zm0-7.898v-3.949h-1v3.949h1Zm0-7.897v-3.949h-1v3.949h1Zm0-7.898v-3.948h-1v3.948h1Zm0-7.897v-3.9489h-1v3.9489h1Zm0-7.8976v-3.9487h-1v3.9487h1Zm0-7.8974v-3.9488h-1v3.9488h1Zm0-7.8975v-3.9487h-1v3.9487h1Zm0-7.8974v-3.9487h-1v3.9487h1Zm0-7.8975v-3.9487h-1v3.9487h1Zm0-7.8974v-3.9488h-1v3.9488h1Zm0-7.8975v-3.9487h-1v3.9487h1Zm0-7.8974v-3.9488h-1v3.9488h1Zm0-7.8975v-3.9487h-1v3.9487h1Zm0-7.8975L1.5,21h-1v1.9743h1ZM1.5,21c0-.6455.03135-1.2835.09258-1.9127l-.995302-.0968C0.532921,19.6518,0.5,20.3221,0.5,21h1Zm.83478-5.6627c.37356-1.2329.86598-2.4143,1.464-3.5308l-.88152-.4722c-.62877,1.1739-1.14663,2.4163-1.53952,3.7131l.95704.2899ZM5.92553,8.62935c.81091-.98696,1.71685-1.89291,2.70382-2.70382l-.63482-.77266c-1.03729.85226-1.9894,1.80437-2.84166,2.84166l.77266.63482ZM11.8065,3.79878c1.1165-.59802,2.2978-1.09044,3.5308-1.464l-.2899-.95704c-1.2968.39289-2.5392.91075-3.7131,1.53952l.4722.88152Zm7.2808-2.2062C19.7165,1.53135,20.3545,1.5,21,1.5v-1c-.6779,0-1.3482.032921-2.0095.097278l.0968.995302ZM21,1.5h2.0259v-1L21,0.5v1Zm6.0776,0h4.0517v-1h-4.0517v1Zm8.1034,0h4.0518v-1h-4.0518v1Zm8.1035,0h4.0517v-1h-4.0517v1Zm8.1034,0h4.0518v-1h-4.0518v1Zm8.1035,0h4.0517v-1h-4.0517v1Zm8.1034,0h4.0517v-1h-4.0517v1Zm8.1035,0h4.0517v-1h-4.0517v1Zm8.1034,0h4.0517v-1h-4.0517v1Zm8.1035,0h4.0517v-1h-4.0517v1Zm8.1038,0h4.051v-1h-4.051v1Zm8.103,0h4.052v-1h-4.052v1Zm8.104,0h4.051v-1h-4.051v1Zm8.103,0h4.052v-1h-4.052v1Zm8.103,0h4.052v-1h-4.052v1Zm8.104,0h4.052v-1h-4.052v1Zm8.103,0h4.052v-1h-4.052v1Zm8.104,0h4.052v-1h-4.052v1Zm8.103,0h4.052v-1h-4.052v1Zm8.104,0h4.051v-1h-4.051v1Zm8.103,0h4.052v-1h-4.052v1Zm8.104,0h4.051v-1h-4.051v1Zm8.103,0h4.052v-1h-4.052v1Zm8.104,0h4.051v-1h-4.051v1Zm8.103,0h4.052v-1h-4.052v1Zm8.103,0h4.052v-1h-4.052v1Zm8.104,0h4.052v-1h-4.052v1Zm8.103,0h4.052v-1h-4.052v1Zm8.104,0h4.052v-1h-4.052v1Zm8.103,0h2.026v-1h-2.026v1ZM256,1.5c.645,0,1.284.03135,1.913.09258l.097-.995302C257.348,0.532921,256.678,0.5,256,0.5v1Zm5.663.83479c1.233.37355,2.414.86598,3.531,1.46399l.472-.88152c-1.174-.62877-2.417-1.14663-3.713-1.53951l-.29.95704Zm6.708,3.59074c.987.81091,1.893,1.71686,2.703,2.70382l.773-.63482c-.852-1.03729-1.804-1.9894-2.842-2.84166l-.634.77266Zm4.83,5.88097c.598,1.1165,1.091,2.2979,1.464,3.5308l.957-.2899c-.393-1.2968-.91-2.5392-1.539-3.7131l-.882.4722Zm2.206,7.2808c.062.6292.093,1.2672.093,1.9127h1c0-.6779-.033-1.3482-.097-2.0095l-.996.0968ZM275.5,21v2.0938h1v-2.0938h-1Zm0,6.2812v4.1876h1v-4.1876h-1Zm0,8.375v4.1876h1v-4.1876h-1Zm0,8.375v4.1876h1v-4.1876h-1Zm0,8.375v4.1876h1v-4.1876h-1Zm0,8.375v4.1876h1v-4.1876h-1Zm0,8.375v4.1876h1v-4.1876h-1Zm0,8.375v4.1876h1v-4.1876h-1Zm0,8.375v2.0938h1v-2.0938h-1ZM273.333,88c0,1.4728,1.194,2.6667,2.667,2.6667s2.667-1.1939,2.667-2.6667-1.194-2.6667-2.667-2.6667-2.667,1.1939-2.667,2.6667ZM51.5605,348.5h-1.91v1h1.91v-1Zm-5.7301,0h-3.82v1h3.82v-1Zm-7.6401,0h-3.8201v1h3.8201v-1Zm-7.6401,0h-3.8201v1h3.8201v-1Zm-7.6402,0h-1.91v1h1.91v-1Zm-1.91,0c-.6455,0-1.2835-.031-1.9127-.093l-.0968.996c.6613.064,1.3316.097,2.0095.097v-1Zm-5.6627-.835c-1.233-.373-2.4143-.866-3.5308-1.464l-.4722.882c1.1739.629,2.4163,1.146,3.7131,1.539l.2899-.957Zm-6.70795-3.591c-.98696-.81-1.89291-1.716-2.70382-2.703l-.77266.634c.85226,1.038,1.80437,1.99,2.84166,2.842l.63482-.773Zm-4.83057-5.88c-.59801-1.117-1.09044-2.298-1.46399-3.531l-.95704.29c.39288,1.296.91074,2.539,1.53951,3.713l.88152-.472Zm-2.2062-7.281C1.53135,330.284,1.5,329.646,1.5,329h-1c0,.678.032921,1.348.097278,2.01l.995302-.097ZM1.5,329v-1.974h-1v1.974h1Zm0-5.923v-3.949h-1v3.949h1Zm0-7.898v-3.948h-1v3.948h1Zm0-7.897v-3.949h-1v3.949h1Zm0-7.897v-3.949h-1v3.949h1Zm0-7.898v-3.949h-1v3.949h1Zm0-7.897v-3.949h-1v3.949h1Zm0-7.898v-3.948h-1v3.948h1Zm0-7.897v-3.949h-1v3.949h1Zm0-7.898v-3.948h-1v3.948h1ZM1.5,252v-3.949h-1v3.949h1Zm0-7.897v-3.949h-1v3.949h1Zm0-7.898v-3.949h-1v3.949h1Zm0-7.897v-3.949h-1v3.949h1Zm0-7.898v-3.948h-1v3.948h1Zm0-7.897v-3.949h-1v3.949h1Zm0-7.898v-3.948h-1v3.948h1Zm0-7.897v-3.949h-1v3.949h1Zm0-7.897v-3.949h-1v3.949h1Zm0-7.898v-3.949h-1v3.949h1Zm0-7.897v-3.949h-1v3.949h1Zm0-7.898v-3.948h-1v3.948h1Zm0-7.897v-3.949h-1v3.949h1Zm0-7.898v-3.948h-1v3.948h1Zm0-7.897v-3.949h-1v3.949h1Zm0-7.897v-3.949h-1v3.949h1Zm0-7.898v-3.949h-1v3.949h1Zm0-7.897v-3.949h-1v3.949h1Zm0-7.898v-3.948h-1v3.948h1Zm0-7.897v-3.9489h-1v3.9489h1Zm0-7.8976v-3.9487h-1v3.9487h1Zm0-7.8974v-3.9488h-1v3.9488h1Zm0-7.8975v-3.9487h-1v3.9487h1Zm0-7.8974v-3.9487h-1v3.9487h1Zm0-7.8975v-3.9487h-1v3.9487h1Zm0-7.8974v-3.9488h-1v3.9488h1Zm0-7.8975v-3.9487h-1v3.9487h1Zm0-7.8974v-3.9488h-1v3.9488h1Zm0-7.8975v-3.9487h-1v3.9487h1Zm0-7.8975L1.5,21h-1v1.9743h1ZM1.5,21c0-.6455.03135-1.2835.09258-1.9127l-.995302-.0968C0.532921,19.6518,0.5,20.3221,0.5,21h1Zm.83478-5.6627c.37356-1.2329.86598-2.4143,1.464-3.5308l-.88152-.4722c-.62877,1.1739-1.14663,2.4163-1.53952,3.7131l.95704.2899ZM5.92553,8.62935c.81091-.98696,1.71685-1.89291,2.70382-2.70382l-.63482-.77266c-1.03729.85226-1.9894,1.80437-2.84166,2.84166l.77266.63482ZM11.8065,3.79878c1.1165-.59802,2.2978-1.09044,3.5308-1.464l-.2899-.95704c-1.2968.39289-2.5392.91075-3.7131,1.53952l.4722.88152Zm7.2808-2.2062C19.7165,1.53135,20.3545,1.5,21,1.5v-1c-.6779,0-1.3482.032921-2.0095.097278l.0968.995302ZM21,1.5h2.0259v-1L21,0.5v1Zm6.0776,0h4.0517v-1h-4.0517v1Zm8.1034,0h4.0518v-1h-4.0518v1Zm8.1035,0h4.0517v-1h-4.0517v1Zm8.1034,0h4.0518v-1h-4.0518v1Zm8.1035,0h4.0517v-1h-4.0517v1Zm8.1034,0h4.0517v-1h-4.0517v1Zm8.1035,0h4.0517v-1h-4.0517v1Zm8.1034,0h4.0517v-1h-4.0517v1Zm8.1035,0h4.0517v-1h-4.0517v1Zm8.1038,0h4.051v-1h-4.051v1Zm8.103,0h4.052v-1h-4.052v1Zm8.104,0h4.051v-1h-4.051v1Zm8.103,0h4.052v-1h-4.052v1Zm8.103,0h4.052v-1h-4.052v1Zm8.104,0h4.052v-1h-4.052v1Zm8.103,0h4.052v-1h-4.052v1Zm8.104,0h4.052v-1h-4.052v1Zm8.103,0h4.052v-1h-4.052v1Zm8.104,0h4.051v-1h-4.051v1Zm8.103,0h4.052v-1h-4.052v1Zm8.104,0h4.051v-1h-4.051v1Zm8.103,0h4.052v-1h-4.052v1Zm8.104,0h4.051v-1h-4.051v1Zm8.103,0h4.052v-1h-4.052v1Zm8.103,0h4.052v-1h-4.052v1Zm8.104,0h4.052v-1h-4.052v1Zm8.103,0h4.052v-1h-4.052v1Zm8.104,0h4.052v-1h-4.052v1Zm8.103,0h2.026v-1h-2.026v1ZM256,1.5c.645,0,1.284.03135,1.913.09258l.097-.995302C257.348,0.532921,256.678,0.5,256,0.5v1Zm5.663.83479c1.233.37355,2.414.86598,3.531,1.46399l.472-.88152c-1.174-.62877-2.417-1.14663-3.713-1.53951l-.29.95704Zm6.708,3.59074c.987.81091,1.893,1.71686,2.703,2.70382l.773-.63482c-.852-1.03729-1.804-1.9894-2.842-2.84166l-.634.77266Zm4.83,5.88097c.598,1.1165,1.091,2.2979,1.464,3.5308l.957-.2899c-.393-1.2968-.91-2.5392-1.539-3.7131l-.882.4722Zm2.206,7.2808c.062.6292.093,1.2672.093,1.9127h1c0-.6779-.033-1.3482-.097-2.0095l-.996.0968ZM275.5,21v2.0938h1v-2.0938h-1Zm0,6.2812v4.1876h1v-4.1876h-1Zm0,8.375v4.1876h1v-4.1876h-1Zm0,8.375v4.1876h1v-4.1876h-1Zm0,8.375v4.1876h1v-4.1876h-1Zm0,8.375v4.1876h1v-4.1876h-1Zm0,8.375v4.1876h1v-4.1876h-1Zm0,8.375v4.1876h1v-4.1876h-1Zm0,8.375v2.0938h1v-2.0938h-1Z" transform="translate(10.4165 12.5)"/></g>
  <script  type="application/javascript">
  <![CDATA[
!function(t,e){"object"==typeof exports&&"undefined"!=typeof module?module.exports=e():"function"==typeof __SVGATOR_DEFINE__&&__SVGATOR_DEFINE__.amd?__SVGATOR_DEFINE__(e):((t="undefined"!=typeof globalThis?globalThis:t||self).__SVGATOR_PLAYER__=t.__SVGATOR_PLAYER__||{},t.__SVGATOR_PLAYER__["5c7f360c"]=e())}(this,function(){"use strict";let t=n(1e-6),e=n(.01);function n(t,e=6){return function(t,e,n){if(Number.isInteger(t))return t;let r=Math.pow(10,e);return Math[n]((+t+Number.EPSILON)*r)/r}(t,e,"round")}function r(e,n,r=t){return Math.abs(e-n)<r}n(1e-4);let i=Math.PI/180;function l(t){return t*i}function s(t){return t/i}function u(t){return"number"!=typeof t&&(t=Number(t)),isNaN(t)||!isFinite(t)?0:t}let o={iD:!1};function a(t){return`${t}`.replace(/['"]/g,"")}function $(t,e="px"){return t.endsWith(e)?t:`${t}${e}`}function f(t=""){return o.iD?t:void 0}function c(t){let e=t.match(RegExp("^\\s*(matrix\\()(?<a>-?[0-9]*\\.?[0-9]+)\\s*,?\\s*(?<b>-?[0-9]*\\.?[0-9]+)\\s*,?\\s*(?<c>-?[0-9]*\\.?[0-9]+)\\s*,?\\s*(?<d>-?[0-9]*\\.?[0-9]+)\\s*,?\\s*(?<e>-?[0-9]*\\.?[0-9]+)\\s*,?\\s*(?<f>-?[0-9]*\\.?[0-9]+)\\)","i"));if(e)return[u(e.groups.a),u(e.groups.b),u(e.groups.c),u(e.groups.d),u(e.groups.e),u(e.groups.f),]}function h(t,e="inline"){return t&&t!==e?(t=a(t))===e?f(e):t:f(e)}function _(t,e="1px"){if(!t||t===e)return f(e);if(t.endsWith("px")||t.endsWith("%"))return t;let n=$(t=`${u(t)}`);return n===e?f(e):n}function d(t,e="rgb(0, 0, 0)"){if(!t||t===e||(t=a(t))===e)return f(e);if(t.startsWith("rgb"))return t;let n=function(t){let e=t.match(RegExp("^\\s*#(?<red>[0-9A-Z]{1,2})(?<green>[0-9A-Z]{1,2})(?<blue>[0-9A-Z]{1,2})","i"));if(!e)return t;let n=t=>parseInt(t.length>1?t:`${t}${t}`,16);return`rgb(${n(e.groups.red)}, ${n(e.groups.green)}, ${n(e.groups.blue)})`}(t);return n===e?f(e):n}function y(t,e="1"){return t&&t!==e?(t=`${n(u(t),3)}`)===e?f(e):t:f(e)}let p={},g={fill:"none",stroke:"none",opacity:"0.01",transform:"matrix(0.001 0 0 0.001 -10000 -10000)"},m=()=>{p={}};"object"==typeof window&&(window.removeEventListener("resize",m),window.addEventListener("resize",m));let v={include:(t,e)=>["rect","mask"].includes(e),formatter(t,e,n){var r,i,l;return _(t,(r=e,(null===(l=({mask:{x:"-150%",y:"-150%",width:"400%",height:"400%"}})[i=n])||void 0===l?void 0:l[r])||(["x","y"].includes(r)?"0px":"100%")))}},x=Object.freeze({d:{include:(t,e)=>["path"].includes(e),formatter:t=>(function(t,e=""){return t&&t!==e?(t=a(t))===e?f(e):t.startsWith("path(")?t:`path('${t}')`:f(e)})(t)},display:t=>h(t),height:v,fill:t=>d(t),"fill-opacity":t=>y(t),filter:t=>h(t,"none"),mask:t=>(function t(e,n="none"){return e&&e!==n?(e=a(e))===n?f(n):e.startsWith("url(#")?e:function(t){let e=t.match(RegExp("^\\s*url\\(#(?<maskId>[a-zA-Z0-9\\-_]+)\\)","i"));if(e)return`url(#${e.groups.maskId})`}(e):f(n)})(t),opacity:t=>y(t),stroke:t=>d(t,"none"),"stroke-opacity":t=>y(t),"stroke-width":t=>_(t),transform:t=>(function(t,e="none"){if(!t||t===e)return f(e);let n=c(t);return n?`matrix(${n.join(", ")})`:t})(t),"transform-origin":t=>(function(t,e="0px 0px"){if(!t||t===e)return f(e);let n=t.match(RegExp("^\\s*(?<x>[0-9]+)(px)?\\s*,\\s*(?<y>[0-9]+)(px)?","i"));if(!n)return t;let r=`${u(n.groups.x)}`;r=$(r);let i=`${u(n.groups.y)}`;i=$(i);let l=`${r} ${i}`;return l===e?f(e):l})(t),visibility:t=>h(t,"visible"),width:v,x:v,y:v}),b=Object.keys(x),k=e;function A(t,e,n,i){var l,s,u,o;let a="transform"===e||["mask","path"].includes(n)&&["x","y","width","height","d"].includes(e);return i&&a?function t(e,n,i,l,s=window){var u,o,a,$,f;let h=e.getAttribute(n),_=s.safari&&!s.chrome&&(null===(u=l.getPropertyValue)||void 0===u?void 0:u.call(l,n))===("transform"===n?"none":"")||"mask"===i?h:null===(o=l.getPropertyValue)||void 0===o?void 0:o.call(l,n);if(h&&_){if(h===_)return h;switch(n){case"transform":return function(t,e){let n=c(t),i=c(e);if((null==n?void 0:n.length)===(null==i?void 0:i.length)){var l,s;for(let u=0,o=n.length;u<o;u++)if(n[u]!==i[u]&&(l=i[u],!r(((s=n[u])-l)/(s||1)*100,0,k)))return;return t}}(h,_);case"d":return a=e,$=h,f=_,function t({element:e,tagType:n="path",property:r="d",attributeValue:i}){return p[i]||(p[i]=function({element:t,tagType:e="path",property:n="d",attributeValue:r}){let i=t.ownerSVGElement,l=document.createElementNS(i.namespaceURI,e);for(let s in l.setAttributeNS(null,n,r),g)l.setAttributeNS(null,s,g[s]);i.appendChild(l);let u=getComputedStyle(l)[n];return l.remove(),u}({element:e,tagType:n,property:r,attributeValue:i})),p[i]}({element:a,attributeValue:$})===f?$:void 0;default:return _}}}(t,e,n,i):(null===(l=i.getPropertyValue)||void 0===l?void 0:l.call(i,e))??(null===(s=t.attrs)||void 0===s||null===(u=s.style)||void 0===u?void 0:u[e])??(null===(o=t.attrs)||void 0===o?void 0:o[e])}function w(t,e,n=!1){o.iD=n;let r="undefined"!=typeof window&&getComputedStyle(t),i={};for(let l=0,s=b.length;l<s;l++){var u,a,$;let f=b[l],c=t.type||t.nodeName;if(!1===(null===(u=(a=x[f]).include)||void 0===u?void 0:u.call(a,f,c)))continue;let h=x[f].formatter||x[f];if(null!=e&&null!==($=e[t.id])&&void 0!==$&&$[f])continue;let _=A(t,f,c,r);if(null==_&&!n)continue;let d=h.call(this,_,f,c);d&&(i[f]=d)}return i}function S(t){var e,n;if(null==t||null===(e=t.wD)||void 0===e||!e.length)return;this.h=t.wD.shift();let r=null===(n=t.rootId)||void 0===n?void 0:n.slice(0,-1);this.wIs=t.wD.map(t=>`${r}${t}`)}function j(t){let e=new S(t),n=t.svg,r=e.wIs,i=t.originalAnimations[0].elements,l=e.h;function s(t,e,l){var u;if(e[t])return;let o=n.querySelector("#"+t),a=null==o||null===(u=o.parentElement)||void 0===u?void 0:u.id;if(o&&a){if(r.includes(a))return e[a]||s(a,e,l),e[a].children??=[],e[t]=w(o,i),void e[a].children.push(e[t]);e[t]=w(o,i),l.push(e[t])}}async function u(){let t=function(){let t=[],e={};for(let n=0,i=r.length;n<i;n++)s(r[n],e,t);return t}();return await async function(t){var e,n;let r=JSON.stringify(t),i=new TextEncoder().encode(r),s=await (null===(e=window.crypto)||void 0===e||null===(n=e.subtle)||void 0===n?void 0:n.digest("SHA-256",i));return s&&Array.from(new Uint8Array(s)).map(t=>t.toString(16).padStart(2,"0")).join("")||l}(t)}this.vH=async function(){await u()!==l&&requestAnimationFrame(()=>t.stop())}}function O(t){let e=0,n=0,r=new j(t);this.cF=async function(i,l){var s;return t.wD&&(e++,!((s=i)-n<300)&&(s-n>=500||e>=3)&&(e=0,n=i,window.requestAnimationFrame(()=>r.vH()))),l()}}function E(t){return t}function T(t,e,n){let r=1-n;return 3*n*r*(t*r+e*n)+n*n*n}function N(t=0,e=0,n=1,i=1){return t<0||t>1||n<0||n>1?null:r(t,e)&&r(n,i)?E:l=>{if(l<=0)return t>0?l*e/t:0===e&&n>0?l*i/n:0;if(l>=1)return n<1?1+(l-1)*(i-1)/(n-1):1===n&&t<1?1+(l-1)*(e-1)/(t-1):1;let s,u=0,o=1;for(;u<o;){s=(u+o)/2;let a=T(t,n,s);if(r(l,a))break;a<l?u=s:o=s}return T(e,i,s)}}function M(){return 1}function Y(t){return 1===t?1:0}function Z(t=1,e=0){if(1===t){if(0===e)return Y;if(1===e)return M}let n=1/t;return t=>t>=1?1:(t+=e*n)-t%n}Number.isInteger||(Number.isInteger=function(t){return"number"==typeof t&&isFinite(t)&&Math.floor(t)===t}),Number.EPSILON||(Number.EPSILON=2220446049250313e-31);let I=Math.sin,D=Math.cos,B=Math.acos,V=Math.asin,z=Math.tan,F=Math.atan2,G=Math.sqrt;function C(t,e){return{a:t[0]*e[0]+t[2]*e[1],b:t[1]*e[0]+t[3]*e[1],c:t[0]*e[2]+t[2]*e[3],d:t[1]*e[2]+t[3]*e[3],tx:t[0]*e[4]+t[2]*e[5]+t[4],ty:t[1]*e[4]+t[3]*e[5]+t[5]}}function P(t,e,n){return t>=.5?n:e}function R(t,e,n){return 0===t||e===n?e:t*(n-e)+e}function L(t,e,n){let r=R(t,e,n);return r<=0?0:r}function Q(t,e,n){let r=R(t,e,n);return r<=0?0:r>=1?1:r}function W(t,e,n){return 0===t?e:1===t?n:{x:R(t,e.x,n.x),y:R(t,e.y,n.y)}}function q(t,e,n){return 0===t?e:1===t?n:{x:L(t,e.x,n.x),y:L(t,e.y,n.y)}}function U(t,e,n){var r,i,l;let s=(r=t,i=e,l=n,Math.round(R(r,i,l)));return s<=0?0:s>=255?255:s}function H(t,e,n){return 0===t?e:1===t?n:{r:U(t,e.r,n.r),g:U(t,e.g,n.g),b:U(t,e.b,n.b),a:R(t,null==e.a?1:e.a,null==n.a?1:n.a)}}function J(t,e,n){let r=e.length;if(r!==n.length)return P(t,e,n);let i=Array(r);for(let l=0;l<r;l++)i[l]=R(t,e[l],n[l]);return i}function K(t,e){let n=[];for(let r=0;r<t;r++)n.push(e);return n}function X(t,e){if(--e<=0)return t;let n=(t=Object.assign([],t)).length;do for(let r=0;r<n;r++)t.push(t[r]);while(--e>0);return t}class tt{constructor(t){this.list=t,this.length=t.length}setAttribute(t,e){let n=this.list;for(let r=0;r<this.length;r++)n[r].setAttribute(t,e)}removeAttribute(t){let e=this.list;for(let n=0;n<this.length;n++)e[n].removeAttribute(t)}style(t,e){let n=this.list;for(let r=0;r<this.length;r++)n[r].style[t]=e}}let te=/-./g,tn=(t,e)=>e.toUpperCase(),tr;function ti(t){return"function"==typeof t?t:P}function tl(t){return t?"function"==typeof t?t:Array.isArray(t)?function(t,e=E){if(!Array.isArray(t))return e;switch(t.length){case 1:return Z(t[0])||e;case 2:return Z(t[0],t[1])||e;case 4:return N(t[0],t[1],t[2],t[3])||e}return e}(t,null):function(t,e,n=E){switch(t){case"linear":return E;case"steps":return Z(e.steps||1,e.jump||0)||n;case"bezier":case"cubic-bezier":return N(e.x1||0,e.y1||0,e.x2||0,e.y2||0)||n}return n}(t.type,t.value,null):null}function ts(t,e,n,r=!1){let i=e.length-1;if(t<=e[0].t)return r?[0,0,e[0].v]:e[0].v;if(t>=e[i].t)return r?[i,1,e[i].v]:e[i].v;let l,s=e[0],u=null;for(l=1;l<=i;l++){if(!(t>e[l].t)){u=e[l];break}s=e[l]}return null==u?r?[i,1,e[i].v]:e[i].v:s.t===u.t?r?[l,1,u.v]:u.v:(t=(t-s.t)/(u.t-s.t),s.e&&(t=s.e(t)),r?[l,t,n(t,s.v,u.v)]:n(t,s.v,u.v))}function tu(t,e,n=null){return t&&t.length?"function"!=typeof e?null:("function"!=typeof n&&(n=null),r=>{let i=ts(r,t,e);return null!=i&&n&&(i=n(i)),i}):null}function to(t,e){return t.t-e.t}function ta(t,e,n,r){if(!r||"object"!=typeof r)return null;let i=null,l=null;return Array.isArray(r)?l=function(t){if(!t||!t.length)return null;for(let e=0;e<t.length;e++)t[e].e&&(t[e].e=tl(t[e].e));return t.sort(to)}(r):(l=r.keys,i=r.data||null),l?function t(e,n,r,i,l){var s;let u="@"===r[0],o="#"===r[0],a=tr[r],$=P;switch(u?r=(s=r.substr(1)).replace(te,tn):o&&(r=r.substr(1)),typeof a){case"function":if($=a(i,l,ts,tl,r,u,n,e),o)return $;break;case"string":$=tu(i,ti(a));break;case"object":if(($=tu(i,ti(a.i),a.f))&&"function"==typeof a.u)return a.u(n,$,r,u,e)}return $?function(t,e,n,r=!1){if(r)return t instanceof tt?r=>t.style(e,n(r)):r=>t.style[e]=n(r);if(Array.isArray(e)){let i=e.length;return r=>{let l=n(r);if(null==l)for(let s=0;s<i;s++)t[s].removeAttribute(e);else for(let u=0;u<i;u++)t[u].setAttribute(e,l)}}return r=>{let i=n(r);null==i?t.removeAttribute(e):t.setAttribute(e,i)}}(n,r,$,u):null}(t,e,n,l,i):null}function t$(t,e,n){if(!n)return null;let r=[];for(let i in n)if(n.hasOwnProperty(i)){let l=ta(t,e,i,n[i]);l&&r.push(l)}return r.length?r:null}function tf(t,e){if(!e.settings.duration||e.settings.duration<0)return null;let n=function(t,e){if(!e)return null;let n=[];if(Array.isArray(e)){let r=e.length;for(let i=0;i<r;i++){let l=e[i];if(2!==l.length)continue;let s=null;if("string"==typeof l[0])s=t.getElementById(l[0]);else if(Array.isArray(l[0])){s=[];for(let u=0;u<l[0].length;u++)if("string"==typeof l[0][u]){let o=t.getElementById(l[0][u]);o&&s.push(o)}s=s.length?1===s.length?s[0]:new tt(s):null}if(!s)continue;let a=t$(t,s,l[1]);a&&(n=n.concat(a))}}else for(let $ in e){if(!e.hasOwnProperty($))continue;let f=t.getElementById($);if(!f)continue;let c=t$(t,f,e[$]);c&&(n=n.concat(c))}return n.length?n:null}(t,e.elements);return n?function(t,e){let n=e.duration,r=t.length,i=null;return(l,s)=>{let u=e.iterations||1/0,o=(e.alternate&&u%2==0)^e.direction>0?n:0,a=l%n,$=1+(l-a)/n;s*=e.direction,e.alternate&&$%2==0&&(s=-s);let f=!1;if($>u)a=o,f=!0,-1===e.fill&&(a=e.direction>0?0:n);else if(s<0&&(a=n-a),a===i)return!1;i=a;for(let c=0;c<r;c++)t[c](a);return f}}(n,e.settings):null}function tc(t,e=document,n=0){let r=function(t,e){let n=e.querySelectorAll("svg");for(let r=0;r<n.length;r++)if(n[r].id===t.root&&!n[r].svgatorAnimation)return n[r].svgatorAnimation=!0,n[r];return null}(t,e);if(r)return r;if(n>=20)return null;let i=function(t){let e=t=>t.shadowRoot;return document?Array.from(t.querySelectorAll(":not(a,area,audio,br,canvas,circle,datalist,embed,g,head,hr,iframe,img,input,link,object,path,polygon,rect,script,source,style,svg,title,track,video)")).filter(e).map(e):[]}(e);for(let l=0;l<i.length;l++){let s=tc(t,i[l],n+1);if(s)return s}return null}function th(t,e=null,n=Number,r="undefined"!=typeof BigInt&&BigInt){let i="0x"+(t.replace(/[^0-9a-fA-F]+/g,"")||27);return e&&r&&n.isSafeInteger&&!n.isSafeInteger(+i)?n(r(i))%e+e:+i}function t_(t,e=27){return!t||t%e?t%e:[0,1].includes(e)?e:t_(t/e,e)}function td(t,e,n){if(!t||!t.length)return;let r=th(n),i=t_(r)+5,l=function(t,e,n){let r="";for(;t&&n&&e<=t.length;)r+=t.substring(0,e),t=t.substring(e+1),e=n;return r+t}(t,t_(r,5),i);return JSON.parse(l=function(t,e,n){let r=+("0x"+t.substring(0,4));t=t.substring(4);let i=th(e,r)%r+n%27,l=[];for(let s=0;s<t.length;s+=2){if("|"===t[s]){let u=+("0x"+t.substring(s+1,s+1+4))-i;s+=3,l.push(u);continue}let o=+("0x"+t[s]+t[s+1])-i;l.push(o)}return String.fromCharCode(...l)}(l=(l=atob(l=l.replace(/\x7c$/g,"==").replace(/\x2f$/g,"="))).replace(/[\x41-\x5A]/g,""),e,r))}let ty=[{key:"alternate",def:!1},{key:"fill",def:1},{key:"iterations",def:0},{key:"direction",def:1},{key:"speed",def:1},{key:"fps",def:100},];function tp(t){return n(t)+""}function tg(t,e=" "){return t&&t.length?t.map(tp).join(e):""}function tm(t){return tp(t.x)+","+tp(t.y)}function t0(t){return t?null==t.a||t.a>=1?function(t){if(!t)return"transparent";let e=t=>parseInt(t).toString(16).padStart(2,"0");return function(t){let e=[],n="#"===t[0]?e.push("#"):0;for(;n<t.length;n+=2){if(t[n]!==t[n+1])return t;e.push(t[n])}return e.join("")}("#"+e(t.r)+e(t.g)+e(t.b)+(null==t.a||t.a>=1?"":e(255*t.a)))}(t):"rgba("+t.r+","+t.g+","+t.b+","+t.a+")":"transparent"}function tv(t){return t?"url(#"+t+")":"none"}!function(){for(var t=0,e=["ms","moz","webkit","o"],n=0;n<e.length&&!window.requestAnimationFrame;++n)window.requestAnimationFrame=window[e[n]+"RequestAnimationFrame"],window.cancelAnimationFrame=window[e[n]+"CancelAnimationFrame"]||window[e[n]+"CancelRequestAnimationFrame"];window.requestAnimationFrame||(window.requestAnimationFrame=function(e){var n=Date.now(),r=Math.max(0,16-(n-t)),i=window.setTimeout(function(){e(n+r)},r);return t=n+r,i},window.cancelAnimationFrame=window.clearTimeout)}(),Object.freeze({M:2,L:2,Z:0,H:1,V:1,C:6,Q:4,T:2,S:4,A:7});let t1={},tx=null;function tb(t,e,n,r,i=1){var l;let s=t1[l=function(t,e,n,r){if(!t||!r)return!1;let i=["M",t.x,t.y];if(e&&n&&(i.push("C"),i.push(e.x),i.push(e.y),i.push(n.x),i.push(n.y)),e?!n:n){let l=e||n;i.push("Q"),i.push(l.x),i.push(l.y)}return e||n||i.push("L"),i.push(r.x),i.push(r.y),i.join(" ")}(t,e,n,r)]?t1[l]:t1[l]=function t(e){let n=function(){if(tx)return tx;if("object"!=typeof document||!document.createElementNS)return{};let t=document.createElementNS("http://www.w3.org/2000/svg","svg");return t&&t.style?(t.style.position="absolute",t.style.opacity="0.01",t.style.zIndex="-9999",t.style.left="-9999px",t.style.width="1px",t.style.height="1px",tx={svg:t}):{}}().svg;if(!n)return function(t){return null};let r=document.createElementNS(n.namespaceURI,"path");r.setAttributeNS(null,"d",e),r.setAttributeNS(null,"fill","none"),r.setAttributeNS(null,"stroke","none"),n.appendChild(r);let i=r.getTotalLength();return function(t){let e=r.getPointAtLength(i*t);return{x:e.x,y:e.y}}}(l);try{return s(i)}catch(u){return null}}function t3(t,e,n){return t+(e-t)*n}function tk(t,e,n,r){let i=1-r;return i*i*t+2*i*r*e+r*r*n}function tA(t,e,n,r){return 2*(1-r)*(e-t)+2*r*(n-e)}function t7(t,e,n,r,i=!1){var l,s,u,o;let a=tb(t,e,null,n,r);return a||(a={x:tk(t.x,e.x,n.x,r),y:tk(t.y,e.y,n.y,r)}),i&&(a.a=(l=t,s=e,u=n,o=r,Math.atan2(tA(l.y,s.y,u.y,o),tA(l.x,s.x,u.x,o)))),a}function t2(t,e,n,r,i){let l=i*i;return i*l*(r-t+3*(e-n))+3*l*(t+n-2*e)+3*i*(e-t)+t}function t4(t,e,n,r,i){let l=1-i;return 3*(l*l*(e-t)+2*l*i*(n-e)+i*i*(r-n))}function t8(t,e,n,r=!1){if(t5(e)){if(tS(n))return t7(e,n.start,n,t,r)}else if(t5(n)){if(tj(e))return t7(e,e.end,n,t,r)}else{if(tj(e))return tS(n)?function t(e,n,r,i,l,s=!1){var u,o,a,$,f;let c=tb(e,n,r,i,l);return c||(c={x:t2(e.x,n.x,r.x,i.x,l),y:t2(e.y,n.y,r.y,i.y,l)}),s&&(c.a=(u=e,o=n,a=r,$=i,f=l,Math.atan2(t4(u.y,o.y,a.y,$.y,f),t4(u.x,o.x,a.x,$.x,f)))),c}(e,e.end,n.start,n,t,r):t7(e,e.end,n,t,r);if(tS(n))return t7(e,n.start,n,t,r)}return function t(e,n,r,i=!1){var l,s,u,o,a,$,f,c;let h={x:(l=e.x,s=n.x,u=r,l+(s-l)*u),y:(o=e.y,a=n.y,$=r,o+(a-o)*$)};return i&&(h.a=(f=e,Math.atan2((c=n).y-f.y,c.x-f.x))),h}(e,n,t,r)}function tw(t,e,n){var r;let l=t8(t,e,n,!0);return l.a=(r=function(t,e=!1){return e?t+Math.PI:t}(l.a))/i,l}function t5(t){return!t.type||"corner"===t.type}function tS(t){return null!=t.start&&!t5(t)}function tj(t){return null!=t.end&&!t5(t)}let tO=new class{constructor(t=1,e=0,n=0,r=1,i=0,l=0){this.m=[t,e,n,r,i,l],this.i=null,this.w=null,this.s=null}get determinant(){let t=this.m;return t[0]*t[3]-t[1]*t[2]}get isIdentity(){if(null===this.i){let t=this.m;this.i=1===t[0]&&0===t[1]&&0===t[2]&&1===t[3]&&0===t[4]&&0===t[5]}return this.i}point(t,e){let n=this.m;return{x:n[0]*t+n[2]*e+n[4],y:n[1]*t+n[3]*e+n[5]}}translateSelf(t=0,e=0){if(!t&&!e)return this;let n=this.m;return n[4]+=n[0]*t+n[2]*e,n[5]+=n[1]*t+n[3]*e,this.w=this.s=this.i=null,this}rotateSelf(t=0){if(t%=360){var e;t=(e=t)*i;let n=I(t),r=D(t),l=this.m,s=l[0],u=l[1];l[0]=s*r+l[2]*n,l[1]=u*r+l[3]*n,l[2]=l[2]*r-s*n,l[3]=l[3]*r-u*n,this.w=this.s=this.i=null}return this}scaleSelf(t=1,e=1){if(1!==t||1!==e){let n=this.m;n[0]*=t,n[1]*=t,n[2]*=e,n[3]*=e,this.w=this.s=this.i=null}return this}skewSelf(t,e){if(e%=360,(t%=360)||e){var n,r;let l=this.m,s=l[0],u=l[1],o=l[2],a=l[3];t&&(t=z((n=t)*i),l[2]+=s*t,l[3]+=u*t),e&&(e=z((r=e)*i),l[0]+=o*e,l[1]+=a*e),this.w=this.s=this.i=null}return this}resetSelf(t=1,e=0,n=0,r=1,i=0,l=0){let s=this.m;return s[0]=t,s[1]=e,s[2]=n,s[3]=r,s[4]=i,s[5]=l,this.w=this.s=this.i=null,this}recomposeSelf(t=null,e=null,n=null,r=null,i=null){return this.isIdentity||this.resetSelf(),t&&(t.x||t.y)&&this.translateSelf(t.x,t.y),e&&this.rotateSelf(e),n&&(n.x&&this.skewSelf(n.x,0),n.y&&this.skewSelf(0,n.y)),r&&(1!==r.x||1!==r.y)&&this.scaleSelf(r.x,r.y),i&&(i.x||i.y)&&this.translateSelf(i.x,i.y),this}decompose(t=0,e=0){var r,l,s;let u=this.m,o=u[0]*u[0]+u[1]*u[1],a=[[u[0],u[1]],[u[2],u[3]],],$=G(o);if(0===$)return{origin:{x:n(u[4]),y:n(u[5])},translate:{x:n(t),y:n(e)},scale:{x:0,y:0},skew:{x:0,y:0},rotate:0};a[0][0]/=$,a[0][1]/=$;let f=u[0]*u[3]-u[1]*u[2]<0;f&&($=-$);let c=a[0][0]*a[1][0]+a[0][1]*a[1][1];a[1][0]-=a[0][0]*c,a[1][1]-=a[0][1]*c;let h,_=G(a[1][0]*a[1][0]+a[1][1]*a[1][1]);return 0===_?{origin:{x:n(u[4]),y:n(u[5])},translate:{x:n(t),y:n(e)},scale:{x:n($),y:0},skew:{x:0,y:0},rotate:0}:(a[1][0]/=_,a[1][1]/=_,c/=_,a[1][1]<0?(h=(r=B(a[1][1]))/i,a[0][1]<0&&(h=360-h)):h=(l=V(a[0][1]))/i,f&&(h=-h),c=(s=F(c,G(a[0][0]*a[0][0]+a[0][1]*a[0][1])))/i,f&&(c=-c),{origin:{x:n(u[4]),y:n(u[5])},translate:{x:n(t),y:n(e)},scale:{x:n($),y:n(_)},skew:{x:n(c),y:0},rotate:n(h)})}multiply(t){return this.clone().multiplySelf(t)}preMultiply(t){return t.multiply(this)}multiplySelf(t){let{a:e,b:n,c:r,d:i,tx:l,ty:s}=C(this.m,t.m);return this.resetSelf(e,n,r,i,l,s),this}preMultiplySelf(t){let{a:e,b:n,c:r,d:i,tx:l,ty:s}=C(t.m,this.m);return this.resetSelf(e,n,r,i,l,s),this}clone(){let t=this.m;return new this.constructor(t[0],t[1],t[2],t[3],t[4],t[5])}static create(t){return t?Array.isArray(t)?new this(...t):t instanceof this?t.clone():new this().recomposeSelf(t.origin,t.rotate,t.skew,t.scale,t.translate):new this}toString(t=" ",e=!1){if(null===this.s){let r=this.m.map(t=>n(t));e||1!==r[0]||0!==r[1]||0!==r[2]||1!==r[3]?this.s="matrix("+r.join(t)+")":this.s="translate("+r[4]+t+r[5]+")"}return this.s}};var t6={f:tp,i:R},tE={f:tp,i:Q};let tT={gt:"gradientTransform",c:{x:"cx",y:"cy"},rd:"r",f:{x:"x1",y:"y1"},to:{x:"x2",y:"y2"}};function tN(t,e,r,i,l,s,u,o){var a,$;return a=t,$=o,a.map(t=>(function(t,e,r){let i=t.v;if(!i||"g"!==i.t||i.s||!i.v||!i.r)return t;let l=r.getElementById(i.r),s=l&&l.querySelectorAll("stop")||[];return i.s=i.v.map((t,e)=>{let r=s[e]&&s[e].getAttribute("offset");return r=n(parseInt(r)/100),{c:t,o:r}}),delete i.v,t})(t,0,$)),e=function(t,e,n){let r,i,l,s=t.length-1,u={};for(let o=0;o<=s;o++)(r=t[o]).e&&(r.e=e(r.e)),r.v&&"g"===(i=r.v).t&&i.r&&(l=n.getElementById(i.r))&&(u[i.r]={e:l,s:l.querySelectorAll("stop")});return u}(t,i,o),n=>{let i=r(n,t,tM);if(!i)return"none";if("c"===i.t)return t0(i.v);if("g"===i.t){if(!e[i.r])return tv(i.r);let l=e[i.r];return function(t,e){let n=t.s;for(let r=n.length;r<e.length;r++){let i=n[n.length-1].cloneNode();i.id=tI(i.id),t.e.appendChild(i),n=t.s=t.e.querySelectorAll("stop")}for(let l=0,s=n.length,u=e.length-1;l<s;l++)n[l].setAttribute("stop-color",t0(e[Math.min(l,u)].c)),n[l].setAttribute("offset",e[Math.min(l,u)].o)}(l,i.s),Object.keys(tT).forEach(t=>{var e;if(void 0===i[t])return;if("object"==typeof tT[t])return void Object.keys(tT[t]).forEach(e=>{if(void 0===i[t][e])return;let n=i[t][e],r=tT[t][e];l.e.setAttribute(r,n)});let n="gt"===t?Array.isArray(e=i[t])?"matrix("+e.join(" ")+")":"":i[t],r=tT[t];l.e.setAttribute(r,n)}),tv(i.r)}return"none"}}function tM(t,e,n){if(0===t)return e;if(1===t)return n;if(e&&n){let r=e.t;if(r===n.t)switch(e.t){case"c":return{t:r,v:H(t,e.v,n.v)};case"g":if(e.r===n.r){let i={t:r,s:tY(t,e.s,n.s),r:e.r};return e.gt&&n.gt&&(i.gt=J(t,e.gt,n.gt)),e.c?(i.c=W(t,e.c,n.c),i.rd=L(t,e.rd,n.rd)):e.f&&(i.f=W(t,e.f,n.f),i.to=W(t,e.to,n.to)),i}}if("c"===e.t&&"g"===n.t||"c"===n.t&&"g"===e.t){let l="c"===e.t?e:n,s="g"===e.t?{...e}:{...n},u=s.s.map(t=>({c:l.v,o:t.o}));return s.s="c"===e.t?tY(t,u,s.s):tY(t,s.s,u),s}}return P(t,e,n)}function tY(t,e,n){if(e.length===n.length)return e.map((e,r)=>tZ(t,e,n[r]));let r=Math.max(e.length,n.length),i=[];for(let l=0;l<r;l++){let s=tZ(t,e[Math.min(l,e.length-1)],n[Math.min(l,n.length-1)]);i.push(s)}return i}function tZ(t,e,n){return{o:Q(t,e.o,n.o||0),c:H(t,e.c,n.c||{})}}function tI(t){return t.replace(/-fill-([0-9]+)$/,(t,e)=>"-fill-"+(+e+1))}function tD(t,e,n){return 0===t?e:1===t?n:{blur:q(t,e.blur,n.blur),offset:W(t,e.offset,n.offset),color:H(t,e.color,n.color)}}let tB={blur:q,brightness:L,contrast:L,"drop-shadow":tD,"inner-shadow":tD,grayscale:L,"hue-rotate":R,invert:L,opacity:L,saturate:L,sepia:L};function tV(t,e,n){if(0===t)return e;if(1===t)return n;let r=e.length;if(r!==n.length)return P(t,e,n);let i=[],l;for(let s=0;s<r;s++){if(e[s].type!==n[s].type)return e;if(!(l=tB[e[s].type]))return P(t,e,n);i.push({type:e.type,value:l(t,e[s].value,n[s].value)})}return i}let tz={blur:t=>t?e=>{t.setAttribute("stdDeviation",tm(e))}:null,brightness:(t,e,n)=>(t=tG(n,e))?e=>{e=tp(e),t.map(t=>t.setAttribute("slope",e))}:null,contrast:(t,e,n)=>(t=tG(n,e))?e=>{let n=tp((1-e)/2);e=tp(e),t.map(t=>{t.setAttribute("slope",e),t.setAttribute("intercept",n)})}:null,"drop-shadow"(t,e,n){let r=n.getElementById(e+"-blur");if(!r)return null;let i=n.getElementById(e+"-offset");if(!i)return null;let l=n.getElementById(e+"-flood");return l?t=>{r.setAttribute("stdDeviation",tm(t.blur)),i.setAttribute("dx",tp(t.offset.x)),i.setAttribute("dy",tp(t.offset.y)),l.setAttribute("flood-color",t0(t.color))}:null},"inner-shadow"(t,e,n){let r=n.getElementById(e+"-blur");if(!r)return null;let i=n.getElementById(e+"-offset");if(!i)return null;let l=n.getElementById(e+"-color-matrix");return l?t=>{r.setAttribute("stdDeviation",tm(t.blur)),i.setAttribute("dx",tp(t.offset.x)),i.setAttribute("dy",tp(t.offset.y));let e=[0,0,0,0,t.color.r/255,0,0,0,0,t.color.g/255,0,0,0,0,t.color.b/255,0,0,0,t.color.a,0,];l.setAttribute("values",tg(e))}:null},grayscale:t=>t?e=>{var n;t.setAttribute("values",tg([.2126+.7874*(n=1-(n=e)),.7152-.7152*n,.0722-.0722*n,0,0,.2126-.2126*n,.7152+.2848*n,.0722-.0722*n,0,0,.2126-.2126*n,.7152-.7152*n,.0722+.9278*n,0,0,0,0,0,1,0,]))}:null,"hue-rotate":t=>t?e=>t.setAttribute("values",tp(e)):null,invert:(t,e,n)=>(t=tG(n,e))?e=>{e=tp(e)+" "+tp(1-e),t.map(t=>t.setAttribute("tableValues",e))}:null,opacity:(t,e,n)=>(t=n.getElementById(e+"-A"))?e=>t.setAttribute("tableValues","0 "+tp(e)):null,saturate:t=>t?e=>t.setAttribute("values",tp(e)):null,sepia:t=>t?e=>{var n;return t.setAttribute("values",tg([.393+.607*(n=1-(n=e)),.769-.769*n,.189-.189*n,0,0,.349-.349*n,.686+.314*n,.168-.168*n,0,0,.272-.272*n,.534-.534*n,.131+.869*n,0,0,0,0,0,1,0,]))}:null},tF=["R","G","B"];function tG(t,e){let n=tF.map(n=>t.getElementById(e+"-"+n)||null);return -1!==n.indexOf(null)?null:n}var tC={fill:tN,"fill-opacity":tE,stroke:tN,"stroke-opacity":tE,"stroke-width":t6,"stroke-dashoffset":{f:tp,i:R},"stroke-dasharray":{f:function(t,e=" "){return t&&t.length>0&&(t=t.map(t=>n(t,4))),tg(t,e)},i:function(t,e,r){let i=e.length,l=r.length;if(i!==l){if(0===i)e=K(i=l,0);else if(0===l)l=i,r=K(i,0);else{let s=function(t,e){let n=t*e/function(t,e){let n;for(;e;)n=e,e=t%e,t=n;return t||1}(t,e);return n<0?-n:n}(i,l);e=X(e,Math.floor(s/i)),r=X(r,Math.floor(s/l)),i=l=s}}let u=[];for(let o=0;o<i;o++)u.push(n(L(t,e[o],r[o])));return u}},opacity:tE,transform:function(t,e,n,r){if(!(t=function(t,e){if(!t||"object"!=typeof t)return null;let n=!1;for(let r in t)t.hasOwnProperty(r)&&(t[r]&&t[r].length?(t[r].forEach(t=>{t.e&&(t.e=e(t.e))}),n=!0):delete t[r]);return n?t:null}(t,r)))return null;let i=(r,i,l,s=null)=>t[r]?n(i,t[r],l):e&&e[r]?e[r]:s;return e&&e.a&&t.o?e=>{let r=n(e,t.o,tw);return tO.recomposeSelf(r,i("r",e,R,0)+r.a,i("k",e,W),i("s",e,W),i("t",e,W)).toString()}:t=>tO.recomposeSelf(i("o",t,t8,null),i("r",t,R,0),i("k",t,W),i("s",t,W),i("t",t,W)).toString()},"#filter":function(t,e,n,r,i,l,s,u){var o,a;if(!e.items||!t||!t.length)return null;let $=function(t,e){let n=(t=t.map(t=>t&&tz[t[0]]?(e.getElementById(t[1]),tz[t[0]](e.getElementById(t[1]),t[1],e)):null)).length;return e=>{for(let r=0;r<n;r++)t[r]&&t[r](e[r].value)}}(e.items,u);return $?(t=(o=t,a=r,o.map(t=>(t.e=a(t.e),t))),e=>{$(n(e,t,tV))}):null},"#line":{f:null,i:J,u:(t,e)=>n=>{let r=e(n);t.setAttribute("x1",tp(r[0])),t.setAttribute("y1",tp(r[1])),t.setAttribute("x2",tp(r[2])),t.setAttribute("y2",tp(r[3]))}},points:{f:tg,i:J},d:{f:function(t){return t?t.join(" "):""},i:function(t,e,n){if(0===t)return e;if(1===t)return n;let r=e.length;if(r!==n.length)return P(t,e,n);let i,l=Array(r);for(let s=0;s<r;s++){if((i=typeof e[s])!=typeof n[s])return P(t,e,n);if("number"===i)l[s]=R(t,e[s],n[s]);else{if(e[s]!==n[s])return P(t,e,n);l[s]=e[s]}}return l}},r:t6,"#size":{f:null,i:function(t,e,n){return 0===t?e:1===t?n:{width:L(t,e.width,n.width),height:L(t,e.height,n.height)}},u:(t,e)=>n=>{let r=e(n);t.setAttribute("width",tp(r.width)),t.setAttribute("height",tp(r.height))}},"#radius":{f:null,i:q,u:(t,e)=>n=>{let r=e(n);t.setAttribute("rx",tp(r.x)),t.setAttribute("ry",tp(r.y))}},_(t,e){if(Array.isArray(t))for(let n=0;n<t.length;n++)this[t[n]]=e;else this[t]=e}};class tP{constructor(t,e,n){let r=function(t){var e,n;let r=t&&1===(null===(e=t.ownerDocument)||void 0===e||null===(n=e.childNodes)||void 0===n?void 0:n.length)&&window.parent!==window,i={el:t,window:window};if(!r)return i;let l;try{l=window.parent.document}catch(s){return i}return i.window=window.parent,i.el=Array.from(l.querySelectorAll("iframe,object")).filter(t=>t.contentWindow===window)[0]||i.el,i}(t);e=Math.min(e=Math.max(1,e||1),100),this.el=r.el,this._handlers=[],this.onThresholdChange=n&&n.call?n:()=>{},this.thresholdPercent=e||1,this.currentVisibility=null,this.visibilityCalculator=function(t,e,n=n){let r=!1,i=null;return function(l){r&&clearTimeout(r),r=setTimeout(()=>(function(){let l=0,s=n.innerHeight,u=0,o=n.innerWidth,a=t.parentNode;for(;a instanceof Element;){let $=n.getComputedStyle(a);if("visible"!==$.overflowY||"visible"!==$.overflowX){let f=a.getBoundingClientRect();"visible"!==$.overflowY&&(l=Math.max(l,f.top),s=Math.min(s,f.bottom)),"visible"!==$.overflowX&&(u=Math.max(u,f.left),o=Math.min(o,f.right))}if(a===a.parentNode)break;a=a.parentNode}r=!1;let c=t.getBoundingClientRect(),h=Math.min(c.height,Math.max(0,l-c.top)),_=Math.min(c.height,Math.max(0,c.bottom-s)),d=Math.min(c.width,Math.max(0,u-c.left)),y=Math.min(c.width,Math.max(0,c.right-o)),p,g=Math.round((c.height-h-_)/c.height*((c.width-d-y)/c.width)*100);null!==i&&i===g||(i=g,e(g))})(),100)}}(this.el,this.onVisibilityUpdate.bind(this),r.window),this.bindScrollWatchers(),this.visibilityCalculator()}bindScrollWatchers(){let t=this.el.parentNode;for(;t&&(this._handlers.push({element:t,event:"scroll",handler:this.visibilityCalculator}),t.addEventListener("scroll",this.visibilityCalculator),t!==t.parentNode&&t!==document);)t=t.parentNode}onVisibilityUpdate(t){let e=this.currentVisibility>=this.thresholdPercent,n=t>=this.thresholdPercent;if(null===this.currentVisibility||e!==n)return this.currentVisibility=t,void this.onThresholdChange(n);this.currentVisibility=t}destruct(){this._handlers.forEach(t=>{t.element.removeEventListener(t.event,t.handler)})}}class tR{static adjustLink(t){var e,n;let r=t&&1===(null===(e=t.ownerDocument)||void 0===e||null===(n=e.childNodes)||void 0===n?void 0:n.length)&&window.parent!==window,i=null==t?void 0:t.firstElementChild;r&&i&&"a"===i.tagName&&!i.getAttribute("target")&&i.setAttributeNS(null,"target","_parent")}static autoPlay(t,e,n,r=[]){if("click"===n.start){let i=()=>{switch(n.click){case"freeze":return!t._running&&t.reachedToEnd()?t.restart():t.toggle();case"restart":return t.offset>0?t.restart():t.play();case"reverse":return t._running?t.reverse():t.reachedToEnd()?1===t.fill?t.reverse(!0):t.restart():t.play();default:if(t._running)return;return t.reachedToEnd()?t.restart():t.play()}};return r.push({element:e,event:"click",handler:i}),void e.addEventListener("click",i)}if("hover"===n.start){let l=()=>t.reachedToEnd()?t.restart():t._rollingBack?t.reverse():t.play();r.push({element:e,event:"mouseenter",handler:l}),e.addEventListener("mouseenter",l);let s=()=>{switch(n.hover){case"freeze":return t.pause();case"reset":return t.stop();case"reverse":if(t.reverse(),t._running)return;return t.play();default:return}};return r.push({element:e,event:"mouseleave",handler:s}),void e.addEventListener("mouseleave",s)}if("scroll"!==n.start)"programmatic"!==n.start&&t.play();else{let u=new tP(e,n.scroll||25,function(e){e?t.reachedToEnd()?t.restart():t.play():t.pause()});r.push({callback:()=>u.destruct()})}}}class tL extends class{_svg;_rootId;constructor(t){this._id=0,this._running=!1,this._rollingBack=!1,this._animations=t.animations,this._settings=t.animationSettings,t.version<"2022-05-02"&&delete this._settings.speed,ty.forEach(t=>{this._settings[t.key]=this._settings[t.key]||t.def}),this.duration=t.animationSettings.duration,this.offset=t.animationSettings.offset||0,this.rollbackStartOffset=0,this._rootId=t.root,this._svg=t.svg,this._originalAnimations=t.originalAnimations,this._fTC=new O(this)}get svg(){return this._svg}get rootId(){return this._rootId}get alternate(){return this._settings.alternate}get fill(){return this._settings.fill}get iterations(){return this._settings.iterations}get direction(){return this._settings.direction}get speed(){return this._settings.speed}get fps(){return this._settings.fps}get wD(){return this._settings.w}get originalAnimations(){return this._originalAnimations}get maxFiniteDuration(){return this.iterations>0?this.iterations*this.duration:this.duration}static build(t,e){if(delete t.animationSettings,t.options=td(t.options,t.root,"5c7f360c"),t.animations.map(e=>{e.settings=td(e.s,t.root,"5c7f360c"),delete e.s,t.animationSettings||(t.animationSettings=e.settings)}),Object.assign(t,{originalAnimations:t.animations},function(t,e){if(tr=e,!t||!t.root||!Array.isArray(t.animations))return null;let n=tc(t);if(!n)return null;let r=t.animations.map(t=>tf(n,t)).filter(t=>!!t);return r.length?{svg:n,animations:r}:null}(t,e)),!t)return null;let n=t.options||{},r=new this(t);return{el:t.svg,options:n,player:r}}static push(t){return this.build(t)}static init(){let t=window.__SVGATOR_PLAYER__&&window.__SVGATOR_PLAYER__["5c7f360c"];Array.isArray(t)&&t.splice(0).forEach(t=>this.build(t))}_apply(t,e={}){let n=this._animations,r=n.length,i=0;for(let l=0;l<r;l++)e[l]?i++:(e[l]=n[l](t,1),e[l]&&i++);return i}_rollback(t){let e=1/0,n=null;this.rollbackStartOffset=t,this._rollingBack=!0,this._running=!0;let r=i=>{if(!this._rollingBack)return;null==n&&(n=i);let l=Math.round(t-(i-n)*this.speed);if(l>this.duration&&e!==1/0){let s=!!this.alternate&&l/this.duration%2>1,u=l%this.duration;u+=s?this.duration:0,l=u||this.duration}let o=(this.fps?1e3/this.fps:0)*this.speed,a=Math.max(0,l);a<=e-o&&(this.offset=a,e=a,this._apply(a));let $=this.iterations>0&&-1===this.fill&&l>=this.maxFiniteDuration;(l<=0||this.offset<l||$)&&this.stop(),this._id=window.requestAnimationFrame(r)};this._id=window.requestAnimationFrame(r)}_start(t=0){let e,n=-1/0,r={};this._running=!0;let i=l=>{e??=l;let s=Math.round((l-e)*this.speed+t),u=(this.fps?1e3/this.fps:0)*this.speed;s>=n+u&&!this._rollingBack&&this._fTC.cF(l,()=>{if(this.offset=s,n=s,this._apply(s,r)===this._animations.length)return this.pause(!0),!0}),this._id=window.requestAnimationFrame(i)};this._id=window.requestAnimationFrame(i)}_pause(){}play(){if(!this._running)return this._rollingBack?this._rollback(this.offset):this._start(this.offset)}stop(){}reachedToEnd(){return this.iterations>0&&this.offset>=this.iterations*this.duration}restart(t=!1){this.stop(t),this.play(t)}pause(){this._pause()}toggle(){return this._running?this.pause():this.reachedToEnd()?this.restart():this.play()}trigger(t,e){}_adjustOffset(t=!1){let e=this.alternate?2*this.duration:this.duration;if(t){if(!this._rollingBack&&0===this.offset)return void(this.offset=e);this._rollingBack&&(this.offset,this.maxFiniteDuration)}!this._rollingBack||this.rollbackStartOffset<=this.duration?0!==this.iterations&&(this.offset=Math.min(this.offset,this.maxFiniteDuration)):(this.offset=this.rollbackStartOffset-(this.rollbackStartOffset-this.offset)%e,this.rollbackStartOffset=0)}reverse(t=!1){if(!this._running)return this._adjustOffset(t),this._rollingBack=!this._rollingBack,t&&this.play(!1),void this.trigger("reverse",this.offset);this.pause(!1,!1),this._adjustOffset(),this._rollingBack=!this._rollingBack,this.play(!1),this.trigger("reverse",this.offset)}}{static build(t){let e=super.build(t,tC);if(!e)return null;let{el:n,options:r,player:i}=e;tR.adjustLink(n),tR.autoPlay(i,n,r)}}return tL.init(),tL}),function(t,e,n,r,i,l,s){r[n]=r[n]||{},r[n][t]=r[n][t]||[],r[n][t].push(e)}("5c7f360c",{root:"efkSOvt48Qw1",version:"2025-03-25",animations:[{elements:{efkSOvt48Qw3:{transform:{data:{a:1,r:-179.930818,t:{x:-13.997941,y:-14.00001}},keys:{o:[{t:0,v:{x:62.609214,y:361.300404,type:"cusp",a:179.79086636034816}},{t:300,v:{x:26.109808,y:361.43363,type:"cusp"}},{t:600,v:{x:11.652641,y:344.048429,type:"cusp",start:{x:12.201647,y:355.760565},end:{x:11.103635,y:332.336293}}},{t:2900,v:{x:11.3953,y:27.981673,type:"cusp"}},{t:3200,v:{x:28.7436,y:13.703867,type:"cusp",start:{x:17.53629,y:14.010917},end:{x:39.95091,y:13.396817}}},{t:5200,v:{x:271.597329,y:13.635099,type:"cusp"}},{t:5400,v:{x:286.457161,y:31.345493,type:"cusp",start:{x:286.214353,y:20.297741},end:{x:286.699969,y:42.393245}}},{t:6e3,v:{x:286.561091,y:84.339789,type:"cusp"}},{t:6400,v:{x:286.457161,y:31.345493,type:"cusp",end:{x:286.506372,y:23.775325}}},{t:6800,v:{x:271.597329,y:13.635099,type:"cusp",start:{x:278.448675,y:15.651415}}},{t:9400,v:{x:28.7436,y:13.703867,type:"cusp",start:{x:53.561777,y:13.59853},end:{x:19.718628,y:13.082932}}},{t:9600,v:{x:11.3953,y:27.981673,type:"cusp",start:{x:13.891924,y:21.835387}}},{t:12200,v:{x:11.652641,y:344.048429,type:"cusp",start:{x:11.652641,y:331.90362},end:{x:12.35368,y:352.009384}}},{t:12600,v:{x:26.109808,y:361.43363,type:"cusp",start:{x:19.736385,y:360.500439}}},{t:13e3,v:{x:62.609214,y:361.300404,type:"cusp",a:-.2091336396518285}},]}}},efkSOvt48Qw13:{transform:{data:{o:{x:135.33781,y:207.03926,type:"corner"},t:{x:-135.33781,y:-207.03926}},keys:{r:[{t:0,v:720,e:[.415,.08,.115,.955]},{t:7700,v:0,e:[1,0]},{t:1e4,v:720,e:[.415,.08,.115,.955]},{t:17700,v:0,e:[1,0]},]}},fill:[{t:0,v:{t:"c",v:{r:210,g:219,b:237,a:1}}},{t:7700,v:{t:"c",v:{r:210,g:219,b:236,a:1}}},{t:1e4,v:{t:"c",v:{r:210,g:219,b:237,a:1}}},{t:17700,v:{t:"c",v:{r:210,g:219,b:236,a:1}}},]},efkSOvt48Qw14:{transform:{data:{o:{x:11.12,y:29.9,type:"corner"},s:{x:.3,y:.3},t:{x:-95.902813,y:-108.465}},keys:{r:[{t:0,v:-720,e:[.415,.08,.115,.955]},{t:7700,v:0,e:[1,0]},{t:1e4,v:-720,e:[.415,.08,.115,.955]},{t:17700,v:0,e:[1,0]},]}}}},s:"MRDBjY2Q4N2ZjMWQyY2TZiZWQxYzZjY2NiN2YG5N0o4ZTkwOGQ4ZDhkCODk3ZmMxYzZjZmMyYWzBkMWM2Y2NSY2I3ZjSk3OGU4OTdmYzZkMWMIyVGNmYmVkMWM2RmNjXY2JkMDdmOTc4ZDg5NO2ZjM2M2YzljOTdmOTKc4ZVU4OTdmYmVjOWQFxYzJjZmNiYmVEZDFjHMjdmOTdFYzNiZWM5ZWDBjMjg5N2ZkMGNkYzVJjMmMxN2Y5NzhlUDgE5N2ZjM2NkZDA3Zjk3AUDhlOGQ4ZFA4OTdmZIDQ3Zjk3Yjg3ZjhmOGWVjMVFjMDkxYmU5MGMTwSzk1OTI4ZTk2QzhlKYmVjMWMzYmU5NjkzOCGU5M0Q5NTkxYzM5MjEk0OGY5MDhmOTM5NDkP1OGZjMTkwOTVjMjkwPYzE5NDkxYzBDYzI4ZCmMwQzhmYzFjMThkOGQViZUo4ZjhlYzBjMzkJ0OTRjMlVjMGMzOTBjYMDk2YmY3Zjg5N2Y5NEDdmODk3Zjk1N2Y4OTIdmVTk2N2Y4OVQ3ZjhRlOGQ3Zjg5N2ZPOGU4BZTdmODk3ZjhlOGY3ZCjg5N2Y4ZTkwN2Y4OTQdmOGU5MTdmYmFkYQ|T"},],options:"MGDAxMDg4SzJmODA4MTKZlN2ZOODEyZjQ3MmYG3OTdjNmU3MTJmOGE/R"},"__SVGATOR_PLAYER__",window,document);
  ]]>
  </script>

</svg>
