<svg width="40" height="44" viewBox="0 0 40 44" fill="none" xmlns="http://www.w3.org/2000/svg">
<path d="M18.0289 1.64642C18.256 1.52369 18.553 1.27823 18.6928 1.12044C18.9199 0.857456 19.2867 0.804858 21.4006 0.822391C23.4795 0.822391 23.8813 0.857456 24.1084 1.12044C24.2482 1.27823 24.5452 1.52369 24.7723 1.64642C24.9819 1.75161 25.3488 1.85681 25.5934 1.85681C25.8379 1.85681 26.0301 1.94447 26.0301 2.03213C26.0301 2.13733 26.1524 2.20746 26.2922 2.20746C26.4319 2.20746 26.7639 2.38278 27.0259 2.6107C27.2705 2.82109 27.7946 3.312 28.1614 3.69772C28.5283 4.08343 29.0873 4.90746 29.4018 5.53862C29.7337 6.16979 30.153 7.23927 30.3626 7.90551C30.5548 8.57174 30.7994 9.50096 30.9042 9.97434C31.009 10.4302 31.0964 11.1315 31.0964 11.5523C31.0964 11.9555 31.1837 12.4114 31.2711 12.5516C31.3759 12.7269 31.8651 12.8497 32.7036 12.9373C33.4723 13.0075 34.0313 13.1477 34.1012 13.288C34.1711 13.4107 34.241 14.2347 34.241 15.0938C34.241 16.1107 34.1711 16.7594 34.0313 16.8997C33.8741 17.0575 31.0789 17.1101 8.82229 17.1276L8.61265 16.6717C8.49036 16.4263 8.38554 15.725 8.38554 15.0938C8.38554 14.4627 8.47289 13.7789 8.56024 13.5685C8.66506 13.3406 8.92711 13.0601 9.17169 12.9549C9.41626 12.8321 10.0452 12.7269 11.5301 12.7269V12.0256C11.5301 11.6399 11.6175 10.9562 11.7223 10.5003C11.8271 10.0269 12.0542 9.09772 12.2289 8.43148C12.4036 7.76525 12.8578 6.57304 13.2247 5.81914C13.6265 4.97759 14.238 4.0659 14.762 3.52239C15.2337 3.01395 15.9675 2.43538 16.3693 2.22499C16.7886 2.03213 17.2428 1.85681 17.3825 1.85681C17.5223 1.85681 17.8193 1.75161 18.0289 1.64642Z" fill="white"/>
<path d="M10.1325 18.5127C10.1325 18.4075 10.2373 18.2146 10.3422 18.0743C10.5169 17.8815 11.0584 17.8289 12.788 17.8114C14.5524 17.8114 15.0765 17.864 15.2861 18.0743C15.4783 18.2672 15.5482 18.7581 15.5482 20.0029C15.5482 21.1075 15.6181 21.7386 15.7578 21.8964C15.8801 22.0016 16.212 22.1945 16.509 22.2997C17.0157 22.4925 17.0855 22.4399 18.3434 21.2127C19.0596 20.4938 19.7584 19.9152 19.8633 19.9152C19.9855 19.9152 20.3 20.0906 20.562 20.3185C20.8066 20.5289 21.5928 21.2828 22.309 21.9841C23.1126 22.7906 23.5843 23.3867 23.5843 23.6497C23.6018 23.8951 23.2 24.4562 22.4488 25.2276C21.5578 26.1393 21.3133 26.525 21.3133 26.9282C21.3133 27.2263 21.3831 27.4542 21.488 27.4542C21.5753 27.4542 21.6626 27.5769 21.6626 27.7172C21.6626 27.9276 21.9771 27.9802 23.4096 27.9802C24.7373 27.9802 25.2265 28.0503 25.4187 28.2432C25.6283 28.4536 25.6807 28.9971 25.6807 30.9256C25.6633 32.9945 25.6283 33.3626 25.3663 33.538C25.1916 33.6782 24.4404 33.7484 23.4446 33.7659C22.2217 33.7659 21.75 33.836 21.5578 34.0289C21.4181 34.1691 21.3133 34.4847 21.3133 34.7302C21.3133 35.0282 21.6626 35.5367 22.4488 36.3607C23.0777 37.0094 23.6018 37.6756 23.5843 37.851C23.5843 38.0088 22.7982 38.938 21.8373 39.9023C20.8765 40.8665 19.9681 41.6555 19.8283 41.6555C19.6886 41.6555 19.0072 41.112 18.3434 40.4282C17.6271 39.7094 16.9807 39.201 16.7711 39.201C16.5614 39.201 16.212 39.3938 15.9849 39.6393C15.5831 40.0425 15.5482 40.2003 15.5482 43.5841H12.8404C10.5518 43.5841 10.1325 43.549 10.1325 43.3211C10.1325 43.1808 10.0452 43.0581 9.95783 43.0581C9.85301 43.0581 9.78313 42.3743 9.78313 41.3575C9.76566 39.9373 9.71325 39.6042 9.46867 39.4289C9.31145 39.3062 9.03193 39.201 8.85723 39.201C8.7 39.201 8.0012 39.7445 7.33735 40.4282C6.65602 41.112 5.99217 41.6555 5.85241 41.6555C5.71265 41.6555 4.80422 40.8665 3.84337 39.9023C2.88253 38.938 2.09639 38.0088 2.09639 37.851C2.09639 37.6756 2.60301 37.0269 3.23193 36.3958C4.07048 35.5542 4.36747 35.1334 4.36747 34.7828C4.36747 34.5023 4.24518 34.1691 4.10542 34.0289C3.91325 33.836 3.4241 33.7659 2.18373 33.7659C0.943373 33.7659 0.454217 33.6958 0.262048 33.5029C0.0524096 33.2925 0 32.749 0 30.873C0 29.0672 0.0524096 28.436 0.244578 28.2432C0.436747 28.0503 0.908434 27.9802 2.18373 27.9802C3.45904 27.9802 3.93072 27.9101 4.12289 27.7172C4.26265 27.5769 4.36747 27.2263 4.36747 26.9282C4.36747 26.525 4.14036 26.1568 3.38916 25.4029C2.84759 24.8419 2.34096 24.2458 2.25361 24.088C2.16626 23.9127 2.09639 23.6672 2.09639 23.562C2.07892 23.4393 2.67289 22.738 3.37169 22.0191C4.08795 21.3003 4.89157 20.5289 5.13614 20.3185C5.38072 20.0906 5.69518 19.9152 5.8 19.9152C5.92229 19.8977 6.53373 20.4237 7.16265 21.0373C8.21084 22.0893 8.3506 22.1945 9.78313 22.1945V20.4412C9.78313 19.3893 9.85301 18.688 9.95783 18.688C10.0452 18.688 10.1325 18.6178 10.1325 18.5127Z" fill="white"/>
<path d="M30.5723 19.0036C30.5723 18.7756 30.712 18.425 30.8693 18.2146C31.1488 17.8639 31.341 17.8114 32.756 17.8114C34.0313 17.7938 34.3807 17.8464 34.5904 18.0919C34.7301 18.2672 34.8873 18.6704 35.0271 19.5997L35.4988 19.2315C35.7783 19.0211 36.1452 18.8633 36.3373 18.8633C36.547 18.8633 37.1759 19.3542 37.8223 20.0555C38.4687 20.7217 38.9753 21.388 38.9753 21.5808C38.9753 21.7737 38.8006 22.1068 38.6084 22.3347C38.4163 22.5451 38.259 22.7555 38.259 22.8081C38.259 22.8607 38.556 22.8958 38.9054 22.8958C39.447 22.8782 39.6042 22.9659 39.7789 23.3341C39.9012 23.5795 40.006 24.386 40.006 25.1399C40.006 26.0516 39.9187 26.6126 39.744 26.8932C39.5518 27.1737 39.3072 27.2789 38.8705 27.2789C38.5386 27.2789 38.259 27.3139 38.259 27.3665C38.259 27.4191 38.4163 27.6295 38.6084 27.8575C38.8006 28.0678 38.9578 28.3834 38.9578 28.5588C38.9578 28.7165 38.7482 29.1023 38.4687 29.4178C38.2066 29.7159 37.6825 30.2769 37.2982 30.6451C36.9139 31.0133 36.4596 31.3289 36.2849 31.3114C36.1277 31.3114 35.7783 31.1536 35.0271 30.575L34.9048 31.2588C34.8524 31.6269 34.6602 32.0302 34.4681 32.1529C34.2759 32.2756 33.5946 32.3633 32.756 32.3633C31.603 32.3633 31.2886 32.3107 30.9566 32.0126C30.747 31.8198 30.5723 31.4691 30.5723 31.2237C30.5723 30.9782 30.5199 30.7503 30.4325 30.6977C30.3626 30.6627 30.153 30.7678 29.9608 30.9782C29.7687 31.1711 29.4367 31.3289 29.2096 31.3114C28.9825 31.3114 28.4235 30.9081 27.7771 30.2594C27.0434 29.523 26.7114 29.0497 26.6765 28.699C26.659 28.3484 26.7639 28.0678 27.0259 27.8224C27.3578 27.5243 27.3753 27.4367 27.1657 27.3665C27.0259 27.3139 26.7464 27.2789 26.5542 27.2789C26.362 27.2789 26.0825 27.1562 25.9428 27.0159C25.7506 26.823 25.6807 26.3321 25.6807 25.0873C25.6807 23.8776 25.7506 23.3516 25.9253 23.1588C26.0651 23.0185 26.4669 22.8958 26.7988 22.8958C27.1482 22.8958 27.4277 22.8607 27.4277 22.8081C27.4277 22.7555 27.1831 22.4925 26.9036 22.1945C26.6066 21.9139 26.3795 21.5984 26.3795 21.4932C26.3795 21.4055 26.4494 21.3178 26.5542 21.3178C26.6416 21.3178 26.7289 21.2477 26.7289 21.1425C26.7289 21.0549 27.2181 20.4938 27.812 19.9152C28.4235 19.3367 29.0524 18.8633 29.2096 18.8633C29.3843 18.8633 29.6988 19.0211 29.9084 19.2139C30.1355 19.4068 30.3626 19.512 30.4325 19.4769C30.5199 19.4243 30.5723 19.2139 30.5723 19.0036Z" fill="white"/>
<path d="M19.916 9.39534V5.80119V2.20703H22.7112L22.7986 9.30768H24.1961L24.2835 3.25898H24.7726C25.0347 3.25898 25.5588 3.45184 25.9431 3.71482C26.3275 3.97781 26.904 4.46872 27.2184 4.81937C27.5329 5.17002 27.7775 5.50314 27.7775 5.57327C27.7775 5.66093 27.8823 5.81872 28.0046 5.92391C28.1269 6.04664 28.4763 6.9408 28.7907 7.90508C29.1052 8.86937 29.4546 10.307 29.5769 11.096C29.6817 11.885 29.7166 12.5863 29.6467 12.6739C29.5594 12.744 26.9214 12.8142 23.7943 12.8142C20.5275 12.8142 17.8371 12.8843 17.5052 12.9895C17.0684 13.1298 16.9287 13.27 16.9287 13.6031C16.9287 13.8486 17.0335 14.1291 17.1558 14.2518C17.3305 14.4096 19.322 14.4798 24.9648 14.5148C31.7955 14.5674 32.5642 14.6025 32.7389 14.8655C32.8787 15.0759 32.8612 15.2161 32.669 15.444C32.4245 15.6895 31.3588 15.7246 10.1329 15.707V14.4798H15.5486V12.9018H14.5528C13.9937 12.9018 13.4172 12.8142 13.2775 12.7265C13.0504 12.5863 13.0504 12.3583 13.2251 10.9382C13.3473 10.044 13.6269 8.74664 13.8714 8.08041C14.0986 7.41417 14.4305 6.55508 14.6052 6.1869C14.7973 5.83625 14.9895 5.5382 15.0769 5.5382C15.1467 5.5382 15.1992 5.41547 15.1992 5.27521C15.1992 5.13495 15.269 5.01223 15.3739 5.01223C15.4787 5.01223 15.5486 4.90703 15.5486 4.7843C15.5486 4.67911 16.0028 4.27586 16.5443 3.90768C17.1208 3.5395 17.7672 3.25898 18.5184 3.25898L18.6058 9.30768L19.916 9.39534Z" fill="#696969"/>
<path d="M11.4955 21.1772C11.4781 20.3181 11.5305 19.5642 11.6178 19.5116C11.7052 19.4414 12.2992 19.3888 14.151 19.3888V21.0544C14.151 22.2992 14.2208 22.7901 14.413 22.983C14.5528 23.1233 14.8323 23.246 15.0245 23.246C15.2166 23.246 15.4088 23.3161 15.4612 23.4213C15.5136 23.5265 15.7058 23.5966 15.898 23.5966C16.0901 23.5966 16.2648 23.6843 16.2998 23.7895C16.3172 23.8947 16.6142 23.9824 16.9636 23.9999C17.5052 24.035 17.7148 23.9122 18.6582 22.9304C19.2522 22.3343 19.8112 21.8434 19.916 21.8434C20.0208 21.8434 20.4401 22.194 20.8769 22.6324C21.3136 23.0707 21.663 23.544 21.663 23.6843C21.663 23.8246 21.1913 24.4207 20.6148 24.9992C19.7413 25.8759 19.5666 26.1564 19.5666 26.6648C19.5666 26.9979 19.6365 27.2785 19.7413 27.2785C19.8461 27.2785 19.916 27.4363 19.916 27.6291C19.916 27.822 19.9859 27.9798 20.0907 27.9798C20.1955 27.9798 20.2654 28.1726 20.2654 28.4181C20.2654 28.6635 20.3877 28.9791 20.5275 29.1194C20.7196 29.3122 21.2088 29.3824 22.4492 29.3824C23.7769 29.3824 24.1263 29.435 24.1961 29.6453C24.2486 29.7856 24.2835 30.3291 24.2835 30.82C24.2835 31.3285 24.1961 31.8544 24.0739 31.9596C23.9341 32.1174 23.3576 32.1876 22.4492 32.1876C21.3486 32.17 20.9817 32.2401 20.7022 32.4856C20.51 32.6609 20.2479 33.0817 20.1257 33.4148C19.9859 33.7479 19.8636 34.1337 19.8636 34.2388C19.8461 34.3616 19.7763 34.4668 19.7064 34.4668C19.619 34.4668 19.5666 34.7298 19.5666 35.0278C19.5666 35.5187 19.7413 35.7642 20.5973 36.5707C21.1739 37.0966 21.6455 37.6401 21.663 37.7453C21.663 37.8681 21.3136 38.3239 20.8769 38.7622C20.4576 39.2005 20.0034 39.5512 19.8811 39.5512C19.7588 39.5512 19.1823 39.0778 18.6058 38.4992C17.9419 37.833 17.4178 37.4473 17.1733 37.4473C16.9461 37.4473 16.457 37.6051 16.0726 37.7979C15.6883 37.9908 15.304 38.1486 15.1992 38.1486C15.0943 38.1486 14.8323 38.3239 14.5877 38.5343C14.1684 38.92 14.151 39.0427 14.151 42.1811H11.5305V40.5505C11.5305 39.1129 11.4781 38.885 11.1287 38.5343C10.919 38.3239 10.6395 38.1486 10.5347 38.1486C10.4124 38.1486 9.99313 37.9908 9.60879 37.7979C9.22446 37.6051 8.7353 37.4473 8.52566 37.4473C8.26361 37.4473 7.75699 37.833 7.12807 38.4992C6.56903 39.0778 5.99253 39.5512 5.85277 39.5512C5.71301 39.5512 5.24132 39.2005 4.80458 38.7622C4.36783 38.3239 4.01843 37.9031 4.01843 37.7979C4.01843 37.6927 4.49012 37.1668 5.06662 36.6057C5.87024 35.8518 6.13229 35.4837 6.11482 35.1155C6.11482 34.8525 5.95759 34.3265 5.76542 33.9408C5.57325 33.5551 5.41602 33.1343 5.41602 33.0116C5.43349 32.9064 5.29373 32.6785 5.1365 32.5382C4.94434 32.3629 4.31542 32.2401 1.66 32.0999L1.57265 30.9077C1.52024 30.259 1.50277 29.6453 1.53771 29.5577C1.55518 29.4525 2.28891 29.3824 3.24976 29.3824C4.50759 29.3824 4.97928 29.3122 5.17144 29.1194C5.3112 28.9791 5.41602 28.6986 5.41602 28.5057C5.41602 28.3129 5.50337 28.12 5.59072 28.0674C5.69554 28.0148 5.76542 27.822 5.76542 27.6291C5.76542 27.4363 5.85277 27.2609 5.95759 27.2259C6.04494 27.2083 6.14976 26.9453 6.16723 26.6298C6.20217 26.1914 6.06241 25.946 5.46843 25.3674C5.04915 24.9642 4.71723 24.596 4.71723 24.5083C4.71723 24.4382 4.56 24.2629 4.36783 24.1226C4.17566 23.9824 4.01843 23.7544 4.01843 23.6317C4.01843 23.5265 4.3853 23.0707 4.85699 22.6324C5.3112 22.194 5.73048 21.8434 5.81783 21.8434C5.88771 21.8434 6.42928 22.3343 7.02325 22.9304C7.96662 23.9122 8.17626 24.035 8.71783 23.9999C9.06723 23.9824 9.36422 23.8947 9.39916 23.7895C9.41663 23.6843 9.62626 23.5966 9.87084 23.5966C10.1154 23.5966 10.3425 23.5265 10.3949 23.4213C10.4473 23.3161 10.6046 23.246 10.7618 23.246C10.9016 23.246 11.1461 23.1233 11.2859 22.983C11.4606 22.7901 11.5305 22.2992 11.4955 21.1772Z" fill="#696969"/>
<path d="M31.8305 21.6155C32.0576 21.4577 32.1275 21.1421 32.1449 20.3882C32.1449 19.3888 32.1449 19.3888 32.669 19.3888C32.966 19.3888 33.2455 19.494 33.3154 19.5992C33.3853 19.722 33.4202 20.1077 33.3853 20.4408C33.3678 20.8265 33.4727 21.1947 33.6648 21.4401C33.857 21.6856 34.1889 21.8259 34.5034 21.8434C34.8702 21.8434 35.1847 21.6856 35.5516 21.3174C35.8311 21.0194 36.1455 20.7914 36.2504 20.7739C36.3552 20.7739 36.5998 20.9492 37.2112 21.4927L36.6522 22.1414C36.3377 22.5096 36.0233 22.8252 35.9534 22.8427C35.866 22.8778 35.8136 23.0181 35.8136 23.1583C35.8136 23.2986 35.9184 23.6142 36.0407 23.8596C36.2329 24.2629 36.3552 24.3155 38.2594 24.2979V25.6129L37.351 25.7356C36.6871 25.8233 36.3377 25.9811 36.1106 26.2616C35.9359 26.4895 35.7961 26.77 35.8136 26.8752C35.8136 26.9979 36.0931 27.3837 36.4251 27.7168C36.757 28.0499 37.0365 28.383 37.0365 28.4531C37.0365 28.5408 36.9142 28.7687 36.7745 28.9791C36.6347 29.207 36.3901 29.3824 36.2504 29.3824C36.1106 29.3824 35.7961 29.1544 35.5516 28.8564C35.2371 28.4882 34.9576 28.3304 34.5733 28.3304C34.2763 28.3304 33.9269 28.4531 33.7871 28.5934C33.6474 28.7337 33.5076 29.1194 33.4552 29.4174C33.4028 29.733 33.3154 30.1713 33.2805 30.3817C33.2106 30.6973 33.0708 30.785 32.669 30.785C32.1449 30.785 32.1449 30.7674 32.1449 29.8207C32.1449 29.1895 32.0576 28.7687 31.8829 28.5934C31.7431 28.4531 31.3937 28.3304 31.0967 28.3304C30.7648 28.3304 30.3805 28.5233 30.0136 28.8564C29.6992 29.1369 29.3323 29.3824 29.2275 29.3824C29.1052 29.3824 28.8781 29.2596 28.7383 29.1194C28.5986 28.9791 28.4763 28.7863 28.4763 28.6811C28.4763 28.5759 28.5636 28.4005 28.651 28.2778C28.7558 28.1726 29.0178 27.857 29.2624 27.5765C29.5769 27.2434 29.6642 26.9804 29.5943 26.6999C29.5419 26.4895 29.4022 26.209 29.2799 26.1038C29.1751 25.9811 28.7034 25.8408 28.2142 25.8057C27.7425 25.7707 27.2883 25.7356 27.2184 25.7181C27.1311 25.7005 27.0787 25.42 27.0787 25.0869C27.0787 24.7012 27.166 24.4382 27.3407 24.3856C27.4805 24.333 27.9522 24.2979 28.3889 24.2979C29.0178 24.2979 29.2275 24.2103 29.4371 23.8947C29.5769 23.6843 29.6992 23.3863 29.6992 23.246C29.6992 23.1057 29.4196 22.7025 29.0877 22.3694C28.7558 22.0363 28.4763 21.6505 28.4763 21.5278C28.4763 21.4226 28.5811 21.1947 28.7208 21.0544C28.8606 20.9142 29.0877 20.7914 29.21 20.7914C29.3323 20.7914 29.6817 21.0194 29.9612 21.3174C30.3281 21.6856 30.6425 21.8434 31.0094 21.8434C31.3064 21.8434 31.6733 21.7382 31.8305 21.6155Z" fill="#696969"/>
<path d="M31.5162 22.545C31.6735 22.545 31.7957 22.4749 31.7957 22.3697C31.7957 22.2645 32.2325 22.1943 32.7566 22.1943C33.2807 22.1943 33.7174 22.2645 33.7174 22.3697C33.7174 22.4749 33.8223 22.545 33.9271 22.545C34.0494 22.5275 34.4162 22.7729 34.7132 23.071C35.0626 23.3865 35.3596 23.895 35.4819 24.3333C35.5867 24.7541 35.6042 25.3151 35.5518 25.6132C35.4819 25.9112 35.2548 26.3846 35.0626 26.7002C34.853 27.0158 34.3813 27.419 34.0319 27.6294C33.6301 27.8398 33.0361 27.9801 32.5819 27.9801C32.1451 27.9801 31.7957 27.9099 31.7957 27.8047C31.7957 27.6995 31.6735 27.6294 31.5337 27.6294C31.3939 27.6294 31.0271 27.3664 30.7301 27.0684C30.4506 26.7528 30.1361 26.2093 30.0313 25.8762C29.9439 25.543 29.8741 25.1924 29.8741 25.0872C29.8741 24.982 29.9439 24.6313 30.0313 24.2982C30.1361 23.9651 30.4331 23.4216 30.7126 23.1236C30.9921 22.808 31.359 22.545 31.5162 22.545Z" fill="white"/>
<path d="M9.95839 25.8762C10.3951 25.6482 11.0939 25.3677 11.5307 25.245C11.9674 25.1223 12.509 25.0171 12.7536 25.0171C12.9982 25.0171 13.5747 25.1047 14.0638 25.245C14.5355 25.3677 15.2692 25.6482 15.671 25.8411C16.0903 26.0515 16.6668 26.4898 16.9463 26.8054C17.2433 27.1034 17.4879 27.419 17.4704 27.5067C17.4704 27.5768 17.5753 27.7346 17.6976 27.8573C17.8198 27.9625 18.0644 28.5411 18.2391 29.1197C18.4837 29.8911 18.5361 30.4872 18.4837 31.3112C18.4138 31.9599 18.2216 32.7839 17.9945 33.2398C17.7674 33.6781 17.1909 34.432 16.7018 34.9054C16.0379 35.5541 15.5138 35.8872 14.6753 36.1677C14.0463 36.3956 13.2253 36.571 12.8409 36.571C12.4566 36.571 11.6355 36.3956 11.0066 36.1677C10.168 35.8872 9.64394 35.5541 8.98008 34.9054C8.49092 34.432 7.89695 33.6781 7.68731 33.2398C7.44273 32.7664 7.25056 31.995 7.19815 31.3112C7.14574 30.4872 7.19815 29.8736 7.44273 29.1197C7.61743 28.5411 7.86201 27.9625 7.9843 27.8573C8.10659 27.7346 8.21141 27.5593 8.21141 27.4541C8.21141 27.3489 8.42105 27.0508 8.68309 26.7878C8.96261 26.5073 9.52165 26.1041 9.95839 25.8762Z" fill="white"/>
<path d="M32.3537 23.8597C32.441 23.9123 32.4934 23.8772 32.4934 23.772C32.4934 23.6668 32.6506 23.5967 32.8428 23.5967C33.035 23.5967 33.1922 23.6668 33.1922 23.772C33.1922 23.8772 33.3145 23.9473 33.4717 23.9473C33.629 23.9473 33.8211 24.1577 33.9259 24.4207C34.0133 24.7012 34.0482 25.1395 33.9958 25.4376C33.9259 25.8233 33.7338 26.0512 33.2796 26.2616C32.7904 26.5246 32.5982 26.5421 32.2838 26.3668C32.0567 26.2616 31.7771 26.0688 31.6723 25.9285C31.55 25.8058 31.4627 25.4201 31.4802 25.0694C31.4976 24.6837 31.6723 24.298 31.882 24.1051C32.0741 23.9298 32.2838 23.8246 32.3537 23.8597Z" fill="#696969"/>
<path d="M11.1802 26.9278C11.3723 26.9278 11.5645 26.8577 11.6169 26.7525C11.6868 26.6473 12.2284 26.5772 12.8398 26.5772C13.4687 26.5772 14.0103 26.6473 14.0627 26.7525C14.1151 26.8577 14.3073 26.9278 14.4994 26.9278C14.6916 26.9278 14.8488 26.998 14.8488 27.1032C14.8488 27.2084 14.9537 27.2785 15.0585 27.2785C15.1808 27.2785 15.4952 27.4538 15.7573 27.6817C16.0193 27.8921 16.229 28.2077 16.2464 28.3655C16.2464 28.5408 16.2988 28.6811 16.3862 28.6811C16.4561 28.6811 16.6133 28.874 16.7181 29.1194C16.8404 29.3649 16.9452 30.1538 16.9452 30.8727C16.9452 31.5915 16.8753 32.2227 16.7705 32.2753C16.6657 32.3278 16.5958 32.4856 16.5958 32.6259C16.5958 32.7662 16.2464 33.2395 15.8097 33.6778C15.3904 34.1162 14.9187 34.4668 14.7615 34.4668C14.6217 34.4668 14.482 34.5545 14.4645 34.6597C14.4296 34.7999 13.8705 34.8701 12.8398 34.8701C11.8091 34.8701 11.25 34.7999 11.2326 34.6597C11.1976 34.5545 11.0579 34.4668 10.9181 34.4668C10.7784 34.4668 10.3067 34.1162 9.86992 33.6778C9.43317 33.2395 9.08377 32.7662 9.08377 32.6259C9.08377 32.4856 8.99642 32.3278 8.90907 32.2753C8.82172 32.2227 8.73438 31.5915 8.73438 30.8727C8.73438 30.1538 8.83919 29.3649 8.96148 29.1194C9.0663 28.874 9.22353 28.6811 9.31088 28.6811C9.38076 28.6811 9.43317 28.5408 9.43317 28.383C9.45064 28.2077 9.66028 27.8921 9.92233 27.6817C10.1844 27.4538 10.4988 27.2785 10.6211 27.2785C10.7259 27.2785 10.8308 27.2084 10.8308 27.1032C10.8308 26.998 10.988 26.9278 11.1802 26.9278Z" fill="#696969"/>
</svg>
