<svg width="39" height="43" viewBox="0 0 39 43" fill="none" xmlns="http://www.w3.org/2000/svg">
<path d="M5.56578 1.20974C5.75795 0.894156 6.07241 0.490909 6.24711 0.333117C6.52662 0.0701299 6.92843 0.0175325 9.93325 0L10.9814 0.946753C11.8025 1.70065 12.1345 1.87597 12.5013 1.82338C12.7808 1.80584 12.9905 1.68312 12.9905 1.59545C12.9905 1.50779 13.1477 1.42013 13.3399 1.42013C13.532 1.42013 13.6893 1.35 13.6893 1.24481C13.6893 1.15714 14.0387 1.06948 14.4754 1.06948C14.9122 1.06948 15.3664 1.17468 15.4712 1.2974C15.5935 1.4026 15.8206 1.71818 15.9604 1.9987C16.1001 2.26169 16.2748 2.47208 16.3447 2.47208C16.432 2.47208 16.4845 2.62987 16.4845 2.82273C16.4845 3.01558 16.5893 3.20844 16.6941 3.24351C16.8688 3.2961 16.8688 3.38377 16.6941 3.68182C16.5893 3.87468 16.4845 4.13766 16.4845 4.22532C16.4845 4.31299 16.2399 4.6461 15.9604 4.92662C15.6634 5.20714 15.4363 5.61039 15.4363 5.80325C15.4363 6.08377 15.5586 6.1539 15.9604 6.1539C16.2399 6.1539 16.4845 6.24156 16.4845 6.32922C16.4845 6.41688 16.6417 6.50455 16.8339 6.50455C17.026 6.50455 17.1833 6.59221 17.1833 6.67987C17.1833 6.76753 17.2531 6.85519 17.3579 6.85519C17.4628 6.85519 17.882 7.20584 18.3188 7.64416C18.7555 8.08247 19.2622 8.71364 19.4543 9.04675C19.6465 9.37987 19.8037 9.81818 19.8037 10.011C19.8037 10.2039 19.8736 10.3617 19.9784 10.3617C20.0833 10.3617 20.1531 10.9753 20.1531 11.8519C20.1531 12.7636 20.0833 13.3597 19.961 13.3948C19.8736 13.4123 19.8212 13.5701 19.8736 13.7279C19.926 13.9032 20.1007 14.0435 20.2405 14.0435C20.3802 14.0435 20.5025 14.1312 20.5025 14.2188C20.5025 14.3065 20.6598 14.3942 20.8519 14.3942C21.0441 14.3942 21.2013 14.4818 21.2013 14.5695C21.2013 14.6571 21.3061 14.7448 21.411 14.7448C21.5333 14.7623 21.7953 14.587 21.9875 14.3942C22.2845 14.0786 22.4941 14.026 23.4899 14.0786C24.3983 14.1136 24.6953 14.061 24.9224 13.8331C25.0796 13.6578 25.2194 13.3948 25.2194 13.2545C25.2194 13.1143 25.1495 12.9916 25.0447 12.9916C24.9399 12.9916 24.87 12.711 24.87 12.3779C24.87 11.8695 25.0272 11.624 25.7784 10.8877C26.4598 10.239 26.8441 10.011 27.2284 9.99351C27.5604 9.99351 27.9272 10.1688 28.1893 10.4318C28.4339 10.6597 28.7658 11.2558 28.923 11.7468C29.2025 12.5357 29.2899 12.6409 29.7092 12.6409C30.0411 12.6234 30.373 12.413 30.7748 11.9747C31.0893 11.624 31.3339 11.2208 31.3339 11.0981C31.3339 10.9929 31.4037 10.8877 31.5086 10.8877C31.6134 10.8877 31.6833 10.8 31.6833 10.7123C31.6833 10.6247 32.1025 10.1162 32.5917 9.60779C33.0983 9.09935 33.7447 8.57338 34.0417 8.45065C34.3212 8.32792 34.7055 8.1526 34.8628 8.06494C35.0375 7.97727 35.5965 7.90714 36.0857 7.90714C36.767 7.90714 37.1688 8.01234 37.6055 8.29286C37.9375 8.52078 38.3393 8.92403 38.514 9.22208C38.6887 9.52013 38.8284 10.1162 38.8284 10.5721C38.8459 11.0455 38.7061 11.6942 38.5314 12.0273C38.3742 12.3779 38.1296 12.6409 38.0073 12.6409C37.9025 12.6409 37.7977 12.7286 37.7977 12.8162C37.7977 12.9039 37.6405 12.9916 37.4483 12.9916C37.2561 12.9916 37.0989 13.0792 37.0989 13.1669C37.0989 13.2545 36.9417 13.3422 36.7495 13.3422C36.5399 13.3422 36.3477 13.5 36.2778 13.7279C36.2254 13.9558 36.1031 14.6045 36.0333 15.1831C35.9634 15.7617 35.8236 16.5857 35.7363 17.024C35.6314 17.4623 35.3869 18.3039 35.1947 18.9C34.9851 19.5136 34.7055 20.1273 34.5658 20.2675C34.426 20.4078 34.0941 20.5831 33.8146 20.6357C33.5351 20.7058 33.0808 20.6357 32.679 20.4604C32.3296 20.3026 32.0326 20.1097 32.0326 20.0045C32.0326 19.8994 31.9104 19.8292 31.7706 19.8292C31.6308 19.8292 31.264 19.5662 30.967 19.2682C30.4604 18.7422 30.4254 18.6195 30.6351 17.024L30.0585 17.1117C29.7266 17.1643 29.2899 17.0766 28.9754 16.9188C28.6784 16.7786 28.2766 16.6909 28.0495 16.7435C27.7525 16.8312 27.7001 16.9188 27.8224 17.1468C27.9098 17.3221 28.1369 17.6201 28.3116 17.813C28.5037 18.0058 28.9055 18.637 29.2025 19.2156C29.517 19.7942 29.7616 20.4253 29.7616 20.6182C29.7616 20.811 29.6393 21.1617 29.4646 21.4071C29.3073 21.6526 29.0802 21.8981 28.9929 21.9682C28.8881 22.0383 28.5387 22.1084 28.2242 22.1084C27.8748 22.1084 27.5429 22.2487 27.3158 22.4942C27.1236 22.7221 26.9664 23.0727 26.9664 23.2831C26.9664 23.511 26.8616 23.8091 26.7393 23.9669C26.6345 24.1247 25.5339 25.2468 24.3284 26.474C23.123 27.6838 21.6555 29.1214 21.0965 29.6474C20.52 30.1734 19.7863 30.8045 19.4543 31.05C19.1224 31.2779 18.7381 31.576 18.6158 31.6987C18.511 31.8214 18.4411 31.9792 18.4935 32.0494C18.5284 32.137 18.6857 32.6455 18.8429 33.189C18.9826 33.75 19.1049 34.5214 19.1049 34.9071C19.1049 35.2929 18.8254 36.4149 18.4935 37.3968C18.1616 38.3961 17.882 39.4656 17.882 39.7636C17.882 40.0792 17.7772 40.5351 17.6549 40.7805C17.5326 41.061 17.3055 41.2188 17.0435 41.2188C16.8339 41.2188 16.6242 41.289 16.5718 41.3942C16.5194 41.4994 16.3622 41.5695 16.2049 41.5695C16.0652 41.5695 15.8206 41.6922 15.6808 41.8325C15.5411 41.9727 15.4363 42.2006 15.4363 42.3058C15.4363 42.4286 15.2441 42.639 14.9995 42.7442C14.7549 42.8669 14.3182 42.9721 14.0387 42.9721C13.7417 42.9721 13.27 42.8494 12.9905 42.7091C12.6935 42.5688 12.3092 42.1305 12.117 41.7448C11.9248 41.3591 11.7676 40.7279 11.7676 40.3422C11.7676 39.8864 11.523 39.1149 11.0339 38.0981C10.632 37.2565 10.2302 36.5552 10.1604 36.5201C10.0905 36.5026 10.0206 36.3273 10.0206 36.1344C10.0206 35.9416 9.93325 35.7838 9.8459 35.7838C9.74108 35.7838 9.6712 35.661 9.6712 35.5208C9.6712 35.3805 9.51397 35.0825 9.3218 34.8545C9.12964 34.6442 8.97241 34.3636 8.97241 34.2409C8.97241 34.1357 8.88506 34.0305 8.79771 34.0305C8.69289 34.0305 8.62301 33.9078 8.62301 33.7675C8.62301 33.6273 8.48325 33.2416 8.30855 32.926C8.13385 32.6279 7.88927 31.8916 7.76698 31.313C7.6447 30.7344 7.47 30.0682 7.40012 29.8227C7.31277 29.5773 7.13807 28.3149 7.01578 27C6.80614 24.826 6.7712 24.6331 6.52662 24.9136C6.38686 25.089 5.96759 25.387 5.60072 25.5974C5.25132 25.7903 4.79711 25.9656 4.60494 25.9656C4.41277 25.9656 4.25554 25.8955 4.25554 25.7903C4.25554 25.6851 4.02843 25.6149 3.73144 25.6149C3.43445 25.6149 3.20735 25.5448 3.20735 25.4396C3.20735 25.3344 3.08506 25.2643 2.9453 25.2643C2.80554 25.2643 2.36879 24.9487 1.98445 24.563C1.47783 24.0545 1.28566 23.7214 1.28566 23.3357C1.28566 23.0377 1.44289 22.6344 2.0718 21.9682L1.65253 21.6526C1.40795 21.4597 1.04108 21.1442 0.813973 20.9162C0.586864 20.7058 0.359756 20.3552 0.307346 20.1273C0.254937 19.9169 0.307346 19.5487 0.429635 19.3032C0.551924 19.0578 0.848913 18.6721 1.09349 18.4266C1.46036 18.0584 1.67 17.9883 2.4212 18.0234C3.24229 18.0584 3.27723 18.0409 3.03265 17.7604C2.89289 17.6026 2.73566 17.4273 2.68325 17.3747C2.63084 17.3221 2.45614 17.024 2.28144 16.7084C2.12421 16.4104 1.98445 16.0071 1.98445 15.8318C1.98445 15.674 2.10674 15.3058 2.2465 15.0078C2.40373 14.7097 2.50855 14.3766 2.50855 14.2539C2.50855 14.1487 2.56096 14.0435 2.63084 14.0435C2.71819 14.0435 2.87542 13.8156 2.98024 13.5175C3.20735 13.0091 3.24229 12.9916 4.37783 12.9916C5.39108 12.9916 5.60072 12.939 5.82783 12.6234C5.96759 12.4305 6.47421 11.7292 6.92843 11.0981C7.40012 10.4494 7.88927 9.62532 8.02903 9.25714C8.16879 8.90649 8.34349 8.60844 8.44831 8.60844C8.53566 8.60844 8.62301 8.48571 8.62301 8.34545C8.62301 8.20519 8.43084 7.88961 8.18626 7.64416C7.94168 7.3987 7.66217 7.20584 7.57482 7.20584C7.47 7.20584 7.40012 7.11818 7.40012 7.03052C7.40012 6.94286 7.31277 6.85519 7.22542 6.85519C7.1206 6.85519 6.92843 6.73247 6.78867 6.59221C6.64891 6.45195 6.45674 6.1539 6.36939 5.92597C6.28204 5.71558 6.24711 5.3474 6.29952 5.10195C6.36939 4.7513 6.22964 4.55844 5.6706 4.1026C5.00674 3.55909 4.95433 3.47143 4.95433 2.6474C4.95433 2.15649 5.00674 1.77078 5.07662 1.77078C5.16397 1.77078 5.37361 1.52532 5.56578 1.20974Z" fill="white"/>
<path fill-rule="evenodd" clip-rule="evenodd" d="M8.32594 1.41992C8.86751 1.41992 9.32172 1.49005 9.32172 1.59525C9.32172 1.68291 9.42654 1.77057 9.54883 1.77057C9.65365 1.77057 10.1603 2.15629 10.632 2.62966C11.3133 3.31343 11.6277 3.50629 12.082 3.52382C12.379 3.52382 13.0952 3.27836 13.6543 2.99784C14.1958 2.69979 14.65 2.4894 14.65 2.50693C14.65 2.542 14.7549 2.73486 14.8771 2.94525C14.982 3.17317 15.0868 3.43616 15.0868 3.52382C15.0868 3.61148 14.8771 3.90953 14.6151 4.19005C14.3356 4.45304 13.9862 4.90888 13.829 5.1894C13.6543 5.50499 13.3747 5.73291 13.1302 5.76797C12.903 5.78551 12.4139 5.90823 12.0296 6.01343C11.6452 6.13616 11.0687 6.36408 10.7717 6.5394C10.4573 6.71473 10.0205 6.85499 9.81088 6.85499C9.58377 6.83745 9.28678 6.69719 9.14703 6.52187C9.00727 6.34655 8.67534 6.08356 8.41329 5.92577C7.99401 5.68031 7.92413 5.50499 7.92413 4.87382C7.92413 4.36538 7.80185 3.99719 7.52233 3.66408C7.31269 3.40109 7.05064 3.1907 6.96329 3.17317C6.87594 3.17317 6.68377 3.01538 6.57895 2.82252C6.38678 2.52447 6.42172 2.40174 6.841 1.9459C7.26028 1.49005 7.43498 1.43745 8.32594 1.41992ZM13.7765 7.20564C14.3006 7.20564 14.7723 7.27577 14.8247 7.38096C14.8771 7.46862 15.1392 7.55628 15.4362 7.55628C15.7332 7.55628 15.9603 7.62641 15.9603 7.73161C15.9603 7.81927 16.0826 7.90693 16.2223 7.90693C16.3621 7.90693 16.4844 7.97706 16.4844 8.08226C16.4844 8.16992 16.5543 8.25758 16.6591 8.25758C16.7639 8.25758 17.0259 8.43291 17.2356 8.6433C17.4627 8.87122 17.8121 9.27447 18.0043 9.57252C18.179 9.87057 18.441 10.4141 18.5458 10.7998C18.6506 11.1855 18.7555 11.6939 18.7555 11.9394C18.7555 12.1849 18.6332 12.7108 18.4934 13.1141C18.3537 13.5349 17.9518 14.3939 17.6199 15.0426C17.288 15.7089 16.8862 16.4628 16.7115 16.7608C16.5368 17.0589 16.3621 17.3219 16.3097 17.3745C16.2573 17.4271 16.1 17.6725 15.9603 17.953C15.8205 18.216 15.6458 18.4264 15.5759 18.4264C15.4886 18.4264 15.4362 18.5491 15.4362 18.6894C15.4362 18.8297 15.1916 19.2154 14.9121 19.5134C14.6151 19.829 14.3705 20.1972 14.388 20.3024C14.388 20.4251 14.2133 20.5829 14.0037 20.6355C13.7416 20.6881 13.5145 20.618 13.3398 20.4076C13.2 20.2323 12.8506 19.7413 12.5537 19.303C12.2567 18.8647 11.9771 18.4965 11.9073 18.4615C11.8199 18.4439 11.7675 18.3388 11.7675 18.2511C11.7675 18.1459 11.5404 17.7251 11.2434 17.2868C10.9464 16.8485 10.7193 16.4102 10.7193 16.3225C10.7193 16.2173 10.6669 16.1297 10.597 16.0946C10.5097 16.0771 10.2826 15.7264 10.0729 15.3056C9.84582 14.9024 9.67112 14.4465 9.67112 14.3063C9.67112 14.166 9.58377 14.0433 9.49642 14.0433C9.40907 14.0433 9.32172 13.8855 9.32172 13.6926C9.32172 13.4998 9.23438 13.342 9.14703 13.342C9.04221 13.342 8.97233 12.7634 8.97233 11.9394C8.97233 11.168 9.05968 10.5017 9.14703 10.4491C9.23438 10.3965 9.32172 10.2388 9.32172 10.0985C9.32172 9.95823 9.42654 9.73031 9.54883 9.59005C9.65365 9.44979 9.93317 9.09914 10.1603 8.80109C10.3699 8.50304 10.6669 8.25758 10.8067 8.25758C10.9464 8.25758 11.0687 8.20499 11.0687 8.11732C11.0687 8.04719 11.2784 7.8894 11.5579 7.76667C11.8199 7.64395 12.2043 7.55628 12.4314 7.55628C12.641 7.55628 12.8157 7.46862 12.8157 7.38096C12.8157 7.27577 13.2524 7.20564 13.7765 7.20564ZM36.0506 9.32706C36.1904 9.30953 36.4874 9.3446 36.7145 9.39719C37.0464 9.46732 37.0988 9.59005 37.0988 10.2738C37.0988 10.7121 37.1862 11.0628 37.291 11.0628C37.3958 11.0628 37.3784 11.1504 37.2386 11.2907C37.1163 11.3959 36.7145 11.6589 36.3302 11.8517C35.9633 12.0446 35.5091 12.3952 35.3169 12.6407C35.1422 12.8862 34.9151 13.3595 34.8452 13.6926C34.7579 14.0258 34.6181 14.8673 34.5133 15.5336C34.4085 16.1998 34.1639 17.2868 33.9543 17.9355C33.7271 18.7245 33.5175 19.1277 33.3428 19.1277C33.2031 19.1277 33.0808 19.0576 33.0808 18.9524C33.0808 18.8472 32.9585 18.7771 32.8187 18.7771C32.679 18.7771 32.4344 18.6543 32.2946 18.5141C32.1549 18.3738 32.0326 18.0582 32.0326 17.8128C32.0326 17.5673 32.1024 17.3745 32.2073 17.3745C32.3121 17.3745 32.382 17.1465 32.382 16.8485C32.382 16.5504 32.3121 16.3225 32.2073 16.3225C32.1024 16.3225 32.0326 16.2349 32.0326 16.1472C32.0326 16.042 31.8928 15.8316 31.7356 15.6738C31.491 15.4459 31.2464 15.4108 30.5476 15.4985C29.9012 15.5862 29.5868 15.5511 29.3247 15.3582C29.1326 15.218 28.6958 15.0952 28.3639 15.0952C27.9796 15.0952 27.5603 15.2355 27.2284 15.481C26.9314 15.6913 26.6169 15.9894 26.4946 16.1472C26.3723 16.2875 26.2675 16.7082 26.2675 17.0589C26.2675 17.4446 26.4073 17.8829 26.582 18.0933C26.7392 18.3037 27.0537 18.6543 27.2808 18.8823C27.4904 19.1102 27.6651 19.3732 27.6651 19.4784C27.6651 19.5836 27.7874 19.7764 27.9271 19.9167C28.0669 20.0569 28.1717 20.2849 28.1368 20.39C28.1018 20.5128 27.9271 20.6355 27.735 20.6706C27.5603 20.6881 27.2458 20.7582 27.0537 20.7933C26.8615 20.8284 26.5296 21.0037 26.3199 21.179C26.1103 21.3543 25.9356 21.6349 25.9181 21.7926C25.9181 21.968 25.8482 22.1082 25.7434 22.1082C25.6386 22.1082 25.5687 22.3011 25.5687 22.5465C25.5687 22.792 25.3241 23.2654 25.0097 23.616C24.6952 23.9667 23.6994 24.966 22.8085 25.8602C21.9175 26.7368 20.6771 27.9465 20.0657 28.5426C19.4368 29.1563 18.8603 29.6472 18.7555 29.6472C18.6681 29.6472 18.5808 29.7173 18.5808 29.8225C18.5808 29.9277 18.4585 29.9978 18.3187 29.9978C18.179 29.9978 18.0567 30.0504 18.0567 30.1206C18.0567 30.2082 17.8645 30.3836 17.6199 30.5238C17.3753 30.6641 17.0958 30.9797 16.991 31.2251C16.8512 31.5758 16.8862 31.8913 17.1657 32.7154C17.3753 33.3115 17.5326 34.2232 17.5326 34.8193C17.5326 35.4855 17.4103 36.2219 17.1657 36.8355C16.9735 37.3615 16.729 37.94 16.6416 38.0978C16.5543 38.2732 16.4844 38.7115 16.4844 39.0621C16.5018 39.6056 16.4145 39.7634 16.0476 39.9388C15.8031 40.0615 15.5061 40.1667 15.4012 40.1667C15.279 40.1842 14.8946 40.5173 13.9163 41.6569L13.6193 41.2186C13.4621 40.9732 13.3398 40.4998 13.3398 40.1667C13.3398 39.8336 13.1476 39.1147 12.938 38.5887C12.7109 38.0628 12.4314 37.3615 12.2916 37.0459C12.1518 36.7478 11.9771 36.4849 11.9073 36.4849C11.8199 36.4849 11.7675 36.3271 11.7675 36.1342C11.7675 35.9413 11.7151 35.7836 11.6452 35.7836C11.5579 35.7836 11.3133 35.3978 11.0687 34.9069C10.8241 34.4336 10.5796 34.0303 10.5097 34.0303C10.4223 34.0303 10.3699 33.8725 10.3699 33.6797C10.3699 33.4868 10.2826 33.329 10.1952 33.329C10.1079 33.329 10.0205 33.1712 10.0205 32.9784C10.0205 32.7855 9.93317 32.6277 9.84582 32.6277C9.75847 32.6277 9.67112 32.4699 9.67112 32.2771C9.67112 32.0842 9.58377 31.9264 9.49642 31.9264C9.40907 31.9264 9.32172 31.6459 9.32172 31.3128C9.32172 30.9797 9.23438 30.6991 9.14703 30.6991C9.05968 30.6991 8.97233 30.3485 8.97233 29.9102C8.97233 29.4719 8.91992 29.0862 8.85004 29.0511C8.76269 29.016 8.65787 27.929 8.58799 26.6491C8.48317 24.7556 8.39582 24.2121 8.13377 23.8615C7.9416 23.616 7.5398 23.2654 7.24281 23.0725C6.78859 22.792 6.63136 22.7745 6.47413 22.9323C6.36932 23.055 6.15968 23.1602 6.00245 23.1602C5.86269 23.1426 5.61811 23.3881 5.47835 23.6862C5.25124 24.1595 5.12895 24.2297 4.51751 24.2121C4.06329 24.2121 3.64401 24.0719 3.32956 23.8089C2.89281 23.4582 2.87534 23.4056 3.13739 23.1602C3.29462 23.0199 3.52172 22.6868 3.66148 22.4063C3.81871 22.1082 3.83618 21.8978 3.73136 21.8452C3.64401 21.7926 3.55666 21.5998 3.55666 21.4069C3.55666 21.2141 3.50425 21.0563 3.43438 21.0563C3.34703 21.0563 2.99763 20.7933 2.64823 20.4777C2.28136 20.1797 1.98438 19.8115 1.98438 19.6888C1.98438 19.566 2.22895 19.4784 2.59582 19.4784C2.92775 19.4784 3.24221 19.5836 3.29462 19.6888C3.3645 19.8641 3.39944 19.8641 3.46931 19.6888C3.52172 19.5836 3.67895 19.4784 3.81871 19.4784C3.97594 19.4784 4.2904 19.2855 4.51751 19.0401C4.76209 18.7946 4.95425 18.4089 4.95425 18.1634C4.95425 17.918 4.86691 17.7251 4.77956 17.7251C4.69221 17.7251 4.60486 17.6024 4.60486 17.4621C4.60486 17.3219 4.51751 17.1991 4.43016 17.1991C4.34281 17.1991 4.25546 17.0764 4.25546 16.9362C4.25546 16.7959 4.16811 16.6732 4.08076 16.6732C3.99341 16.6732 3.90606 16.5504 3.90606 16.4102C3.90606 16.2699 3.81871 16.1472 3.73136 16.1472C3.64401 16.1472 3.55666 16.0245 3.55666 15.8842C3.55666 15.7439 3.66148 15.4459 3.78377 15.218C3.88859 15.0076 4.08076 14.7797 4.16811 14.7271C4.25546 14.6569 4.69221 14.6569 5.12895 14.692C5.88016 14.7797 5.95004 14.7446 6.52654 14.0784C6.85847 13.6751 7.22534 13.3595 7.31269 13.342C7.40004 13.342 7.74944 13.868 8.04642 14.5167C8.36088 15.1829 8.62293 15.8141 8.62293 15.9193C8.62293 16.042 8.71028 16.1472 8.79763 16.1472C8.88498 16.1472 8.97233 16.2699 8.97233 16.4102C8.97233 16.5504 9.05968 16.6732 9.14703 16.6732C9.23438 16.6732 9.32172 16.831 9.32172 17.0238C9.32172 17.2167 9.40907 17.3745 9.49642 17.3745C9.58377 17.3745 9.67112 17.4797 9.67112 17.5849C9.67112 17.7076 9.82835 17.9881 10.0205 18.1985C10.2127 18.4264 10.3699 18.7245 10.3699 18.8647C10.3699 19.005 10.2826 19.1277 10.1952 19.1277C10.1079 19.1277 10.0205 19.2855 10.0205 19.4784C10.0205 19.6712 9.93317 19.829 9.84582 19.829C9.75847 19.829 9.67112 20.1446 9.67112 20.5303C9.67112 20.916 9.58377 21.2316 9.49642 21.2316C9.40907 21.2316 9.32172 21.3894 9.32172 21.5823C9.32172 21.7751 9.40907 21.9329 9.49642 21.9329C9.58377 21.9329 9.67112 22.1608 9.67112 22.4589C9.67112 22.7569 9.77594 23.1602 9.89823 23.3706C10.003 23.581 10.1952 23.8615 10.2826 23.9842C10.3699 24.1245 10.5446 24.3173 10.6494 24.4401C10.7717 24.5628 10.9988 24.7732 11.191 24.9134C11.3657 25.0537 11.6976 25.2641 11.9422 25.3868C12.1868 25.5095 12.6934 25.6849 13.0777 25.8076C13.6717 25.9829 13.9338 25.9654 14.8247 25.6849C15.4012 25.5095 15.9603 25.2641 16.0826 25.1413C16.1874 25.0186 16.3446 24.9134 16.432 24.9134C16.5018 24.9134 16.694 24.7556 16.8338 24.5452C16.9735 24.3524 17.2356 24.0017 17.4103 23.8089C17.585 23.5985 17.7946 23.1426 17.882 22.8095C17.9868 22.4764 18.0567 21.8452 18.0567 21.4069C18.0392 20.9686 17.9344 20.3024 17.7946 19.9167C17.6549 19.531 17.4627 19.1978 17.3579 19.1628C17.2705 19.1452 17.1832 18.9699 17.1832 18.7771C17.1832 18.5842 17.2356 18.4264 17.3229 18.4264C17.3928 18.4439 17.5675 18.1985 17.7073 17.9004C17.847 17.6024 18.0043 17.3569 18.0567 17.3745C18.1091 17.3745 18.3362 16.9712 18.5808 16.4803C18.8253 15.9894 19.0874 15.516 19.1922 15.4284C19.297 15.3407 19.7163 15.4634 20.2055 15.7089C20.6597 15.9543 21.2886 16.1472 21.6031 16.1472C21.9175 16.1647 22.3892 15.9894 22.6862 15.779C23.1579 15.4284 23.2802 15.4108 23.9091 15.6212C24.4681 15.7965 24.6952 15.7965 25.0446 15.6037C25.2892 15.481 25.5862 15.3056 25.7085 15.2004C25.8308 15.0952 26.0229 14.9199 26.1452 14.8147C26.2675 14.692 26.4946 14.4465 26.6693 14.2362C26.8265 14.0433 26.9663 13.6751 26.9663 13.4297C26.9663 13.1842 26.8964 12.9913 26.7916 12.9913C26.6868 12.9913 26.6169 12.7634 26.6169 12.4654C26.6169 12.1498 26.7217 11.9043 26.879 11.8517C27.0187 11.7991 27.2109 11.7991 27.3157 11.8517C27.4205 11.9043 27.5603 12.2375 27.6651 12.5881C27.7524 12.9563 27.9621 13.4121 28.1368 13.605C28.3115 13.7978 28.6259 14.0608 28.8531 14.166C29.0627 14.2888 29.4296 14.3939 29.6741 14.3939C29.9187 14.3939 30.1458 14.3063 30.1982 14.2186C30.2506 14.1134 30.3904 14.0433 30.5302 14.0433C30.6699 14.0433 31.2115 13.605 31.753 13.079C32.2946 12.553 32.7314 12.0271 32.7314 11.9394C32.7314 11.8342 32.8711 11.5888 33.0458 11.3959C33.2031 11.1855 33.5699 10.7823 33.8669 10.5017C34.1464 10.2212 34.7055 9.85304 35.0898 9.66018C35.4741 9.48486 35.9109 9.32706 36.0506 9.32706ZM16.3621 20.4777C16.4494 20.5128 16.5193 21.0212 16.5018 21.5998C16.4844 22.5641 16.432 22.6868 15.7506 23.4232C15.0169 24.1771 14.982 24.1946 13.8639 24.2121C12.8157 24.2297 12.6759 24.1771 12.0994 23.6511C11.75 23.3355 11.3832 22.8972 11.2609 22.6693C11.1561 22.4589 11.0687 21.8803 11.0687 21.4069C11.0687 20.653 11.1211 20.5303 11.4181 20.5303C11.6277 20.5303 11.8024 20.6706 11.8549 20.881C11.9073 21.0738 12.1693 21.4245 12.4663 21.6699C12.8681 22.003 13.2 22.1082 13.829 22.1082C14.3531 22.1258 14.7898 22.003 15.0344 21.8102C15.244 21.6349 15.4187 21.3894 15.4362 21.2667C15.4362 21.1615 15.5061 21.0563 15.6109 21.0563C15.7157 21.0563 15.7681 20.9511 15.7506 20.8108C15.7332 20.6706 15.8205 20.5303 15.9603 20.4777C16.0826 20.4426 16.2573 20.4426 16.3621 20.4777Z" fill="#696969"/>
<path d="M11.6273 10.344C11.9068 10.0635 12.3785 9.71282 12.693 9.57256H12.6755C12.99 9.4323 13.4442 9.3271 13.6888 9.30957C13.9334 9.30957 14.3876 9.3797 14.6846 9.48489C14.999 9.57256 15.4532 9.85308 15.6978 10.0985C15.9424 10.344 16.1346 10.6245 16.1346 10.7122C16.1346 10.7998 16.2394 10.905 16.3442 10.9401C16.5014 10.9927 16.5713 11.3959 16.5538 12.22C16.5538 13.3771 16.5189 13.4648 15.9074 14.0784C15.5581 14.4466 15.1562 14.7446 14.999 14.7446C14.8593 14.7446 14.737 14.8323 14.737 14.92C14.737 15.0076 14.3352 15.0953 13.8635 15.0953C13.3743 15.0953 12.955 15.0076 12.9026 14.92C12.8502 14.8323 12.693 14.7446 12.5532 14.7446C12.4135 14.7446 12.0466 14.4816 11.7496 14.1661C11.4701 13.868 11.1556 13.3245 11.0683 12.9914C10.9809 12.6583 10.9635 12.0271 11.0334 11.6063C11.1032 11.1329 11.3303 10.642 11.6273 10.344Z" fill="white"/>
<path d="M12.4313 12.2202C12.4139 11.8695 12.5361 11.5715 12.8157 11.2909C13.0602 11.0455 13.4446 10.8877 13.759 10.8877C14.056 10.8877 14.4753 11.0104 14.6849 11.1857C14.9645 11.4137 15.0693 11.6942 15.0867 12.1676C15.0867 12.5182 14.9819 12.9215 14.8596 13.0442C14.7373 13.1494 14.4404 13.3598 14.2132 13.4825C13.8464 13.6929 13.7066 13.6929 13.3398 13.4825C13.0952 13.3598 12.8157 13.1319 12.6934 12.9916C12.5711 12.8513 12.4663 12.5007 12.4313 12.2202Z" fill="#696969"/>
</svg>
