<svg width="43" height="43" viewBox="0 0 43 43" fill="none" xmlns="http://www.w3.org/2000/svg">
<path d="M4.74606 1.55787C5.14786 1.55787 5.47979 1.38255 5.98642 0.856572C6.66774 0.172806 6.72015 0.155273 7.89063 0.155273C8.57196 0.155273 9.09606 0.225403 9.09606 0.330598C9.09606 0.41826 9.23582 0.505923 9.39304 0.505923C9.56774 0.523455 9.8822 0.733845 10.0918 0.996832C10.3189 1.25982 10.4936 1.61047 10.4936 1.76826C10.4936 1.94358 10.6159 2.11891 10.7557 2.17151C10.8955 2.2241 11.175 2.25917 11.3671 2.25917C11.5593 2.25917 11.9786 2.3819 12.2756 2.52216C12.59 2.66242 13.0268 3.06566 13.2364 3.43384C13.4461 3.80203 13.6208 4.39813 13.6382 4.76631C13.6382 5.11696 13.5509 5.59034 13.4286 5.81826C13.3238 6.02865 13.0617 6.34423 12.8695 6.51956C12.6599 6.69488 12.2232 6.95787 11.8912 7.09813C11.4195 7.29099 10.3364 7.34358 7.03461 7.34358C4.04726 7.34358 2.66714 7.27345 2.31774 7.13319C2.05569 7.01047 1.67136 6.72995 1.44425 6.51956C1.23461 6.29164 1.05991 5.99358 1.05991 5.85332C1.05991 5.71307 0.972562 5.59034 0.885213 5.59034C0.780393 5.59034 0.710514 5.23969 0.710514 4.80138C0.710514 4.36307 0.815333 3.83709 0.920152 3.6267C1.04244 3.41631 1.23461 3.15333 1.32196 3.04813C1.40931 2.94294 1.68883 2.71501 1.93341 2.55722C2.17798 2.39943 2.56232 2.25917 2.8069 2.25917C3.05148 2.2767 3.45329 2.11891 3.71533 1.90852C3.99485 1.71566 4.44907 1.55787 4.74606 1.55787Z" fill="white"/>
<path d="M35.1262 4.71371C35.1262 4.62605 35.3358 4.50332 35.5979 4.46826C35.8774 4.4332 36.4539 4.4332 36.9081 4.46826C37.3798 4.50332 37.8515 4.64358 37.9912 4.74878C38.131 4.87151 38.3756 5.11696 38.5503 5.27475C38.7424 5.43255 38.987 5.69553 39.0918 5.83579C39.2141 5.99359 39.3189 6.16891 39.3189 6.23904C39.3189 6.3267 39.6509 6.44943 40.0527 6.51956C40.472 6.60722 41.0135 6.81761 41.2756 7.01047C41.5551 7.18579 41.887 7.57151 42.0268 7.86956C42.1665 8.16761 42.2888 8.65852 42.2888 8.95657C42.2888 9.27216 42.1141 9.86826 41.9045 10.289C41.6774 10.6923 41.3979 11.0254 41.2756 11.0254C41.1708 11.0254 41.0659 11.078 41.0659 11.1481C41.0659 11.2358 40.7515 11.3936 40.3671 11.4988C39.8955 11.6566 38.3756 11.7267 35.6503 11.7267C33.1521 11.7267 31.5973 11.6566 31.5449 11.5514C31.4924 11.4637 31.2653 11.3761 31.0208 11.3761C30.7762 11.3761 30.584 11.2884 30.584 11.2007C30.584 11.1131 30.4443 11.0254 30.287 11.0254C30.1298 11.0254 30.0599 10.9903 30.1123 10.9377C30.1822 10.8851 30.0774 10.6748 29.8852 10.4468C29.693 10.2364 29.4834 9.7806 29.431 9.44748C29.3611 9.11436 29.4135 8.53579 29.5183 8.16761C29.6232 7.7819 29.9376 7.34358 30.2696 7.09813C30.584 6.87021 31.143 6.64229 31.4924 6.57216C31.8593 6.51956 32.2611 6.34423 32.4009 6.20397C32.5406 6.06371 32.89 5.94099 33.187 5.94099C33.5539 5.94099 33.9033 5.76566 34.2527 5.41501C34.5497 5.11696 34.8641 4.88904 34.9515 4.88904C35.0563 4.88904 35.1262 4.80138 35.1262 4.71371Z" fill="white"/>
<path d="M13.6382 10.4468C13.6382 10.2189 13.7955 9.97345 14.0226 9.86826C14.2497 9.76307 15.0882 9.65787 17.3942 9.60527L18.093 10.3066C18.4774 10.6923 19.0888 11.341 19.4382 11.7618C19.8051 12.1825 20.3641 12.8312 20.6611 13.1994C20.9756 13.5851 21.4997 14.1637 21.8141 14.4793C22.1111 14.7949 22.3732 15.0929 22.3732 15.1455C22.3732 15.1981 22.7924 15.654 23.2991 16.1799C23.7882 16.7059 24.5045 17.4774 24.8539 17.8981C25.2033 18.3189 25.64 18.8273 25.8147 19.0377C26.1117 19.4059 26.234 19.4235 29.5358 19.441C31.9292 19.441 33.2744 19.5286 34.078 19.7215C34.7069 19.8618 35.4057 20.0371 35.6328 20.1072C35.8599 20.1774 36.0696 20.2825 36.1045 20.3527C36.1394 20.4403 36.3316 20.4929 36.5238 20.4929C36.7159 20.4929 36.8732 20.5631 36.8732 20.6683C36.8732 20.7735 37.0304 20.8436 37.2226 20.8436C37.4147 20.8436 37.572 20.9137 37.572 21.0189C37.572 21.1241 37.7117 21.1942 37.8689 21.1942C38.0436 21.1942 38.3057 21.352 38.4455 21.5449C38.5852 21.7377 38.8473 21.8955 39.0045 21.8955C39.1792 21.8955 39.3189 21.9657 39.3189 22.0709C39.3189 22.1761 39.4762 22.2462 39.6683 22.2462C39.8605 22.2462 40.0177 22.3163 40.0177 22.4215C40.0177 22.5267 40.14 22.5968 40.2798 22.5968C40.4196 22.5968 40.5418 22.6494 40.5418 22.7196C40.5418 22.8072 40.7864 22.9825 41.1009 23.1228C41.4153 23.2631 41.887 23.5962 42.1491 23.8592C42.5159 24.2273 42.6382 24.5254 42.6382 25.0514C42.6382 25.5248 42.5159 25.8929 42.2364 26.191C42.0268 26.4364 41.7473 26.6293 41.625 26.6293C41.5202 26.6293 41.4153 26.6994 41.4153 26.8046C41.4153 26.9098 41.2581 26.9799 41.0659 26.9799C40.8738 26.9799 40.6816 27.0501 40.6292 27.1553C40.5768 27.2605 40.3497 27.3306 40.1051 27.3306C39.8605 27.3306 39.6683 27.4007 39.6683 27.5059C39.6683 27.6111 39.4762 27.6812 39.2316 27.6812C38.987 27.6812 38.7599 27.7514 38.7075 27.8566C38.6551 27.9618 38.3406 28.0319 38.0087 28.0319C37.6768 28.0319 37.3623 28.102 37.3099 28.2072C37.2575 28.3124 36.7683 28.3825 36.2093 28.3825C35.6503 28.3825 35.1262 28.4702 35.0214 28.5579C34.9165 28.6806 33.3093 28.7157 30.4093 28.6455C27.9635 28.6105 25.0286 28.5228 21.8491 28.3825L21.1852 29.0312C20.8358 29.3994 20.1894 29.9955 19.7527 30.3462C19.3159 30.6968 18.4599 31.4683 17.831 32.0468C17.2021 32.6429 16.643 33.1163 16.5557 33.1163C16.4858 33.1163 16.0665 33.4845 15.5949 33.9579C15.1406 34.4137 14.1798 35.3079 13.4635 35.939C12.7473 36.5702 11.9786 37.1838 11.7515 37.289C11.5418 37.4118 11.2623 37.4468 11.14 37.3767C11.0352 37.3241 10.3714 37.1488 9.7075 37.0085C9.04365 36.8858 8.34485 36.6403 8.17015 36.4825C7.99545 36.3072 7.87316 36.0618 7.87316 35.9215C7.87316 35.7812 8.10027 35.3429 8.36232 34.9572C8.62437 34.5715 8.93883 34.1507 9.04365 34.0455C9.16594 33.9228 9.27075 33.7475 9.27075 33.6423C9.27075 33.5371 9.46292 33.2741 9.7075 33.0286C9.95208 32.7832 10.1442 32.4851 10.1442 32.3799C10.1617 32.2572 10.3015 32.0293 10.4587 31.889C10.6159 31.7488 10.878 31.4157 11.0177 31.1351C11.1575 30.8722 11.3322 30.6618 11.4021 30.6618C11.4894 30.6618 11.5418 30.539 11.5418 30.3988C11.5418 30.2585 11.6117 30.1358 11.7165 30.1358C11.8039 30.1358 11.8912 30.0306 11.8912 29.9254C11.8912 29.8027 12.0834 29.4696 12.328 29.1715C12.5726 28.8735 12.8171 28.5053 12.8521 28.3299C12.9045 28.1722 12.9918 28.0319 13.0617 28.0319C13.1491 28.0319 13.3063 27.839 13.4111 27.5936C13.5334 27.3481 13.6382 27.1202 13.6382 27.0676C13.6382 27.015 13.2364 26.9799 12.7647 26.9799C12.2756 26.9799 11.8912 26.9098 11.8912 26.8046C11.8912 26.6994 11.3147 26.5942 10.6159 26.5416C9.93461 26.5066 8.79907 26.3838 8.13521 26.2786C7.47136 26.1735 6.35329 26.0157 5.68943 25.928C5.02557 25.8403 3.9075 25.7001 3.24365 25.5949C2.57979 25.5072 1.75871 25.3494 1.44425 25.2442C1.14726 25.139 0.780393 24.9462 0.658104 24.8235C0.553285 24.7007 0.343646 24.4202 0.221357 24.2098C0.116538 23.9994 0.0117188 23.5085 0.0117188 23.1228C0.0117188 22.5442 0.134008 22.2988 0.710514 21.7202C1.12979 21.2994 1.3569 20.9312 1.28702 20.8085C1.21714 20.6858 1.11232 20.0722 1.02497 19.441C0.937622 18.8098 0.797863 17.828 0.693044 17.2494C0.605695 16.6709 0.483406 15.8118 0.430996 15.3209C0.378586 14.8475 0.256297 14.3566 0.168948 14.2689C0.0815983 14.1812 0.0117188 13.7429 0.0117188 13.3046C0.0291886 12.7611 0.116538 12.4455 0.326177 12.3053C0.500875 12.1825 1.23461 12.0774 2.1081 12.0774C3.1563 12.0774 3.71533 12.1475 3.97738 12.3403C4.20449 12.4806 4.37919 12.7261 4.37919 12.8663C4.37919 13.0066 4.46654 13.1293 4.55389 13.1293C4.64124 13.1293 4.72859 13.2871 4.72859 13.4799C4.72859 13.6728 4.81594 13.8657 4.90329 13.9183C4.99063 13.9709 5.07798 14.1637 5.07798 14.3566C5.07798 14.5494 5.16533 14.7072 5.25268 14.7072C5.34003 14.7072 5.42738 14.865 5.42738 15.0579C5.42738 15.2507 5.51473 15.4085 5.60208 15.4085C5.68943 15.4085 5.77678 15.5663 5.77678 15.7592C5.77678 15.952 5.86413 16.1098 5.95148 16.1098C6.03883 16.1098 6.12618 16.2676 6.12618 16.4605C6.12618 16.6533 6.17859 16.8286 6.24847 16.8462C6.33582 16.8812 6.66774 17.4598 7.64606 19.3533L12.4677 19.3884C17.2021 19.441 17.3069 19.441 17.3069 19.0903C17.3069 18.8975 17.237 18.7046 17.1322 18.652C17.0274 18.5994 16.9575 18.4066 16.9575 18.2137C16.9575 18.0209 16.8876 17.8631 16.7828 17.8631C16.678 17.8631 16.6081 17.7053 16.6081 17.5124C16.6081 17.3196 16.5382 17.1618 16.4334 17.1618C16.3286 17.1618 16.2587 17.004 16.2587 16.8111C16.2587 16.6183 16.1888 16.4605 16.084 16.4605C15.9792 16.4605 15.9093 16.2676 15.9093 16.0222C15.9093 15.7767 15.8394 15.5838 15.7346 15.5838C15.6298 15.5838 15.5599 15.4611 15.5599 15.3209C15.5599 15.1806 15.49 14.9176 15.4027 14.7423C15.3153 14.5845 15.0183 13.9358 14.7214 13.3046C14.4418 12.6735 14.075 11.867 13.9177 11.4988C13.7605 11.1481 13.6382 10.6748 13.6382 10.4468Z" fill="white"/>
<path d="M20.1894 36.0968C20.4864 35.8338 20.8708 35.5358 21.0629 35.4306C21.2551 35.3254 21.7442 35.2202 22.1635 35.2202C22.5653 35.2202 23.1069 35.3254 23.3864 35.4657C23.6485 35.5884 24.0503 35.939 24.2949 36.2196C24.5394 36.5176 24.8539 36.9209 24.9936 37.1312C25.1509 37.3592 25.4479 37.4994 25.7449 37.4994C26.0069 37.4994 26.3912 37.5871 26.6183 37.7098C26.828 37.815 27.1774 38.0955 27.4045 38.3235C27.6141 38.5514 27.7888 38.8494 27.7888 38.9897C27.7888 39.1299 27.8936 39.4105 28.0159 39.6033C28.1906 39.8838 28.1906 40.0241 28.0159 40.3046C27.8936 40.4975 27.7888 40.778 27.7888 40.9183C27.7888 41.0585 27.7189 41.1812 27.6141 41.1812C27.5093 41.1812 27.4394 41.304 27.4394 41.4442C27.4394 41.5845 27.3696 41.7072 27.2822 41.7072C27.1949 41.7072 27.0027 41.8124 26.8804 41.9351C26.7581 42.0579 26.3738 42.2683 26.0418 42.3735C25.64 42.5137 24.1027 42.5838 21.4997 42.5838C19.3334 42.5838 17.3069 42.5137 17.0099 42.4085C16.6955 42.3209 16.3111 42.128 16.1714 42.0053C16.0141 41.9001 15.7346 41.6371 15.5599 41.4442C15.3677 41.2514 15.1581 40.8131 15.1057 40.4799C15.0533 40.1468 15.0533 39.5858 15.1232 39.2527C15.2105 38.8845 15.5075 38.4111 15.8918 38.0605C16.2587 37.7449 16.7129 37.4994 16.9575 37.4994C17.2021 37.4994 17.6214 37.3592 17.9183 37.1663C18.2153 36.991 18.722 36.7981 19.0539 36.7105C19.3858 36.6403 19.8924 36.3598 20.1894 36.0968Z" fill="white"/>
<path d="M6.51038 2.5745C6.72002 2.25892 7.01701 1.90827 7.17424 1.78554C7.314 1.66281 7.61099 1.55762 7.8381 1.55762C8.04773 1.55762 8.43207 1.69788 8.67665 1.8732C8.97364 2.06606 9.14834 2.39918 9.23569 2.87255C9.2881 3.25827 9.44532 3.67905 9.56761 3.80177C9.70737 3.9245 9.98689 3.95957 10.2664 3.88944C10.5459 3.83684 10.8429 3.78424 10.9303 3.78424C11.0176 3.78424 11.2622 3.78424 11.4544 3.80177C11.6465 3.81931 11.9086 4.0297 12.0309 4.27515C12.2056 4.6258 12.2056 4.80112 12.0309 5.15177C11.8911 5.39723 11.6116 5.60762 11.367 5.64268C11.1224 5.67775 9.06099 5.69528 6.77243 5.69528C3.27846 5.67775 2.59713 5.64268 2.45737 5.41476C2.37002 5.2745 2.28267 4.97645 2.28267 4.76606C2.28267 4.53814 2.30014 4.24008 2.33508 4.09982C2.37002 3.94203 2.68448 3.81931 3.15617 3.74918C3.59291 3.69658 4.13448 3.48619 4.37906 3.29333C4.71099 3.03034 4.97304 2.96021 5.46219 3.03034C6.05617 3.11801 6.16099 3.08294 6.51038 2.5745Z" fill="#696969"/>
<path d="M34.8116 7.2732C34.9339 7.13294 35.2309 6.78229 35.4754 6.48424C35.7899 6.08099 36.0345 5.94073 36.4712 5.94073C36.8556 5.94073 37.1875 6.08099 37.4845 6.37905C37.7756 6.67125 37.9212 7.01021 37.9212 7.39593C37.9038 7.69398 38.026 8.0797 38.1833 8.21995C38.4453 8.44788 38.5501 8.44788 39.1441 8.21995C39.7032 8.00957 39.9128 7.99203 40.2797 8.18489C40.5941 8.34268 40.7164 8.53554 40.7164 8.92125C40.7164 9.21931 40.6116 9.56995 40.4718 9.71021C40.2622 9.93814 39.4935 9.9732 35.755 9.9732C31.4574 9.9732 31.2827 9.95567 31.108 9.62255C31.0032 9.4297 30.9333 9.11411 30.9333 8.92125C30.9333 8.7284 31.0556 8.44788 31.2128 8.30762C31.3526 8.16736 31.7718 8.04463 32.1212 8.04463C32.5754 8.0271 32.8724 7.90437 33.0821 7.64138C33.3441 7.3258 33.5014 7.2732 33.9905 7.39593C34.4273 7.48359 34.6718 7.44853 34.8116 7.2732Z" fill="#696969"/>
<path d="M15.7345 11.8141C15.6297 11.7615 15.5598 11.6563 15.5598 11.5511C15.5598 11.4635 15.9441 11.3758 16.4333 11.3758C16.905 11.3758 17.3068 11.4284 17.3068 11.5161C17.3068 11.5862 17.7785 12.1998 18.3724 12.8661C18.9664 13.5323 19.7875 14.4615 20.2068 14.9349C20.626 15.3907 20.9754 15.794 20.9754 15.8466C20.9754 15.8992 21.4995 16.4777 22.1459 17.144C22.8098 17.8102 23.4736 18.5992 23.9453 19.4407H19.1411L18.3899 17.8277C17.9881 16.9336 17.6562 16.092 17.6562 15.9868C17.6562 15.8641 17.5863 15.7589 17.4815 15.7589C17.3766 15.7589 17.3068 15.6011 17.3068 15.4083C17.3068 15.2154 17.2369 15.0576 17.1321 15.0576C17.0273 15.0576 16.9574 14.8998 16.9574 14.707C16.9574 14.5141 16.8875 14.3213 16.7827 14.2687C16.6779 14.2161 16.608 14.0232 16.608 13.8303C16.608 13.6375 16.5381 13.4797 16.4333 13.4797C16.3285 13.4797 16.2586 13.3219 16.2586 13.129C16.2586 12.9362 16.1887 12.7784 16.0839 12.7784C15.9791 12.7784 15.9092 12.5855 15.9092 12.3401C15.9092 12.0946 15.8393 11.8667 15.7345 11.8141Z" fill="#696969"/>
<path d="M2.17785 17.3368C1.91581 15.6537 1.75858 14.1284 1.81099 13.9706C1.88087 13.7953 1.98569 13.655 2.05557 13.655C2.14291 13.655 2.42243 13.6901 2.71942 13.7602C3.1387 13.8303 3.33087 14.0232 3.68026 14.8122C3.92484 15.3206 4.16942 15.7589 4.2393 15.7589C4.32665 15.7589 4.37906 15.9167 4.37906 16.1096C4.37906 16.3024 4.46641 16.4602 4.55376 16.4602C4.64111 16.4602 4.72846 16.618 4.72846 16.8109C4.72846 17.0037 4.81581 17.1615 4.90316 17.1615C4.9905 17.1615 5.07785 17.3193 5.07785 17.5122C5.07785 17.705 5.1652 17.8628 5.25255 17.8628C5.3399 17.8628 5.42725 18.0206 5.42725 18.2135C5.42725 18.4063 5.5146 18.5641 5.60195 18.5641C5.6893 18.5641 5.77665 18.7219 5.77665 18.9148C5.77665 19.1076 5.864 19.2654 5.95135 19.2654C6.0387 19.2654 6.12605 19.3881 6.12605 19.5284C6.12605 19.6687 6.28328 20.0368 6.82484 20.8433L19.8923 20.9135C27.0724 20.9485 33.3092 21.0187 33.7809 21.0888C34.2351 21.1414 34.602 21.2641 34.602 21.3693C34.602 21.4745 34.7941 21.5446 35.0387 21.5446C35.2833 21.5446 35.5104 21.6148 35.5628 21.72C35.6152 21.8251 35.8074 21.8953 35.9995 21.8953C36.1917 21.8953 36.3489 21.9654 36.3489 22.0706C36.3489 22.1758 36.4712 22.2459 36.611 22.2459C36.7507 22.2459 36.873 22.4037 36.873 22.5966C36.873 22.9122 36.7507 22.9472 35.423 22.9472C34.4971 22.9472 33.9032 23.0174 33.7634 23.1751C33.6411 23.2803 33.5538 23.5959 33.5538 23.8764C33.5538 24.1394 33.676 24.3849 33.8158 24.4375C33.9556 24.4901 34.6718 24.5252 35.3881 24.5252C36.4363 24.5252 36.873 24.4375 37.5718 24.0868C38.061 23.8414 38.6375 23.6485 38.8821 23.6485C39.1267 23.6485 39.3188 23.7187 39.3188 23.8239C39.3188 23.929 39.3887 23.9992 39.4935 23.9992C39.5983 23.9992 39.9827 24.192 40.367 24.4375C40.7514 24.6829 41.0309 24.981 41.0134 25.1037C40.9785 25.2089 40.7164 25.4368 40.4369 25.5946C40.1574 25.7349 39.5634 25.9803 39.0917 26.1206C38.6375 26.2609 38.2706 26.4187 38.2706 26.5063C38.2706 26.5764 37.9212 26.629 37.4845 26.629C37.0477 26.629 36.6634 26.6992 36.611 26.8044C36.5586 26.9096 35.9821 26.9797 35.3007 26.9797C34.6369 26.9797 34.0429 27.0498 33.9905 27.155C33.9381 27.2602 32.5929 27.3303 30.4965 27.3303C28.3477 27.3303 27.0899 27.2602 27.0899 27.155C27.0899 27.0498 26.4785 26.9797 25.605 26.9797C24.3122 26.9797 24.12 26.9446 24.12 26.6816C24.12 26.5063 24.3122 26.2083 24.5568 26.0154C24.8538 25.7875 25.011 25.4894 24.9935 25.1914C24.9935 24.9109 24.8887 24.6479 24.7839 24.5953C24.6616 24.5251 23.8405 24.4024 22.9845 24.3323C22.1285 24.2446 20.3989 24.0868 19.1411 23.9816C17.8833 23.8589 16.6779 23.7713 16.4333 23.7888C16.1887 23.7888 15.9441 23.9115 15.8917 24.0342C15.8218 24.157 15.6471 24.4024 15.4899 24.5777C15.3327 24.7355 15.2104 24.9109 15.2104 24.9635C15.2104 25.0161 15.0706 25.1914 14.9134 25.3492C14.6688 25.5771 14.4242 25.6122 13.7254 25.5245C13.2538 25.4544 12.2929 25.3316 11.6291 25.244C10.9652 25.1563 9.81219 24.9985 9.09593 24.8933C8.37966 24.7881 6.91219 24.5953 5.864 24.455C4.81581 24.2972 3.55797 24.1394 3.06882 24.0693C2.59713 24.0167 2.02063 23.8414 1.81099 23.7187C1.58388 23.5784 1.40918 23.368 1.40918 23.2628C1.40918 23.1401 1.61882 22.8771 1.8634 22.6842C2.12544 22.4914 2.47484 22.2109 2.64954 22.0706C2.89412 21.8602 2.92906 21.6849 2.80677 21.1063C2.73689 20.7206 2.45737 19.02 2.17785 17.3368Z" fill="#696969"/>
<path d="M16.2062 26.0855C16.3809 25.8751 16.6254 25.6122 16.7477 25.4719C16.87 25.3316 17.0797 25.2264 17.1845 25.2264C17.3068 25.2264 17.7785 25.2966 18.2676 25.3842C18.7393 25.4719 19.7001 25.5771 20.364 25.5946C21.0279 25.6122 21.7267 25.6648 21.8839 25.6998C22.0586 25.7349 22.1983 25.8752 22.1983 26.0154C22.1983 26.1557 22.0236 26.3661 21.7965 26.4888C21.5869 26.594 21.0104 27.1024 20.5212 27.5758C20.0321 28.0667 19.176 28.8732 18.617 29.3466C18.058 29.8375 17.3941 30.4161 17.1321 30.6615C16.87 30.907 16.3983 31.3102 16.0664 31.5907C15.7345 31.8537 15.0007 32.5024 14.4242 33.0284C13.8477 33.5544 12.9393 34.3784 12.4152 34.8693C11.8038 35.4128 11.2971 35.7459 11.0176 35.7459C10.773 35.7459 10.4411 35.6583 10.2489 35.5355C9.95195 35.3251 9.95195 35.2901 10.214 35.0096C10.3712 34.8342 10.4935 34.6239 10.4935 34.5187C10.4935 34.431 10.6857 34.1505 10.9303 33.905C11.1748 33.6596 11.367 33.4141 11.367 33.344C11.367 33.2563 11.5592 32.9758 11.8038 32.6777C12.0483 32.3972 12.2405 32.0466 12.2405 31.9414C12.2405 31.8187 12.2929 31.7135 12.3628 31.7135C12.4501 31.7135 12.817 31.2226 13.2013 30.6089C13.5857 30.0128 13.9875 29.4167 14.1098 29.3115C14.2321 29.1888 14.3718 28.9258 14.4242 28.7329C14.4767 28.5401 14.5815 28.3823 14.6863 28.3823C14.7911 28.3823 14.8959 28.2245 14.9483 28.0316C15.0007 27.8388 15.2279 27.4881 15.4724 27.2427C15.717 26.9972 15.9092 26.7342 15.9092 26.629C15.9092 26.5414 16.0489 26.2959 16.2062 26.0855Z" fill="#696969"/>
<path d="M20.9405 37.4466C20.923 37.3063 21.0977 37.1135 21.3248 37.0083C21.5694 36.9031 21.9538 36.8154 22.1983 36.7979C22.4429 36.7979 22.8098 36.9206 23.0369 37.0959C23.2815 37.2888 23.4736 37.6745 23.5435 38.1128C23.5959 38.4985 23.7357 38.9193 23.8405 39.042C23.9453 39.1648 24.2074 39.27 24.417 39.2524C24.6441 39.2524 24.8188 39.1823 24.8188 39.0771C24.8188 38.9894 25.0459 38.9018 25.3429 38.9018C25.6399 38.9018 25.9893 39.0245 26.1291 39.1648C26.2688 39.305 26.3911 39.6907 26.3911 40.0063C26.4086 40.4271 26.3038 40.62 25.9544 40.7953C25.6399 40.9355 24.3646 41.0057 21.4995 41.0057C18.6345 41.0057 17.3592 40.9355 17.0447 40.7953C16.6953 40.62 16.5905 40.4271 16.608 40.0063C16.608 39.6907 16.7128 39.305 16.8526 39.1648C16.9923 39.0245 17.4116 38.9018 17.7785 38.9018C18.2676 38.9018 18.4947 38.8141 18.617 38.5511C18.7568 38.2706 18.9664 38.2005 19.6303 38.2005C20.1544 38.2005 20.5736 38.0953 20.7309 37.9375C20.8706 37.7972 20.958 37.5693 20.9405 37.4466Z" fill="#696969"/>
<path d="M9.35767 22.5968C9.30526 22.4039 9.30526 22.0883 9.37514 21.8955C9.44502 21.615 9.61972 21.5448 10.1613 21.5448C10.8426 21.5448 10.8426 21.5448 10.8426 22.9474H10.1438C9.58478 22.9474 9.42755 22.8773 9.35767 22.5968Z" fill="white"/>
<path d="M12.2402 22.9474V22.2461V21.5448H13.6378V22.9474H12.2402Z" fill="white"/>
<path d="M14.9306 22.6318C14.8607 22.4741 14.8607 22.1585 14.9306 21.9305V21.9481C15.0179 21.65 15.1751 21.5448 15.5595 21.5448C15.8565 21.5448 16.2059 21.5799 16.3456 21.6325C16.5203 21.6851 16.6077 21.9481 16.6077 22.3338C16.6077 22.9474 16.6077 22.9474 15.8215 22.9474C15.2276 22.9474 15.0004 22.8773 14.9306 22.6318Z" fill="white"/>
<path d="M17.9179 22.5792C17.8655 22.3864 17.8655 22.0708 17.9354 21.8779C18.0053 21.615 18.18 21.5273 18.6342 21.5273C19.2107 21.5273 19.2282 21.5448 19.2282 22.2286C19.2282 22.9124 19.2107 22.9299 18.6167 22.9299C18.145 22.9299 17.9878 22.8422 17.9179 22.5792Z" fill="white"/>
<path d="M20.6257 22.9299L20.6432 22.2111V21.5098L21.4643 21.5624C22.2854 21.615 22.2854 21.615 22.3727 22.9299H20.6257Z" fill="white"/>
<path d="M23.7004 22.5617C23.648 22.3689 23.648 22.0533 23.7004 21.8604C23.7703 21.5974 23.945 21.5098 24.3992 21.5098C24.7836 21.5098 25.0282 21.615 25.098 21.7728C25.133 21.9305 25.133 22.2461 25.098 22.4741C25.0107 22.8422 24.9059 22.9124 24.3992 22.9124C23.9275 22.9124 23.7529 22.8422 23.7004 22.5617Z" fill="white"/>
<path d="M26.3733 22.3338C26.3559 22.0182 26.4083 21.7026 26.4956 21.6325C26.5655 21.5624 26.88 21.5098 27.1769 21.5098C27.4739 21.5098 27.8059 21.615 27.9282 21.7377C28.0504 21.8604 28.1553 22.176 28.1553 22.439C28.1553 22.8948 28.1028 22.9124 27.2818 22.9124C26.4083 22.9124 26.4083 22.9124 26.3733 22.3338Z" fill="white"/>
</svg>
