<svg width="943" height="373" viewBox="0 0 943 373" fill="none" xmlns="http://www.w3.org/2000/svg">
<path d="M937.333 370C937.333 371.473 938.527 372.667 940 372.667C941.473 372.667 942.667 371.473 942.667 370C942.667 368.527 941.473 367.333 940 367.333C938.527 367.333 937.333 368.527 937.333 370ZM2.5 1.5C2.77614 1.5 3 1.27614 3 1C3 0.723858 2.77614 0.5 2.5 0.5V1.5ZM7.5 0.5C7.22386 0.5 7 0.723858 7 1C7 1.27614 7.22386 1.5 7.5 1.5V0.5ZM12.5 1.5C12.7761 1.5 13 1.27614 13 1C13 0.723858 12.7761 0.5 12.5 0.5V1.5ZM17.5 0.5C17.2239 0.5 17 0.723858 17 1C17 1.27614 17.2239 1.5 17.5 1.5V0.5ZM22.5 1.5C22.7761 1.5 23 1.27614 23 1C23 0.723858 22.7761 0.5 22.5 0.5V1.5ZM27.5 0.5C27.2239 0.5 27 0.723858 27 1C27 1.27614 27.2239 1.5 27.5 1.5V0.5ZM32.5 1.5C32.7761 1.5 33 1.27614 33 1C33 0.723858 32.7761 0.5 32.5 0.5V1.5ZM37.5 0.5C37.2239 0.5 37 0.723858 37 1C37 1.27614 37.2239 1.5 37.5 1.5V0.5ZM42.5 1.5C42.7761 1.5 43 1.27614 43 1C43 0.723858 42.7761 0.5 42.5 0.5V1.5ZM47.5 0.5C47.2239 0.5 47 0.723858 47 1C47 1.27614 47.2239 1.5 47.5 1.5V0.5ZM52.5 1.5C52.7761 1.5 53 1.27614 53 1C53 0.723858 52.7761 0.5 52.5 0.5V1.5ZM57.5 0.5C57.2239 0.5 57 0.723858 57 1C57 1.27614 57.2239 1.5 57.5 1.5V0.5ZM62.5 1.5C62.7761 1.5 63 1.27614 63 1C63 0.723858 62.7761 0.5 62.5 0.5V1.5ZM67.5 0.5C67.2239 0.5 67 0.723858 67 1C67 1.27614 67.2239 1.5 67.5 1.5V0.5ZM72.5 1.5C72.7761 1.5 73 1.27614 73 1C73 0.723858 72.7761 0.5 72.5 0.5V1.5ZM77.5 0.5C77.2239 0.5 77 0.723858 77 1C77 1.27614 77.2239 1.5 77.5 1.5V0.5ZM82.5 1.5C82.7761 1.5 83 1.27614 83 1C83 0.723858 82.7761 0.5 82.5 0.5V1.5ZM87.5 0.5C87.2239 0.5 87 0.723858 87 1C87 1.27614 87.2239 1.5 87.5 1.5V0.5ZM92.5 1.5C92.7761 1.5 93 1.27614 93 1C93 0.723858 92.7761 0.5 92.5 0.5V1.5ZM97.5 0.5C97.2239 0.5 97 0.723858 97 1C97 1.27614 97.2239 1.5 97.5 1.5V0.5ZM102.5 1.5C102.776 1.5 103 1.27614 103 1C103 0.723858 102.776 0.5 102.5 0.5V1.5ZM107.5 0.5C107.224 0.5 107 0.723858 107 1C107 1.27614 107.224 1.5 107.5 1.5V0.5ZM112.5 1.5C112.776 1.5 113 1.27614 113 1C113 0.723858 112.776 0.5 112.5 0.5V1.5ZM117.5 0.5C117.224 0.5 117 0.723858 117 1C117 1.27614 117.224 1.5 117.5 1.5V0.5ZM122.5 1.5C122.776 1.5 123 1.27614 123 1C123 0.723858 122.776 0.5 122.5 0.5V1.5ZM127.5 0.5C127.224 0.5 127 0.723858 127 1C127 1.27614 127.224 1.5 127.5 1.5V0.5ZM132.5 1.5C132.776 1.5 133 1.27614 133 1C133 0.723858 132.776 0.5 132.5 0.5V1.5ZM137.5 0.5C137.224 0.5 137 0.723858 137 1C137 1.27614 137.224 1.5 137.5 1.5V0.5ZM142.5 1.5C142.776 1.5 143 1.27614 143 1C143 0.723858 142.776 0.5 142.5 0.5V1.5ZM147.5 0.5C147.224 0.5 147 0.723858 147 1C147 1.27614 147.224 1.5 147.5 1.5V0.5ZM152.5 1.5C152.776 1.5 153 1.27614 153 1C153 0.723858 152.776 0.5 152.5 0.5V1.5ZM157.5 0.5C157.224 0.5 157 0.723858 157 1C157 1.27614 157.224 1.5 157.5 1.5V0.5ZM162.5 1.5C162.776 1.5 163 1.27614 163 1C163 0.723858 162.776 0.5 162.5 0.5V1.5ZM167.5 0.5C167.224 0.5 167 0.723858 167 1C167 1.27614 167.224 1.5 167.5 1.5V0.5ZM172.5 1.5C172.776 1.5 173 1.27614 173 1C173 0.723858 172.776 0.5 172.5 0.5V1.5ZM177.5 0.5C177.224 0.5 177 0.723858 177 1C177 1.27614 177.224 1.5 177.5 1.5V0.5ZM182.5 1.5C182.776 1.5 183 1.27614 183 1C183 0.723858 182.776 0.5 182.5 0.5V1.5ZM187.5 0.5C187.224 0.5 187 0.723858 187 1C187 1.27614 187.224 1.5 187.5 1.5V0.5ZM192.5 1.5C192.776 1.5 193 1.27614 193 1C193 0.723858 192.776 0.5 192.5 0.5V1.5ZM197.5 0.5C197.224 0.5 197 0.723858 197 1C197 1.27614 197.224 1.5 197.5 1.5V0.5ZM202.5 1.5C202.776 1.5 203 1.27614 203 1C203 0.723858 202.776 0.5 202.5 0.5V1.5ZM207.5 0.5C207.224 0.5 207 0.723858 207 1C207 1.27614 207.224 1.5 207.5 1.5V0.5ZM212.5 1.5C212.776 1.5 213 1.27614 213 1C213 0.723858 212.776 0.5 212.5 0.5V1.5ZM217.5 0.5C217.224 0.5 217 0.723858 217 1C217 1.27614 217.224 1.5 217.5 1.5V0.5ZM222.5 1.5C222.776 1.5 223 1.27614 223 1C223 0.723858 222.776 0.5 222.5 0.5V1.5ZM227.5 0.5C227.224 0.5 227 0.723858 227 1C227 1.27614 227.224 1.5 227.5 1.5V0.5ZM232.5 1.5C232.776 1.5 233 1.27614 233 1C233 0.723858 232.776 0.5 232.5 0.5V1.5ZM237.5 0.5C237.224 0.5 237 0.723858 237 1C237 1.27614 237.224 1.5 237.5 1.5V0.5ZM242.5 1.5C242.776 1.5 243 1.27614 243 1C243 0.723858 242.776 0.5 242.5 0.5V1.5ZM247.5 0.5C247.224 0.5 247 0.723858 247 1C247 1.27614 247.224 1.5 247.5 1.5V0.5ZM252.5 1.5C252.776 1.5 253 1.27614 253 1C253 0.723858 252.776 0.5 252.5 0.5V1.5ZM257.5 0.5C257.224 0.5 257 0.723858 257 1C257 1.27614 257.224 1.5 257.5 1.5V0.5ZM262.5 1.5C262.776 1.5 263 1.27614 263 1C263 0.723858 262.776 0.5 262.5 0.5V1.5ZM267.5 0.5C267.224 0.5 267 0.723858 267 1C267 1.27614 267.224 1.5 267.5 1.5V0.5ZM272.5 1.5C272.776 1.5 273 1.27614 273 1C273 0.723858 272.776 0.5 272.5 0.5V1.5ZM277.5 0.5C277.224 0.5 277 0.723858 277 1C277 1.27614 277.224 1.5 277.5 1.5V0.5ZM282.5 1.5C282.776 1.5 283 1.27614 283 1C283 0.723858 282.776 0.5 282.5 0.5V1.5ZM287.5 0.5C287.224 0.5 287 0.723858 287 1C287 1.27614 287.224 1.5 287.5 1.5V0.5ZM292.5 1.5C292.776 1.5 293 1.27614 293 1C293 0.723858 292.776 0.5 292.5 0.5V1.5ZM297.5 0.5C297.224 0.5 297 0.723858 297 1C297 1.27614 297.224 1.5 297.5 1.5V0.5ZM302.5 1.5C302.776 1.5 303 1.27614 303 1C303 0.723858 302.776 0.5 302.5 0.5V1.5ZM307.5 0.5C307.224 0.5 307 0.723858 307 1C307 1.27614 307.224 1.5 307.5 1.5V0.5ZM312.5 1.5C312.776 1.5 313 1.27614 313 1C313 0.723858 312.776 0.5 312.5 0.5V1.5ZM317.5 0.5C317.224 0.5 317 0.723858 317 1C317 1.27614 317.224 1.5 317.5 1.5V0.5ZM322.5 1.5C322.776 1.5 323 1.27614 323 1C323 0.723858 322.776 0.5 322.5 0.5V1.5ZM327.5 0.5C327.224 0.5 327 0.723858 327 1C327 1.27614 327.224 1.5 327.5 1.5V0.5ZM332.5 1.5C332.776 1.5 333 1.27614 333 1C333 0.723858 332.776 0.5 332.5 0.5V1.5ZM337.5 0.5C337.224 0.5 337 0.723858 337 1C337 1.27614 337.224 1.5 337.5 1.5V0.5ZM342.5 1.5C342.776 1.5 343 1.27614 343 1C343 0.723858 342.776 0.5 342.5 0.5V1.5ZM347.5 0.5C347.224 0.5 347 0.723858 347 1C347 1.27614 347.224 1.5 347.5 1.5V0.5ZM352.5 1.5C352.776 1.5 353 1.27614 353 1C353 0.723858 352.776 0.5 352.5 0.5V1.5ZM357.5 0.5C357.224 0.5 357 0.723858 357 1C357 1.27614 357.224 1.5 357.5 1.5V0.5ZM362.5 1.5C362.776 1.5 363 1.27614 363 1C363 0.723858 362.776 0.5 362.5 0.5V1.5ZM367.5 0.5C367.224 0.5 367 0.723858 367 1C367 1.27614 367.224 1.5 367.5 1.5V0.5ZM372.5 1.5C372.776 1.5 373 1.27614 373 1C373 0.723858 372.776 0.5 372.5 0.5V1.5ZM377.5 0.5C377.224 0.5 377 0.723858 377 1C377 1.27614 377.224 1.5 377.5 1.5V0.5ZM382.5 1.5C382.776 1.5 383 1.27614 383 1C383 0.723858 382.776 0.5 382.5 0.5V1.5ZM387.5 0.5C387.224 0.5 387 0.723858 387 1C387 1.27614 387.224 1.5 387.5 1.5V0.5ZM392.5 1.5C392.776 1.5 393 1.27614 393 1C393 0.723858 392.776 0.5 392.5 0.5V1.5ZM397.5 0.5C397.224 0.5 397 0.723858 397 1C397 1.27614 397.224 1.5 397.5 1.5V0.5ZM402.5 1.5C402.776 1.5 403 1.27614 403 1C403 0.723858 402.776 0.5 402.5 0.5V1.5ZM407.5 0.5C407.224 0.5 407 0.723858 407 1C407 1.27614 407.224 1.5 407.5 1.5V0.5ZM412.5 1.5C412.776 1.5 413 1.27614 413 1C413 0.723858 412.776 0.5 412.5 0.5V1.5ZM417.5 0.5C417.224 0.5 417 0.723858 417 1C417 1.27614 417.224 1.5 417.5 1.5V0.5ZM422.5 1.5C422.776 1.5 423 1.27614 423 1C423 0.723858 422.776 0.5 422.5 0.5V1.5ZM427.5 0.5C427.224 0.5 427 0.723858 427 1C427 1.27614 427.224 1.5 427.5 1.5V0.5ZM432.5 1.5C432.776 1.5 433 1.27614 433 1C433 0.723858 432.776 0.5 432.5 0.5V1.5ZM437.5 0.5C437.224 0.5 437 0.723858 437 1C437 1.27614 437.224 1.5 437.5 1.5V0.5ZM442.5 1.5C442.776 1.5 443 1.27614 443 1C443 0.723858 442.776 0.5 442.5 0.5V1.5ZM447.5 0.5C447.224 0.5 447 0.723858 447 1C447 1.27614 447.224 1.5 447.5 1.5V0.5ZM452.5 1.5C452.776 1.5 453 1.27614 453 1C453 0.723858 452.776 0.5 452.5 0.5V1.5ZM457.5 0.5C457.224 0.5 457 0.723858 457 1C457 1.27614 457.224 1.5 457.5 1.5V0.5ZM462.5 1.5C462.776 1.5 463 1.27614 463 1C463 0.723858 462.776 0.5 462.5 0.5V1.5ZM467.5 0.5C467.224 0.5 467 0.723858 467 1C467 1.27614 467.224 1.5 467.5 1.5V0.5ZM472.5 1.5C472.776 1.5 473 1.27614 473 1C473 0.723858 472.776 0.5 472.5 0.5V1.5ZM477.5 0.5C477.224 0.5 477 0.723858 477 1C477 1.27614 477.224 1.5 477.5 1.5V0.5ZM482.5 1.5C482.776 1.5 483 1.27614 483 1C483 0.723858 482.776 0.5 482.5 0.5V1.5ZM487.5 0.5C487.224 0.5 487 0.723858 487 1C487 1.27614 487.224 1.5 487.5 1.5V0.5ZM492.5 1.5C492.776 1.5 493 1.27614 493 1C493 0.723858 492.776 0.5 492.5 0.5V1.5ZM497.5 0.5C497.224 0.5 497 0.723858 497 1C497 1.27614 497.224 1.5 497.5 1.5V0.5ZM502.5 1.5C502.776 1.5 503 1.27614 503 1C503 0.723858 502.776 0.5 502.5 0.5V1.5ZM507.5 0.5C507.224 0.5 507 0.723858 507 1C507 1.27614 507.224 1.5 507.5 1.5V0.5ZM512.5 1.5C512.776 1.5 513 1.27614 513 1C513 0.723858 512.776 0.5 512.5 0.5V1.5ZM517.5 0.5C517.224 0.5 517 0.723858 517 1C517 1.27614 517.224 1.5 517.5 1.5V0.5ZM522.5 1.5C522.776 1.5 523 1.27614 523 1C523 0.723858 522.776 0.5 522.5 0.5V1.5ZM527.5 0.5C527.224 0.5 527 0.723858 527 1C527 1.27614 527.224 1.5 527.5 1.5V0.5ZM532.5 1.5C532.776 1.5 533 1.27614 533 1C533 0.723858 532.776 0.5 532.5 0.5V1.5ZM537.5 0.5C537.224 0.5 537 0.723858 537 1C537 1.27614 537.224 1.5 537.5 1.5V0.5ZM542.5 1.5C542.776 1.5 543 1.27614 543 1C543 0.723858 542.776 0.5 542.5 0.5V1.5ZM547.5 0.5C547.224 0.5 547 0.723858 547 1C547 1.27614 547.224 1.5 547.5 1.5V0.5ZM552.5 1.5C552.776 1.5 553 1.27614 553 1C553 0.723858 552.776 0.5 552.5 0.5V1.5ZM557.5 0.5C557.224 0.5 557 0.723858 557 1C557 1.27614 557.224 1.5 557.5 1.5V0.5ZM562.5 1.5C562.776 1.5 563 1.27614 563 1C563 0.723858 562.776 0.5 562.5 0.5V1.5ZM567.5 0.5C567.224 0.5 567 0.723858 567 1C567 1.27614 567.224 1.5 567.5 1.5V0.5ZM572.5 1.5C572.776 1.5 573 1.27614 573 1C573 0.723858 572.776 0.5 572.5 0.5V1.5ZM577.5 0.5C577.224 0.5 577 0.723858 577 1C577 1.27614 577.224 1.5 577.5 1.5V0.5ZM582.5 1.5C582.776 1.5 583 1.27614 583 1C583 0.723858 582.776 0.5 582.5 0.5V1.5ZM587.5 0.5C587.224 0.5 587 0.723858 587 1C587 1.27614 587.224 1.5 587.5 1.5V0.5ZM592.5 1.5C592.776 1.5 593 1.27614 593 1C593 0.723858 592.776 0.5 592.5 0.5V1.5ZM597.5 0.5C597.224 0.5 597 0.723858 597 1C597 1.27614 597.224 1.5 597.5 1.5V0.5ZM602.5 1.5C602.776 1.5 603 1.27614 603 1C603 0.723858 602.776 0.5 602.5 0.5V1.5ZM607.5 0.5C607.224 0.5 607 0.723858 607 1C607 1.27614 607.224 1.5 607.5 1.5V0.5ZM612.5 1.5C612.776 1.5 613 1.27614 613 1C613 0.723858 612.776 0.5 612.5 0.5V1.5ZM617.5 0.5C617.224 0.5 617 0.723858 617 1C617 1.27614 617.224 1.5 617.5 1.5V0.5ZM622.5 1.5C622.776 1.5 623 1.27614 623 1C623 0.723858 622.776 0.5 622.5 0.5V1.5ZM627.5 0.5C627.224 0.5 627 0.723858 627 1C627 1.27614 627.224 1.5 627.5 1.5V0.5ZM632.5 1.5C632.776 1.5 633 1.27614 633 1C633 0.723858 632.776 0.5 632.5 0.5V1.5ZM637.5 0.5C637.224 0.5 637 0.723858 637 1C637 1.27614 637.224 1.5 637.5 1.5V0.5ZM642.5 1.5C642.776 1.5 643 1.27614 643 1C643 0.723858 642.776 0.5 642.5 0.5V1.5ZM647.5 0.5C647.224 0.5 647 0.723858 647 1C647 1.27614 647.224 1.5 647.5 1.5V0.5ZM652.5 1.5C652.776 1.5 653 1.27614 653 1C653 0.723858 652.776 0.5 652.5 0.5V1.5ZM657.5 0.5C657.224 0.5 657 0.723858 657 1C657 1.27614 657.224 1.5 657.5 1.5V0.5ZM662.5 1.5C662.776 1.5 663 1.27614 663 1C663 0.723858 662.776 0.5 662.5 0.5V1.5ZM667.5 0.5C667.224 0.5 667 0.723858 667 1C667 1.27614 667.224 1.5 667.5 1.5V0.5ZM672.5 1.5C672.776 1.5 673 1.27614 673 1C673 0.723858 672.776 0.5 672.5 0.5V1.5ZM677.5 0.5C677.224 0.5 677 0.723858 677 1C677 1.27614 677.224 1.5 677.5 1.5V0.5ZM682.5 1.5C682.776 1.5 683 1.27614 683 1C683 0.723858 682.776 0.5 682.5 0.5V1.5ZM687.5 0.5C687.224 0.5 687 0.723858 687 1C687 1.27614 687.224 1.5 687.5 1.5V0.5ZM692.5 1.5C692.776 1.5 693 1.27614 693 1C693 0.723858 692.776 0.5 692.5 0.5V1.5ZM697.5 0.5C697.224 0.5 697 0.723858 697 1C697 1.27614 697.224 1.5 697.5 1.5V0.5ZM702.5 1.5C702.776 1.5 703 1.27614 703 1C703 0.723858 702.776 0.5 702.5 0.5V1.5ZM707.5 0.5C707.224 0.5 707 0.723858 707 1C707 1.27614 707.224 1.5 707.5 1.5V0.5ZM712.5 1.5C712.776 1.5 713 1.27614 713 1C713 0.723858 712.776 0.5 712.5 0.5V1.5ZM717.5 0.5C717.224 0.5 717 0.723858 717 1C717 1.27614 717.224 1.5 717.5 1.5V0.5ZM722.5 1.5C722.776 1.5 723 1.27614 723 1C723 0.723858 722.776 0.5 722.5 0.5V1.5ZM727.5 0.5C727.224 0.5 727 0.723858 727 1C727 1.27614 727.224 1.5 727.5 1.5V0.5ZM732.5 1.5C732.776 1.5 733 1.27614 733 1C733 0.723858 732.776 0.5 732.5 0.5V1.5ZM737.5 0.5C737.224 0.5 737 0.723858 737 1C737 1.27614 737.224 1.5 737.5 1.5V0.5ZM742.5 1.5C742.776 1.5 743 1.27614 743 1C743 0.723858 742.776 0.5 742.5 0.5V1.5ZM747.5 0.5C747.224 0.5 747 0.723858 747 1C747 1.27614 747.224 1.5 747.5 1.5V0.5ZM752.5 1.5C752.776 1.5 753 1.27614 753 1C753 0.723858 752.776 0.5 752.5 0.5V1.5ZM757.5 0.5C757.224 0.5 757 0.723858 757 1C757 1.27614 757.224 1.5 757.5 1.5V0.5ZM762.5 1.5C762.776 1.5 763 1.27614 763 1C763 0.723858 762.776 0.5 762.5 0.5V1.5ZM767.5 0.5C767.224 0.5 767 0.723858 767 1C767 1.27614 767.224 1.5 767.5 1.5V0.5ZM772.5 1.5C772.776 1.5 773 1.27614 773 1C773 0.723858 772.776 0.5 772.5 0.5V1.5ZM777.5 0.5C777.224 0.5 777 0.723858 777 1C777 1.27614 777.224 1.5 777.5 1.5V0.5ZM782.5 1.5C782.776 1.5 783 1.27614 783 1C783 0.723858 782.776 0.5 782.5 0.5V1.5ZM787.5 0.5C787.224 0.5 787 0.723858 787 1C787 1.27614 787.224 1.5 787.5 1.5V0.5ZM792.5 1.5C792.776 1.5 793 1.27614 793 1C793 0.723858 792.776 0.5 792.5 0.5V1.5ZM797.5 0.5C797.224 0.5 797 0.723858 797 1C797 1.27614 797.224 1.5 797.5 1.5V0.5ZM802.5 1.5C802.776 1.5 803 1.27614 803 1C803 0.723858 802.776 0.5 802.5 0.5V1.5ZM807.5 0.5C807.224 0.5 807 0.723858 807 1C807 1.27614 807.224 1.5 807.5 1.5V0.5ZM812.5 1.5C812.776 1.5 813 1.27614 813 1C813 0.723858 812.776 0.5 812.5 0.5V1.5ZM817.5 0.5C817.224 0.5 817 0.723858 817 1C817 1.27614 817.224 1.5 817.5 1.5V0.5ZM822.5 1.5C822.776 1.5 823 1.27614 823 1C823 0.723858 822.776 0.5 822.5 0.5V1.5ZM827.5 0.5C827.224 0.5 827 0.723858 827 1C827 1.27614 827.224 1.5 827.5 1.5V0.5ZM832.5 1.5C832.776 1.5 833 1.27614 833 1C833 0.723858 832.776 0.5 832.5 0.5V1.5ZM837.5 0.5C837.224 0.5 837 0.723858 837 1C837 1.27614 837.224 1.5 837.5 1.5V0.5ZM842.5 1.5C842.776 1.5 843 1.27614 843 1C843 0.723858 842.776 0.5 842.5 0.5V1.5ZM847.5 0.5C847.224 0.5 847 0.723858 847 1C847 1.27614 847.224 1.5 847.5 1.5V0.5ZM852.5 1.5C852.776 1.5 853 1.27614 853 1C853 0.723858 852.776 0.5 852.5 0.5V1.5ZM857.5 0.5C857.224 0.5 857 0.723858 857 1C857 1.27614 857.224 1.5 857.5 1.5V0.5ZM862.5 1.5C862.776 1.5 863 1.27614 863 1C863 0.723858 862.776 0.5 862.5 0.5V1.5ZM867.5 0.5C867.224 0.5 867 0.723858 867 1C867 1.27614 867.224 1.5 867.5 1.5V0.5ZM872.5 1.5C872.776 1.5 873 1.27614 873 1C873 0.723858 872.776 0.5 872.5 0.5V1.5ZM877.5 0.5C877.224 0.5 877 0.723858 877 1C877 1.27614 877.224 1.5 877.5 1.5V0.5ZM882.5 1.5C882.776 1.5 883 1.27614 883 1C883 0.723858 882.776 0.5 882.5 0.5V1.5ZM887.5 0.5C887.224 0.5 887 0.723858 887 1C887 1.27614 887.224 1.5 887.5 1.5V0.5ZM892.5 1.5C892.776 1.5 893 1.27614 893 1C893 0.723858 892.776 0.5 892.5 0.5V1.5ZM897.5 0.5C897.224 0.5 897 0.723858 897 1C897 1.27614 897.224 1.5 897.5 1.5V0.5ZM902.5 1.5C902.776 1.5 903 1.27614 903 1C903 0.723858 902.776 0.5 902.5 0.5V1.5ZM907.5 0.5C907.224 0.5 907 0.723858 907 1C907 1.27614 907.224 1.5 907.5 1.5V0.5ZM912.5 1.5C912.776 1.5 913 1.27614 913 1C913 0.723858 912.776 0.5 912.5 0.5V1.5ZM917.5 0.5C917.224 0.5 917 0.723858 917 1C917 1.27614 917.224 1.5 917.5 1.5V0.5ZM922.547 1.66485C922.821 1.70056 923.072 1.50754 923.108 1.23372C923.144 0.959897 922.951 0.708965 922.677 0.673247L922.547 1.66485ZM927.847 2.05575C927.592 1.94998 927.3 2.07101 927.194 2.32609C927.088 2.58117 927.209 2.8737 927.464 2.97948L927.847 2.05575ZM931.871 5.52848C932.09 5.69674 932.404 5.65564 932.572 5.43668C932.74 5.21772 932.699 4.90382 932.48 4.73556L931.871 5.52848ZM936.264 8.51966C936.096 8.3007 935.782 8.2596 935.563 8.42786C935.344 8.59613 935.303 8.91003 935.471 9.12899L936.264 8.51966ZM938.021 13.5358C938.126 13.7909 938.419 13.9119 938.674 13.8061C938.929 13.7003 939.05 13.4078 938.944 13.1527L938.021 13.5358ZM940.327 18.3231C940.291 18.0493 940.04 17.8563 939.766 17.892C939.492 17.9277 939.299 18.1787 939.335 18.4525L940.327 18.3231ZM939.5 23.4929C939.5 23.769 939.724 23.9929 940 23.9929C940.276 23.9929 940.5 23.769 940.5 23.4929H939.5ZM940.5 28.4786C940.5 28.2024 940.276 27.9786 940 27.9786C939.724 27.9786 939.5 28.2024 939.5 28.4786H940.5ZM939.5 33.4643C939.5 33.7404 939.724 33.9643 940 33.9643C940.276 33.9643 940.5 33.7404 940.5 33.4643H939.5ZM940.5 38.45C940.5 38.1739 940.276 37.95 940 37.95C939.724 37.95 939.5 38.1739 939.5 38.45H940.5ZM939.5 43.4357C939.5 43.7119 939.724 43.9357 940 43.9357C940.276 43.9357 940.5 43.7119 940.5 43.4357H939.5ZM940.5 48.4214C940.5 48.1453 940.276 47.9214 940 47.9214C939.724 47.9214 939.5 48.1453 939.5 48.4214H940.5ZM939.5 53.4071C939.5 53.6833 939.724 53.9071 940 53.9071C940.276 53.9071 940.5 53.6833 940.5 53.4071H939.5ZM940.5 58.3929C940.5 58.1167 940.276 57.8929 940 57.8929C939.724 57.8929 939.5 58.1167 939.5 58.3929H940.5ZM939.5 63.3786C939.5 63.6547 939.724 63.8786 940 63.8786C940.276 63.8786 940.5 63.6547 940.5 63.3786H939.5ZM940.5 68.3643C940.5 68.0881 940.276 67.8643 940 67.8643C939.724 67.8643 939.5 68.0881 939.5 68.3643H940.5ZM939.5 73.35C939.5 73.6261 939.724 73.85 940 73.85C940.276 73.85 940.5 73.6261 940.5 73.35H939.5ZM940.5 78.3357C940.5 78.0596 940.276 77.8357 940 77.8357C939.724 77.8357 939.5 78.0596 939.5 78.3357H940.5ZM939.5 83.3214C939.5 83.5976 939.724 83.8214 940 83.8214C940.276 83.8214 940.5 83.5976 940.5 83.3214H939.5ZM940.5 88.3071C940.5 88.031 940.276 87.8071 940 87.8071C939.724 87.8071 939.5 88.031 939.5 88.3071H940.5ZM939.5 93.2929C939.5 93.569 939.724 93.7929 940 93.7929C940.276 93.7929 940.5 93.569 940.5 93.2929H939.5ZM940.5 98.2786C940.5 98.0024 940.276 97.7786 940 97.7786C939.724 97.7786 939.5 98.0024 939.5 98.2786H940.5ZM939.5 103.264C939.5 103.54 939.724 103.764 940 103.764C940.276 103.764 940.5 103.54 940.5 103.264H939.5ZM940.5 108.25C940.5 107.974 940.276 107.75 940 107.75C939.724 107.75 939.5 107.974 939.5 108.25H940.5ZM939.5 113.236C939.5 113.512 939.724 113.736 940 113.736C940.276 113.736 940.5 113.512 940.5 113.236H939.5ZM940.5 118.221C940.5 117.945 940.276 117.721 940 117.721C939.724 117.721 939.5 117.945 939.5 118.221H940.5ZM939.5 123.207C939.5 123.483 939.724 123.707 940 123.707C940.276 123.707 940.5 123.483 940.5 123.207H939.5ZM940.5 128.193C940.5 127.917 940.276 127.693 940 127.693C939.724 127.693 939.5 127.917 939.5 128.193H940.5ZM939.5 133.179C939.5 133.455 939.724 133.679 940 133.679C940.276 133.679 940.5 133.455 940.5 133.179H939.5ZM940.5 138.164C940.5 137.888 940.276 137.664 940 137.664C939.724 137.664 939.5 137.888 939.5 138.164H940.5ZM939.5 143.15C939.5 143.426 939.724 143.65 940 143.65C940.276 143.65 940.5 143.426 940.5 143.15H939.5ZM940.5 148.136C940.5 147.86 940.276 147.636 940 147.636C939.724 147.636 939.5 147.86 939.5 148.136H940.5ZM939.5 153.121C939.5 153.398 939.724 153.621 940 153.621C940.276 153.621 940.5 153.398 940.5 153.121H939.5ZM940.5 158.107C940.5 157.831 940.276 157.607 940 157.607C939.724 157.607 939.5 157.831 939.5 158.107H940.5ZM939.5 163.093C939.5 163.369 939.724 163.593 940 163.593C940.276 163.593 940.5 163.369 940.5 163.093H939.5ZM940.5 168.079C940.5 167.802 940.276 167.579 940 167.579C939.724 167.579 939.5 167.802 939.5 168.079H940.5ZM939.5 173.064C939.5 173.34 939.724 173.564 940 173.564C940.276 173.564 940.5 173.34 940.5 173.064H939.5ZM940.5 178.05C940.5 177.774 940.276 177.55 940 177.55C939.724 177.55 939.5 177.774 939.5 178.05H940.5ZM939.5 183.036C939.5 183.312 939.724 183.536 940 183.536C940.276 183.536 940.5 183.312 940.5 183.036H939.5ZM940.5 188.021C940.5 187.745 940.276 187.521 940 187.521C939.724 187.521 939.5 187.745 939.5 188.021H940.5ZM939.5 193.007C939.5 193.283 939.724 193.507 940 193.507C940.276 193.507 940.5 193.283 940.5 193.007H939.5ZM940.5 197.993C940.5 197.717 940.276 197.493 940 197.493C939.724 197.493 939.5 197.717 939.5 197.993H940.5ZM939.5 202.979C939.5 203.255 939.724 203.479 940 203.479C940.276 203.479 940.5 203.255 940.5 202.979H939.5ZM940.5 207.964C940.5 207.688 940.276 207.464 940 207.464C939.724 207.464 939.5 207.688 939.5 207.964H940.5ZM939.5 212.95C939.5 213.226 939.724 213.45 940 213.45C940.276 213.45 940.5 213.226 940.5 212.95H939.5ZM940.5 217.936C940.5 217.66 940.276 217.436 940 217.436C939.724 217.436 939.5 217.66 939.5 217.936H940.5ZM939.5 222.922C939.5 223.198 939.724 223.422 940 223.422C940.276 223.422 940.5 223.198 940.5 222.922H939.5ZM940.5 227.907C940.5 227.631 940.276 227.407 940 227.407C939.724 227.407 939.5 227.631 939.5 227.907H940.5ZM939.5 232.893C939.5 233.169 939.724 233.393 940 233.393C940.276 233.393 940.5 233.169 940.5 232.893H939.5ZM940.5 237.879C940.5 237.603 940.276 237.379 940 237.379C939.724 237.379 939.5 237.603 939.5 237.879H940.5ZM939.5 242.864C939.5 243.141 939.724 243.364 940 243.364C940.276 243.364 940.5 243.141 940.5 242.864H939.5ZM940.5 247.85C940.5 247.574 940.276 247.35 940 247.35C939.724 247.35 939.5 247.574 939.5 247.85H940.5ZM939.5 252.836C939.5 253.112 939.724 253.336 940 253.336C940.276 253.336 940.5 253.112 940.5 252.836H939.5ZM940.5 257.822C940.5 257.545 940.276 257.322 940 257.322C939.724 257.322 939.5 257.545 939.5 257.822H940.5ZM939.5 262.807C939.5 263.083 939.724 263.307 940 263.307C940.276 263.307 940.5 263.083 940.5 262.807H939.5ZM940.5 267.793C940.5 267.517 940.276 267.293 940 267.293C939.724 267.293 939.5 267.517 939.5 267.793H940.5ZM939.5 272.779C939.5 273.055 939.724 273.279 940 273.279C940.276 273.279 940.5 273.055 940.5 272.779H939.5ZM940.5 277.764C940.5 277.488 940.276 277.264 940 277.264C939.724 277.264 939.5 277.488 939.5 277.764H940.5ZM939.5 282.75C939.5 283.026 939.724 283.25 940 283.25C940.276 283.25 940.5 283.026 940.5 282.75H939.5ZM940.5 287.736C940.5 287.46 940.276 287.236 940 287.236C939.724 287.236 939.5 287.46 939.5 287.736H940.5ZM939.5 292.722C939.5 292.998 939.724 293.222 940 293.222C940.276 293.222 940.5 292.998 940.5 292.722H939.5ZM940.5 297.707C940.5 297.431 940.276 297.207 940 297.207C939.724 297.207 939.5 297.431 939.5 297.707H940.5ZM939.5 302.693C939.5 302.969 939.724 303.193 940 303.193C940.276 303.193 940.5 302.969 940.5 302.693H939.5ZM940.5 307.679C940.5 307.403 940.276 307.179 940 307.179C939.724 307.179 939.5 307.403 939.5 307.679H940.5ZM939.5 312.664C939.5 312.941 939.724 313.164 940 313.164C940.276 313.164 940.5 312.941 940.5 312.664H939.5ZM940.5 317.65C940.5 317.374 940.276 317.15 940 317.15C939.724 317.15 939.5 317.374 939.5 317.65H940.5ZM939.5 322.636C939.5 322.912 939.724 323.136 940 323.136C940.276 323.136 940.5 322.912 940.5 322.636H939.5ZM940.5 327.622C940.5 327.345 940.276 327.122 940 327.122C939.724 327.122 939.5 327.345 939.5 327.622H940.5ZM939.5 332.607C939.5 332.883 939.724 333.107 940 333.107C940.276 333.107 940.5 332.883 940.5 332.607H939.5ZM940.5 337.593C940.5 337.317 940.276 337.093 940 337.093C939.724 337.093 939.5 337.317 939.5 337.593H940.5ZM939.5 342.579C939.5 342.855 939.724 343.079 940 343.079C940.276 343.079 940.5 342.855 940.5 342.579H939.5ZM940.5 347.564C940.5 347.288 940.276 347.064 940 347.064C939.724 347.064 939.5 347.288 939.5 347.564H940.5ZM939.5 352.55C939.5 352.826 939.724 353.05 940 353.05C940.276 353.05 940.5 352.826 940.5 352.55H939.5ZM940.5 357.536C940.5 357.26 940.276 357.036 940 357.036C939.724 357.036 939.5 357.26 939.5 357.536H940.5ZM939.5 362.522C939.5 362.798 939.724 363.022 940 363.022C940.276 363.022 940.5 362.798 940.5 362.522H939.5ZM940.5 367.507C940.5 367.231 940.276 367.007 940 367.007C939.724 367.007 939.5 367.231 939.5 367.507H940.5ZM0 1.5H2.5V0.5H0V1.5ZM7.5 1.5H12.5V0.5H7.5V1.5ZM17.5 1.5H22.5V0.5H17.5V1.5ZM27.5 1.5H32.5V0.5H27.5V1.5ZM37.5 1.5H42.5V0.5H37.5V1.5ZM47.5 1.5H52.5V0.5H47.5V1.5ZM57.5 1.5H62.5V0.5H57.5V1.5ZM67.5 1.5H72.5V0.5H67.5V1.5ZM77.5 1.5H82.5V0.5H77.5V1.5ZM87.5 1.5H92.5V0.5H87.5V1.5ZM97.5 1.5H102.5V0.5H97.5V1.5ZM107.5 1.5H112.5V0.5H107.5V1.5ZM117.5 1.5H122.5V0.5H117.5V1.5ZM127.5 1.5H132.5V0.5H127.5V1.5ZM137.5 1.5H142.5V0.5H137.5V1.5ZM147.5 1.5H152.5V0.5H147.5V1.5ZM157.5 1.5H162.5V0.5H157.5V1.5ZM167.5 1.5H172.5V0.5H167.5V1.5ZM177.5 1.5H182.5V0.5H177.5V1.5ZM187.5 1.5H192.5V0.5H187.5V1.5ZM197.5 1.5H202.5V0.5H197.5V1.5ZM207.5 1.5H212.5V0.5H207.5V1.5ZM217.5 1.5H222.5V0.5H217.5V1.5ZM227.5 1.5H232.5V0.5H227.5V1.5ZM237.5 1.5H242.5V0.5H237.5V1.5ZM247.5 1.5H252.5V0.5H247.5V1.5ZM257.5 1.5H262.5V0.5H257.5V1.5ZM267.5 1.5H272.5V0.5H267.5V1.5ZM277.5 1.5H282.5V0.5H277.5V1.5ZM287.5 1.5H292.5V0.5H287.5V1.5ZM297.5 1.5H302.5V0.5H297.5V1.5ZM307.5 1.5H312.5V0.5H307.5V1.5ZM317.5 1.5H322.5V0.5H317.5V1.5ZM327.5 1.5H332.5V0.5H327.5V1.5ZM337.5 1.5H342.5V0.5H337.5V1.5ZM347.5 1.5H352.5V0.5H347.5V1.5ZM357.5 1.5H362.5V0.5H357.5V1.5ZM367.5 1.5H372.5V0.5H367.5V1.5ZM377.5 1.5H382.5V0.5H377.5V1.5ZM387.5 1.5H392.5V0.5H387.5V1.5ZM397.5 1.5H402.5V0.5H397.5V1.5ZM407.5 1.5H412.5V0.5H407.5V1.5ZM417.5 1.5H422.5V0.5H417.5V1.5ZM427.5 1.5H432.5V0.5H427.5V1.5ZM437.5 1.5H442.5V0.5H437.5V1.5ZM447.5 1.5H452.5V0.5H447.5V1.5ZM457.5 1.5H462.5V0.5H457.5V1.5ZM467.5 1.5H472.5V0.5H467.5V1.5ZM477.5 1.5H482.5V0.5H477.5V1.5ZM487.5 1.5H492.5V0.5H487.5V1.5ZM497.5 1.5H502.5V0.5H497.5V1.5ZM507.5 1.5H512.5V0.5H507.5V1.5ZM517.5 1.5H522.5V0.5H517.5V1.5ZM527.5 1.5H532.5V0.5H527.5V1.5ZM537.5 1.5H542.5V0.5H537.5V1.5ZM547.5 1.5H552.5V0.5H547.5V1.5ZM557.5 1.5H562.5V0.5H557.5V1.5ZM567.5 1.5H572.5V0.5H567.5V1.5ZM577.5 1.5H582.5V0.5H577.5V1.5ZM587.5 1.5H592.5V0.5H587.5V1.5ZM597.5 1.5H602.5V0.5H597.5V1.5ZM607.5 1.5H612.5V0.5H607.5V1.5ZM617.5 1.5H622.5V0.5H617.5V1.5ZM627.5 1.5H632.5V0.5H627.5V1.5ZM637.5 1.5H642.5V0.5H637.5V1.5ZM647.5 1.5H652.5V0.5H647.5V1.5ZM657.5 1.5H662.5V0.5H657.5V1.5ZM667.5 1.5H672.5V0.5H667.5V1.5ZM677.5 1.5H682.5V0.5H677.5V1.5ZM687.5 1.5H692.5V0.5H687.5V1.5ZM697.5 1.5H702.5V0.5H697.5V1.5ZM707.5 1.5H712.5V0.5H707.5V1.5ZM717.5 1.5H722.5V0.5H717.5V1.5ZM727.5 1.5H732.5V0.5H727.5V1.5ZM737.5 1.5H742.5V0.5H737.5V1.5ZM747.5 1.5H752.5V0.5H747.5V1.5ZM757.5 1.5H762.5V0.5H757.5V1.5ZM767.5 1.5H772.5V0.5H767.5V1.5ZM777.5 1.5H782.5V0.5H777.5V1.5ZM787.5 1.5H792.5V0.5H787.5V1.5ZM797.5 1.5H802.5V0.5H797.5V1.5ZM807.5 1.5H812.5V0.5H807.5V1.5ZM817.5 1.5H822.5V0.5H817.5V1.5ZM827.5 1.5H832.5V0.5H827.5V1.5ZM837.5 1.5H842.5V0.5H837.5V1.5ZM847.5 1.5H852.5V0.5H847.5V1.5ZM857.5 1.5H862.5V0.5H857.5V1.5ZM867.5 1.5H872.5V0.5H867.5V1.5ZM877.5 1.5H882.5V0.5H877.5V1.5ZM887.5 1.5H892.5V0.5H887.5V1.5ZM897.5 1.5H902.5V0.5H897.5V1.5ZM907.5 1.5H912.5V0.5H907.5V1.5ZM917.5 1.5H920V0.5H917.5V1.5ZM920 1.5C920.864 1.5 921.714 1.55612 922.547 1.66485L922.677 0.673247C921.801 0.558937 920.907 0.5 920 0.5V1.5ZM927.464 2.97948C929.049 3.63677 930.529 4.49721 931.871 5.52848L932.48 4.73556C931.07 3.65166 929.514 2.74698 927.847 2.05575L927.464 2.97948ZM935.471 9.12899C936.503 10.471 937.363 11.9507 938.021 13.5358L938.944 13.1527C938.253 11.4858 937.348 9.93014 936.264 8.51966L935.471 9.12899ZM939.335 18.4525C939.444 19.286 939.5 20.1363 939.5 21H940.5C940.5 20.093 940.441 19.1995 940.327 18.3231L939.335 18.4525ZM939.5 21V23.4929H940.5V21H939.5ZM939.5 28.4786V33.4643H940.5V28.4786H939.5ZM939.5 38.45V43.4357H940.5V38.45H939.5ZM939.5 48.4214V53.4071H940.5V48.4214H939.5ZM939.5 58.3929V63.3786H940.5V58.3929H939.5ZM939.5 68.3643V73.35H940.5V68.3643H939.5ZM939.5 78.3357V83.3214H940.5V78.3357H939.5ZM939.5 88.3071V93.2929H940.5V88.3071H939.5ZM939.5 98.2786V103.264H940.5V98.2786H939.5ZM939.5 108.25V113.236H940.5V108.25H939.5ZM939.5 118.221V123.207H940.5V118.221H939.5ZM939.5 128.193V133.179H940.5V128.193H939.5ZM939.5 138.164V143.15H940.5V138.164H939.5ZM939.5 148.136V153.121H940.5V148.136H939.5ZM939.5 158.107V163.093H940.5V158.107H939.5ZM939.5 168.079V173.064H940.5V168.079H939.5ZM939.5 178.05V183.036H940.5V178.05H939.5ZM939.5 188.021V193.007H940.5V188.021H939.5ZM939.5 197.993V202.979H940.5V197.993H939.5ZM939.5 207.964V212.95H940.5V207.964H939.5ZM939.5 217.936V222.922H940.5V217.936H939.5ZM939.5 227.907V232.893H940.5V227.907H939.5ZM939.5 237.879V242.864H940.5V237.879H939.5ZM939.5 247.85V252.836H940.5V247.85H939.5ZM939.5 257.822V262.807H940.5V257.822H939.5ZM939.5 267.793V272.779H940.5V267.793H939.5ZM939.5 277.764V282.75H940.5V277.764H939.5ZM939.5 287.736V292.722H940.5V287.736H939.5ZM939.5 297.707V302.693H940.5V297.707H939.5ZM939.5 307.679V312.664H940.5V307.679H939.5ZM939.5 317.65V322.636H940.5V317.65H939.5ZM939.5 327.622V332.607H940.5V327.622H939.5ZM939.5 337.593V342.579H940.5V337.593H939.5ZM939.5 347.564V352.55H940.5V347.564H939.5ZM939.5 357.536V362.522H940.5V357.536H939.5ZM939.5 367.507V370H940.5V367.507H939.5ZM937.333 370C937.333 371.473 938.527 372.667 940 372.667C941.473 372.667 942.667 371.473 942.667 370C942.667 368.527 941.473 367.333 940 367.333C938.527 367.333 937.333 368.527 937.333 370ZM2.5 1.5C2.77614 1.5 3 1.27614 3 1C3 0.723858 2.77614 0.5 2.5 0.5V1.5ZM7.5 0.5C7.22386 0.5 7 0.723858 7 1C7 1.27614 7.22386 1.5 7.5 1.5V0.5ZM12.5 1.5C12.7761 1.5 13 1.27614 13 1C13 0.723858 12.7761 0.5 12.5 0.5V1.5ZM17.5 0.5C17.2239 0.5 17 0.723858 17 1C17 1.27614 17.2239 1.5 17.5 1.5V0.5ZM22.5 1.5C22.7761 1.5 23 1.27614 23 1C23 0.723858 22.7761 0.5 22.5 0.5V1.5ZM27.5 0.5C27.2239 0.5 27 0.723858 27 1C27 1.27614 27.2239 1.5 27.5 1.5V0.5ZM32.5 1.5C32.7761 1.5 33 1.27614 33 1C33 0.723858 32.7761 0.5 32.5 0.5V1.5ZM37.5 0.5C37.2239 0.5 37 0.723858 37 1C37 1.27614 37.2239 1.5 37.5 1.5V0.5ZM42.5 1.5C42.7761 1.5 43 1.27614 43 1C43 0.723858 42.7761 0.5 42.5 0.5V1.5ZM47.5 0.5C47.2239 0.5 47 0.723858 47 1C47 1.27614 47.2239 1.5 47.5 1.5V0.5ZM52.5 1.5C52.7761 1.5 53 1.27614 53 1C53 0.723858 52.7761 0.5 52.5 0.5V1.5ZM57.5 0.5C57.2239 0.5 57 0.723858 57 1C57 1.27614 57.2239 1.5 57.5 1.5V0.5ZM62.5 1.5C62.7761 1.5 63 1.27614 63 1C63 0.723858 62.7761 0.5 62.5 0.5V1.5ZM67.5 0.5C67.2239 0.5 67 0.723858 67 1C67 1.27614 67.2239 1.5 67.5 1.5V0.5ZM72.5 1.5C72.7761 1.5 73 1.27614 73 1C73 0.723858 72.7761 0.5 72.5 0.5V1.5ZM77.5 0.5C77.2239 0.5 77 0.723858 77 1C77 1.27614 77.2239 1.5 77.5 1.5V0.5ZM82.5 1.5C82.7761 1.5 83 1.27614 83 1C83 0.723858 82.7761 0.5 82.5 0.5V1.5ZM87.5 0.5C87.2239 0.5 87 0.723858 87 1C87 1.27614 87.2239 1.5 87.5 1.5V0.5ZM92.5 1.5C92.7761 1.5 93 1.27614 93 1C93 0.723858 92.7761 0.5 92.5 0.5V1.5ZM97.5 0.5C97.2239 0.5 97 0.723858 97 1C97 1.27614 97.2239 1.5 97.5 1.5V0.5ZM102.5 1.5C102.776 1.5 103 1.27614 103 1C103 0.723858 102.776 0.5 102.5 0.5V1.5ZM107.5 0.5C107.224 0.5 107 0.723858 107 1C107 1.27614 107.224 1.5 107.5 1.5V0.5ZM112.5 1.5C112.776 1.5 113 1.27614 113 1C113 0.723858 112.776 0.5 112.5 0.5V1.5ZM117.5 0.5C117.224 0.5 117 0.723858 117 1C117 1.27614 117.224 1.5 117.5 1.5V0.5ZM122.5 1.5C122.776 1.5 123 1.27614 123 1C123 0.723858 122.776 0.5 122.5 0.5V1.5ZM127.5 0.5C127.224 0.5 127 0.723858 127 1C127 1.27614 127.224 1.5 127.5 1.5V0.5ZM132.5 1.5C132.776 1.5 133 1.27614 133 1C133 0.723858 132.776 0.5 132.5 0.5V1.5ZM137.5 0.5C137.224 0.5 137 0.723858 137 1C137 1.27614 137.224 1.5 137.5 1.5V0.5ZM142.5 1.5C142.776 1.5 143 1.27614 143 1C143 0.723858 142.776 0.5 142.5 0.5V1.5ZM147.5 0.5C147.224 0.5 147 0.723858 147 1C147 1.27614 147.224 1.5 147.5 1.5V0.5ZM152.5 1.5C152.776 1.5 153 1.27614 153 1C153 0.723858 152.776 0.5 152.5 0.5V1.5ZM157.5 0.5C157.224 0.5 157 0.723858 157 1C157 1.27614 157.224 1.5 157.5 1.5V0.5ZM162.5 1.5C162.776 1.5 163 1.27614 163 1C163 0.723858 162.776 0.5 162.5 0.5V1.5ZM167.5 0.5C167.224 0.5 167 0.723858 167 1C167 1.27614 167.224 1.5 167.5 1.5V0.5ZM172.5 1.5C172.776 1.5 173 1.27614 173 1C173 0.723858 172.776 0.5 172.5 0.5V1.5ZM177.5 0.5C177.224 0.5 177 0.723858 177 1C177 1.27614 177.224 1.5 177.5 1.5V0.5ZM182.5 1.5C182.776 1.5 183 1.27614 183 1C183 0.723858 182.776 0.5 182.5 0.5V1.5ZM187.5 0.5C187.224 0.5 187 0.723858 187 1C187 1.27614 187.224 1.5 187.5 1.5V0.5ZM192.5 1.5C192.776 1.5 193 1.27614 193 1C193 0.723858 192.776 0.5 192.5 0.5V1.5ZM197.5 0.5C197.224 0.5 197 0.723858 197 1C197 1.27614 197.224 1.5 197.5 1.5V0.5ZM202.5 1.5C202.776 1.5 203 1.27614 203 1C203 0.723858 202.776 0.5 202.5 0.5V1.5ZM207.5 0.5C207.224 0.5 207 0.723858 207 1C207 1.27614 207.224 1.5 207.5 1.5V0.5ZM212.5 1.5C212.776 1.5 213 1.27614 213 1C213 0.723858 212.776 0.5 212.5 0.5V1.5ZM217.5 0.5C217.224 0.5 217 0.723858 217 1C217 1.27614 217.224 1.5 217.5 1.5V0.5ZM222.5 1.5C222.776 1.5 223 1.27614 223 1C223 0.723858 222.776 0.5 222.5 0.5V1.5ZM227.5 0.5C227.224 0.5 227 0.723858 227 1C227 1.27614 227.224 1.5 227.5 1.5V0.5ZM232.5 1.5C232.776 1.5 233 1.27614 233 1C233 0.723858 232.776 0.5 232.5 0.5V1.5ZM237.5 0.5C237.224 0.5 237 0.723858 237 1C237 1.27614 237.224 1.5 237.5 1.5V0.5ZM242.5 1.5C242.776 1.5 243 1.27614 243 1C243 0.723858 242.776 0.5 242.5 0.5V1.5ZM247.5 0.5C247.224 0.5 247 0.723858 247 1C247 1.27614 247.224 1.5 247.5 1.5V0.5ZM252.5 1.5C252.776 1.5 253 1.27614 253 1C253 0.723858 252.776 0.5 252.5 0.5V1.5ZM257.5 0.5C257.224 0.5 257 0.723858 257 1C257 1.27614 257.224 1.5 257.5 1.5V0.5ZM262.5 1.5C262.776 1.5 263 1.27614 263 1C263 0.723858 262.776 0.5 262.5 0.5V1.5ZM267.5 0.5C267.224 0.5 267 0.723858 267 1C267 1.27614 267.224 1.5 267.5 1.5V0.5ZM272.5 1.5C272.776 1.5 273 1.27614 273 1C273 0.723858 272.776 0.5 272.5 0.5V1.5ZM277.5 0.5C277.224 0.5 277 0.723858 277 1C277 1.27614 277.224 1.5 277.5 1.5V0.5ZM282.5 1.5C282.776 1.5 283 1.27614 283 1C283 0.723858 282.776 0.5 282.5 0.5V1.5ZM287.5 0.5C287.224 0.5 287 0.723858 287 1C287 1.27614 287.224 1.5 287.5 1.5V0.5ZM292.5 1.5C292.776 1.5 293 1.27614 293 1C293 0.723858 292.776 0.5 292.5 0.5V1.5ZM297.5 0.5C297.224 0.5 297 0.723858 297 1C297 1.27614 297.224 1.5 297.5 1.5V0.5ZM302.5 1.5C302.776 1.5 303 1.27614 303 1C303 0.723858 302.776 0.5 302.5 0.5V1.5ZM307.5 0.5C307.224 0.5 307 0.723858 307 1C307 1.27614 307.224 1.5 307.5 1.5V0.5ZM312.5 1.5C312.776 1.5 313 1.27614 313 1C313 0.723858 312.776 0.5 312.5 0.5V1.5ZM317.5 0.5C317.224 0.5 317 0.723858 317 1C317 1.27614 317.224 1.5 317.5 1.5V0.5ZM322.5 1.5C322.776 1.5 323 1.27614 323 1C323 0.723858 322.776 0.5 322.5 0.5V1.5ZM327.5 0.5C327.224 0.5 327 0.723858 327 1C327 1.27614 327.224 1.5 327.5 1.5V0.5ZM332.5 1.5C332.776 1.5 333 1.27614 333 1C333 0.723858 332.776 0.5 332.5 0.5V1.5ZM337.5 0.5C337.224 0.5 337 0.723858 337 1C337 1.27614 337.224 1.5 337.5 1.5V0.5ZM342.5 1.5C342.776 1.5 343 1.27614 343 1C343 0.723858 342.776 0.5 342.5 0.5V1.5ZM347.5 0.5C347.224 0.5 347 0.723858 347 1C347 1.27614 347.224 1.5 347.5 1.5V0.5ZM352.5 1.5C352.776 1.5 353 1.27614 353 1C353 0.723858 352.776 0.5 352.5 0.5V1.5ZM357.5 0.5C357.224 0.5 357 0.723858 357 1C357 1.27614 357.224 1.5 357.5 1.5V0.5ZM362.5 1.5C362.776 1.5 363 1.27614 363 1C363 0.723858 362.776 0.5 362.5 0.5V1.5ZM367.5 0.5C367.224 0.5 367 0.723858 367 1C367 1.27614 367.224 1.5 367.5 1.5V0.5ZM372.5 1.5C372.776 1.5 373 1.27614 373 1C373 0.723858 372.776 0.5 372.5 0.5V1.5ZM377.5 0.5C377.224 0.5 377 0.723858 377 1C377 1.27614 377.224 1.5 377.5 1.5V0.5ZM382.5 1.5C382.776 1.5 383 1.27614 383 1C383 0.723858 382.776 0.5 382.5 0.5V1.5ZM387.5 0.5C387.224 0.5 387 0.723858 387 1C387 1.27614 387.224 1.5 387.5 1.5V0.5ZM392.5 1.5C392.776 1.5 393 1.27614 393 1C393 0.723858 392.776 0.5 392.5 0.5V1.5ZM397.5 0.5C397.224 0.5 397 0.723858 397 1C397 1.27614 397.224 1.5 397.5 1.5V0.5ZM402.5 1.5C402.776 1.5 403 1.27614 403 1C403 0.723858 402.776 0.5 402.5 0.5V1.5ZM407.5 0.5C407.224 0.5 407 0.723858 407 1C407 1.27614 407.224 1.5 407.5 1.5V0.5ZM412.5 1.5C412.776 1.5 413 1.27614 413 1C413 0.723858 412.776 0.5 412.5 0.5V1.5ZM417.5 0.5C417.224 0.5 417 0.723858 417 1C417 1.27614 417.224 1.5 417.5 1.5V0.5ZM422.5 1.5C422.776 1.5 423 1.27614 423 1C423 0.723858 422.776 0.5 422.5 0.5V1.5ZM427.5 0.5C427.224 0.5 427 0.723858 427 1C427 1.27614 427.224 1.5 427.5 1.5V0.5ZM432.5 1.5C432.776 1.5 433 1.27614 433 1C433 0.723858 432.776 0.5 432.5 0.5V1.5ZM437.5 0.5C437.224 0.5 437 0.723858 437 1C437 1.27614 437.224 1.5 437.5 1.5V0.5ZM442.5 1.5C442.776 1.5 443 1.27614 443 1C443 0.723858 442.776 0.5 442.5 0.5V1.5ZM447.5 0.5C447.224 0.5 447 0.723858 447 1C447 1.27614 447.224 1.5 447.5 1.5V0.5ZM452.5 1.5C452.776 1.5 453 1.27614 453 1C453 0.723858 452.776 0.5 452.5 0.5V1.5ZM457.5 0.5C457.224 0.5 457 0.723858 457 1C457 1.27614 457.224 1.5 457.5 1.5V0.5ZM462.5 1.5C462.776 1.5 463 1.27614 463 1C463 0.723858 462.776 0.5 462.5 0.5V1.5ZM467.5 0.5C467.224 0.5 467 0.723858 467 1C467 1.27614 467.224 1.5 467.5 1.5V0.5ZM472.5 1.5C472.776 1.5 473 1.27614 473 1C473 0.723858 472.776 0.5 472.5 0.5V1.5ZM477.5 0.5C477.224 0.5 477 0.723858 477 1C477 1.27614 477.224 1.5 477.5 1.5V0.5ZM482.5 1.5C482.776 1.5 483 1.27614 483 1C483 0.723858 482.776 0.5 482.5 0.5V1.5ZM487.5 0.5C487.224 0.5 487 0.723858 487 1C487 1.27614 487.224 1.5 487.5 1.5V0.5ZM492.5 1.5C492.776 1.5 493 1.27614 493 1C493 0.723858 492.776 0.5 492.5 0.5V1.5ZM497.5 0.5C497.224 0.5 497 0.723858 497 1C497 1.27614 497.224 1.5 497.5 1.5V0.5ZM502.5 1.5C502.776 1.5 503 1.27614 503 1C503 0.723858 502.776 0.5 502.5 0.5V1.5ZM507.5 0.5C507.224 0.5 507 0.723858 507 1C507 1.27614 507.224 1.5 507.5 1.5V0.5ZM512.5 1.5C512.776 1.5 513 1.27614 513 1C513 0.723858 512.776 0.5 512.5 0.5V1.5ZM517.5 0.5C517.224 0.5 517 0.723858 517 1C517 1.27614 517.224 1.5 517.5 1.5V0.5ZM522.5 1.5C522.776 1.5 523 1.27614 523 1C523 0.723858 522.776 0.5 522.5 0.5V1.5ZM527.5 0.5C527.224 0.5 527 0.723858 527 1C527 1.27614 527.224 1.5 527.5 1.5V0.5ZM532.5 1.5C532.776 1.5 533 1.27614 533 1C533 0.723858 532.776 0.5 532.5 0.5V1.5ZM537.5 0.5C537.224 0.5 537 0.723858 537 1C537 1.27614 537.224 1.5 537.5 1.5V0.5ZM542.5 1.5C542.776 1.5 543 1.27614 543 1C543 0.723858 542.776 0.5 542.5 0.5V1.5ZM547.5 0.5C547.224 0.5 547 0.723858 547 1C547 1.27614 547.224 1.5 547.5 1.5V0.5ZM552.5 1.5C552.776 1.5 553 1.27614 553 1C553 0.723858 552.776 0.5 552.5 0.5V1.5ZM557.5 0.5C557.224 0.5 557 0.723858 557 1C557 1.27614 557.224 1.5 557.5 1.5V0.5ZM562.5 1.5C562.776 1.5 563 1.27614 563 1C563 0.723858 562.776 0.5 562.5 0.5V1.5ZM567.5 0.5C567.224 0.5 567 0.723858 567 1C567 1.27614 567.224 1.5 567.5 1.5V0.5ZM572.5 1.5C572.776 1.5 573 1.27614 573 1C573 0.723858 572.776 0.5 572.5 0.5V1.5ZM577.5 0.5C577.224 0.5 577 0.723858 577 1C577 1.27614 577.224 1.5 577.5 1.5V0.5ZM582.5 1.5C582.776 1.5 583 1.27614 583 1C583 0.723858 582.776 0.5 582.5 0.5V1.5ZM587.5 0.5C587.224 0.5 587 0.723858 587 1C587 1.27614 587.224 1.5 587.5 1.5V0.5ZM592.5 1.5C592.776 1.5 593 1.27614 593 1C593 0.723858 592.776 0.5 592.5 0.5V1.5ZM597.5 0.5C597.224 0.5 597 0.723858 597 1C597 1.27614 597.224 1.5 597.5 1.5V0.5ZM602.5 1.5C602.776 1.5 603 1.27614 603 1C603 0.723858 602.776 0.5 602.5 0.5V1.5ZM607.5 0.5C607.224 0.5 607 0.723858 607 1C607 1.27614 607.224 1.5 607.5 1.5V0.5ZM612.5 1.5C612.776 1.5 613 1.27614 613 1C613 0.723858 612.776 0.5 612.5 0.5V1.5ZM617.5 0.5C617.224 0.5 617 0.723858 617 1C617 1.27614 617.224 1.5 617.5 1.5V0.5ZM622.5 1.5C622.776 1.5 623 1.27614 623 1C623 0.723858 622.776 0.5 622.5 0.5V1.5ZM627.5 0.5C627.224 0.5 627 0.723858 627 1C627 1.27614 627.224 1.5 627.5 1.5V0.5ZM632.5 1.5C632.776 1.5 633 1.27614 633 1C633 0.723858 632.776 0.5 632.5 0.5V1.5ZM637.5 0.5C637.224 0.5 637 0.723858 637 1C637 1.27614 637.224 1.5 637.5 1.5V0.5ZM642.5 1.5C642.776 1.5 643 1.27614 643 1C643 0.723858 642.776 0.5 642.5 0.5V1.5ZM647.5 0.5C647.224 0.5 647 0.723858 647 1C647 1.27614 647.224 1.5 647.5 1.5V0.5ZM652.5 1.5C652.776 1.5 653 1.27614 653 1C653 0.723858 652.776 0.5 652.5 0.5V1.5ZM657.5 0.5C657.224 0.5 657 0.723858 657 1C657 1.27614 657.224 1.5 657.5 1.5V0.5ZM662.5 1.5C662.776 1.5 663 1.27614 663 1C663 0.723858 662.776 0.5 662.5 0.5V1.5ZM667.5 0.5C667.224 0.5 667 0.723858 667 1C667 1.27614 667.224 1.5 667.5 1.5V0.5ZM672.5 1.5C672.776 1.5 673 1.27614 673 1C673 0.723858 672.776 0.5 672.5 0.5V1.5ZM677.5 0.5C677.224 0.5 677 0.723858 677 1C677 1.27614 677.224 1.5 677.5 1.5V0.5ZM682.5 1.5C682.776 1.5 683 1.27614 683 1C683 0.723858 682.776 0.5 682.5 0.5V1.5ZM687.5 0.5C687.224 0.5 687 0.723858 687 1C687 1.27614 687.224 1.5 687.5 1.5V0.5ZM692.5 1.5C692.776 1.5 693 1.27614 693 1C693 0.723858 692.776 0.5 692.5 0.5V1.5ZM697.5 0.5C697.224 0.5 697 0.723858 697 1C697 1.27614 697.224 1.5 697.5 1.5V0.5ZM702.5 1.5C702.776 1.5 703 1.27614 703 1C703 0.723858 702.776 0.5 702.5 0.5V1.5ZM707.5 0.5C707.224 0.5 707 0.723858 707 1C707 1.27614 707.224 1.5 707.5 1.5V0.5ZM712.5 1.5C712.776 1.5 713 1.27614 713 1C713 0.723858 712.776 0.5 712.5 0.5V1.5ZM717.5 0.5C717.224 0.5 717 0.723858 717 1C717 1.27614 717.224 1.5 717.5 1.5V0.5ZM722.5 1.5C722.776 1.5 723 1.27614 723 1C723 0.723858 722.776 0.5 722.5 0.5V1.5ZM727.5 0.5C727.224 0.5 727 0.723858 727 1C727 1.27614 727.224 1.5 727.5 1.5V0.5ZM732.5 1.5C732.776 1.5 733 1.27614 733 1C733 0.723858 732.776 0.5 732.5 0.5V1.5ZM737.5 0.5C737.224 0.5 737 0.723858 737 1C737 1.27614 737.224 1.5 737.5 1.5V0.5ZM742.5 1.5C742.776 1.5 743 1.27614 743 1C743 0.723858 742.776 0.5 742.5 0.5V1.5ZM747.5 0.5C747.224 0.5 747 0.723858 747 1C747 1.27614 747.224 1.5 747.5 1.5V0.5ZM752.5 1.5C752.776 1.5 753 1.27614 753 1C753 0.723858 752.776 0.5 752.5 0.5V1.5ZM757.5 0.5C757.224 0.5 757 0.723858 757 1C757 1.27614 757.224 1.5 757.5 1.5V0.5ZM762.5 1.5C762.776 1.5 763 1.27614 763 1C763 0.723858 762.776 0.5 762.5 0.5V1.5ZM767.5 0.5C767.224 0.5 767 0.723858 767 1C767 1.27614 767.224 1.5 767.5 1.5V0.5ZM772.5 1.5C772.776 1.5 773 1.27614 773 1C773 0.723858 772.776 0.5 772.5 0.5V1.5ZM777.5 0.5C777.224 0.5 777 0.723858 777 1C777 1.27614 777.224 1.5 777.5 1.5V0.5ZM782.5 1.5C782.776 1.5 783 1.27614 783 1C783 0.723858 782.776 0.5 782.5 0.5V1.5ZM787.5 0.5C787.224 0.5 787 0.723858 787 1C787 1.27614 787.224 1.5 787.5 1.5V0.5ZM792.5 1.5C792.776 1.5 793 1.27614 793 1C793 0.723858 792.776 0.5 792.5 0.5V1.5ZM797.5 0.5C797.224 0.5 797 0.723858 797 1C797 1.27614 797.224 1.5 797.5 1.5V0.5ZM802.5 1.5C802.776 1.5 803 1.27614 803 1C803 0.723858 802.776 0.5 802.5 0.5V1.5ZM807.5 0.5C807.224 0.5 807 0.723858 807 1C807 1.27614 807.224 1.5 807.5 1.5V0.5ZM812.5 1.5C812.776 1.5 813 1.27614 813 1C813 0.723858 812.776 0.5 812.5 0.5V1.5ZM817.5 0.5C817.224 0.5 817 0.723858 817 1C817 1.27614 817.224 1.5 817.5 1.5V0.5ZM822.5 1.5C822.776 1.5 823 1.27614 823 1C823 0.723858 822.776 0.5 822.5 0.5V1.5ZM827.5 0.5C827.224 0.5 827 0.723858 827 1C827 1.27614 827.224 1.5 827.5 1.5V0.5ZM832.5 1.5C832.776 1.5 833 1.27614 833 1C833 0.723858 832.776 0.5 832.5 0.5V1.5ZM837.5 0.5C837.224 0.5 837 0.723858 837 1C837 1.27614 837.224 1.5 837.5 1.5V0.5ZM842.5 1.5C842.776 1.5 843 1.27614 843 1C843 0.723858 842.776 0.5 842.5 0.5V1.5ZM847.5 0.5C847.224 0.5 847 0.723858 847 1C847 1.27614 847.224 1.5 847.5 1.5V0.5ZM852.5 1.5C852.776 1.5 853 1.27614 853 1C853 0.723858 852.776 0.5 852.5 0.5V1.5ZM857.5 0.5C857.224 0.5 857 0.723858 857 1C857 1.27614 857.224 1.5 857.5 1.5V0.5ZM862.5 1.5C862.776 1.5 863 1.27614 863 1C863 0.723858 862.776 0.5 862.5 0.5V1.5ZM867.5 0.5C867.224 0.5 867 0.723858 867 1C867 1.27614 867.224 1.5 867.5 1.5V0.5ZM872.5 1.5C872.776 1.5 873 1.27614 873 1C873 0.723858 872.776 0.5 872.5 0.5V1.5ZM877.5 0.5C877.224 0.5 877 0.723858 877 1C877 1.27614 877.224 1.5 877.5 1.5V0.5ZM882.5 1.5C882.776 1.5 883 1.27614 883 1C883 0.723858 882.776 0.5 882.5 0.5V1.5ZM887.5 0.5C887.224 0.5 887 0.723858 887 1C887 1.27614 887.224 1.5 887.5 1.5V0.5ZM892.5 1.5C892.776 1.5 893 1.27614 893 1C893 0.723858 892.776 0.5 892.5 0.5V1.5ZM897.5 0.5C897.224 0.5 897 0.723858 897 1C897 1.27614 897.224 1.5 897.5 1.5V0.5ZM902.5 1.5C902.776 1.5 903 1.27614 903 1C903 0.723858 902.776 0.5 902.5 0.5V1.5ZM907.5 0.5C907.224 0.5 907 0.723858 907 1C907 1.27614 907.224 1.5 907.5 1.5V0.5ZM912.5 1.5C912.776 1.5 913 1.27614 913 1C913 0.723858 912.776 0.5 912.5 0.5V1.5ZM917.5 0.5C917.224 0.5 917 0.723858 917 1C917 1.27614 917.224 1.5 917.5 1.5V0.5ZM922.547 1.66485C922.821 1.70056 923.072 1.50754 923.108 1.23372C923.144 0.959897 922.951 0.708965 922.677 0.673247L922.547 1.66485ZM927.847 2.05575C927.592 1.94998 927.3 2.07101 927.194 2.32609C927.088 2.58117 927.209 2.8737 927.464 2.97948L927.847 2.05575ZM931.871 5.52848C932.09 5.69674 932.404 5.65564 932.572 5.43668C932.74 5.21772 932.699 4.90382 932.48 4.73556L931.871 5.52848ZM936.264 8.51966C936.096 8.3007 935.782 8.2596 935.563 8.42786C935.344 8.59613 935.303 8.91003 935.471 9.12899L936.264 8.51966ZM938.021 13.5358C938.126 13.7909 938.419 13.9119 938.674 13.8061C938.929 13.7003 939.05 13.4078 938.944 13.1527L938.021 13.5358ZM940.327 18.3231C940.291 18.0493 940.04 17.8563 939.766 17.892C939.492 17.9277 939.299 18.1787 939.335 18.4525L940.327 18.3231ZM939.5 23.4929C939.5 23.769 939.724 23.9929 940 23.9929C940.276 23.9929 940.5 23.769 940.5 23.4929H939.5ZM940.5 28.4786C940.5 28.2024 940.276 27.9786 940 27.9786C939.724 27.9786 939.5 28.2024 939.5 28.4786H940.5ZM939.5 33.4643C939.5 33.7404 939.724 33.9643 940 33.9643C940.276 33.9643 940.5 33.7404 940.5 33.4643H939.5ZM940.5 38.45C940.5 38.1739 940.276 37.95 940 37.95C939.724 37.95 939.5 38.1739 939.5 38.45H940.5ZM939.5 43.4357C939.5 43.7119 939.724 43.9357 940 43.9357C940.276 43.9357 940.5 43.7119 940.5 43.4357H939.5ZM940.5 48.4214C940.5 48.1453 940.276 47.9214 940 47.9214C939.724 47.9214 939.5 48.1453 939.5 48.4214H940.5ZM939.5 53.4071C939.5 53.6833 939.724 53.9071 940 53.9071C940.276 53.9071 940.5 53.6833 940.5 53.4071H939.5ZM940.5 58.3929C940.5 58.1167 940.276 57.8929 940 57.8929C939.724 57.8929 939.5 58.1167 939.5 58.3929H940.5ZM939.5 63.3786C939.5 63.6547 939.724 63.8786 940 63.8786C940.276 63.8786 940.5 63.6547 940.5 63.3786H939.5ZM940.5 68.3643C940.5 68.0881 940.276 67.8643 940 67.8643C939.724 67.8643 939.5 68.0881 939.5 68.3643H940.5ZM939.5 73.35C939.5 73.6261 939.724 73.85 940 73.85C940.276 73.85 940.5 73.6261 940.5 73.35H939.5ZM940.5 78.3357C940.5 78.0596 940.276 77.8357 940 77.8357C939.724 77.8357 939.5 78.0596 939.5 78.3357H940.5ZM939.5 83.3214C939.5 83.5976 939.724 83.8214 940 83.8214C940.276 83.8214 940.5 83.5976 940.5 83.3214H939.5ZM940.5 88.3071C940.5 88.031 940.276 87.8071 940 87.8071C939.724 87.8071 939.5 88.031 939.5 88.3071H940.5ZM939.5 93.2929C939.5 93.569 939.724 93.7929 940 93.7929C940.276 93.7929 940.5 93.569 940.5 93.2929H939.5ZM940.5 98.2786C940.5 98.0024 940.276 97.7786 940 97.7786C939.724 97.7786 939.5 98.0024 939.5 98.2786H940.5ZM939.5 103.264C939.5 103.54 939.724 103.764 940 103.764C940.276 103.764 940.5 103.54 940.5 103.264H939.5ZM940.5 108.25C940.5 107.974 940.276 107.75 940 107.75C939.724 107.75 939.5 107.974 939.5 108.25H940.5ZM939.5 113.236C939.5 113.512 939.724 113.736 940 113.736C940.276 113.736 940.5 113.512 940.5 113.236H939.5ZM940.5 118.221C940.5 117.945 940.276 117.721 940 117.721C939.724 117.721 939.5 117.945 939.5 118.221H940.5ZM939.5 123.207C939.5 123.483 939.724 123.707 940 123.707C940.276 123.707 940.5 123.483 940.5 123.207H939.5ZM940.5 128.193C940.5 127.917 940.276 127.693 940 127.693C939.724 127.693 939.5 127.917 939.5 128.193H940.5ZM939.5 133.179C939.5 133.455 939.724 133.679 940 133.679C940.276 133.679 940.5 133.455 940.5 133.179H939.5ZM940.5 138.164C940.5 137.888 940.276 137.664 940 137.664C939.724 137.664 939.5 137.888 939.5 138.164H940.5ZM939.5 143.15C939.5 143.426 939.724 143.65 940 143.65C940.276 143.65 940.5 143.426 940.5 143.15H939.5ZM940.5 148.136C940.5 147.86 940.276 147.636 940 147.636C939.724 147.636 939.5 147.86 939.5 148.136H940.5ZM939.5 153.121C939.5 153.398 939.724 153.621 940 153.621C940.276 153.621 940.5 153.398 940.5 153.121H939.5ZM940.5 158.107C940.5 157.831 940.276 157.607 940 157.607C939.724 157.607 939.5 157.831 939.5 158.107H940.5ZM939.5 163.093C939.5 163.369 939.724 163.593 940 163.593C940.276 163.593 940.5 163.369 940.5 163.093H939.5ZM940.5 168.079C940.5 167.802 940.276 167.579 940 167.579C939.724 167.579 939.5 167.802 939.5 168.079H940.5ZM939.5 173.064C939.5 173.34 939.724 173.564 940 173.564C940.276 173.564 940.5 173.34 940.5 173.064H939.5ZM940.5 178.05C940.5 177.774 940.276 177.55 940 177.55C939.724 177.55 939.5 177.774 939.5 178.05H940.5ZM939.5 183.036C939.5 183.312 939.724 183.536 940 183.536C940.276 183.536 940.5 183.312 940.5 183.036H939.5ZM940.5 188.021C940.5 187.745 940.276 187.521 940 187.521C939.724 187.521 939.5 187.745 939.5 188.021H940.5ZM939.5 193.007C939.5 193.283 939.724 193.507 940 193.507C940.276 193.507 940.5 193.283 940.5 193.007H939.5ZM940.5 197.993C940.5 197.717 940.276 197.493 940 197.493C939.724 197.493 939.5 197.717 939.5 197.993H940.5ZM939.5 202.979C939.5 203.255 939.724 203.479 940 203.479C940.276 203.479 940.5 203.255 940.5 202.979H939.5ZM940.5 207.964C940.5 207.688 940.276 207.464 940 207.464C939.724 207.464 939.5 207.688 939.5 207.964H940.5ZM939.5 212.95C939.5 213.226 939.724 213.45 940 213.45C940.276 213.45 940.5 213.226 940.5 212.95H939.5ZM940.5 217.936C940.5 217.66 940.276 217.436 940 217.436C939.724 217.436 939.5 217.66 939.5 217.936H940.5ZM939.5 222.922C939.5 223.198 939.724 223.422 940 223.422C940.276 223.422 940.5 223.198 940.5 222.922H939.5ZM940.5 227.907C940.5 227.631 940.276 227.407 940 227.407C939.724 227.407 939.5 227.631 939.5 227.907H940.5ZM939.5 232.893C939.5 233.169 939.724 233.393 940 233.393C940.276 233.393 940.5 233.169 940.5 232.893H939.5ZM940.5 237.879C940.5 237.603 940.276 237.379 940 237.379C939.724 237.379 939.5 237.603 939.5 237.879H940.5ZM939.5 242.864C939.5 243.141 939.724 243.364 940 243.364C940.276 243.364 940.5 243.141 940.5 242.864H939.5ZM940.5 247.85C940.5 247.574 940.276 247.35 940 247.35C939.724 247.35 939.5 247.574 939.5 247.85H940.5ZM939.5 252.836C939.5 253.112 939.724 253.336 940 253.336C940.276 253.336 940.5 253.112 940.5 252.836H939.5ZM940.5 257.822C940.5 257.545 940.276 257.322 940 257.322C939.724 257.322 939.5 257.545 939.5 257.822H940.5ZM939.5 262.807C939.5 263.083 939.724 263.307 940 263.307C940.276 263.307 940.5 263.083 940.5 262.807H939.5ZM940.5 267.793C940.5 267.517 940.276 267.293 940 267.293C939.724 267.293 939.5 267.517 939.5 267.793H940.5ZM939.5 272.779C939.5 273.055 939.724 273.279 940 273.279C940.276 273.279 940.5 273.055 940.5 272.779H939.5ZM940.5 277.764C940.5 277.488 940.276 277.264 940 277.264C939.724 277.264 939.5 277.488 939.5 277.764H940.5ZM939.5 282.75C939.5 283.026 939.724 283.25 940 283.25C940.276 283.25 940.5 283.026 940.5 282.75H939.5ZM940.5 287.736C940.5 287.46 940.276 287.236 940 287.236C939.724 287.236 939.5 287.46 939.5 287.736H940.5ZM939.5 292.722C939.5 292.998 939.724 293.222 940 293.222C940.276 293.222 940.5 292.998 940.5 292.722H939.5ZM940.5 297.707C940.5 297.431 940.276 297.207 940 297.207C939.724 297.207 939.5 297.431 939.5 297.707H940.5ZM939.5 302.693C939.5 302.969 939.724 303.193 940 303.193C940.276 303.193 940.5 302.969 940.5 302.693H939.5ZM940.5 307.679C940.5 307.403 940.276 307.179 940 307.179C939.724 307.179 939.5 307.403 939.5 307.679H940.5ZM939.5 312.664C939.5 312.941 939.724 313.164 940 313.164C940.276 313.164 940.5 312.941 940.5 312.664H939.5ZM940.5 317.65C940.5 317.374 940.276 317.15 940 317.15C939.724 317.15 939.5 317.374 939.5 317.65H940.5ZM939.5 322.636C939.5 322.912 939.724 323.136 940 323.136C940.276 323.136 940.5 322.912 940.5 322.636H939.5ZM940.5 327.622C940.5 327.345 940.276 327.122 940 327.122C939.724 327.122 939.5 327.345 939.5 327.622H940.5ZM939.5 332.607C939.5 332.883 939.724 333.107 940 333.107C940.276 333.107 940.5 332.883 940.5 332.607H939.5ZM940.5 337.593C940.5 337.317 940.276 337.093 940 337.093C939.724 337.093 939.5 337.317 939.5 337.593H940.5ZM939.5 342.579C939.5 342.855 939.724 343.079 940 343.079C940.276 343.079 940.5 342.855 940.5 342.579H939.5ZM940.5 347.564C940.5 347.288 940.276 347.064 940 347.064C939.724 347.064 939.5 347.288 939.5 347.564H940.5ZM939.5 352.55C939.5 352.826 939.724 353.05 940 353.05C940.276 353.05 940.5 352.826 940.5 352.55H939.5ZM940.5 357.536C940.5 357.26 940.276 357.036 940 357.036C939.724 357.036 939.5 357.26 939.5 357.536H940.5ZM939.5 362.522C939.5 362.798 939.724 363.022 940 363.022C940.276 363.022 940.5 362.798 940.5 362.522H939.5ZM940.5 367.507C940.5 367.231 940.276 367.007 940 367.007C939.724 367.007 939.5 367.231 939.5 367.507H940.5ZM0 1.5H2.5V0.5H0V1.5ZM7.5 1.5H12.5V0.5H7.5V1.5ZM17.5 1.5H22.5V0.5H17.5V1.5ZM27.5 1.5H32.5V0.5H27.5V1.5ZM37.5 1.5H42.5V0.5H37.5V1.5ZM47.5 1.5H52.5V0.5H47.5V1.5ZM57.5 1.5H62.5V0.5H57.5V1.5ZM67.5 1.5H72.5V0.5H67.5V1.5ZM77.5 1.5H82.5V0.5H77.5V1.5ZM87.5 1.5H92.5V0.5H87.5V1.5ZM97.5 1.5H102.5V0.5H97.5V1.5ZM107.5 1.5H112.5V0.5H107.5V1.5ZM117.5 1.5H122.5V0.5H117.5V1.5ZM127.5 1.5H132.5V0.5H127.5V1.5ZM137.5 1.5H142.5V0.5H137.5V1.5ZM147.5 1.5H152.5V0.5H147.5V1.5ZM157.5 1.5H162.5V0.5H157.5V1.5ZM167.5 1.5H172.5V0.5H167.5V1.5ZM177.5 1.5H182.5V0.5H177.5V1.5ZM187.5 1.5H192.5V0.5H187.5V1.5ZM197.5 1.5H202.5V0.5H197.5V1.5ZM207.5 1.5H212.5V0.5H207.5V1.5ZM217.5 1.5H222.5V0.5H217.5V1.5ZM227.5 1.5H232.5V0.5H227.5V1.5ZM237.5 1.5H242.5V0.5H237.5V1.5ZM247.5 1.5H252.5V0.5H247.5V1.5ZM257.5 1.5H262.5V0.5H257.5V1.5ZM267.5 1.5H272.5V0.5H267.5V1.5ZM277.5 1.5H282.5V0.5H277.5V1.5ZM287.5 1.5H292.5V0.5H287.5V1.5ZM297.5 1.5H302.5V0.5H297.5V1.5ZM307.5 1.5H312.5V0.5H307.5V1.5ZM317.5 1.5H322.5V0.5H317.5V1.5ZM327.5 1.5H332.5V0.5H327.5V1.5ZM337.5 1.5H342.5V0.5H337.5V1.5ZM347.5 1.5H352.5V0.5H347.5V1.5ZM357.5 1.5H362.5V0.5H357.5V1.5ZM367.5 1.5H372.5V0.5H367.5V1.5ZM377.5 1.5H382.5V0.5H377.5V1.5ZM387.5 1.5H392.5V0.5H387.5V1.5ZM397.5 1.5H402.5V0.5H397.5V1.5ZM407.5 1.5H412.5V0.5H407.5V1.5ZM417.5 1.5H422.5V0.5H417.5V1.5ZM427.5 1.5H432.5V0.5H427.5V1.5ZM437.5 1.5H442.5V0.5H437.5V1.5ZM447.5 1.5H452.5V0.5H447.5V1.5ZM457.5 1.5H462.5V0.5H457.5V1.5ZM467.5 1.5H472.5V0.5H467.5V1.5ZM477.5 1.5H482.5V0.5H477.5V1.5ZM487.5 1.5H492.5V0.5H487.5V1.5ZM497.5 1.5H502.5V0.5H497.5V1.5ZM507.5 1.5H512.5V0.5H507.5V1.5ZM517.5 1.5H522.5V0.5H517.5V1.5ZM527.5 1.5H532.5V0.5H527.5V1.5ZM537.5 1.5H542.5V0.5H537.5V1.5ZM547.5 1.5H552.5V0.5H547.5V1.5ZM557.5 1.5H562.5V0.5H557.5V1.5ZM567.5 1.5H572.5V0.5H567.5V1.5ZM577.5 1.5H582.5V0.5H577.5V1.5ZM587.5 1.5H592.5V0.5H587.5V1.5ZM597.5 1.5H602.5V0.5H597.5V1.5ZM607.5 1.5H612.5V0.5H607.5V1.5ZM617.5 1.5H622.5V0.5H617.5V1.5ZM627.5 1.5H632.5V0.5H627.5V1.5ZM637.5 1.5H642.5V0.5H637.5V1.5ZM647.5 1.5H652.5V0.5H647.5V1.5ZM657.5 1.5H662.5V0.5H657.5V1.5ZM667.5 1.5H672.5V0.5H667.5V1.5ZM677.5 1.5H682.5V0.5H677.5V1.5ZM687.5 1.5H692.5V0.5H687.5V1.5ZM697.5 1.5H702.5V0.5H697.5V1.5ZM707.5 1.5H712.5V0.5H707.5V1.5ZM717.5 1.5H722.5V0.5H717.5V1.5ZM727.5 1.5H732.5V0.5H727.5V1.5ZM737.5 1.5H742.5V0.5H737.5V1.5ZM747.5 1.5H752.5V0.5H747.5V1.5ZM757.5 1.5H762.5V0.5H757.5V1.5ZM767.5 1.5H772.5V0.5H767.5V1.5ZM777.5 1.5H782.5V0.5H777.5V1.5ZM787.5 1.5H792.5V0.5H787.5V1.5ZM797.5 1.5H802.5V0.5H797.5V1.5ZM807.5 1.5H812.5V0.5H807.5V1.5ZM817.5 1.5H822.5V0.5H817.5V1.5ZM827.5 1.5H832.5V0.5H827.5V1.5ZM837.5 1.5H842.5V0.5H837.5V1.5ZM847.5 1.5H852.5V0.5H847.5V1.5ZM857.5 1.5H862.5V0.5H857.5V1.5ZM867.5 1.5H872.5V0.5H867.5V1.5ZM877.5 1.5H882.5V0.5H877.5V1.5ZM887.5 1.5H892.5V0.5H887.5V1.5ZM897.5 1.5H902.5V0.5H897.5V1.5ZM907.5 1.5H912.5V0.5H907.5V1.5ZM917.5 1.5H920V0.5H917.5V1.5ZM920 1.5C920.864 1.5 921.714 1.55612 922.547 1.66485L922.677 0.673247C921.801 0.558937 920.907 0.5 920 0.5V1.5ZM927.464 2.97948C929.049 3.63677 930.529 4.49721 931.871 5.52848L932.48 4.73556C931.07 3.65166 929.514 2.74698 927.847 2.05575L927.464 2.97948ZM935.471 9.12899C936.503 10.471 937.363 11.9507 938.021 13.5358L938.944 13.1527C938.253 11.4858 937.348 9.93014 936.264 8.51966L935.471 9.12899ZM939.335 18.4525C939.444 19.286 939.5 20.1363 939.5 21H940.5C940.5 20.093 940.441 19.1995 940.327 18.3231L939.335 18.4525ZM939.5 21V23.4929H940.5V21H939.5ZM939.5 28.4786V33.4643H940.5V28.4786H939.5ZM939.5 38.45V43.4357H940.5V38.45H939.5ZM939.5 48.4214V53.4071H940.5V48.4214H939.5ZM939.5 58.3929V63.3786H940.5V58.3929H939.5ZM939.5 68.3643V73.35H940.5V68.3643H939.5ZM939.5 78.3357V83.3214H940.5V78.3357H939.5ZM939.5 88.3071V93.2929H940.5V88.3071H939.5ZM939.5 98.2786V103.264H940.5V98.2786H939.5ZM939.5 108.25V113.236H940.5V108.25H939.5ZM939.5 118.221V123.207H940.5V118.221H939.5ZM939.5 128.193V133.179H940.5V128.193H939.5ZM939.5 138.164V143.15H940.5V138.164H939.5ZM939.5 148.136V153.121H940.5V148.136H939.5ZM939.5 158.107V163.093H940.5V158.107H939.5ZM939.5 168.079V173.064H940.5V168.079H939.5ZM939.5 178.05V183.036H940.5V178.05H939.5ZM939.5 188.021V193.007H940.5V188.021H939.5ZM939.5 197.993V202.979H940.5V197.993H939.5ZM939.5 207.964V212.95H940.5V207.964H939.5ZM939.5 217.936V222.922H940.5V217.936H939.5ZM939.5 227.907V232.893H940.5V227.907H939.5ZM939.5 237.879V242.864H940.5V237.879H939.5ZM939.5 247.85V252.836H940.5V247.85H939.5ZM939.5 257.822V262.807H940.5V257.822H939.5ZM939.5 267.793V272.779H940.5V267.793H939.5ZM939.5 277.764V282.75H940.5V277.764H939.5ZM939.5 287.736V292.722H940.5V287.736H939.5ZM939.5 297.707V302.693H940.5V297.707H939.5ZM939.5 307.679V312.664H940.5V307.679H939.5ZM939.5 317.65V322.636H940.5V317.65H939.5ZM939.5 327.622V332.607H940.5V327.622H939.5ZM939.5 337.593V342.579H940.5V337.593H939.5ZM939.5 347.564V352.55H940.5V347.564H939.5ZM939.5 357.536V362.522H940.5V357.536H939.5ZM939.5 367.507V370H940.5V367.507H939.5Z" fill="black"/>
</svg>
