<svg width="38" height="36" viewBox="0 0 38 36" fill="none" xmlns="http://www.w3.org/2000/svg">
<path d="M27.7221 0.364132C28.2986 0.258937 29.0673 0.13621 29.4516 0.101145C29.8359 0.0660797 30.4649 0.0836122 30.8492 0.118677C31.2335 0.171274 31.6528 0.294002 31.7926 0.399197C31.9847 0.556989 32.0022 0.942703 31.9149 2.25764C31.8624 3.16933 31.7052 4.27387 31.5829 4.71218C31.4606 5.1505 31.2161 5.81673 31.0588 6.20244C30.8841 6.58816 30.7618 6.92128 30.7618 6.93881C30.7618 6.97387 30.4649 7.48231 30.1155 8.07842C29.7486 8.70959 28.8227 9.7966 26.5341 11.9882L26.7962 13.2154C26.9534 13.8817 27.0233 14.5479 26.9884 14.6531C26.9534 14.7758 26.6914 14.881 26.3944 14.881C25.9227 14.881 25.8528 14.8109 25.6082 14.0044C25.4685 13.5135 25.2763 13.1278 25.1715 13.1278C25.0667 13.1278 24.9968 13.1804 24.9968 13.2505C24.9968 13.3382 24.857 13.4609 24.6649 13.5661C24.4902 13.6713 23.8787 14.1271 23.3197 14.618C22.7606 15.0914 21.992 15.7927 20.8914 16.7921L21.2757 17.4583C21.4853 17.8265 21.9745 18.7206 22.3588 19.4395C22.7432 20.1583 23.1974 20.9823 23.3721 21.2804C23.5468 21.5784 23.7215 21.8414 23.7739 21.894C23.8263 21.9466 24.0359 22.3674 24.2631 22.8583C24.6474 23.6998 24.6474 23.7524 24.3504 24.0505C24.0884 24.3135 23.9661 24.3485 23.6865 24.1732C23.4944 24.068 22.9179 23.2089 22.4112 22.2797C21.9046 21.333 21.2233 20.1057 20.8914 19.5271C20.5594 18.9485 20.1926 18.3349 20.0703 18.1596C19.948 18.0018 19.7384 17.8615 19.6161 17.8615C19.5112 17.8615 19.1094 18.1596 18.7426 18.5102C18.3932 18.8784 17.7817 19.4044 17.3974 19.7024C17.0131 20.0005 16.5414 20.3862 16.3492 20.5791C16.157 20.7719 15.1088 21.6836 12.0341 24.2609L12.1215 25.2252C12.1739 25.7511 12.2962 26.9434 12.3835 27.855C12.4709 28.7667 12.5757 29.5908 12.6106 29.696C12.6281 29.8011 12.6106 30.0291 12.5582 30.2219C12.4884 30.4148 12.1215 30.783 11.7371 31.046C11.3353 31.3265 10.8112 31.5369 10.5317 31.5369C10.1124 31.5369 10.0076 31.4141 9.57088 30.4498C9.29136 29.8362 8.90703 28.9947 8.71486 28.5563C8.52269 28.118 8.15582 27.3641 7.92871 26.8908C7.68414 26.3998 7.10763 25.646 6.63594 25.1726C6.16426 24.7167 5.48293 24.2258 5.11606 24.068C4.76666 23.9102 4.12028 23.6297 3.68353 23.4369C3.24679 23.244 2.35582 22.8408 1.70944 22.5427C0.713653 22.0693 0.521484 21.9115 0.521484 21.5434C0.521484 21.2979 0.696183 20.8771 0.923292 20.5791C1.13293 20.281 1.41245 19.9479 1.53474 19.8252C1.65703 19.7024 2.18112 19.6148 2.84498 19.6148C3.45642 19.6148 4.2251 19.6849 4.55703 19.7901C4.88895 19.8778 5.76245 19.983 6.49618 20.0005C7.82389 20.0531 7.84136 20.0531 8.4004 19.4395C8.71486 19.1063 9.25642 18.4752 9.60582 18.0369C9.95522 17.5985 10.2697 17.2128 10.3221 17.1602C10.3745 17.1076 10.8811 16.5115 11.4576 15.8453C12.0341 15.1791 12.5408 14.583 12.5932 14.5304C12.6456 14.4778 13.0124 14.0395 13.4317 13.5661C13.8335 13.0752 14.1829 12.5492 14.1655 12.3739C14.1655 12.2161 13.9034 11.9531 13.6064 11.7953C13.292 11.655 12.4359 11.1817 11.7197 10.7434C11.0034 10.3226 10.1299 9.83167 9.79799 9.67387C9.46606 9.51608 9.1516 9.32322 9.0992 9.27063C9.04679 9.21803 8.31305 8.76218 7.43956 8.28881C6.56606 7.7979 5.55281 7.21933 5.16847 7.00894C4.78414 6.78102 4.15522 6.43037 3.77088 6.23751C3.38654 6.02712 2.96727 5.76413 2.84498 5.67647C2.72269 5.57128 2.49558 5.37842 2.35582 5.23816C2.19859 5.0979 2.12871 4.81738 2.18112 4.62452C2.23353 4.43166 2.6004 3.66024 3.77088 1.53881L4.73173 1.62647C5.25582 1.66153 5.91968 1.7492 6.21666 1.81933C6.51365 1.87192 6.89799 1.99465 7.09016 2.08231C7.28233 2.16998 7.63173 2.27517 7.8763 2.31024C8.12088 2.36283 8.7498 2.52063 10.2347 2.92387L10.7588 2.41543C11.0558 2.13491 11.3703 1.90699 11.4576 1.90699C11.545 1.90699 11.7371 1.99465 11.8594 2.11738C11.9817 2.24011 12.0691 2.60829 12.0691 2.90634C12.0691 3.30959 12.1564 3.50244 12.3661 3.55504C12.5408 3.59011 13.0823 3.73037 13.589 3.87063C14.445 4.08102 14.5498 4.08102 15.1612 3.71283C15.5281 3.50244 15.9124 3.37972 16.0173 3.44985C16.1221 3.51998 16.2793 3.8005 16.3841 4.09855C16.489 4.43166 16.7161 4.65959 16.9781 4.72972C17.2052 4.79985 18.0088 5.01024 18.7426 5.22063C19.8432 5.51868 20.1576 5.55374 20.3323 5.36089C20.4371 5.25569 20.8914 4.72972 21.3281 4.20374C21.7649 3.6953 22.5859 2.90634 23.1625 2.48556C23.739 2.04725 24.6299 1.50374 25.1191 1.27582C25.6257 1.0479 26.1673 0.855041 26.307 0.855041C26.4468 0.855041 26.604 0.802443 26.639 0.714781C26.6739 0.644651 27.1631 0.486859 27.7221 0.364132Z" fill="white"/>
<path d="M26.01 20.9823C25.9926 16.8797 26.01 16.6343 26.3245 16.4765C26.5167 16.3713 28.5781 16.2836 31.5829 16.2836C34.5353 16.2836 36.6667 16.3537 36.8763 16.4589C37.2082 16.6343 37.2257 16.8096 37.2257 20.9648C37.2257 24.1557 37.1733 25.3654 37.0161 25.5232C36.8588 25.6986 35.5486 25.7511 31.6353 25.7511C27.7046 25.7511 26.4293 25.6985 26.2546 25.5408C26.0974 25.3654 26.0275 24.2083 26.01 20.9823Z" fill="white"/>
<path d="M13.9908 31.046C13.9908 28.8193 14.0432 26.8557 14.0956 26.7154C14.1829 26.4875 14.9516 26.4524 19.5462 26.4524C23.6516 26.4524 24.9618 26.505 25.1365 26.6628C25.2938 26.8382 25.3462 27.9427 25.3462 31.1336C25.3462 34.3596 25.2938 35.4291 25.1365 35.5167C25.0143 35.5693 22.5161 35.6044 19.5811 35.5869C15.7028 35.5518 14.2179 35.4992 14.1305 35.3414C14.0606 35.2187 13.9908 33.2901 13.9908 31.046Z" fill="white"/>
<path d="M26.01 31.1336C25.9926 28.6791 26.045 26.6278 26.1323 26.5752C26.2197 26.505 28.7179 26.47 37.1384 26.5401L37.2257 35.5693L32.2817 35.6044C29.5739 35.6395 27.0582 35.6395 26.045 35.5693L26.01 31.1336Z" fill="white"/>
<path fill-rule="evenodd" clip-rule="evenodd" d="M29.7663 1.39844C29.8361 1.39844 30.0807 1.46857 30.3253 1.55623C30.7096 1.71402 30.7446 1.78415 30.5873 2.16987C30.4825 2.41532 30.4126 2.92376 30.4126 3.30948C30.4126 3.69519 30.3428 4.1861 30.2554 4.41402C30.1681 4.62441 29.906 5.27311 29.6964 5.85168C29.4693 6.43026 28.9801 7.35948 28.5783 7.93805C28.194 8.49909 27.4602 9.32311 26.9361 9.77896C26.412 10.2173 25.9054 10.6731 25.8006 10.7608C25.6958 10.866 25.3638 11.129 25.0843 11.3569C24.7873 11.5673 24.2458 12.0406 23.8614 12.3913C23.4771 12.7419 22.6036 13.4958 21.9397 14.0569C21.2584 14.6179 20.3675 15.3718 19.9482 15.7225C19.5289 16.0731 19.0223 16.529 18.8126 16.7218C18.603 16.9147 18.1313 17.3179 17.747 17.5984C17.3626 17.8965 16.8036 18.3874 16.4891 18.703C16.1747 19.001 15.8777 19.264 15.8253 19.264C15.7729 19.264 15.406 19.5796 14.9867 19.9478C14.5849 20.3335 14.0783 20.7893 13.8861 20.9647C13.6765 21.14 13.1175 21.6134 12.6632 21.9991C12.1916 22.4023 11.5277 22.9809 10.5843 23.8575L10.8114 25.8212C10.9337 26.8906 11.0735 28.2231 11.1084 28.7842C11.1783 29.503 11.1434 29.7835 10.9687 29.7835C10.8638 29.7835 10.5319 29.2926 10.2524 28.6965C9.97288 28.0829 9.60601 27.2764 9.41384 26.8906C9.23914 26.5049 9.09939 26.1192 9.09939 26.014C9.09939 25.9088 8.50541 25.2426 7.7542 24.5062C7.003 23.7699 6.0771 23.0335 5.69276 22.8582C5.30842 22.7004 4.38252 22.2621 3.63131 21.9114C2.89758 21.5608 2.28613 21.2101 2.28613 21.1049C2.28613 20.9997 2.84517 20.9822 3.89336 21.0523C4.78433 21.14 6.14698 21.2452 6.91565 21.3153C8.24336 21.4205 8.33071 21.403 8.74999 20.9997C8.99457 20.7543 9.41384 20.2809 9.69336 19.9653C9.97288 19.6322 10.5669 18.9484 11.0036 18.4575C11.4403 17.9842 11.9295 17.4231 12.0693 17.2303C12.2265 17.0549 12.9602 16.1608 13.7289 15.2491C14.4976 14.3549 15.3187 13.3556 15.5632 13.0575C15.7903 12.7595 16.2795 12.1984 16.6289 11.8127C16.9783 11.427 17.747 10.5153 18.341 9.79649C18.9349 9.07766 19.5813 8.2887 19.8084 8.04324C20.0181 7.79779 20.6644 7.04389 21.241 6.37766C21.8175 5.71142 22.6036 4.8348 22.9879 4.44909C23.3723 4.04584 24.1235 3.4322 24.6476 3.08155C25.1717 2.73091 26.0801 2.25753 26.6566 2.04714C27.2331 1.83675 28.1416 1.60883 28.6656 1.55623C29.1897 1.4861 29.6789 1.41597 29.7488 1.39844L29.7663 1.39844ZM4.97649 2.95883C5.18613 2.95883 5.91987 3.11662 6.58372 3.30948C7.24758 3.50233 8.03372 3.73026 8.33071 3.81792C8.6277 3.88805 9.16926 4.04584 9.5536 4.15103C9.93794 4.25623 10.8464 4.50168 11.5626 4.69454C12.2789 4.8874 13.6241 5.25558 14.5325 5.50103C15.441 5.72896 16.4193 6.00948 16.7163 6.09714C17.0132 6.1848 17.6247 6.36013 18.0789 6.48285C18.5331 6.62311 18.9175 6.81597 18.9 6.90363C18.9 7.00883 18.6554 7.35948 18.341 7.72766C18.0265 8.07831 17.2753 8.95493 16.6638 9.69129C16.0524 10.4452 15.441 11.0238 15.2663 11.0238C15.109 11.0238 14.5675 10.7958 14.0958 10.5329C13.6066 10.2699 13.1873 10.0069 13.1349 9.95428C13.0825 9.90168 12.541 9.5861 11.912 9.25298C11.2831 8.9374 10.759 8.60428 10.7241 8.53415C10.7066 8.44649 10.6367 8.39389 10.5494 8.39389C10.4795 8.41143 9.01204 7.60493 7.28252 6.60558C5.553 5.62376 4.08553 4.72961 4.03312 4.64194C3.96324 4.53675 3.96324 4.29129 4.01565 4.09844C4.06806 3.90558 4.22529 3.57246 4.36505 3.36207C4.48734 3.13415 4.78433 2.95883 4.97649 2.95883ZM29.1548 17.5283C29.7663 17.5108 30.4126 17.5984 30.6048 17.6861C30.797 17.7913 31.0241 18.1069 31.1289 18.3874C31.2337 18.7205 31.4259 18.9134 31.6181 18.9134C31.7928 18.9134 32.0199 18.8082 32.1422 18.703C32.2644 18.5803 32.3518 18.3523 32.3518 18.2121C32.3343 18.0718 32.5614 17.8439 32.8235 17.7212C33.0855 17.5984 33.7843 17.5108 34.3608 17.5283C34.9373 17.5458 35.5138 17.5984 35.6187 17.6335C35.7934 17.6686 35.8458 18.4926 35.8458 24.3484H31.653C28.0891 24.3484 27.4428 24.3134 27.3729 24.0854C27.3205 23.9452 27.2681 22.49 27.2156 17.914L27.6349 17.7212C27.8795 17.616 28.5608 17.5283 29.1548 17.5283ZM17.2403 27.6796C18.8476 27.6796 18.9 27.6971 18.9 28.0829C18.8825 28.2932 19.0397 28.6264 19.2494 28.8192C19.459 29.0471 19.7036 29.1173 19.8608 29.0471C20.0006 28.9595 20.2452 28.6264 20.647 27.6796H23.9663V30.9231C23.9663 33.9913 23.9488 34.1842 23.6169 34.3419C23.4247 34.4471 21.6602 34.5173 19.5114 34.5173C16.4018 34.5173 15.703 34.4647 15.4934 34.2543C15.2837 34.0439 15.2313 33.4653 15.2488 31.2913C15.2663 29.801 15.3361 28.3809 15.4235 28.1355C15.5632 27.6971 15.6157 27.6796 17.2403 27.6796ZM30.6922 27.6796L31.0416 28.3458C31.2687 28.7666 31.5132 28.9945 31.7403 28.9945C31.9849 28.9945 32.1422 28.8192 32.4916 27.7673L35.8458 27.6796V31.0108C35.8458 33.816 35.8108 34.3595 35.5837 34.4296C35.444 34.4822 33.7144 34.5173 31.7403 34.5173C29.2247 34.5173 28.0193 34.4471 27.2681 34.079L27.2855 31.151C27.2855 29.5205 27.3379 28.0829 27.3903 27.9426C27.4602 27.7322 27.8271 27.6796 30.6922 27.6796Z" fill="#696969"/>
<path d="M21.59 11.1113C22.2538 10.5327 23.1099 9.76131 23.5117 9.39313C24.0532 8.88469 24.3328 8.74443 24.7346 8.7795C25.1014 8.81456 25.2761 8.93729 25.3111 9.18274C25.3635 9.4282 25.0665 9.81391 24.2804 10.4977C23.6864 11.0237 22.7605 11.8477 22.2189 12.3386C21.6599 12.812 20.7864 13.5834 20.2623 14.0392C19.7557 14.4951 19.1442 15.0035 18.9171 15.1788C18.69 15.3542 18.3406 15.6347 18.131 15.81C17.9213 15.9853 17.6942 16.1081 17.6243 16.1081C17.537 16.1081 17.3623 15.9853 17.2225 15.8451C17.0653 15.6873 17.0129 15.4594 17.0828 15.2665C17.1352 15.1087 17.5195 14.6529 17.9038 14.2672C18.3057 13.8814 18.8996 13.3555 19.2316 13.11C19.5635 12.8646 19.9653 12.549 20.105 12.4087C20.2448 12.2685 20.9087 11.6899 21.59 11.1113Z" fill="white"/>
<path d="M8.71469 22.5951C8.7671 22.4548 9.11649 22.034 9.50083 21.6659C9.90264 21.2801 10.3569 21.0172 10.6014 21.0172C10.8285 21.0172 11.0557 21.1399 11.1081 21.2801C11.1605 21.4204 11.1954 21.6133 11.1954 21.7185C11.1954 21.8237 10.846 22.2444 10.4093 22.6827C9.97252 23.1211 9.46589 23.4717 9.27372 23.4717C9.08155 23.4717 8.85445 23.3314 8.7671 23.1561C8.69722 22.9983 8.66228 22.7353 8.71469 22.5951Z" fill="white"/>
</svg>
