<svg width="46" height="44" viewBox="0 0 46 44" fill="none" xmlns="http://www.w3.org/2000/svg">
<path d="M27.9603 0.718831C28.3271 0.736364 29.0609 0.578571 29.585 0.385714C30.1091 0.192857 30.6681 0.0175325 30.8079 0C30.9476 0 31.5067 0.175325 32.0307 0.403247C32.5548 0.648701 33.4633 0.894156 34.0398 0.964286C34.6163 1.03442 36.0838 1.10455 37.3066 1.12208C38.547 1.12208 39.5428 1.08701 39.5428 1.01688C39.5428 0.929221 39.7524 0.911688 40.032 0.964286C40.294 1.01688 40.8181 1.08701 41.2024 1.12208C41.5868 1.15714 42.3554 1.38506 42.9145 1.64805C43.456 1.89351 43.9103 2.20909 43.9103 2.33182C43.9103 2.43701 44.1199 2.80519 44.347 3.12078C44.5916 3.41883 44.7838 3.89221 44.7838 4.17273C44.7838 4.43571 44.5916 5.04935 44.3645 5.52273C44.1374 6.01364 43.8229 6.50455 43.6657 6.62727C43.4211 6.82013 43.4211 6.87273 43.6482 7.24091C43.8229 7.48636 43.8753 7.87208 43.8229 8.32792C43.7356 8.97662 43.8054 9.11688 44.5916 9.99351C45.2554 10.7474 45.4476 11.1156 45.5 11.6942C45.5524 12.2727 45.5 12.4481 45.2729 12.5182C45.0982 12.5883 44.7838 12.9916 44.5916 13.4649C44.382 13.9208 44.1374 14.4468 44.0675 14.6396C43.9976 14.8325 43.7705 15.3935 43.5783 15.8669C43.4036 16.3578 43.194 17.1818 43.1416 17.7078C43.0717 18.4792 43.1241 18.7773 43.3862 19.1981C43.5958 19.5136 43.788 20.2325 43.8579 21.0039C43.9801 22.1084 43.9627 22.3188 43.6832 22.5818C43.5085 22.7396 43.3862 23.0377 43.3862 23.2305C43.3862 23.4234 43.5259 23.7214 43.7006 23.8968C43.8579 24.0721 43.9277 24.1948 43.8229 24.1948C43.7181 24.1948 43.5434 24.3877 43.4386 24.6331C43.3163 24.8786 43.2115 25.4396 43.2115 25.913C43.2115 26.3688 43.1067 26.8948 42.9494 27.0877C42.8097 27.2805 42.7048 27.7188 42.7048 28.0519C42.6874 28.3851 42.5826 28.8935 42.4428 29.1916C42.3205 29.4896 42.0759 29.9981 41.9362 30.3312C41.7964 30.6643 41.5169 31.3656 41.3073 31.874C41.1151 32.3649 40.9404 32.926 40.9404 33.1013C40.9579 33.2591 40.8181 33.5221 40.6609 33.6623C40.5036 33.8026 40.2241 34.2409 40.032 34.6266C39.8398 35.0123 39.3681 35.6961 39.0012 36.1695C38.6344 36.6253 38.3199 37.0636 38.3199 37.1688C38.3199 37.274 38.0229 37.6247 37.6735 37.9929C37.3067 38.3435 36.8 38.7117 36.5554 38.8169C36.2934 38.9221 35.7868 39.2903 35.4199 39.6234C35.0356 39.9565 34.3892 40.4123 33.9524 40.6227C33.5157 40.8331 33.044 41.1312 32.9042 41.289C32.7645 41.4468 32.3801 41.5695 32.0832 41.5519C31.7338 41.5519 31.2795 41.7273 30.9476 41.9727C30.6332 42.2006 30.0217 42.4286 29.585 42.4812C29.1482 42.5338 28.7289 42.674 28.6416 42.7617C28.5368 42.8669 28.2747 42.9545 28.0301 42.9545C27.7506 42.9721 27.4536 42.8143 26.9819 42.1656L26.6675 42.5513C26.4928 42.7792 26.1259 43.0247 25.8289 43.1123C25.5145 43.2175 25.235 43.2175 25.1301 43.1299C25.0253 43.0247 24.7458 43.0773 24.4313 43.2526C24.1344 43.3929 23.6452 43.5507 23.3482 43.5857C22.894 43.6383 22.7542 43.5857 22.6844 43.3052C22.632 43.1123 22.5271 42.9545 22.4223 42.9545C22.3175 42.9545 22.2127 43.1123 22.1603 43.3052C22.0904 43.6208 21.9332 43.6558 20.6404 43.6558C19.5922 43.6558 18.9982 43.5682 18.4916 43.3403C18.0024 43.0948 17.3386 42.9896 16.2205 42.9721C14.7006 42.937 14.6133 42.9195 13.9145 42.3409C13.3729 41.9026 12.9886 41.7273 12.5518 41.7273C12.1675 41.7273 11.9054 41.6396 11.853 41.4643C11.8006 41.324 11.591 41.1487 11.3813 41.0961C11.1542 41.026 10.5952 40.7279 10.106 40.4123C9.63436 40.0968 9.04038 39.6584 8.7958 39.4656C8.55123 39.2552 8.25424 39.0974 8.14942 39.0974C8.02713 39.0974 7.6952 38.8695 7.39821 38.5714C7.10123 38.2734 6.87412 37.9403 6.87412 37.8351C6.87412 37.7123 6.40243 37.0987 5.82593 36.4675C5.23195 35.8364 4.76026 35.2578 4.76026 35.1526C4.76026 35.0474 4.53315 34.7494 4.23617 34.4513C3.90424 34.1182 3.72954 33.75 3.72954 33.452C3.72954 33.1714 3.62472 32.9084 3.50243 32.8383C3.36267 32.7507 3.13556 32.4701 2.97834 32.1721C2.82111 31.874 2.50665 31.2078 2.26207 30.6818C2.01749 30.1558 1.80785 29.4019 1.82532 29.0162C1.82532 28.5253 1.70303 28.2097 1.45846 27.9643C1.24882 27.7714 1.00424 27.2981 0.916889 26.9123C0.81207 26.5266 0.724721 25.5799 0.724721 24.8084C0.724721 24.037 0.654841 23.3357 0.584962 23.2305C0.497612 23.1253 0.497612 22.5292 0.602432 21.8805C0.689781 21.2143 0.707251 20.5481 0.654841 20.3903C0.584962 20.2149 0.619902 19.9169 0.724721 19.724C0.81207 19.5312 1.00424 18.5494 1.12653 17.5325C1.30123 16.0597 1.42352 15.6039 1.73797 15.2532C1.96508 15.0078 2.17472 14.4818 2.2446 14.0786C2.29701 13.6578 2.38436 13.3247 2.47171 13.3247C2.54159 13.3247 2.64641 13.0266 2.71629 12.676C2.78617 12.3078 3.18797 11.5188 3.62472 10.9227C4.06147 10.3091 4.42834 9.69545 4.42834 9.55519C4.42834 9.41494 4.63797 9.08182 4.91749 8.81883C5.17954 8.57338 5.56388 8.25779 5.79099 8.11753C6.00062 7.99481 6.17532 7.80195 6.17532 7.71429C6.17532 7.62662 6.52472 7.18831 6.92653 6.75C7.34581 6.31169 7.78255 5.96104 7.88737 5.96104C8.00966 5.96104 8.09701 5.83831 8.09701 5.69805C8.09701 5.55779 8.27171 5.31234 8.49882 5.17208C8.70846 5.03182 9.09279 4.90909 9.37231 4.90909C9.65183 4.90909 10.0886 4.6987 10.4729 4.34805C10.8223 4.03247 11.3289 3.55909 11.6085 3.2961C11.888 3.01558 12.3073 2.80519 12.5518 2.80519C12.7964 2.80519 13.1458 2.6474 13.338 2.45455C13.5301 2.26169 13.8621 2.1039 14.0892 2.1039C14.2988 2.1039 14.7006 1.9461 14.9976 1.75325C15.3295 1.54286 16.0109 1.35 16.8145 1.27987C17.6006 1.19221 18.1247 1.05195 18.1597 0.929221C18.2121 0.753896 18.3344 0.753896 18.5789 0.876623C18.7711 0.981818 19.0856 1.05195 19.2777 1.05195C19.4699 1.05195 19.6621 0.929221 19.7145 0.788961C19.7844 0.578571 19.9765 0.543507 20.553 0.631169C20.9548 0.701299 21.4615 0.824026 21.6886 0.894156C21.8982 0.981818 22.2826 0.981818 22.5621 0.911688C22.8241 0.824026 23.1386 0.788961 23.2609 0.824026C23.3657 0.841558 23.4705 1.06948 23.4705 1.31494C23.4705 1.59545 23.5753 1.75325 23.7326 1.75325C23.8723 1.75325 23.9946 1.84091 23.9946 1.92857C23.9946 2.01623 23.7151 2.1039 23.3657 2.1039C23.0338 2.1039 22.632 2.22662 22.4922 2.36688C22.3524 2.50714 22.2476 2.71753 22.2476 2.80519C22.2476 2.89286 22.4573 3.19091 22.7193 3.4539C23.156 3.87468 23.3482 3.92727 24.2566 3.90974C24.8332 3.90974 25.4097 3.85714 25.532 3.78701C25.6368 3.73442 25.7416 3.4013 25.7416 3.06818C25.7416 2.57727 25.6717 2.45455 25.3922 2.45455C25.2 2.45455 25.0428 2.36688 25.0428 2.27922C25.0428 2.19156 24.8332 2.1039 24.5711 2.1039C24.2042 2.1039 24.1518 2.0513 24.3091 1.89351C24.4313 1.77078 24.5187 1.52532 24.5187 1.36753C24.5187 1.17468 24.641 1.05195 24.8332 1.05195C24.9904 1.05195 25.2 1.12208 25.3048 1.22727C25.4213 1.34416 25.7882 1.28571 26.4054 1.05195C26.8946 0.859091 27.6109 0.701299 27.9603 0.718831Z" fill="#696969"/>
<path d="M22.7199 3.12034C22.6501 3.19047 22.5977 3.06774 22.5977 2.85735C22.5977 2.47163 22.6675 2.4541 23.8205 2.4541C24.7465 2.4541 25.0609 2.52423 25.1308 2.71709C25.1832 2.85735 25.2181 3.12034 25.2181 3.29566C25.2181 3.55865 25.1133 3.57618 24.2224 3.45345C23.6633 3.38332 23.1392 3.24306 23.0344 3.1554C22.9296 3.05021 22.8073 3.03267 22.7199 3.12034Z" fill="white"/>
<path d="M37.7431 23.6686C37.7082 24.2998 37.6907 23.8264 37.6907 22.6167C37.6907 21.407 37.7082 20.8985 37.7431 21.4771C37.778 22.0557 37.778 23.0375 37.7431 23.6686Z" fill="#696969"/>
<path d="M34.7383 32.0667L35.175 31.8388C35.4196 31.716 35.8913 31.6284 36.2232 31.6459C36.5551 31.6634 36.9395 31.7336 37.0618 31.7862C37.1666 31.8563 37.4112 31.8738 37.5859 31.8212C37.7431 31.7686 37.5859 31.8738 37.2365 32.0492C36.8696 32.207 36.5726 32.4173 36.5726 32.5225C36.5726 32.6277 36.363 32.8907 36.1184 33.1362C35.8738 33.3816 35.7166 33.6797 35.769 33.7849C35.8214 33.9076 35.8039 34.0128 35.6991 34.0128C35.6118 34.0128 35.5244 33.9427 35.5244 33.8375C35.5244 33.7323 35.3672 33.4342 34.8256 32.6102L35.6118 32.3823L34.7383 32.0667Z" fill="#696969"/>
<path fill-rule="evenodd" clip-rule="evenodd" d="M33.7085 2.4717C34.0753 2.66455 34.582 2.80481 34.8091 2.80481C35.0362 2.80481 35.2458 2.89248 35.2808 2.98014C35.3157 3.0678 35.6651 3.15546 36.0494 3.15546C36.4338 3.15546 37.3597 2.99767 38.1109 2.78728C38.8446 2.59442 39.7006 2.3665 39.9802 2.27884C40.2597 2.17365 40.644 2.10352 40.8187 2.10352C40.9759 2.10352 41.1157 2.19118 41.1157 2.27884C41.1157 2.3665 40.8362 2.45416 40.5043 2.45416C40.1723 2.45416 39.8928 2.50676 39.8928 2.57689C39.8928 2.66455 39.4386 2.80481 38.897 2.92754C38.338 3.05027 37.3422 3.29572 36.6609 3.48858C35.9796 3.68144 35.2633 3.85676 35.0537 3.85676C34.8091 3.85676 34.3374 3.54118 33.8657 3.0678C33.429 2.62949 33.0621 2.24378 33.0446 2.20871C33.0272 2.17365 33.3241 2.29637 33.7085 2.4717ZM28.188 2.45416C28.2928 2.45416 28.3627 2.50676 28.3627 2.57689C28.3802 2.66455 28.1356 2.83988 27.8386 2.98014C27.5416 3.1204 27.2621 3.34832 27.2272 3.45352C27.1747 3.57624 27.1747 3.85676 27.2272 4.06715C27.2796 4.29507 27.5416 4.57559 27.8037 4.69832C28.0657 4.82105 28.3802 4.90871 28.5025 4.90871C28.6073 4.90871 28.7121 5.04897 28.7121 5.20676C28.7296 5.38209 28.8693 5.64507 29.0266 5.78533C29.2012 5.92559 29.5157 6.29378 29.7253 6.57429C30.0049 6.96001 30.1272 7.32819 30.1097 7.92429C30.1097 8.64313 30.0747 8.74832 29.8127 8.66066C29.638 8.59053 29.3934 8.53793 29.2886 8.5204C29.1663 8.5204 29.0615 8.45027 29.0615 8.36261C29.0615 8.29248 28.9043 8.23988 28.7121 8.23988C28.5199 8.23988 28.3627 8.15222 28.3627 8.06455C28.3627 7.97689 28.1356 7.88923 27.8386 7.88923C27.5591 7.88923 27.3145 7.80157 27.3145 7.7139C27.3145 7.62624 27.1223 7.53858 26.8778 7.53858C26.6332 7.53858 26.4061 7.45092 26.3537 7.36326C26.3012 7.27559 26.3711 7.18793 26.4934 7.18793C26.5982 7.20546 26.7904 6.97754 26.9127 6.71455C27.0175 6.45157 27.1573 5.96066 27.2097 5.64507C27.2796 5.27689 27.2446 5.04897 27.1049 4.99637C26.9535 4.93793 26.901 4.62819 26.9476 4.06715C26.9826 3.61131 27.1223 3.13793 27.2446 3.0152C27.3669 2.91001 27.594 2.80481 27.7338 2.80481C27.891 2.80481 28.0133 2.71715 28.0133 2.62949C28.0133 2.54183 28.0832 2.45416 28.188 2.45416ZM15.6621 3.173C15.8193 3.15546 16.0639 3.31326 16.1862 3.48858C16.291 3.68144 16.3784 4.06715 16.3609 4.3652C16.3259 4.75092 16.2211 4.90871 16.0115 4.90871C15.7844 4.90871 15.7669 4.85611 15.9241 4.68079C16.0464 4.57559 16.1338 4.27754 16.1338 4.03209C16.1512 3.75157 15.994 3.52365 15.7494 3.38339C15.435 3.22559 15.4175 3.173 15.6621 3.173ZM20.8157 4.31261C21.1651 4.34767 21.497 4.4178 21.5494 4.4704C21.6019 4.523 21.5669 4.64572 21.4621 4.73339C21.3573 4.83858 20.9729 4.96131 20.5886 5.03144C20.082 5.10157 19.8374 5.0665 19.7326 4.89118C19.6278 4.71585 19.6627 4.57559 19.8723 4.45287C20.0296 4.34767 20.4488 4.27754 20.8157 4.31261ZM16.9199 5.55741C17.0597 5.61001 17.1645 5.7152 17.182 5.80287C17.182 5.89053 16.9723 5.96066 16.6928 5.96066C16.291 5.96066 16.2386 5.92559 16.4482 5.7152C16.5705 5.57494 16.7802 5.50481 16.9199 5.55741ZM42.95 5.62754C43.0549 5.62754 42.9675 5.73274 42.7753 5.873C42.5832 6.01326 42.2338 6.27624 41.9892 6.48663C41.6398 6.76715 41.5874 6.88988 41.7796 7.0652C41.9019 7.1704 41.9892 7.53858 41.9892 7.85416C41.9892 8.15222 41.9193 8.4152 41.8145 8.4152C41.7097 8.4152 41.6398 8.55546 41.6398 8.71326C41.6398 8.88858 41.8145 9.1165 42.0241 9.2217C42.2512 9.34442 42.688 9.53728 43.0199 9.66001C43.3344 9.80027 43.7012 10.0107 43.8061 10.1334C43.9458 10.3087 43.9458 10.3613 43.7886 10.3438C43.6663 10.3438 43.5615 10.2561 43.5615 10.1685C43.5615 10.0808 43.3868 9.94053 43.1772 9.8704C42.95 9.8178 42.4958 9.78274 42.1639 9.80027C41.832 9.83533 41.3952 9.923 41.2031 10.0282C40.9235 10.1685 40.7663 10.1159 40.3994 9.71261C40.1549 9.43209 39.9103 9.08144 39.8579 8.94118C39.8055 8.80092 39.7531 8.59053 39.7181 8.50287C39.7006 8.4152 39.6133 8.22235 39.5259 8.09962C39.4211 7.95936 39.491 7.8191 39.7705 7.67884C39.9802 7.57365 40.2247 7.39832 40.3296 7.32819C40.4344 7.24053 41.0109 6.81975 41.6398 6.39897C42.2687 5.97819 42.8452 5.64507 42.95 5.62754ZM11.7488 6.92494C11.8012 6.97754 11.6265 7.18793 11.347 7.39832C11.05 7.62624 10.7181 7.90676 10.5958 8.01196C10.4735 8.13468 10.3163 8.18728 10.2464 8.13468C10.1591 8.08209 10.229 7.97689 10.3687 7.88923C10.5085 7.80157 10.8579 7.53858 11.1374 7.29313C11.4169 7.04767 11.6964 6.88988 11.7488 6.92494ZM14.9633 8.23988C15.0332 8.23988 15.0856 8.27494 15.0856 8.32754C15.0856 8.38014 14.7886 8.55546 14.4392 8.71326C14.0723 8.87105 13.4259 9.23923 12.9892 9.53728C12.5525 9.83533 11.6964 10.6068 11.0675 11.2379C10.4386 11.8691 9.7398 12.6055 9.49522 12.9035C9.25065 13.184 8.72655 14.0081 8.32474 14.7269C7.9404 15.4457 7.48619 16.3925 7.32896 16.8308C7.17173 17.2691 7.04944 17.7425 7.06691 17.8827C7.06691 18.023 6.94462 18.2684 6.78739 18.4087C6.52534 18.6542 6.50787 18.6366 6.61269 18.321C6.71751 18.023 6.70004 18.023 6.40305 18.3736C6.14101 18.7068 6.01872 18.7418 5.65185 18.6016C5.40727 18.4964 5.14522 18.4788 5.07534 18.549C5.00546 18.6191 4.86571 18.549 4.77836 18.4087C4.66189 18.2334 4.60366 18.2159 4.60366 18.3561C4.60366 18.4788 4.53378 18.549 4.42896 18.4964C4.34161 18.4438 4.25426 18.2159 4.25426 17.9704C4.25426 17.6899 4.39402 17.462 4.67354 17.3042C5.0404 17.1288 5.07534 17.0236 4.93558 16.6029C4.84824 16.3399 4.65607 16.1295 4.51631 16.1295C4.32414 16.1295 4.37655 15.9191 4.77836 15.2003C5.09281 14.6392 5.30245 14.0256 5.30245 13.6223C5.30245 13.2542 5.2151 12.9386 5.09281 12.9035C4.93558 12.8334 4.95305 12.7633 5.18016 12.6405C5.44221 12.4827 5.45968 12.2899 5.35486 11.3957C5.25004 10.5892 5.26751 10.3438 5.44221 10.3438C5.54703 10.3438 5.61691 10.4665 5.5645 10.6068C5.51209 10.747 5.52956 11.0626 5.61691 11.3081C5.68679 11.5535 5.84402 11.799 5.96631 11.834C6.07113 11.8866 6.36811 11.8165 6.61269 11.6938C6.85727 11.5886 7.04944 11.4483 7.04944 11.3957C7.04944 11.3431 7.27655 11.0451 7.57354 10.7295C7.90546 10.3613 8.09763 9.99313 8.09763 9.64248C8.09763 9.34442 7.99281 9.01131 7.88799 8.88858C7.76571 8.74832 7.5386 8.60806 7.39884 8.53793C7.22414 8.48533 7.29402 8.43274 7.57354 8.43274C7.83558 8.4152 8.09763 8.55546 8.23739 8.76585C8.37715 8.99377 8.56932 9.08144 8.79643 9.02884C9.05848 8.95871 9.14583 9.02884 9.14583 9.29183C9.14583 9.48468 9.04101 9.83533 8.93619 10.0808C8.8139 10.3262 8.60426 10.5191 8.49944 10.5191C8.37715 10.5191 8.23739 10.6418 8.18498 10.7821C8.13257 10.9223 8.21992 11.0801 8.35968 11.1327C8.49944 11.1853 8.74402 11.2555 8.88378 11.3081C9.02354 11.3607 9.11089 11.5184 9.05848 11.6587C9.00607 11.799 9.04101 11.9217 9.12836 11.9217C9.21571 11.9217 9.40787 11.8165 9.53016 11.6938C9.65245 11.5886 9.84462 11.4834 9.93197 11.4659C10.0368 11.4659 10.3163 11.3607 10.5958 11.2555C10.8579 11.1327 11.0675 10.9574 11.0675 10.8697C11.0675 10.7821 11.1898 10.5717 11.3296 10.4314C11.4693 10.2912 11.5916 10.0107 11.5916 9.8178C11.5916 9.62494 11.7663 9.36196 11.9934 9.2217C12.2031 9.09897 12.7272 8.94118 13.1639 8.87105C13.6006 8.80092 14.1422 8.64313 14.3868 8.50287C14.6314 8.36261 14.8759 8.25741 14.9633 8.23988ZM6.92715 8.60806C6.99703 8.59053 7.04944 8.62559 7.04944 8.67819C7.04944 8.73079 6.85727 8.95871 6.61269 9.20416C6.36811 9.44962 6.14101 9.60741 6.0886 9.55481C6.03619 9.50222 6.17595 9.27429 6.40305 9.04637C6.61269 8.80092 6.8398 8.60806 6.92715 8.60806ZM42.95 13.3243C42.985 13.3243 42.985 13.4996 42.9326 13.71C42.8802 13.9379 42.6705 14.5516 42.4609 15.0775C42.2687 15.6035 42.0241 16.1295 41.9543 16.2172C41.8844 16.3048 41.8669 16.8659 41.9193 17.4444C41.9892 18.2159 41.9717 18.4262 41.832 18.2334C41.7272 18.0931 41.6398 17.7775 41.6398 17.5321C41.6398 17.2866 41.5525 16.9886 41.4302 16.8659C41.3079 16.7431 40.9759 16.6555 40.679 16.6555C40.3994 16.6555 40.2422 16.5853 40.3296 16.5152C40.4344 16.4451 40.6091 16.1996 40.7488 15.9542C40.8886 15.7087 41.0982 15.3581 41.2031 15.1652C41.3079 14.9723 41.5 14.6392 41.6398 14.4113C41.7796 14.2009 42.0067 14.0256 42.129 14.0256C42.2338 14.0256 42.3386 13.9379 42.3386 13.8503C42.3386 13.7626 42.4609 13.6749 42.6006 13.6749C42.7404 13.6749 42.8627 13.5873 42.8627 13.4996C42.8627 13.412 42.8976 13.3243 42.95 13.3243ZM39.8928 18.0581C40.085 18.3035 40.2422 18.6892 40.2422 18.9347C40.2422 19.1801 40.3296 19.4782 40.4519 19.6009C40.5741 19.7236 40.8886 19.8113 41.1681 19.8113C41.4302 19.8113 41.6398 19.8814 41.6398 19.9866C41.6398 20.0918 41.4302 20.162 41.1681 20.162C40.8886 20.162 40.5741 20.0743 40.4519 19.9516C40.2772 19.7587 40.2422 19.8639 40.2247 20.4249C40.2073 20.8107 40.2247 21.4068 40.2422 21.7399C40.2597 22.073 40.1723 22.5288 40.05 22.7392C39.8579 23.0373 39.8579 23.2477 39.9976 23.6159C40.1374 24.0016 40.1025 24.3522 39.8579 25.1587C39.7006 25.7373 39.5958 26.2457 39.6308 26.2983C39.6657 26.3509 39.5958 26.5964 39.4561 26.8594C39.3163 27.1399 39.1241 27.3503 39.0193 27.3503C38.932 27.3503 38.7223 27.3152 38.5826 27.2626C38.3729 27.1925 38.3555 27.0873 38.5127 26.5964C38.635 26.2983 38.6699 25.8775 38.4603 25.334L38.3205 25.6847C38.2332 25.8775 38.1633 26.3334 38.1633 26.684C38.1458 27.2977 38.0934 27.3503 37.6392 27.3853C37.2199 27.4204 37.0976 27.3503 37.0278 27.0347C36.9753 26.8243 36.9928 26.4736 37.0802 26.2457C37.1675 26.0353 37.3073 25.3516 37.3772 24.7204C37.5169 23.686 37.5344 23.6334 37.6392 24.1944C37.7091 24.5451 37.7615 23.8788 37.779 22.6165C37.779 21.1438 37.744 20.5126 37.6217 20.6879C37.482 20.8983 37.447 20.8633 37.447 20.5126C37.447 20.2672 37.3946 19.636 37.3247 19.11C37.2199 18.2334 37.2374 18.1633 37.4994 18.3561C37.6741 18.4788 37.8488 18.5139 37.9187 18.4262C37.9711 18.3386 38.3729 18.2334 38.7922 18.1633C39.2115 18.1107 39.5434 17.9704 39.5434 17.8301C39.5434 17.7249 39.7006 17.8126 39.8928 18.0581ZM4.74342 19.8639C4.90064 19.9866 4.91811 20.0918 4.79583 20.1094C4.69101 20.1444 4.60366 20.5301 4.60366 21.0386C4.60366 21.7048 4.67354 21.9152 4.86571 21.9152C5.00546 21.9152 5.16269 22.073 5.2151 22.2659C5.26751 22.4938 5.14522 22.7918 4.84824 23.0899C4.41149 23.5808 4.39402 23.5808 4.14944 23.2301C4.00968 23.0373 3.90486 22.6866 3.90486 22.4412C3.90486 22.1957 4.02715 21.81 4.18438 21.5646C4.39402 21.249 4.44643 20.9509 4.35908 20.5126C4.30667 20.1795 4.30667 19.8464 4.35908 19.7762C4.42896 19.7061 4.60366 19.7412 4.74342 19.8639ZM6.21089 20.8633C6.31571 20.8633 6.35065 21.6347 6.29824 22.8269C6.22836 24.3873 6.2633 24.8607 6.45546 25.0184C6.59522 25.1412 6.70004 25.5269 6.70004 25.86C6.70004 26.1931 6.78739 26.5087 6.87474 26.5613C6.97956 26.6139 7.04944 26.8068 7.04944 26.9996C7.04944 27.1925 7.1892 27.6834 7.38137 28.0866C7.55607 28.5074 7.80064 29.0684 7.90546 29.3665C8.02775 29.6646 8.32474 30.2081 8.58679 30.5938C8.84884 30.9795 9.09342 31.3301 9.14583 31.3827C9.19824 31.4353 9.47775 31.786 9.75727 32.1717C10.0543 32.5574 10.6133 33.1886 11.0151 33.5743C11.4169 33.96 12.0458 34.5386 12.4127 34.8542C12.7796 35.1697 13.1814 35.4152 13.3037 35.4152C13.4085 35.4152 13.5133 35.4853 13.5133 35.5905C13.5133 35.6957 13.4259 35.7834 13.3386 35.8009C13.2338 35.836 13.129 36.0464 13.0765 36.2918C13.0241 36.5373 12.9368 36.7652 12.8844 36.8178C12.8494 36.8704 12.8145 36.8003 12.8145 36.6775C12.8145 36.5548 12.5699 36.4671 12.2031 36.4671C11.7314 36.4671 11.6091 36.5373 11.679 36.7301C11.7314 36.8704 11.6964 36.9931 11.5916 36.9931C11.5043 36.9931 11.4169 36.7301 11.4169 36.4146C11.4169 35.9412 11.4868 35.8184 11.9759 35.6607C12.2904 35.5379 12.4127 35.4503 12.2555 35.4327C12.0808 35.4152 11.941 35.3451 11.941 35.2399C11.941 35.1347 11.8187 35.0646 11.679 35.0646C11.5392 35.0646 11.347 34.8542 11.2597 34.5736C11.1723 34.3107 10.7531 33.7321 10.3512 33.2762C9.93197 32.8029 9.47775 32.4347 9.37293 32.4347C9.25064 32.4347 9.18077 32.312 9.23318 32.1717C9.28558 32.0139 9.21571 31.9087 9.05848 31.9087C8.91872 31.9087 8.8139 31.8386 8.84884 31.7684C8.86631 31.6983 8.60426 31.3827 8.27233 31.0672C7.9404 30.7691 7.60848 30.5236 7.5386 30.5061C7.45125 30.5061 7.39884 30.6288 7.39884 30.7691C7.39884 30.9094 7.32896 31.0672 7.22414 31.1197C7.13679 31.1723 6.92715 30.9094 6.78739 30.5412C6.64763 30.1905 6.56028 29.8574 6.61269 29.8048C6.64763 29.7522 6.61269 29.5418 6.52534 29.3139C6.38558 28.9983 6.40305 28.9282 6.6651 28.9107C6.82233 28.8931 7.0145 28.8931 7.10185 28.9107C7.17173 28.9107 7.22414 28.7879 7.22414 28.6126C7.24161 28.4548 7.06691 28.1568 6.87474 27.9639C6.57775 27.6834 6.35065 27.6308 5.77414 27.7185C5.05787 27.8236 5.02293 27.8061 4.74342 27.1925C4.58619 26.8418 4.41149 26.1055 4.35908 25.5444C4.2892 24.9483 4.32414 24.51 4.42896 24.4574C4.53378 24.4048 4.60366 24.6678 4.60366 25.071C4.60366 25.7373 4.62113 25.7548 5.00546 25.562C5.2151 25.4568 5.42474 25.3866 5.47715 25.4042C5.52956 25.4217 5.59944 25.2113 5.61691 24.9483C5.65185 24.6853 5.75667 24.4223 5.82655 24.3697C5.9139 24.3172 5.86149 23.8438 5.72173 23.3178C5.58197 22.7918 5.52956 22.1957 5.58197 22.0029C5.63438 21.81 5.75667 21.4769 5.86149 21.249C5.96631 21.0386 6.12354 20.8633 6.21089 20.8633ZM40.5043 26.2983C40.5916 26.2983 40.5043 26.4386 40.2946 26.5964C40.1025 26.7717 39.8928 27.1399 39.8579 27.4379C39.7705 27.9464 39.7705 27.9464 39.7181 27.3152C39.6657 26.8243 39.7356 26.6314 39.9976 26.4912C40.1723 26.386 40.3994 26.2983 40.5043 26.2983ZM3.3633 26.8243C3.52052 26.8243 3.83498 27.0172 4.07956 27.2626C4.32414 27.5081 4.48137 27.736 4.42896 27.7886C4.37655 27.8412 4.20185 27.6834 4.04462 27.4379C3.86992 27.1925 3.60787 26.9996 3.45064 26.9996C3.31089 26.9996 3.0139 27.1399 2.41992 27.6133L2.75185 27.21C2.92655 26.9996 3.20607 26.8243 3.3633 26.8243ZM36.3988 28.0165L36.5735 29.121C36.7308 30.0853 36.7133 30.2607 36.4862 30.3659C36.3464 30.4535 36.2241 30.699 36.2241 30.9444C36.2241 31.3652 36.2766 31.3827 37.1326 31.3301C37.6217 31.3126 38.0585 31.3652 38.0934 31.4704C38.1284 31.5756 37.9362 31.6983 37.6741 31.7684C37.3946 31.821 37.1151 31.8386 37.0103 31.7684C36.9055 31.7159 36.5386 31.6633 36.1717 31.6633C35.8049 31.6457 35.3332 31.7334 34.7392 32.0665L35.6127 32.3821L34.8265 32.61L35.1759 33.136C35.3681 33.434 35.5253 33.7321 35.5253 33.8373C35.5253 33.9425 35.5952 34.0126 35.7 34.0126C35.8049 34.0126 35.8223 33.9074 35.7699 33.7847C35.7175 33.6795 35.8747 33.3814 36.1193 33.136C36.3639 32.8905 36.5735 32.6275 36.5735 32.5223C36.5735 32.4172 36.8181 32.2418 37.1326 32.1366C37.447 32.0139 37.7266 31.9613 37.7615 31.9964C37.779 32.049 37.6392 32.312 37.447 32.61C37.2549 32.9081 37.0976 33.2412 37.0976 33.3639C37.1151 33.4691 37.2898 33.7146 37.4994 33.8899C37.7091 34.0652 38.0061 34.2055 38.1458 34.2055C38.3031 34.2055 38.2856 34.2581 38.0585 34.3457C37.8663 34.4334 37.6043 34.4334 37.4645 34.3808C37.3073 34.3107 37.2374 34.3808 37.2723 34.5386C37.2898 34.6788 37.3073 35.0821 37.3073 35.4152C37.2898 35.9061 37.1151 36.2042 36.3639 36.9581C35.8573 37.449 35.3856 37.8697 35.3157 37.8697C35.2284 37.8697 35.1759 37.7996 35.1759 37.6944C35.1759 37.5892 35.2808 37.5191 35.4031 37.5191C35.5079 37.5366 35.9097 37.221 36.2766 36.8178C36.6609 36.397 36.9229 35.9412 36.9229 35.6782C36.9229 35.4327 36.8181 35.1347 36.7133 35.012C36.591 34.8717 36.2416 34.7139 35.9621 34.6438C35.5952 34.5561 35.5079 34.5736 35.7 34.6964C35.9272 34.8542 35.9097 34.8892 35.6127 35.012C35.438 35.0821 35.0187 35.4152 34.7043 35.7133C34.2675 36.1516 34.1278 36.4496 34.1278 36.9055C34.1278 37.3788 34.2151 37.5366 34.4771 37.6068C34.6693 37.6594 34.8265 37.7646 34.8265 37.8697C34.8265 37.9749 34.7567 38.0801 34.6519 38.1327C34.547 38.1853 34.4597 38.1327 34.4422 38.01C34.4073 37.9048 34.1278 37.7821 33.8308 37.747C33.3416 37.712 33.2717 37.747 33.3765 37.9925C33.429 38.1678 33.4814 38.5009 33.4639 38.7464C33.4464 38.9918 33.3067 39.3249 33.132 39.5178C32.9573 39.6931 32.5205 39.9912 32.1711 40.1665C31.8043 40.3418 31.5073 40.4646 31.5073 40.412C31.5073 40.3594 31.8567 40.1314 32.2934 39.886C32.7302 39.6405 33.1145 39.2899 33.1669 39.097C33.2193 38.9042 33.1844 38.5886 33.0796 38.3957C32.9631 38.162 32.7302 38.0451 32.3808 38.0451C32.0838 38.0451 31.4723 38.2905 30.9832 38.6061C30.3368 39.0444 30.1097 39.2899 30.1097 39.623C30.0922 39.8684 30.197 40.149 30.3193 40.2542C30.4416 40.3769 30.7037 40.4996 30.8958 40.5522C31.2103 40.6223 31.2103 40.6399 30.8609 40.6574C30.6163 40.6749 30.3193 40.4821 30.1097 40.2366C29.9 39.9736 29.8127 39.6756 29.8651 39.4827C29.935 39.3249 30.1446 39.0269 30.3543 38.834C30.5639 38.6412 30.9308 38.3607 31.1928 38.2204C31.4723 38.0801 31.7519 37.7821 31.8567 37.5542C31.944 37.3438 32.1537 37.1334 32.2934 37.0808C32.4332 37.0282 32.5555 36.8879 32.5555 36.7652C32.5729 36.66 32.7302 36.3795 32.9049 36.1516C33.097 35.9412 33.3416 35.7659 33.4464 35.7659C33.5512 35.7659 33.8657 35.5379 34.1452 35.2399C34.4247 34.9418 34.582 34.6788 34.4771 34.6262C34.3723 34.5736 34.3025 34.2581 34.3025 33.3113L33.9531 33.662C33.7609 33.8548 33.6037 34.0827 33.6037 34.1879C33.6037 34.2931 33.4814 34.3983 33.3416 34.4509C33.2019 34.5035 32.9049 34.5386 32.6952 34.5386C32.4681 34.521 32.1711 34.6438 32.0314 34.8016C31.8916 34.9594 31.6994 35.0646 31.5946 35.0646C31.4898 35.0646 31.2976 35.1873 31.1579 35.3451C31.0181 35.5029 30.5988 35.7834 30.2494 35.9587C29.7079 36.2392 29.6031 36.2392 29.6729 36.0288C29.7253 35.8886 29.9175 35.7659 30.1097 35.7659C30.3019 35.7659 30.4765 35.7133 30.5115 35.6256C30.529 35.5555 30.9832 35.1697 31.5073 34.7665C32.0314 34.3633 32.835 33.6444 33.3067 33.1535C33.7609 32.6626 34.1278 32.1892 34.1278 32.084C34.1278 31.9788 34.25 31.9438 34.3898 31.9964C34.5645 32.0548 34.6227 31.9964 34.5645 31.821C34.5121 31.6808 34.6344 31.4178 34.8265 31.2425C35.0012 31.0847 35.1585 30.8042 35.1759 30.6288C35.1759 30.471 35.2458 30.3308 35.3506 30.3308C35.4555 30.3308 35.7175 29.8048 35.9621 29.1736L36.3988 28.0165ZM37.4121 28.3496C37.6043 28.4022 37.7615 28.5951 37.779 28.7704C37.7964 28.9633 37.6741 29.1386 37.5344 29.1912C37.3946 29.2438 37.2374 29.2788 37.185 29.2788C37.1326 29.2788 37.0976 29.0509 37.0802 28.7704C37.0627 28.3496 37.1151 28.2795 37.4121 28.3496ZM39.0368 28.4022C39.1241 28.4022 39.2464 28.5074 39.2988 28.6301C39.3687 28.7353 39.3163 28.9282 39.2115 29.0159C39.0834 29.1327 38.9553 29.1327 38.8272 29.0159C38.7223 28.9282 38.6874 28.7353 38.7573 28.6301C38.8097 28.5074 38.932 28.4022 39.0368 28.4022ZM38.7573 30.6814C38.897 30.6814 39.229 30.7866 39.4735 30.9094C39.7006 31.0146 39.9103 31.1723 39.9103 31.26C39.8928 31.3301 39.8579 31.3827 39.8055 31.3827C39.7531 31.3827 39.5784 31.26 39.4211 31.1022C39.2464 30.962 38.9844 30.8918 38.8446 30.9444C38.7049 31.0146 38.4952 31.1022 38.3729 31.1373C38.2506 31.1723 38.1458 31.1373 38.1458 31.0321C38.1458 30.9444 38.2332 30.8918 38.3205 30.9444C38.4253 30.997 38.4952 30.962 38.4952 30.8568C38.4952 30.7691 38.6175 30.6814 38.7573 30.6814ZM10.2115 35.7659C10.4037 35.7659 10.5434 35.8535 10.5434 35.9412C10.5434 36.0464 10.4211 36.0814 10.2814 36.0288C10.1416 35.9762 10.0193 36.0288 10.0193 36.1165C10.0193 36.2217 10.1416 36.2918 10.2814 36.2918C10.4561 36.2918 10.5434 36.4672 10.5434 36.7827C10.5434 37.221 10.5259 37.2386 10.3338 36.9055C10.229 36.7126 10.0368 36.5022 9.9145 36.4321C9.77474 36.3444 9.72233 36.1691 9.77474 36.0288C9.82715 35.8886 10.0368 35.7659 10.2115 35.7659ZM13.8627 35.7659C13.9675 35.7659 14.0374 35.8535 14.0374 35.9412C14.0374 36.0464 14.1946 36.1165 14.3868 36.1165C14.579 36.1165 14.7362 36.2042 14.7362 36.2918C14.7362 36.397 14.8934 36.4671 15.0856 36.4671C15.2778 36.4671 15.435 36.5548 15.435 36.6425C15.435 36.7477 15.5922 36.8178 15.7844 36.8178C15.9765 36.8178 16.1687 36.9055 16.2211 36.9931C16.2735 37.0983 16.1338 37.221 15.9241 37.2736C15.5398 37.3788 15.5398 37.3788 15.8717 37.484C16.0639 37.5542 16.3784 37.6944 16.5705 37.7996C16.8151 37.9399 16.885 38.0977 16.7976 38.2905C16.6928 38.5009 16.5181 38.5535 16.0988 38.4659C15.7844 38.4133 15.4175 38.273 15.2952 38.1678C15.1205 38.01 15.0681 38.01 15.0856 38.1853C15.0856 38.2905 14.8934 38.3957 14.6488 38.3957C14.2994 38.3957 14.2121 38.3081 14.2121 37.9574C14.2121 37.5717 14.2994 37.5191 14.8235 37.5191C15.1555 37.5191 15.435 37.449 15.435 37.3438C15.435 37.2561 15.3651 37.1334 15.2603 37.0808C15.1729 37.0282 15.0506 37.0808 14.9982 37.1684C14.9458 37.2736 14.7187 37.2386 14.4392 37.0633C14.0374 36.8353 13.9326 36.8178 13.8278 37.0107C13.7579 37.186 13.6705 37.1334 13.6006 36.8178C13.5308 36.5723 13.5133 36.2392 13.5832 36.0814C13.6356 35.9061 13.7579 35.7659 13.8627 35.7659ZM29.3061 36.1516C29.341 36.2217 29.3585 36.4847 29.3061 36.7301C29.2537 37.1334 29.1838 37.1684 28.45 37.1334C28.0133 37.0983 27.6639 37.0457 27.6639 36.9931C27.6639 36.9405 28.0133 36.8003 28.45 36.6951C28.8868 36.5723 29.2362 36.362 29.2362 36.2568C29.2362 36.134 29.2711 36.0814 29.3061 36.1516ZM11.6615 37.3964C12.2729 37.4139 12.8494 37.5016 12.9368 37.5892C13.0067 37.6594 13.094 37.9048 13.1115 38.1152C13.129 38.4483 13.0416 38.4834 12.1157 38.4834C11.5567 38.4834 11.0326 38.4308 10.9627 38.3607C10.8753 38.3081 10.5609 38.3431 10.2464 38.4483C9.79221 38.6061 9.63498 38.6061 9.46028 38.4308C9.28558 38.2555 9.33799 38.2204 9.72233 38.2204C10.0717 38.2204 10.2464 38.0977 10.3512 37.7996C10.5085 37.3964 10.5958 37.3613 11.6615 37.3964ZM13.8452 37.3964C13.8976 37.484 13.9675 37.747 14.0025 37.9749C14.0199 38.2029 13.9675 38.4308 13.8627 38.4834C13.7753 38.536 13.6531 38.5009 13.6006 38.3957C13.5482 38.3081 13.5657 38.01 13.6181 37.747C13.6705 37.4665 13.7753 37.3262 13.8452 37.3964ZM21.9862 37.9574C23.4537 37.9574 24.5717 38.01 24.4669 38.0801C24.3446 38.1503 24.3272 38.2204 24.397 38.2204C24.4669 38.2204 24.6067 38.2555 24.694 38.3081C24.7988 38.3607 25.0259 38.3957 25.2181 38.3957C25.451 38.3957 25.5384 38.4834 25.4802 38.6587C25.4278 38.8165 25.55 38.9918 25.7422 39.097C25.9344 39.2022 26.0916 39.3775 26.1091 39.5003C26.1091 39.6055 25.5675 39.9035 24.9211 40.1314C24.0127 40.447 23.541 40.5172 22.9121 40.4295C22.3705 40.3594 22.0386 40.3944 21.9512 40.5172C21.8639 40.6574 21.5494 40.6925 21.0253 40.6048C20.5886 40.5347 20.0121 40.4646 19.7151 40.4295C19.4356 40.3944 18.9464 40.2191 18.632 40.0438C18.3175 39.8684 18.0555 39.6055 18.0555 39.5003C18.0555 39.3775 18.1428 39.2548 18.2476 39.2373C18.3525 39.2022 18.4573 38.9743 18.4747 38.7113C18.4747 38.4659 18.5272 38.2555 18.5796 38.2555C18.632 38.2555 18.8416 38.2555 19.0687 38.2379C19.2784 38.2379 19.4181 38.1678 19.3832 38.0977C19.3482 38.01 20.5187 37.9574 21.9862 37.9574ZM14.2994 39.097C14.3518 39.097 14.5091 39.2197 14.6488 39.36C14.7886 39.5003 14.9109 39.7457 14.9109 39.886C14.9109 40.0262 14.841 40.184 14.7362 40.2366C14.6488 40.2892 14.5615 40.1314 14.5615 39.886C14.5615 39.6405 14.4916 39.4477 14.3868 39.4477C14.2994 39.4477 14.2121 39.3775 14.2121 39.2723C14.2121 39.1847 14.247 39.097 14.2994 39.097Z" fill="#696969"/>
<path fill-rule="evenodd" clip-rule="evenodd" d="M30.7729 1.42065C30.8777 1.40312 31.1747 1.47325 31.4193 1.57845C31.6639 1.66611 32.2753 2.17455 32.7819 2.66546C33.2886 3.1739 33.8476 3.80507 34.0048 4.06806C34.2319 4.45377 34.4416 4.55897 34.9132 4.55897C35.2452 4.55897 35.5596 4.4713 35.612 4.38364C35.6645 4.29598 35.944 4.20832 36.2235 4.20832C36.503 4.20832 36.7476 4.12065 36.7476 4.03299C36.7476 3.94533 36.9922 3.85767 37.2717 3.85767C37.5512 3.85767 37.7958 3.77 37.7958 3.68234C37.7958 3.59468 38.0404 3.50702 38.3199 3.50702C38.5994 3.50702 38.844 3.41936 38.844 3.33169C38.844 3.24403 39.0886 3.15637 39.3681 3.15637C39.6476 3.15637 39.8922 3.06871 39.8922 2.98104C39.8922 2.89338 40.1367 2.80572 40.4163 2.80572C40.6958 2.80572 40.9404 2.71806 40.9404 2.63039C40.9404 2.54273 41.1849 2.45507 41.4645 2.45507C41.8663 2.45507 42.2157 2.68299 42.9494 3.41936C43.8404 4.31351 43.8928 4.40117 43.5958 4.64663C43.4386 4.78689 43.1416 4.94468 42.9494 5.01481C42.7572 5.08494 42.5651 5.19013 42.5126 5.24273C42.4602 5.31286 41.8837 5.62845 41.2024 5.96156C40.5211 6.29468 39.962 6.6278 39.9271 6.69793C39.9096 6.78559 39.7349 6.83819 39.5428 6.83819C39.3506 6.83819 39.1934 6.92585 39.1934 7.01351C39.1934 7.10117 39.0361 7.18884 38.844 7.18884C38.6518 7.18884 38.4946 7.2765 38.4946 7.36416C38.4946 7.45182 38.3723 7.53948 38.2325 7.53948C38.0928 7.53948 37.9355 7.64468 37.9006 7.74987C37.8482 7.8726 37.953 8.13559 38.1102 8.32845C38.2675 8.5213 38.6693 9.02974 39.0012 9.46806C39.3331 9.90637 39.8398 10.4499 40.1193 10.6953C40.556 11.0635 40.6783 11.0986 40.9578 10.9057C41.15 10.8005 41.4819 10.6953 41.7265 10.6953C41.9711 10.6953 42.1982 10.6077 42.2506 10.52C42.303 10.4323 42.4952 10.3447 42.6873 10.3447C42.8795 10.3447 43.3163 10.6252 43.6482 10.9583C43.9801 11.2914 44.2596 11.7297 44.2596 11.9226C44.2596 12.1564 44.1432 12.2733 43.9102 12.2733C43.7181 12.2733 43.5608 12.3609 43.5608 12.4486C43.5608 12.5362 43.4036 12.6239 43.2114 12.6239C43.0193 12.6239 42.862 12.7116 42.862 12.7992C42.862 12.8869 42.7398 12.9746 42.6 12.9746C42.4602 12.9746 42.3379 13.0622 42.3379 13.1499C42.3379 13.2375 42.1807 13.3252 41.9886 13.3252C41.7964 13.3252 41.6392 13.3778 41.6392 13.4479C41.6392 13.5356 41.4819 13.6758 41.2723 13.7635C41.0801 13.8512 40.5735 14.57 40.1892 15.3414C39.7873 16.1129 39.403 16.7616 39.3157 16.7791C39.2458 16.8142 39.1934 16.9544 39.1934 17.0947C39.1934 17.2349 39.141 17.3577 39.0536 17.3577C38.9837 17.3401 38.6343 17.007 38.2675 16.6038C37.9181 16.2005 37.6211 15.6921 37.6211 15.4642C37.6211 15.2538 37.691 14.9031 37.7783 14.6752C37.8482 14.4648 37.9705 14.0791 38.0404 13.7986C38.1277 13.3778 38.0054 13.1849 36.9572 12.133C36.3108 11.4668 35.5771 10.8882 35.2976 10.8181C34.8783 10.7129 34.791 10.7655 34.4765 11.3966C34.2843 11.7823 34.1271 12.2207 34.1271 12.3609C34.1271 12.5012 34.0572 12.6239 33.9524 12.6239C33.8476 12.6239 33.7777 12.7817 33.7777 12.9746C33.7777 13.1674 33.8476 13.3252 33.9524 13.3252C34.0572 13.3252 34.1271 13.483 34.1271 13.6758C34.1271 13.8687 34.197 14.044 34.2669 14.0616C34.3542 14.0966 34.7036 14.6752 35.0355 15.3414C35.3849 16.0077 35.8217 16.9369 36.0313 17.4103C36.2235 17.8661 36.3982 18.4271 36.3982 18.6726C36.3982 18.9181 36.4681 19.1109 36.5729 19.1109C36.6602 19.1109 36.7825 19.6895 36.8349 20.3733C36.9048 21.0745 36.9398 21.881 36.9398 22.1791C36.9398 22.4771 36.8873 23.3538 36.8349 24.1427C36.7825 24.9492 36.6602 25.5979 36.5729 25.5979C36.4681 25.5979 36.3982 25.8258 36.3982 26.1239C36.3982 26.422 36.3108 26.6849 36.2235 26.7375C36.1187 26.7901 36.0488 27.0531 36.0488 27.3512C36.0488 27.6492 35.9614 27.8771 35.8741 27.8771C35.7693 27.8771 35.6994 28.0349 35.6994 28.2278C35.6994 28.4207 35.612 28.5784 35.5247 28.5784C35.4199 28.5784 35.35 28.7362 35.35 28.9291C35.35 29.122 35.2626 29.2797 35.1753 29.2797C35.0705 29.2797 34.9657 29.4375 34.9132 29.6304C34.8608 29.8233 34.8259 30.0161 34.8259 30.0687C34.8259 30.1213 34.6687 30.3317 34.4765 30.5421C34.2843 30.77 34.1271 30.9979 34.1271 31.0681C34.1271 31.1557 33.9175 31.4538 33.638 31.7518C33.3759 32.0499 32.8518 32.6109 32.45 33.0142C32.0657 33.4174 31.4892 33.9434 31.1572 34.1888C30.8428 34.4343 30.4759 34.7323 30.3536 34.8551C30.2313 34.9603 30.0566 35.0655 29.9518 35.0655C29.847 35.0655 29.7596 35.1356 29.7596 35.2408C29.7596 35.346 29.6199 35.4161 29.4452 35.4161C29.288 35.4336 29.0259 35.5739 28.8861 35.7317C28.7464 35.8895 28.2223 36.17 27.7506 36.3629C27.2614 36.5382 26.4054 36.8187 25.8289 36.959C25.0777 37.1694 23.9771 37.2395 21.9855 37.2395C20.4133 37.2395 18.806 37.1343 18.3169 37.0291C17.8277 36.9064 17.1639 36.7135 16.8319 36.6083C16.5 36.4856 16.1331 36.3278 16.0458 36.2577C15.941 36.17 15.7313 36.1174 15.5566 36.1174C15.3994 36.1174 15.2596 36.0473 15.2596 35.9421C15.2596 35.8369 15.1199 35.7668 14.9452 35.7668C14.788 35.7668 14.5259 35.609 14.3861 35.4161C14.2464 35.2233 14.0018 35.0655 13.862 35.0655C13.7223 35.0655 13.4777 34.9077 13.338 34.7148C13.1982 34.522 12.9711 34.3642 12.8488 34.3642C12.744 34.3642 12.1151 33.8382 11.4861 33.172C10.8572 32.5233 10.2108 31.7869 10.0536 31.5064C9.89638 31.2434 9.72169 31.033 9.66928 31.033C9.61687 31.0505 9.45964 30.8051 9.31988 30.507C9.18012 30.209 9.00542 29.9635 8.91807 29.981C8.84819 29.981 8.79578 29.8233 8.79578 29.6304C8.79578 29.4375 8.70843 29.2797 8.62108 29.2797C8.51626 29.2797 8.44639 29.122 8.44639 28.9291C8.44639 28.7362 8.35904 28.5784 8.27169 28.5784C8.16687 28.5784 8.09699 28.4207 8.09699 28.2278C8.09699 28.0349 8.00964 27.8771 7.92229 27.8771C7.81747 27.8771 7.74759 27.6843 7.74759 27.4388C7.74759 27.1934 7.66024 26.9655 7.57289 26.9129C7.46807 26.8603 7.39819 26.5973 7.39819 26.2992C7.39819 26.0012 7.31084 25.7382 7.22349 25.6856C7.11867 25.633 7.04879 25.1947 7.04879 24.7213C7.04879 24.2304 6.96145 23.8447 6.8741 23.8447C6.76928 23.8447 6.6994 23.2836 6.6994 22.5297C6.6994 21.7758 6.76928 21.2148 6.8741 21.2148C6.97892 21.2148 7.04879 20.7414 7.04879 20.1629C7.04879 19.5843 7.11867 19.1109 7.22349 19.1109C7.31084 19.1109 7.39819 18.883 7.39819 18.5849C7.39819 18.2869 7.46807 17.9012 7.57289 17.7083C7.66024 17.5155 7.81747 17.1999 7.92229 17.007C8.00964 16.8142 8.09699 16.5336 8.09699 16.3934C8.09699 16.2531 8.16687 16.1304 8.27169 16.1304C8.35904 16.1304 8.44639 15.9726 8.44639 15.7797C8.44639 15.5869 8.51626 15.4291 8.62108 15.4291C8.70843 15.4291 8.79578 15.3239 8.79578 15.2012C8.79578 15.096 8.95301 14.8155 9.14518 14.5875C9.33735 14.3771 9.49458 14.1492 9.49458 14.0616C9.49458 13.9914 9.82651 13.5531 10.2283 13.0797C10.6476 12.6064 11.2416 11.9752 11.556 11.6771C11.8705 11.3791 12.3946 10.8707 12.7265 10.5551C13.0584 10.257 13.4078 9.99403 13.5127 9.99403C13.6 9.99403 13.862 9.83624 14.0717 9.64338C14.2988 9.45052 14.5783 9.29273 14.6831 9.29273C14.8054 9.29273 14.9102 9.20507 14.9102 9.11741C14.9102 9.02974 15.0675 8.94208 15.2596 8.94208C15.4518 8.94208 15.609 8.85442 15.609 8.76676C15.609 8.6791 15.7663 8.59143 15.9584 8.59143C16.1506 8.59143 16.3078 8.50377 16.3078 8.41611C16.3078 8.32845 16.5 8.24078 16.7446 8.24078C16.9892 8.24078 17.1813 8.15312 17.1813 8.06546C17.1813 7.9778 17.4434 7.85507 17.7404 7.80247C18.0548 7.76741 18.8584 7.62715 19.5398 7.50442C20.2036 7.39923 21.3916 7.29403 22.1602 7.31156C22.9289 7.31156 23.9771 7.38169 24.5012 7.46936C25.0078 7.55702 25.462 7.67974 25.497 7.74987C25.5319 7.83754 25.794 7.89013 26.091 7.89013C26.3705 7.89013 26.6151 7.9778 26.6151 8.06546C26.6151 8.15312 26.8072 8.24078 27.0518 8.24078C27.2964 8.24078 27.5235 8.32845 27.5759 8.41611C27.6283 8.50377 27.8205 8.59143 28.0126 8.59143C28.2048 8.59143 28.362 8.64403 28.362 8.71416C28.362 8.80182 28.6416 8.97715 28.9735 9.11741C29.3054 9.25767 29.5849 9.43299 29.5849 9.50312C29.5849 9.59078 29.7072 9.64338 29.847 9.64338C29.9867 9.64338 30.109 9.73104 30.109 9.81871C30.109 9.90637 30.3187 9.99403 30.5807 9.99403C30.9301 9.99403 31.1398 9.8713 31.2795 9.55572C31.4018 9.31026 31.5066 8.92455 31.5066 8.6791C31.5066 8.43364 31.5765 8.24078 31.6813 8.24078C31.7687 8.24078 31.856 8.04793 31.856 7.80247C31.856 7.50442 31.5416 7.04858 30.8253 6.34728C30.2663 5.80377 29.6024 5.1726 29.3404 4.94468C29.0958 4.73429 28.6066 4.41871 28.2747 4.24338C27.9253 4.08559 27.6632 3.84013 27.6632 3.71741C27.6632 3.59468 27.8904 3.50702 28.1873 3.50702C28.6241 3.50702 28.7114 3.43689 28.7114 3.06871C28.7114 2.82325 28.9211 2.42 29.1831 2.15702C29.4627 1.89403 29.8645 1.63104 30.109 1.56091C30.3536 1.49078 30.6506 1.42065 30.7554 1.42065H30.7729ZM19.4699 2.45507C19.7494 2.45507 20.1163 2.5778 20.256 2.71806C20.3958 2.85832 20.5006 2.99858 20.4657 3.01611C20.4482 3.05117 20.256 3.1739 20.0289 3.2791C19.8193 3.40182 19.2428 3.50702 18.7711 3.50702C18.0199 3.50702 17.8976 3.45442 17.8976 3.15637C17.8976 2.87585 18.0199 2.80572 18.4217 2.80572C18.7012 2.80572 18.9458 2.71806 18.9458 2.63039C18.9458 2.54273 19.1729 2.45507 19.4699 2.45507ZM15.5392 3.71741C15.7139 3.89273 15.7139 3.99793 15.5566 4.17325C15.4518 4.29598 15.2247 4.40117 15.05 4.38364C14.8928 4.38364 14.7181 4.4713 14.6657 4.55897C14.6133 4.64663 14.3337 4.73429 14.0367 4.73429C13.5651 4.73429 13.5301 4.69923 13.7747 4.4713C13.9145 4.33104 14.159 4.20832 14.2988 4.20832C14.456 4.20832 14.5783 4.12065 14.5783 4.03299C14.5783 3.94533 14.7355 3.85767 14.9277 3.85767C15.1199 3.85767 15.2771 3.77 15.2946 3.68234C15.2946 3.57715 15.3994 3.59468 15.5392 3.71741ZM7.36325 9.31026C7.48554 9.29273 7.59036 9.34533 7.59036 9.41546C7.59036 9.50312 7.36325 9.83624 7.11867 10.1694C6.85663 10.5025 6.54217 10.8882 6.43735 10.9934C6.31506 11.1161 6.1753 11.2213 6.12289 11.2213C6.07048 11.2213 6.01807 11.0635 6.01807 10.8707C6.01807 10.6778 6.28012 10.257 6.57711 9.9239C6.89157 9.59078 7.25843 9.31026 7.36325 9.31026ZM4.74277 13.3252C4.86506 13.3252 4.96988 13.483 4.96988 13.6758C4.96988 13.8687 4.88253 14.0265 4.79518 14.0265C4.69036 14.0265 4.62048 14.1317 4.62048 14.2544C4.62048 14.3596 4.53313 14.6752 4.41084 14.9382C4.28855 15.2012 4.07892 15.4642 3.95663 15.5168C3.81687 15.5694 3.74699 15.4116 3.74699 14.9908C3.74699 14.6577 3.81687 14.3771 3.92169 14.3771C4.00904 14.3771 4.09639 14.2544 4.09639 14.1142C4.09639 13.9739 4.2012 13.7284 4.30602 13.5882C4.42831 13.4479 4.63795 13.3427 4.74277 13.3252ZM40.7831 17.1823C40.8705 17.1823 41.0102 17.3226 41.0626 17.4979C41.1151 17.6557 41.2373 17.9362 41.3247 18.1116C41.412 18.2694 41.4819 18.6375 41.4819 18.9356C41.4819 19.2862 41.3946 19.4616 41.2199 19.4616C41.0801 19.4616 40.9578 19.3038 40.9578 19.1109C40.9578 18.9181 40.8705 18.7252 40.7831 18.6726C40.6783 18.62 40.6084 18.2694 40.6084 17.8836C40.6084 17.4979 40.6783 17.1823 40.7831 17.1823ZM3.31024 18.0414C3.46165 18.2284 3.48494 18.4271 3.38012 18.6375C3.29277 18.7953 3.22289 19.2161 3.22289 19.5492C3.22289 19.9349 3.13554 20.1979 2.96084 20.2505C2.82108 20.3031 2.61145 20.3382 2.5241 20.3382C2.41928 20.3382 2.3494 19.8999 2.3494 19.3739C2.3494 18.8479 2.41928 18.4096 2.5241 18.4096C2.61145 18.4096 2.68133 18.3044 2.66386 18.1642C2.64639 18.0239 2.73373 17.8836 2.85602 17.831C2.97831 17.796 3.18795 17.8836 3.31024 18.0414ZM41.5169 21.9161C41.7964 21.9161 41.8313 22.0739 41.8313 23.0031C41.8313 23.6168 41.7614 24.2304 41.6741 24.3707C41.5693 24.5284 41.412 24.581 41.2373 24.4934C41.0277 24.4057 40.9578 24.0901 40.9229 23.2661C40.9054 22.6525 40.9578 22.0914 41.0452 22.0388C41.1325 21.9687 41.3422 21.9161 41.5169 21.9161ZM2.61145 22.6349C2.6988 22.6349 2.87349 22.7577 2.99578 22.933C3.11807 23.0908 3.22289 23.5817 3.22289 24.02C3.24036 24.5284 3.13554 24.8791 2.96084 25.0194C2.82108 25.1421 2.61145 25.2122 2.5241 25.1596C2.41928 25.107 2.3494 24.844 2.3494 24.546C2.3494 24.2479 2.26205 23.9849 2.1747 23.9323C2.06988 23.8797 2 23.6869 2 23.494C2 23.3012 2.10482 23.0207 2.20964 22.8804C2.33193 22.7401 2.50663 22.6349 2.61145 22.6349ZM40.8705 27.0005C41.0102 27.0005 41.1325 27.1408 41.1325 27.3161C41.1325 27.4739 41.0626 27.6843 40.9753 27.7895C40.888 27.8947 40.7831 28.1577 40.7482 28.3856C40.7307 28.631 40.591 28.8414 40.4687 28.8765C40.3289 28.9116 40.259 28.7187 40.259 28.3155C40.259 27.9823 40.3289 27.7018 40.4337 27.7018C40.5211 27.7018 40.6084 27.544 40.6084 27.3512C40.6084 27.1583 40.7307 27.0005 40.8705 27.0005ZM3.22289 27.7018C3.31024 27.7018 3.51988 27.7369 3.65964 27.7895C3.7994 27.8421 3.92169 28.07 3.92169 28.3155C3.92169 28.5609 3.99157 28.7888 4.09639 28.8414C4.18373 28.894 4.27108 29.157 4.27108 29.4551C4.27108 29.7531 4.18373 29.981 4.09639 29.981C3.99157 29.981 3.7994 29.8583 3.65964 29.7181C3.51988 29.5778 3.39759 29.2622 3.39759 29.0168C3.39759 28.7713 3.31024 28.5784 3.22289 28.5784C3.11807 28.5784 3.04819 28.3856 3.04819 28.1401C3.04819 27.8947 3.11807 27.7018 3.22289 27.7018ZM39.0536 31.3836C39.141 31.3836 39.2108 31.5765 39.2108 31.822C39.2108 32.0674 39.1235 32.2603 39.0361 32.2603C38.9313 32.2603 38.8614 32.4005 38.8614 32.5758C38.8614 32.8213 38.8265 32.8388 38.6867 32.6109C38.5295 32.383 38.512 32.383 38.512 32.6109C38.512 32.7512 38.4771 32.8388 38.4247 32.7862C38.3723 32.7336 38.4596 32.4005 38.6169 32.0323C38.7741 31.6817 38.9837 31.3836 39.0536 31.3836ZM5.26687 32.0849C5.35422 32.0849 5.54639 32.2427 5.70361 32.4356C5.87831 32.6284 6.01807 32.909 6.01807 33.0492C6.01807 33.1895 6.08795 33.3122 6.19277 33.3122C6.28012 33.3122 6.40241 33.47 6.45482 33.6629C6.50723 33.8733 6.45482 34.0135 6.31506 34.0135C6.21024 34.0135 5.89578 33.6804 5.61627 33.2771C5.35422 32.8564 5.14458 32.4181 5.14458 32.3129C5.14458 32.1901 5.19699 32.0849 5.26687 32.0849ZM8.28916 36.1174C8.37651 36.1174 8.74337 36.3979 9.0753 36.731C9.40723 37.0642 9.68675 37.4499 9.68675 37.5726C9.68675 37.6778 9.44217 37.52 9.16265 37.222C8.86566 36.9064 8.60361 36.696 8.5512 36.7836C8.4988 36.8538 8.46386 36.7661 8.46386 36.6083C8.46386 36.433 8.37651 36.3278 8.28916 36.3804C8.18434 36.433 8.11446 36.3979 8.11446 36.2927C8.11446 36.1875 8.18434 36.1174 8.28916 36.1174ZM35.6295 36.1174C35.7343 36.1174 35.7343 36.17 35.612 36.2577C35.5072 36.3278 35.3675 36.5207 35.3151 36.696C35.2452 36.8538 35.0181 36.994 34.791 36.994C34.4241 37.0116 34.4416 36.9765 34.9307 36.5557C35.2102 36.3103 35.5247 36.1174 35.6295 36.1174ZM32.6946 38.7648C32.7295 38.7648 32.747 38.8174 32.747 38.9226C32.747 39.0278 32.5898 39.0979 32.3976 39.0979C32.2054 39.0979 32.0482 39.1505 32.0482 39.2382C32.0482 39.3083 31.8386 39.4836 31.5765 39.6239C31.297 39.7642 31.0524 39.9395 31 39.9921C30.9476 40.0622 30.8078 40.0096 30.6855 39.8694C30.5807 39.7291 30.5458 39.6239 30.6506 39.6239C30.7379 39.6239 31.0349 39.4661 31.297 39.2908C31.5765 39.1155 31.9783 38.9226 32.2229 38.87C32.4675 38.8349 32.6771 38.7823 32.6946 38.7648ZM12.3422 38.9401C12.4295 38.9226 12.4819 38.9752 12.4819 39.0629C12.4819 39.133 12.7614 39.3083 13.1108 39.4486C13.4602 39.5888 13.8096 39.7817 13.897 39.8869C14.0018 39.9921 13.9494 40.1674 13.7922 40.3252C13.6 40.5181 13.5126 40.5181 13.5301 40.3778C13.5301 40.2551 13.3729 40.1499 13.1807 40.1499C12.9886 40.1499 12.8313 40.0973 12.8313 40.0271C12.8488 39.9395 12.6042 39.7642 12.3072 39.6239C12.0102 39.4836 11.7482 39.3083 11.7482 39.2382C11.7307 39.1856 11.8355 39.0804 11.9578 39.0453C12.0976 38.9927 12.2723 38.9401 12.3422 38.9401ZM27.803 40.5181C27.8379 40.5005 27.9952 40.5531 28.1524 40.6057C28.3271 40.6583 28.4494 40.781 28.4145 40.8687C28.397 40.9564 28.2747 41.1317 28.1524 41.2544C28.0476 41.3947 27.5235 41.5525 27.0169 41.6051C26.2307 41.7103 26.1084 41.6927 26.1434 41.4473C26.1783 41.2895 26.3181 41.0966 26.4578 41.0265C26.5976 40.9564 26.947 40.8161 27.244 40.7109C27.5235 40.6233 27.7855 40.5356 27.803 40.5181ZM17.094 40.9388C17.3036 41.009 17.6705 41.0966 17.9325 41.1317C18.247 41.1843 18.4217 41.307 18.4217 41.5174C18.4217 41.7804 18.3169 41.7979 17.6006 41.6927C17.1289 41.6226 16.7096 41.4648 16.6398 41.3421C16.5699 41.2194 16.5699 41.044 16.6223 40.9739C16.6922 40.8862 16.9018 40.8687 17.094 40.9388ZM22.2476 41.2018C22.6494 41.2018 23.0861 41.3246 23.2259 41.4648C23.3657 41.6051 23.488 41.7979 23.488 41.9031C23.488 42.0083 23.3657 42.1135 23.2259 42.1661C23.0861 42.2187 22.6843 42.2538 22.3524 42.2538C22.0205 42.2538 21.6187 42.2187 21.4789 42.1661C21.3392 42.1135 21.2169 41.9557 21.2169 41.8155C21.2169 41.6752 21.3392 41.5525 21.4789 41.5525C21.6187 41.5525 21.6886 41.4823 21.6361 41.3771C21.5663 41.272 21.8108 41.2018 22.2476 41.2018Z" fill="white"/>
<path d="M14.7712 4.52361C14.9983 4.41842 15.2953 4.26062 15.4351 4.19049C15.5748 4.12036 15.7146 4.05023 15.732 4.05023C15.767 4.0327 15.7845 4.0853 15.7845 4.17296C15.8019 4.24309 15.3826 4.47101 14.876 4.69894C14.3694 4.90933 13.8453 5.08465 13.723 5.08465C13.6182 5.08465 13.4959 4.97946 13.461 4.85673C13.4435 4.71647 13.4784 4.50608 13.5483 4.36582C13.6182 4.22556 13.7405 4.19049 13.8104 4.26062C13.8802 4.33075 13.8628 4.47101 13.7405 4.57621C13.6007 4.6814 13.6706 4.734 13.9676 4.734C14.1947 4.734 14.5616 4.64634 14.7712 4.52361Z" fill="white"/>
<path d="M31.1579 6.75023C31.1055 6.7853 30.5989 6.38205 30.0399 5.85608C29.4634 5.3301 29.0616 4.90933 29.1664 4.90933C29.2537 4.90933 29.7604 5.29504 30.2845 5.78595C30.8085 6.27686 31.2104 6.69764 31.1579 6.75023Z" fill="white"/>
<path d="M9.12843 7.41647C9.09349 7.31127 9.46035 6.94309 9.93204 6.59244C10.4212 6.25933 10.9104 5.96127 11.0152 5.96127C11.1375 5.96127 11.2772 6.04894 11.3296 6.1366C11.382 6.22426 11.1375 6.59244 10.8055 6.92556C10.4736 7.25868 10.1242 7.5392 10.0194 7.5392C9.93204 7.5392 9.87963 7.3814 9.93204 7.18855C9.98445 6.99569 9.96698 6.8379 9.91457 6.8379C9.84469 6.8379 9.66999 7.01322 9.49529 7.22361C9.33806 7.434 9.16337 7.52166 9.12843 7.41647Z" fill="white"/>
<path d="M6.71758 10.66C6.90975 10.4321 7.20674 10.0288 7.36397 9.76582C7.50373 9.50283 7.66096 9.36257 7.6959 9.46777C7.73084 9.55543 7.57361 9.90608 7.3465 10.2041C7.13686 10.5197 6.85734 10.8704 6.73505 10.9931C6.63023 11.1158 6.49047 11.1859 6.43806 11.1334C6.38566 11.0808 6.50794 10.8704 6.71758 10.66Z" fill="white"/>
<path d="M40.0676 10.6249C39.823 10.4145 39.4387 10.0113 39.1941 9.76582C38.9495 9.50283 38.8098 9.29244 38.8796 9.29244C38.967 9.29244 39.3688 9.64309 39.8055 10.0814C40.2772 10.5548 40.6965 10.8353 40.8537 10.7827C40.9935 10.7301 41.0808 10.7827 41.0284 10.8704C40.976 10.958 40.8363 11.0457 40.714 11.0457C40.6091 11.0457 40.3122 10.8528 40.0676 10.6249Z" fill="white"/>
<path d="M34.1628 12.1678C34.1453 12.1327 34.2851 11.7821 34.4772 11.3963C34.6694 11.0106 34.8965 10.695 34.9664 10.695C35.0363 10.695 34.914 11.0457 34.6519 11.4665C34.4073 11.8872 34.1977 12.2028 34.1628 12.1678Z" fill="white"/>
<path d="M36.8706 12.1853C36.8531 12.2204 36.5212 11.9574 36.1369 11.5717C35.7525 11.1859 35.4905 10.8704 35.5604 10.8704C35.6477 10.8704 35.9796 11.1509 36.3116 11.484C36.6435 11.8171 36.9055 12.1327 36.8706 12.1853Z" fill="white"/>
<path d="M34.2851 14.0613C34.1977 14.0437 34.1278 13.9385 34.1278 13.8509C34.1278 13.7632 34.1802 13.6756 34.2501 13.6756C34.3375 13.6756 34.617 14.1314 34.914 14.6749C35.1935 15.2359 35.4905 15.8321 35.5604 15.9898C35.6302 16.1652 35.6652 16.3054 35.6128 16.3054C35.5604 16.3054 35.2808 15.8145 34.9838 15.2009C34.6869 14.6048 34.3724 14.0963 34.2851 14.0613Z" fill="white"/>
<path d="M38.0935 16.6561C37.6393 16.1652 37.4471 15.8145 37.4646 15.4814V15.4639C37.4995 15.008 37.4995 15.008 37.5694 15.4288C37.6043 15.6743 37.9013 16.1652 38.2332 16.5158C38.5652 16.884 38.8272 17.2171 38.7923 17.2697C38.7748 17.3223 38.4604 17.0418 38.0935 16.6561Z" fill="white"/>
<path d="M40.8887 19.5665C40.6965 19.5139 40.5917 19.321 40.6091 19.023C40.6266 18.7775 40.6965 18.6372 40.8013 18.6898C40.9061 18.7424 40.976 18.9528 40.9585 19.1457C40.9411 19.321 41.0284 19.4788 41.1507 19.4788C41.2555 19.4788 41.3079 19.5139 41.273 19.5665C41.2381 19.6191 41.0634 19.6191 40.8887 19.5665Z" fill="white"/>
<path d="M36.7658 23.8619C36.7658 23.6165 36.8007 23.2308 36.8706 22.9853C36.9579 22.7048 37.0278 22.6522 37.0628 22.81C37.0977 22.9502 37.0453 23.3535 36.9405 23.6866C36.8007 24.195 36.7832 24.2301 36.7658 23.8619Z" fill="white"/>
<path d="M39.8579 28.8061C39.8405 28.5256 39.9104 28.245 39.9802 28.1574C40.0676 28.0872 40.1724 28.2275 40.1899 28.4905C40.2248 28.8061 40.3296 28.9113 40.5043 28.8587C40.6616 28.8061 40.7314 28.8587 40.679 28.9814C40.6266 29.1041 40.4345 29.2269 40.2423 29.2444C39.9628 29.2795 39.8929 29.1918 39.8579 28.8061Z" fill="white"/>
<path d="M35.211 29.297C35.2983 29.297 35.3507 29.1392 35.3507 28.9463C35.3507 28.7535 35.4031 28.5957 35.4905 28.5957C35.5604 28.5957 35.5604 28.771 35.4905 28.9814C35.4031 29.2093 35.2808 29.5249 35.211 29.7002C35.1411 29.8756 35.0188 30.0334 34.914 30.0684C34.7975 30.1035 34.7975 29.9808 34.914 29.7002C35.0188 29.4898 35.1411 29.297 35.211 29.297Z" fill="white"/>
<path d="M38.111 32.4879C38.2857 32.2249 38.5128 31.8567 38.5826 31.6814C38.67 31.5061 38.7573 31.4009 38.7923 31.471C38.8272 31.5236 38.7748 31.734 38.67 31.9269C38.5535 32.1606 38.5535 32.3944 38.67 32.6282C38.7748 32.821 38.8447 33.0139 38.8447 33.0665C38.8447 33.1191 38.7224 33.1541 38.5826 33.1541C38.4254 33.1541 38.3555 33.2593 38.4079 33.4171C38.4662 33.5924 38.3788 33.6801 38.1459 33.6801C37.913 33.6801 37.7965 33.5632 37.7965 33.3295C37.7965 33.1366 37.9363 32.7684 38.111 32.4879Z" fill="white"/>
<path d="M5.47722 33.3645C5.18023 32.9087 4.95312 32.4178 4.95312 32.2775C4.95312 32.1373 5.11035 32.3301 5.28505 32.7158C5.45975 33.1015 5.77421 33.5924 5.98385 33.8028C6.17602 34.0308 6.26337 34.2061 6.17602 34.2061C6.0712 34.2061 5.75674 33.8379 5.47722 33.3645Z" fill="white"/>
<path d="M6.17602 33.3295C6.0712 33.3295 6.00132 33.2067 6.00132 33.0665C6.00132 32.9262 6.08867 32.8035 6.21096 32.8035C6.31578 32.8035 6.473 33.0314 6.56035 33.3295C6.63023 33.6275 6.66517 33.908 6.61276 33.9782C6.56035 34.0658 6.473 33.9431 6.43806 33.7152C6.38566 33.5048 6.26337 33.3295 6.17602 33.3295Z" fill="white"/>
<path d="M34.5122 36.7483C34.4423 36.7132 34.7043 36.3976 35.0887 36.047C35.4555 35.7139 35.9098 35.4334 36.0844 35.4334C36.2591 35.4334 36.3989 35.5561 36.3989 35.7314C36.3989 35.9067 36.1019 36.345 35.7525 36.7132C35.1935 37.2918 35.0363 37.3619 34.7393 37.2041C34.4073 37.0288 34.4073 37.0288 34.7742 37.0113C35.0013 37.0113 35.2284 36.871 35.2983 36.6957C35.3507 36.5379 35.4905 36.345 35.5953 36.2749C35.7176 36.1872 35.7176 36.1347 35.6128 36.1347C35.5079 36.1347 35.2634 36.2924 35.0363 36.4853C34.8266 36.6782 34.5995 36.8009 34.5122 36.7483Z" fill="white"/>
<path d="M8.67421 37.1866C8.32481 36.871 8.15011 36.573 8.21999 36.4327C8.30734 36.2924 8.35975 36.31 8.39469 36.5204C8.42963 36.6957 8.49951 36.8009 8.58686 36.7658C8.65674 36.7308 8.88385 36.9411 9.11096 37.2041C9.32059 37.4847 9.44288 37.7126 9.373 37.7126C9.28566 37.7126 8.9712 37.4671 8.67421 37.1866Z" fill="white"/>
<path d="M9.32059 37.0113C9.12843 36.871 8.9712 36.6957 8.9712 36.608C8.9712 36.5379 9.00614 36.4853 9.05855 36.4853C9.11096 36.4853 9.33806 36.6606 9.58264 36.871C9.82722 37.0989 10.0194 37.3795 10.0194 37.4847C10.0194 37.6074 9.94951 37.7126 9.84469 37.7126C9.75734 37.7126 9.66999 37.6074 9.66999 37.4847C9.66999 37.3795 9.51276 37.1515 9.32059 37.0113Z" fill="white"/>
<path d="M22.9471 37.4847C22.3182 37.5197 21.3399 37.5197 20.7634 37.4847C20.1869 37.4496 20.6935 37.4321 21.8989 37.4321C23.1043 37.4321 23.576 37.4496 22.9471 37.4847Z" fill="white"/>
<path d="M30.9134 39.2204C31.1929 39.0275 31.5947 38.7821 31.8218 38.6593C32.0489 38.5366 32.3459 38.4665 32.4857 38.5191C32.6254 38.5541 32.6953 38.6593 32.6429 38.7645C32.5905 38.8697 32.3983 38.9398 32.2061 38.9398C32.014 38.9398 31.6296 39.0976 31.3326 39.2905C31.0531 39.4834 30.7212 39.6236 30.5989 39.5886C30.4941 39.571 30.6339 39.3957 30.9134 39.2204Z" fill="white"/>
<path d="M13.2513 39.5886C12.832 39.3782 12.4652 39.1502 12.4652 39.0626C12.4652 38.9924 12.5176 38.9398 12.6049 38.9398C12.6748 38.9574 13.0242 39.1327 13.3911 39.3431C13.7405 39.5535 14.0375 39.7814 14.0375 39.8515C14.0375 39.9392 13.6881 39.8165 13.2513 39.5886Z" fill="white"/>
<path d="M16.2387 41.3418C16.1863 41.2366 16.2387 41.0262 16.361 40.9035C16.5007 40.7457 16.7977 40.7106 17.3567 40.7983C17.7935 40.8684 18.2826 40.9736 18.4573 41.0613C18.6146 41.1489 18.7543 41.3769 18.7543 41.5697C18.7543 41.8678 18.6495 41.9204 17.9332 41.8853C17.1995 41.8678 17.1646 41.8502 17.7585 41.7976C18.1953 41.7626 18.4049 41.6574 18.4049 41.4821C18.4049 41.3243 18.1778 41.184 17.8459 41.1314L17.8457 41.1314C17.5312 41.0788 17.1121 41.0087 16.92 40.9911C16.6754 40.9736 16.5881 41.0437 16.623 41.2541C16.6405 41.4295 16.5881 41.5697 16.4832 41.5697C16.3784 41.5697 16.2736 41.4645 16.2387 41.3418Z" fill="white"/>
<path d="M29.0254 5.78574C28.8682 5.64548 28.7284 5.47016 28.7109 5.40003C28.7109 5.31236 28.7459 5.25977 28.7983 5.25977C28.8507 5.25977 29.3923 5.78574 30.0212 6.45197C30.72 7.15327 31.1567 7.76691 31.1393 8.32795L30.9646 7.9773C30.8423 7.69678 30.8248 7.73184 30.8947 8.15262C30.9471 8.45067 30.9471 8.81886 30.8947 8.99418C30.8423 9.15197 30.6501 9.29223 30.4579 9.29223C30.2658 9.29223 30.1085 9.20457 30.1085 9.11691C30.1085 9.02925 30.0037 8.94158 29.8814 8.94158C29.7766 8.95912 29.5495 8.81886 29.4097 8.66106C29.1652 8.38054 29.1826 8.38054 29.532 8.55587C29.7591 8.6786 29.9688 8.76626 30.0212 8.76626C30.0736 8.76626 30.1085 8.38054 30.0911 7.90717C30.0794 7.34613 29.9513 6.89613 29.7067 6.55717C29.4971 6.27665 29.2001 5.926 29.0254 5.78574Z" fill="#696969"/>
<path d="M39.8567 7.39873C39.8392 7.31106 40.0838 7.11821 40.4158 6.96042C40.7477 6.82016 41.0621 6.6799 41.1146 6.6799C41.167 6.6799 41.0447 6.78509 40.8525 6.92535C40.6603 7.06561 40.4332 7.24093 40.3284 7.3286C40.2236 7.41626 39.979 7.57405 39.7694 7.67925C39.4899 7.81951 39.42 7.95977 39.5248 8.10003C39.6121 8.22275 39.6995 8.41561 39.717 8.50327C39.7519 8.59093 39.8043 8.80132 39.8567 8.94158C39.9091 9.08184 39.9965 9.23964 40.0489 9.29223C40.1013 9.34482 40.3458 9.60775 40.5904 9.8707L40.5905 9.8708C40.835 10.1338 40.9224 10.3442 40.8176 10.3442C40.6953 10.3442 40.3459 10.1163 40.0664 9.81821C39.7868 9.52016 39.5423 9.25717 39.5423 9.20457C39.5423 9.15197 39.2977 8.88899 39.0182 8.59093C38.7386 8.29288 38.4941 8.0299 38.4941 7.9773C38.4941 7.9247 38.6513 7.88964 38.8435 7.88964C39.0356 7.88964 39.1929 7.80197 39.1929 7.71431C39.1929 7.62665 39.3501 7.53899 39.5423 7.53899C39.7344 7.53899 39.8742 7.46886 39.8567 7.39873Z" fill="#696969"/>
<path d="M34.7905 12.2202C34.773 12.0974 34.8603 11.9046 35.0001 11.7818C35.1399 11.6591 35.2796 11.5715 35.332 11.5715C35.4019 11.5715 35.9085 12.0098 37.5332 13.5351L37.2712 14.2539C37.1314 14.6572 37.0091 15.2708 37.0091 15.6215C37.0091 16.1299 37.1489 16.3929 37.7603 16.9715C38.1621 17.3747 38.6513 17.7078 38.826 17.7078C39.0182 17.7078 39.2802 17.5851 39.4374 17.4448C39.5772 17.3046 39.7344 17.1818 39.7868 17.1818C39.8393 17.1818 39.8917 17.3396 39.8917 17.5325C39.8917 17.7254 39.8218 17.8481 39.717 17.7955C39.6121 17.7429 39.5423 17.7955 39.5423 17.8831C39.5423 17.9708 39.1754 18.1111 38.7386 18.1812C38.2844 18.2689 37.9001 18.3741 37.8652 18.4442C37.8302 18.5318 37.673 18.4792 37.4983 18.3565C37.2362 18.1637 37.2188 18.2338 37.3061 19.1981C37.4109 20.1974 37.4109 20.215 37.2362 19.4611C37.1489 19.0228 36.9392 18.2689 36.7995 17.7955C36.6597 17.3046 36.3802 16.6033 36.2055 16.2176C36.0133 15.8318 35.8736 15.4111 35.8736 15.2883C35.8736 15.1831 35.8037 15.0779 35.6989 15.0779C35.5941 15.0779 35.4893 14.9377 35.4543 14.7624C35.4019 14.6046 35.2272 14.2364 35.0525 13.9383C34.8778 13.6403 34.6856 13.3948 34.6158 13.3598C34.5284 13.3422 34.476 13.1318 34.476 12.8864C34.476 12.6409 34.5459 12.4481 34.6507 12.4481C34.7555 12.4481 34.8079 12.3429 34.7905 12.2202Z" fill="#696969"/>
<path d="M40.835 15.1656C40.9573 14.9728 41.1495 14.6396 41.2893 14.4117C41.429 14.2013 41.6037 14.026 41.6736 14.026C41.7435 14.026 41.8133 14.0786 41.8133 14.1487C41.8133 14.2364 41.7435 14.3766 41.6386 14.4643C41.5513 14.552 41.3067 14.9202 41.1146 15.2533C40.9224 15.5864 40.7127 16.0072 40.6778 16.165C40.6254 16.3403 40.5206 16.4805 40.4158 16.4805C40.3109 16.4805 40.2411 16.6033 40.2411 16.7435C40.2411 16.8838 40.1712 17.0065 40.0664 17.0065C39.9615 17.0065 39.8917 16.9715 39.8917 16.9189C39.8917 16.8838 40.0489 16.5507 40.2585 16.1825C40.4682 15.8143 40.7302 15.3585 40.835 15.1656Z" fill="#696969"/>
<path d="M37.5682 22.9676C37.5332 23.4059 37.4983 23.0903 37.4983 22.2663C37.4983 21.4422 37.5332 21.0916 37.5682 21.4773C37.6031 21.863 37.6031 22.5292 37.5682 22.9676Z" fill="#696969"/>
<path d="M21.8978 7.09994C21.1466 7.09994 20.5701 7.04753 20.605 6.97765C20.6574 6.8903 21.1815 6.83789 21.7755 6.83789C22.3695 6.83789 22.946 6.90777 23.0508 6.97765C23.1731 7.04753 22.649 7.09994 21.8978 7.09994Z" fill="#A1AEC8"/>
<path d="M22.5973 7.13531C22.3527 7.17025 21.8811 7.17025 21.5491 7.13531C21.2172 7.10037 21.4094 7.06543 21.9859 7.06543C22.5624 7.06543 22.8419 7.10037 22.5973 7.13531Z" fill="#8E9EBC"/>
<path d="M40.7133 23.5281C40.7308 23.1775 40.7658 22.8093 40.7832 22.7041C40.8007 22.5989 40.8531 22.8444 40.888 23.2301C40.923 23.6158 40.888 23.984 40.8182 24.0541C40.7483 24.1242 40.6959 23.8788 40.7133 23.5281Z" fill="white"/>
<path d="M6.34961 22.4413C6.34961 21.8102 6.40202 21.0387 6.45443 20.7407V20.7231C6.50684 20.4251 6.57672 20.1621 6.59419 20.1621C6.59419 20.1621 6.61166 21.2491 6.61166 22.5816C6.61166 24.0543 6.57672 24.703 6.48937 24.2822C6.41949 23.8965 6.36708 23.0725 6.34961 22.4413Z" fill="#CDD5F7"/>
<path d="M19.3127 8.94142C19.6796 8.94142 19.9766 8.85376 19.9766 8.7661C19.9766 8.6609 20.5706 8.59077 22.8591 8.57324L23.1212 9.15181C23.2609 9.4674 23.4706 9.80051 23.5928 9.90571C23.7326 9.99337 23.8898 10.4667 23.9597 10.9577C24.0471 11.5362 24.0121 12.0622 23.8724 12.483C23.7501 12.8512 23.488 13.3245 23.2959 13.5349C23.1037 13.7629 22.9465 14.0434 22.9465 14.1486C22.9465 14.2713 22.8766 14.3765 22.7718 14.3765C22.6669 14.3765 21.9157 15.0252 21.0947 15.8142C20.2736 16.6206 18.841 18.0232 17.9151 18.9525C16.9892 19.8642 16.1157 20.7934 16.0109 21.0038C15.8886 21.2142 15.7838 21.5473 15.7838 21.7401C15.7838 21.933 15.7139 22.1258 15.6091 22.1784C15.5043 22.231 15.4344 22.459 15.4344 22.7044C15.4344 22.9499 15.5043 23.1427 15.6091 23.1427C15.7139 23.1427 15.7838 23.3005 15.7838 23.4934C15.7838 23.7564 15.6266 23.8791 15.2248 23.9492C14.9103 24.0018 14.3338 23.9667 13.9495 23.8616C13.5651 23.7564 13.1983 23.6687 13.1284 23.6687C13.041 23.6687 12.9886 23.7914 12.9886 23.9317C12.9886 24.0719 12.8838 24.1947 12.779 24.1947C12.6567 24.1947 12.4296 24.0369 12.2898 23.844C12.1501 23.6512 11.9754 23.4934 11.9055 23.4934C11.8181 23.4934 11.4338 23.1778 11.032 22.7921C10.6127 22.4064 10.176 22.0908 10.0712 22.0908C9.94887 22.0908 9.84405 22.0206 9.84405 21.9154C9.84405 21.8103 9.72176 21.7401 9.582 21.7401C9.44225 21.7401 9.28502 21.5648 9.23261 21.3544C9.1802 21.1265 9.14526 20.6531 9.14526 20.3025C9.14526 19.9167 9.07538 19.6713 8.97056 19.7239C8.86574 19.7765 8.79586 19.5135 8.79586 19.1103C8.79586 18.7245 8.88321 18.409 8.97056 18.409C9.05791 18.409 9.14526 18.2161 9.14526 17.9706C9.14526 17.7252 9.23261 17.5323 9.31996 17.5323C9.40731 17.5323 9.49465 17.4096 9.49465 17.2693C9.49465 17.1291 9.7567 16.533 10.0712 15.9544C10.3681 15.3758 10.8573 14.6219 11.1543 14.2713C11.4513 13.9206 11.8706 13.4648 12.0977 13.2719C12.3248 13.0616 12.8314 12.5706 13.2332 12.1674C13.635 11.7817 14.3163 11.2031 14.7706 10.9051C15.2422 10.5895 15.679 10.344 15.7838 10.344C15.8886 10.344 15.9585 10.2914 15.9585 10.2038C15.9585 10.1336 16.1681 9.97584 16.4477 9.85311C16.7097 9.73038 17.0591 9.64272 17.2163 9.64272C17.391 9.64272 17.5308 9.55506 17.5308 9.4674C17.5308 9.37974 17.723 9.29207 17.9675 9.29207C18.2121 9.29207 18.4567 9.20441 18.5266 9.11675C18.6139 9.02909 18.9633 8.94142 19.3127 8.94142Z" fill="#696969"/>
<path d="M26.0736 12.3603C26.0736 12.2025 26.1959 11.8518 26.3531 11.5538C26.5103 11.2732 26.72 11.0804 26.8248 11.133C26.9121 11.2031 26.9995 11.3784 26.982 11.5362C26.982 11.694 27.0868 12.0271 27.2091 12.2726C27.3663 12.5706 27.4712 12.6408 27.5585 12.483C27.6109 12.3778 27.8206 12.2726 28.0127 12.2726C28.2049 12.2726 28.3796 12.1849 28.4145 12.0622C28.432 11.9395 28.5718 11.9044 28.7639 11.9745C28.9561 12.0622 29.0609 12.3077 29.0784 12.746C29.0959 13.1142 29.0959 13.7629 29.0609 14.2012C29.0434 14.7973 29.1308 15.1129 29.4453 15.5161C29.6549 15.8142 30.0392 16.1999 30.2663 16.3927C30.5109 16.5856 30.8079 16.8486 30.9302 16.9538C31.0525 17.0765 31.4368 17.1817 31.7687 17.1817C32.1531 17.1817 32.4151 17.2693 32.4675 17.4447C32.52 17.5849 32.6597 17.7077 32.782 17.7077C32.8868 17.7077 33.1663 17.8304 33.376 18.0057C33.5856 18.181 33.7603 18.409 33.7603 18.4966C33.7603 18.5843 33.8826 18.7771 34.0398 18.8823C34.1796 19.0226 34.2669 19.268 34.2145 19.4609C34.1621 19.6538 33.8127 20.1447 33.4284 20.5479C33.0266 20.9687 32.7121 21.407 32.7296 21.5122C32.7296 21.6349 32.6597 21.7401 32.5549 21.7401C32.4501 21.7401 32.3802 22.1258 32.3802 22.6167C32.3802 23.0901 32.3103 23.4934 32.2055 23.4934C32.1007 23.4934 32.0308 23.7213 32.0308 24.0193C32.0308 24.3174 31.9609 24.5453 31.8561 24.5453C31.7513 24.5453 31.6814 24.6505 31.6814 24.7557C31.6814 24.8784 31.3844 25.3343 31.035 25.7551C30.6681 26.1758 29.9519 26.9473 29.4627 27.4732C28.9561 27.9817 28.5892 28.4551 28.6766 28.5077C28.7465 28.5603 28.7115 28.5778 28.6242 28.5427C28.5194 28.5252 28.2049 28.683 27.9254 28.9284C27.6284 29.1739 27.1218 29.7349 26.7898 30.1557C26.4579 30.594 26.126 30.9622 26.0561 30.9797C25.9862 31.0148 25.9163 31.1551 25.9163 31.2953C25.9163 31.4356 25.8639 31.5758 25.7941 31.5934C25.7067 31.6284 25.4796 31.9616 25.27 32.3473C25.0603 32.733 24.8332 33.3992 24.7459 33.8375C24.676 34.346 24.4663 34.7667 24.1694 35.0297C23.8549 35.2927 23.5055 35.4154 22.9989 35.4154C22.37 35.4154 22.2477 35.468 22.2477 35.7661C22.2477 36.0817 22.1254 36.1167 20.9374 36.1167C20.1862 36.1167 19.6272 36.0466 19.6272 35.9414C19.6272 35.8362 19.3127 35.7661 18.9284 35.7661C18.5441 35.7661 18.2296 35.696 18.2296 35.5908C18.2296 35.4856 18.0374 35.4154 17.7928 35.4154C17.5483 35.4154 17.3212 35.3453 17.2687 35.2401C17.2163 35.1349 17.0242 35.0648 16.832 35.0648C16.6398 35.0648 16.4826 35.0122 16.4826 34.9245C16.4826 34.8544 16.2031 34.6791 15.8712 34.5388C15.5392 34.3986 15.2597 34.2232 15.2597 34.1356C15.2597 34.0654 15.1374 34.0129 14.9977 34.0129C14.8579 34.0129 14.7356 33.9427 14.7356 33.8375C14.7356 33.7323 14.6657 33.6622 14.5609 33.6622C14.4561 33.6622 14.0892 33.3817 13.7398 33.0486C13.373 32.7155 13.0236 32.4349 12.9537 32.4349C12.8663 32.4349 12.5868 32.207 12.2898 31.909C11.9928 31.6109 11.7657 31.3304 11.7657 31.2427C11.7657 31.1726 11.5212 30.8395 11.2242 30.5064C10.9447 30.1732 10.6651 29.7525 10.6302 29.5771C10.5778 29.4193 10.473 29.2791 10.3681 29.2791C10.2808 29.2791 10.2284 29.1213 10.2808 28.9284C10.3332 28.7356 10.3157 28.5778 10.2459 28.5778C10.1585 28.5778 10.0537 28.2096 9.98381 27.7538C9.89646 27.2278 9.91393 26.8421 10.0362 26.7369C10.1236 26.6317 10.6477 26.5265 11.1718 26.4739C11.6784 26.4213 12.1151 26.4388 12.1151 26.509C12.1151 26.5966 12.185 26.6492 12.2898 26.6492C12.3947 26.6492 12.6392 26.807 12.8663 26.9999C13.076 27.1927 13.3555 27.3505 13.4778 27.3505C13.5826 27.3505 13.6874 27.4206 13.6874 27.5258C13.6874 27.631 13.8447 27.7012 14.0368 27.7012C14.229 27.7012 14.3862 27.7713 14.3862 27.8765C14.3862 27.9817 14.5434 28.0518 14.7356 28.0518C14.9278 28.0518 15.085 28.1219 15.085 28.2271C15.085 28.3323 15.2422 28.4025 15.4344 28.4025C15.6266 28.4025 15.8188 28.4726 15.8712 28.5778C15.9236 28.683 16.273 28.7531 16.6573 28.7531C17.0416 28.7531 17.391 28.8232 17.4434 28.9284C17.4959 29.0336 18.0374 29.1038 18.6663 29.1038C19.2953 29.1038 19.9766 29.0336 20.2037 28.946C20.4133 28.8583 20.8151 28.718 21.1121 28.6654C21.4091 28.5953 21.8459 28.3148 22.1254 28.0343C22.3874 27.7538 22.5971 27.333 22.5971 27.0875C22.5971 26.8421 22.5097 26.4739 22.3874 26.246C22.2826 26.0356 21.9681 25.6499 21.6886 25.3693C21.4266 25.1064 21.1296 24.896 21.0248 24.896C20.92 24.896 20.8501 24.8258 20.8501 24.7206C20.8501 24.6154 20.7278 24.5453 20.588 24.5453C20.4483 24.5453 20.326 24.4752 20.326 24.37C20.326 24.2648 20.1338 24.1947 19.8892 24.1947C19.6447 24.1947 19.4175 24.1245 19.3651 24.0193C19.3127 23.9142 19.1206 23.844 18.9284 23.844C18.7362 23.844 18.5441 23.7038 18.4916 23.5284C18.4392 23.3706 18.3694 22.7395 18.3169 22.1258C18.2296 21.0739 18.2471 21.0213 18.8061 20.4603C19.1031 20.1447 19.6447 19.6888 19.9766 19.4609C20.3085 19.2154 20.9374 18.707 21.3567 18.3213C21.7934 17.9356 22.4922 17.2518 22.929 16.8135C23.3657 16.3577 24.0296 15.6564 24.3965 15.2356C24.7459 14.8148 25.0428 14.359 25.0428 14.2362C25.0428 14.131 25.1127 14.0258 25.2175 14.0258C25.3224 14.0258 25.3922 13.868 25.3922 13.6752C25.3922 13.4823 25.4621 13.3245 25.5669 13.3245C25.6718 13.3245 25.7416 13.1667 25.7416 12.9739C25.7416 12.781 25.8115 12.6232 25.9163 12.6232C26.0212 12.6232 26.091 12.5005 26.0736 12.3603Z" fill="#696969"/>
<path d="M5.91333 14.4992C6.36755 14.5343 6.52477 14.4817 6.52477 14.2888C6.52477 14.1486 6.59465 14.0258 6.66453 14.0258C6.73441 14.0258 6.80429 14.2187 6.78682 14.4466C6.78682 14.6745 6.73441 14.92 6.66453 14.9726C6.57718 15.0252 6.36755 14.9726 6.19285 14.8499C5.89586 14.6745 5.79104 14.6921 5.47658 14.9726C5.28441 15.1654 5.10971 15.218 5.12718 15.1129C5.12718 14.9901 5.16212 14.7973 5.21453 14.6745C5.26694 14.5518 5.56393 14.4817 5.91333 14.4992Z" fill="#696969"/>
<path d="M38.2151 23.1953C38.2501 22.9148 38.285 22.7044 38.2675 22.6869C38.2675 22.6693 38.5296 22.6693 38.8615 22.6869C39.3856 22.7044 39.4555 22.7745 39.5079 23.1953C39.5428 23.6336 39.5079 23.6687 38.8441 23.6687C38.1802 23.6687 38.1453 23.6512 38.2151 23.1953Z" fill="#696969"/>
<path fill-rule="evenodd" clip-rule="evenodd" d="M32.6071 4.57617L33.271 5.27747C33.8824 5.89111 34.0397 5.96124 34.8258 5.96124C35.2975 5.96124 35.7342 5.87357 35.7867 5.78591C35.8391 5.69825 36.0312 5.61059 36.2234 5.61059C36.4156 5.61059 36.73 5.75085 36.9047 5.90864C37.0794 6.08396 37.2017 6.36448 37.1668 6.52228C37.1318 6.6976 36.9746 6.83786 36.8348 6.83786C36.6951 6.83786 36.433 7.04825 36.2583 7.2937C36.0138 7.67942 35.9963 7.83721 36.171 8.31059C36.2933 8.60864 36.3981 8.90669 36.3981 8.97682C36.3981 9.06448 35.9963 9.08202 35.5246 9.02942C34.8957 8.95929 34.5812 9.01189 34.3891 9.20474C34.2493 9.345 34.127 9.52033 34.127 9.59046C34.127 9.67812 33.83 9.74825 32.8168 9.80085L32.9391 9.06448C33.0089 8.66124 33.1138 8.01254 33.1836 7.62682C33.2535 7.06578 33.2011 6.82033 32.8692 6.36448C32.6421 6.0489 32.415 5.78591 32.3276 5.78591C32.2577 5.78591 32.2927 5.52293 32.3975 5.18981L32.6071 4.57617ZM26.1957 9.27487C26.4228 9.27487 26.6324 9.36254 26.6324 9.4502C26.6324 9.55539 26.8595 9.62552 27.1565 9.62552C27.436 9.62552 27.6806 9.71318 27.6806 9.80085C27.6806 9.90604 27.8379 9.97617 28.03 9.97617C28.2222 9.97617 28.3794 10.0638 28.3794 10.1515C28.3794 10.2567 28.4668 10.3268 28.5891 10.3268C28.7113 10.3268 29.0607 10.5372 29.3577 10.8002C29.8644 11.256 29.8818 11.3437 29.7421 12.045C29.6722 12.4482 29.5324 13.097 29.4626 13.4651C29.3927 13.8333 29.2704 14.219 29.183 14.3067C29.1132 14.3768 29.0607 14.219 29.0782 13.921C29.1132 13.6405 29.1132 13.097 29.0957 12.7463C29.0782 12.2905 28.9734 12.045 28.7638 11.9573C28.5891 11.8872 28.4493 11.9398 28.4144 12.045C28.3969 12.1677 28.2222 12.2554 28.03 12.2554C27.8379 12.2554 27.6282 12.3606 27.5583 12.4833C27.4885 12.6236 27.3836 12.5534 27.2264 12.2554C27.0867 12.0275 26.9818 11.6768 26.9818 11.519C26.9818 11.3437 26.8945 11.1684 26.8071 11.1158C26.7023 11.0807 26.5101 11.256 26.3704 11.519C26.1258 11.9924 26.1258 11.9749 26.1083 10.9931C26.1083 10.432 26.021 9.97617 25.9336 9.97617C25.8288 9.97617 25.7589 9.81838 25.7589 9.62552C25.7589 9.38007 25.8638 9.27487 26.1957 9.27487ZM15.312 10.3444C15.3818 10.3444 15.4517 10.3444 15.4517 10.3794C15.4517 10.397 15.1198 10.6424 14.718 10.9405C14.2987 11.221 13.53 11.8697 13.0059 12.3781C12.4644 12.8866 11.9752 13.3599 11.9053 13.4476C11.8354 13.5177 11.5035 13.8859 11.1541 14.2716C10.8222 14.6573 10.3505 15.3937 10.1059 15.9021C9.87882 16.4106 9.63424 16.7788 9.5993 16.7262C9.54689 16.6911 9.66918 16.3229 9.86135 15.9372C10.0535 15.5515 10.5077 14.8327 10.8571 14.3242C11.224 13.8158 11.8005 13.132 12.1324 12.7814C12.4818 12.4482 13.0409 11.9573 13.3553 11.6944C13.6873 11.4314 14.2288 11.0281 14.5782 10.7827C14.9101 10.5372 15.2421 10.3444 15.312 10.3444ZM29.2879 14.9729C29.3927 15.1658 29.7246 15.569 30.0216 15.8671C30.3186 16.1476 30.7553 16.5333 30.9999 16.6911C31.227 16.8664 31.5589 16.9892 31.7336 16.9892C31.8909 16.9892 32.2228 16.7963 32.4674 16.5508C32.712 16.3229 32.9216 16.0599 32.9041 15.9898C32.9041 15.9197 33.0788 15.7619 33.3059 15.6567C33.6204 15.4989 33.7601 15.5164 33.9174 15.7093C34.0397 15.832 34.1445 16.0424 34.1445 16.1651C34.127 16.2879 34.1969 16.4632 34.2842 16.5508C34.3716 16.656 34.6162 17.2171 34.8083 17.8307C35.018 18.4268 35.1927 19.0405 35.1927 19.1807C35.1927 19.3385 35.0529 19.4963 34.8782 19.5314C34.721 19.584 34.4764 19.6716 34.3541 19.7067C34.2144 19.7651 34.1736 19.6775 34.2318 19.4437C34.2842 19.2508 34.1969 19.0054 34.0397 18.8827C33.8999 18.7599 33.7776 18.5846 33.7776 18.4794C33.7776 18.3918 33.6029 18.1638 33.3933 17.9885C33.1836 17.8307 32.9041 17.6905 32.7818 17.6905C32.6595 17.6905 32.5198 17.5853 32.4848 17.4275C32.4324 17.2697 32.1704 17.1645 31.786 17.1645C31.4367 17.1645 31.0698 17.0768 30.9475 16.9541C30.8252 16.8314 30.5282 16.5684 30.2836 16.3755C30.0565 16.1827 29.6722 15.797 29.4626 15.4989C29.2354 15.2184 29.0607 14.9028 29.0782 14.7976C29.0782 14.7099 29.183 14.7801 29.2879 14.9729ZM8.65593 19.4437C8.74328 19.4437 8.81316 19.5314 8.81316 19.619C8.81316 19.7242 8.88304 19.7593 8.98786 19.7067C9.0752 19.6541 9.16255 19.8995 9.16255 20.2853C9.16255 20.6359 9.19749 21.1444 9.2499 21.3723C9.30231 21.6177 9.30231 21.7229 9.2499 21.6002C9.19749 21.4775 9.00533 21.3723 8.81316 21.3723C8.4987 21.3723 8.46376 21.2671 8.48123 20.408C8.4987 19.882 8.58605 19.4437 8.65593 19.4437ZM18.3517 21.0392C18.3517 21.0392 18.3342 21.1619 18.2993 21.3372C18.2469 21.495 18.2993 22.1086 18.3867 22.6872C18.474 23.2658 18.5439 23.7567 18.5264 23.7742C18.5089 23.8093 18.2993 23.6515 18.0373 23.4236C17.6704 23.1431 17.5481 22.8801 17.5481 22.3892C17.5481 22.021 17.618 21.7229 17.7228 21.7229C17.8101 21.7229 17.88 21.6177 17.8626 21.4775C17.8451 21.3372 17.9324 21.197 18.0722 21.1444C18.212 21.0918 18.3342 21.0567 18.3517 21.0392ZM35.5421 21.197C35.6294 21.197 35.7168 21.7229 35.7168 22.3892C35.7168 23.0379 35.6993 23.5288 35.6469 23.4762C35.612 23.4411 35.5421 22.8976 35.4722 22.3015C35.4023 21.6177 35.4373 21.197 35.5421 21.197ZM34.5812 21.8983C34.6336 21.8983 34.6511 22.6697 34.6511 23.6164C34.6336 24.5457 34.6336 25.4749 34.6511 25.6677C34.6744 25.9132 34.7967 25.7671 35.018 25.2294C35.2975 24.5457 35.3499 24.5106 35.3499 24.9314C35.3499 25.1944 35.2975 25.545 35.2101 25.7203C35.1228 25.8781 34.9132 26.4567 34.7559 26.9827C34.5812 27.5262 34.3541 28.1749 34.2493 28.4379C34.1445 28.7008 33.9873 28.9112 33.9174 28.9112C33.8475 28.9112 33.7951 29.069 33.7951 29.2619C33.7951 29.4547 33.7077 29.6125 33.6204 29.6125C33.5156 29.6125 33.4457 29.7353 33.4457 29.8755C33.4457 30.0333 32.6595 30.9275 31.7162 31.8918C30.7728 32.856 29.8644 33.645 29.7071 33.645C29.5499 33.645 29.4276 33.7327 29.4276 33.8203C29.4276 33.9255 29.3228 33.9957 29.2005 33.9957C29.0782 33.9957 28.8162 34.1534 28.5891 34.3463C28.3794 34.5392 27.9951 34.697 27.768 34.697C27.5234 34.697 27.3312 34.7846 27.3312 34.8723C27.3312 34.9775 27.2089 35.0476 27.0692 35.0476C26.877 35.0476 26.8071 34.8547 26.8071 34.2586C26.8071 33.8379 26.877 33.4697 26.9818 33.4697C27.0692 33.4697 27.1565 33.3119 27.1565 33.119C27.1565 32.9262 27.2089 32.7684 27.2788 32.7684C27.3487 32.7684 27.5758 32.4879 27.768 32.1372C27.9601 31.7866 28.3445 31.2431 28.6415 30.9275C28.921 30.5944 29.2529 30.3314 29.3752 30.3314C29.4975 30.3314 30.2836 29.6301 31.1397 28.7885C31.9782 27.947 32.9216 26.8599 33.236 26.369C33.5505 25.8957 33.7951 25.282 33.7951 25.019C33.7951 24.756 33.865 24.5281 33.9698 24.5281C34.0571 24.5281 34.1445 24.1424 34.1445 23.6515C34.1445 23.1255 34.2144 22.8099 34.3192 22.8625C34.4065 22.9151 34.4939 22.7223 34.4939 22.4242C34.4939 22.1437 34.5288 21.8983 34.5812 21.8983ZM8.70834 23.5989C8.8481 23.6515 8.97039 23.897 8.98786 24.1599C9.00533 24.5106 9.04027 24.5457 9.12761 24.3177C9.23243 24.0547 9.30231 24.0372 9.68665 24.2301C9.91376 24.3528 10.4728 24.7911 10.9095 25.2119C11.3288 25.6151 11.783 25.9482 11.9053 25.9482C12.0276 25.9307 12.0975 26.0359 12.0626 26.1586C12.0451 26.2814 11.6258 26.4041 11.1192 26.4567C10.63 26.5093 10.1409 26.632 10.036 26.7197C9.93123 26.8424 9.91376 27.2106 9.98364 27.7366C10.0535 28.1924 10.1758 28.5781 10.2457 28.5606C10.3156 28.5606 10.333 28.7184 10.2981 28.9112C10.2457 29.1041 10.2806 29.2619 10.3854 29.2619C10.4728 29.2619 10.5951 29.4021 10.63 29.5775C10.6824 29.7353 10.9445 30.156 11.2415 30.4892C11.5385 30.8398 11.7656 31.1905 11.7656 31.2781C11.7656 31.3833 11.5909 31.2606 11.3812 30.9976C11.1716 30.7521 10.8571 30.3664 10.6824 30.1736C10.5252 29.9632 10.1758 29.4021 9.9487 28.9112C9.70412 28.4379 9.51195 27.9294 9.51195 27.7716C9.51195 27.6314 9.4246 27.5086 9.33725 27.5086C9.23243 27.5086 9.16255 27.3158 9.16255 27.0703C9.16255 26.8424 9.0752 26.597 8.98786 26.5444C8.88304 26.5093 8.81316 26.1937 8.81316 25.8431C8.81316 25.5099 8.72581 25.2294 8.63846 25.2294C8.53364 25.2294 8.46376 24.8437 8.44629 24.3703C8.44629 23.6515 8.4987 23.5112 8.70834 23.5989ZM11.9053 23.4762C11.9752 23.4762 12.1499 23.634 12.3071 23.8268C12.4469 24.0197 12.6565 24.1775 12.7788 24.1775C12.9011 24.1775 13.0059 24.0723 13.0059 23.9145C13.0059 23.7216 13.1282 23.6866 13.565 23.7918C13.8794 23.8619 14.5607 23.9145 15.1023 23.897C15.9933 23.8794 16.0981 23.9145 16.7095 24.5457C17.0764 24.9314 17.4782 25.2294 17.6354 25.2294C17.7752 25.2294 17.8451 25.3171 17.8101 25.4047C17.7577 25.5099 17.88 25.5801 18.0722 25.5801C18.2644 25.5801 18.4216 25.6677 18.4216 25.7554C18.4216 25.8606 18.3517 25.8957 18.2818 25.8606C18.212 25.808 17.8626 25.8781 17.4957 25.9833C17.1288 26.106 16.9017 26.2638 16.9716 26.334C17.0415 26.4041 16.9017 26.4742 16.6746 26.4742C16.43 26.4742 15.6788 26.1937 15.015 25.8606C14.3336 25.5275 13.6174 25.0892 13.3903 24.8963C13.1806 24.7034 12.9186 24.5281 12.8312 24.5281C12.7264 24.5281 12.4469 24.3353 12.2198 24.0898C11.9752 23.8619 11.783 23.6164 11.783 23.5638C11.783 23.5288 11.8354 23.4762 11.9053 23.4762ZM31.6288 25.2294C31.6638 25.3346 31.4716 25.6677 31.2095 25.9833C30.9475 26.2989 30.2836 27.0002 29.7246 27.5612C29.183 28.1047 28.7288 28.508 28.7288 28.4379C28.7288 28.3677 28.3794 28.7008 27.9427 29.1742C27.5059 29.6651 27.1041 30.0158 27.0517 29.9632C26.9993 29.9281 27.3312 29.5249 27.7854 29.0866C28.2397 28.6658 29.0083 27.8944 29.4975 27.4034C29.9867 26.9301 30.6505 26.1937 30.9824 25.7905C31.3144 25.3872 31.6113 25.1418 31.6288 25.2294ZM18.8583 28.8236C19.6445 28.8236 20.221 28.8937 20.0987 28.9638C19.9939 29.034 19.365 29.0866 18.7186 29.0866C18.0722 29.0866 17.5132 29.034 17.4782 28.9638C17.4258 28.8937 18.0547 28.8236 18.8583 28.8236ZM12.5692 32.2424C12.6565 32.2424 12.971 32.4177 13.268 32.6281C13.5475 32.856 13.8794 33.1366 14.0017 33.2593C14.124 33.382 14.1764 33.5398 14.1415 33.6099C14.0891 33.6801 13.9144 33.5749 13.7397 33.382C13.5824 33.1892 13.1981 32.8385 12.9186 32.6281C12.6216 32.4177 12.4644 32.2424 12.5692 32.2424ZM25.1475 32.6632C25.165 32.7333 25.1126 33.0664 25.0252 33.4346C24.9553 33.7853 24.8505 34.469 24.7981 34.9249C24.7457 35.3807 24.6234 35.7489 24.536 35.7489C24.4312 35.7489 24.3963 35.8366 24.4487 35.9242C24.5011 36.0294 24.0993 36.0996 23.4005 36.0996C22.3698 36.0996 22.265 36.0645 22.265 35.7489C22.265 35.4508 22.3698 35.3983 22.9987 35.3983C23.5577 35.3983 23.8722 35.2931 24.2216 34.9599C24.4836 34.732 24.7107 34.3814 24.7107 34.2236C24.7107 34.0483 24.7981 33.6099 24.9204 33.2418C25.0427 32.8736 25.1475 32.6106 25.1475 32.6632Z" fill="#696969"/>
<path d="M31.4194 6.224C30.9827 5.78569 30.6333 5.38244 30.6333 5.31231C30.6333 5.22465 31.0176 5.5753 31.5068 6.04868C31.9784 6.53958 32.3278 6.94283 32.2929 6.9779C32.2405 6.99543 31.8562 6.66231 31.4194 6.224Z" fill="white"/>
<path d="M21.4616 8.24023C21.1296 8.24023 20.8501 8.1701 20.8501 8.06491C20.8501 7.97725 21.1296 7.88958 21.4616 7.88958C21.7935 7.88958 22.073 7.97725 22.073 8.06491C22.073 8.1701 21.7935 8.24023 21.4616 8.24023Z" fill="white"/>
<path d="M38.2327 9.69543C37.8134 9.22205 37.464 8.78374 37.4815 8.71361C37.4989 8.62595 37.9007 8.9766 38.3549 9.50257C38.8266 10.011 39.1586 10.4493 39.1062 10.4844C39.0537 10.5019 38.6694 10.1513 38.2327 9.69543Z" fill="white"/>
<path d="M29.323 9.97595C29.2182 9.97595 28.7116 9.74803 28.1875 9.44997C27.6634 9.16945 27.4188 8.99413 27.6634 9.04673C27.908 9.11686 28.4146 9.36231 28.7989 9.59023C29.1833 9.80062 29.4278 9.99348 29.323 9.97595Z" fill="white"/>
<path d="M14.2116 10.274C14.3513 10.0987 14.7881 9.80062 15.1724 9.6253C15.5568 9.44997 15.8887 9.30971 15.9062 9.29218C15.9236 9.29218 15.9062 9.37984 15.8712 9.46751C15.8188 9.5727 15.714 9.64283 15.6092 9.64283C15.5043 9.64283 15.1025 9.85322 14.7007 10.1162C14.2116 10.4143 14.0369 10.4669 14.2116 10.274Z" fill="white"/>
<path d="M30.5634 28.2623C31.0001 27.8065 31.5242 27.2279 31.7339 26.9649V26.9474C31.9435 26.6844 32.1706 26.474 32.2405 26.474C32.3278 26.474 32.3802 26.5091 32.3802 26.5617C32.3802 26.6143 32.2056 26.8422 31.9959 27.0701C31.7688 27.298 31.2272 27.8766 30.773 28.385C30.3013 28.876 29.8995 29.2441 29.8471 29.1915C29.7947 29.1389 30.1266 28.7357 30.5634 28.2623Z" fill="white"/>
<path d="M28.8863 29.0337C29.1658 28.8409 29.8122 28.2448 30.3188 27.7013C30.8254 27.1578 31.3146 26.7019 31.3845 26.6844C31.4543 26.6844 31.4194 26.8071 31.2971 26.9649C31.1748 27.1402 30.8429 27.5084 30.5459 27.8065C30.2489 28.087 29.6899 28.5954 29.2881 28.8935C28.8688 29.2091 28.5019 29.4545 28.467 29.4195C28.4146 29.4019 28.6068 29.2266 28.8863 29.0337Z" fill="white"/>
<path d="M17.2339 28.2272C17.0592 28.2272 16.7622 28.1571 16.57 28.0695C16.2905 27.9467 16.3429 27.9117 16.8845 27.9117C17.2339 27.8941 17.5309 27.9643 17.5309 28.0695C17.5309 28.1747 17.3911 28.2448 17.2339 28.2272Z" fill="white"/>
<path d="M32.1182 32.4175C32.5899 31.8915 33.0965 31.2954 33.2363 31.085C33.376 30.8747 33.5682 30.6993 33.6381 30.6993C33.7254 30.6993 33.6905 30.8396 33.5682 30.9974C33.4459 31.1727 33.2712 31.4182 33.1664 31.5409C33.0616 31.6636 32.6598 32.1195 32.2405 32.5578C31.8387 32.9785 31.0875 33.6273 30.5809 33.9954C30.0917 34.3811 29.3929 34.8195 29.061 34.9948C28.729 35.1701 28.4845 35.2578 28.5369 35.2052C28.5893 35.1526 29.2182 34.7143 29.9345 34.2409C30.6507 33.7675 31.629 32.9435 32.1182 32.4175Z" fill="white"/>
<path d="M26.126 35.5558C26.0562 35.2578 26.0387 34.7143 26.0911 34.3811C26.161 33.8727 26.1784 33.9428 26.2134 34.7669C26.2483 35.3279 26.3357 35.7837 26.4405 35.7837C26.5453 35.7837 26.6152 35.8539 26.6152 35.9591C26.6152 36.0643 26.5453 36.1344 26.4405 36.1344C26.3357 36.1344 26.1959 35.8714 26.126 35.5558Z" fill="white"/>
<path d="M25.1128 36.2571C25.1652 36.0993 25.2351 35.5909 25.2525 35.1175L25.2875 34.2935L25.3399 35.1175C25.3748 35.5909 25.3049 36.0993 25.2001 36.2571C25.0254 36.5552 25.0254 36.5552 25.1128 36.2571Z" fill="white"/>
<path d="M20.4483 36.8182C20.0989 36.8182 19.8019 36.748 19.8019 36.6428C19.8019 36.5552 19.9766 36.485 20.1863 36.485C20.4134 36.485 20.7104 36.5552 20.8501 36.6428C21.0423 36.7831 20.9375 36.8182 20.4483 36.8182Z" fill="white"/>
<path d="M23.4706 36.8182C23.1736 36.8182 22.9815 36.748 23.0339 36.6428C23.0863 36.5552 23.3309 36.4675 23.558 36.4675C23.8025 36.4675 23.9947 36.5552 23.9947 36.6428C23.9947 36.748 23.7501 36.8182 23.4706 36.8182Z" fill="white"/>
<path d="M30.3892 3.22644C30.5988 3.15631 30.8085 3.03359 30.8783 2.94592C30.9482 2.87579 31.0356 2.80566 31.088 2.80566C31.1229 2.80566 31.5073 3.15631 32.7301 4.38359L32.4681 5.08488C32.3283 5.4706 32.2585 5.78618 32.3283 5.78618C32.4157 5.78618 32.6428 6.04917 32.8524 6.36475C33.0795 6.68034 33.2368 7.15372 33.2018 7.97774L33.132 7.45177C33.0621 7.06605 32.5904 6.48748 31.3675 5.29527C29.9 3.89268 29.7079 3.62969 29.8826 3.38424C30.0048 3.22644 30.197 3.05112 30.3193 3.01605C30.4416 2.98099 30.4241 3.03359 30.2844 3.15631C30.0747 3.31411 30.0922 3.33164 30.3892 3.22644Z" fill="#696969"/>
<path d="M40.4169 4.20826C40.6964 4.20826 40.941 4.1206 40.941 4.03294C40.941 3.94527 41.1332 3.85761 41.3777 3.85761C41.6223 3.85761 41.8145 3.96281 41.8145 4.068C41.832 4.19073 41.3253 4.55891 40.7313 4.89203C40.1199 5.22514 39.6133 5.55826 39.5783 5.64592C39.5609 5.71605 39.3862 5.78618 39.194 5.78618C39.0018 5.78618 38.8446 5.87385 38.8446 5.96151C38.8446 6.04917 38.6874 6.13683 38.4952 6.13683C38.303 6.13683 38.1458 6.2245 38.1458 6.31216C38.1458 6.39982 38.006 6.52255 37.8313 6.55761C37.6741 6.61021 37.2898 6.78553 37.0103 6.96086C36.7307 7.13618 36.4687 7.27644 36.4512 7.27644C36.4338 7.27644 36.3813 7.4693 36.3115 7.71476C36.2066 8.08294 36.3464 8.32839 37.2199 9.24008C37.7789 9.83618 38.6524 10.7654 39.1416 11.2914C39.9103 12.0979 40.1548 12.2557 40.5392 12.2031C40.8187 12.168 41.1681 12.0979 41.3253 12.0277C41.5 11.9751 41.6398 12.0102 41.6398 12.0979C41.6398 12.1855 41.5175 12.2732 41.3777 12.2732C41.238 12.2732 41.1157 12.3609 41.1157 12.4485C41.1157 12.5362 40.9759 12.6238 40.8012 12.6238C40.644 12.6414 40.3645 12.8167 40.1898 13.0271C40.0151 13.2375 39.788 13.6232 39.6657 13.9037C39.5434 14.1667 39.4036 14.3771 39.3163 14.3771C39.2464 14.3771 39.194 14.0264 39.194 13.5881C39.194 12.8342 39.1416 12.7466 37.6567 11.2563C36.8181 10.4148 35.9446 9.59073 35.7 9.4154C35.4554 9.25761 35.1759 9.11735 35.0536 9.11735C34.9488 9.11735 34.7217 9.24008 34.582 9.38034C34.4247 9.5206 34.2675 9.60826 34.2151 9.55566C34.1627 9.50307 34.25 9.34527 34.3898 9.20501C34.582 9.01216 34.8964 8.95956 35.5253 9.02969C35.997 9.08229 36.3988 9.06475 36.3988 8.99463C36.3988 8.90696 36.294 8.60891 36.1717 8.31086C35.997 7.83748 36.0145 7.67969 36.2591 7.29398C36.4338 7.04852 36.6958 6.83813 36.8356 6.83813C36.9753 6.83813 37.1326 6.69787 37.1675 6.54008C37.2199 6.34722 37.0452 6.0667 36.7832 5.83878C36.4163 5.54073 36.3813 5.43553 36.5735 5.38294C36.7133 5.33034 37.3422 5.13748 37.9711 4.94463C38.6 4.73424 39.2813 4.55891 39.491 4.55891C39.7181 4.55891 39.8928 4.47125 39.8928 4.38359C39.8928 4.29592 40.1374 4.20826 40.4169 4.20826Z" fill="#696969"/>
<path d="M31.647 12.4485C31.944 11.5368 32.3633 10.2044 32.5904 9.50307C32.8 8.80177 32.9922 8.24073 33.0097 8.27579C33.0271 8.31086 32.9922 8.66151 32.8175 9.81865L33.3765 9.76605C33.6735 9.74852 33.988 9.80112 34.0753 9.88878C34.1452 9.97644 34.1103 10.0641 33.988 10.0992C33.8832 10.1342 33.7783 10.3271 33.7783 10.5199C33.7783 10.7128 33.7085 10.8706 33.6036 10.8706C33.4988 10.8706 33.394 11.0109 33.3591 11.1687C33.3067 11.344 33.132 11.7122 32.9573 12.0102C32.7826 12.3083 32.5904 12.5537 32.503 12.5712C32.4332 12.6063 32.3807 12.7466 32.3807 12.8868C32.3807 13.0271 32.2934 13.255 32.1886 13.3602C32.1012 13.4829 31.8392 13.8687 31.6295 14.2018C31.3151 14.7277 31.2627 14.7628 31.1928 14.4648C31.1579 14.2719 31.3675 13.3602 31.647 12.4485Z" fill="#696969"/>
<path d="M29.6205 11.0985C29.5157 11.0635 29.4109 10.9583 29.4109 10.8706C29.4109 10.7654 29.5506 10.7829 29.7603 10.9057C29.9524 11.0284 30.1097 11.2914 30.1097 11.4842C30.1097 11.6771 30.0223 11.9576 29.935 12.0979C29.7952 12.2907 29.7777 12.2031 29.7952 11.7648C29.8301 11.3966 29.7603 11.1336 29.6205 11.0985Z" fill="#696969"/>
<path d="M32.5554 16.481C32.4506 16.481 32.5904 16.1303 32.835 15.692C33.0795 15.2537 33.394 14.9031 33.5338 14.9031C33.6735 14.9031 33.7783 15.0258 33.7783 15.1661C33.7783 15.3063 33.5862 15.5342 33.3416 15.6394C33.097 15.7622 32.8524 16.0076 32.8175 16.1654C32.7651 16.3407 32.6428 16.481 32.5554 16.481Z" fill="#696969"/>
<path d="M34.8265 17.9187C34.6344 17.3751 34.4771 16.8842 34.4771 16.8316C34.4771 16.779 34.547 16.8316 34.6169 16.9193C34.7042 17.007 34.9139 17.5329 35.0711 18.0589C35.2458 18.5849 35.3506 19.1459 35.2982 19.2862C35.2283 19.4966 35.1934 19.479 35.1934 19.2336C35.1759 19.0758 35.0187 18.4797 34.8265 17.9187Z" fill="#696969"/>
<path d="M34.6344 23.5816C34.6693 22.3018 34.7392 21.7583 34.9314 21.5479C35.1759 21.2849 35.2109 21.3024 35.3681 21.7232C35.4554 21.9687 35.5428 22.8979 35.5428 23.757C35.5428 24.9316 35.4554 25.5803 35.1934 26.2992C34.9838 26.8251 34.8265 27.4037 34.8265 27.579C34.8265 27.7368 34.7392 27.8771 34.6518 27.8771C34.547 27.8771 34.5121 27.7719 34.547 27.6667C34.582 27.544 34.7042 27.1232 34.8265 26.7375C34.9488 26.3518 35.106 25.8959 35.1934 25.7381C35.2807 25.5628 35.3506 25.2122 35.3332 24.9492C35.3332 24.5109 35.2982 24.5459 35.0012 25.2472C34.7799 25.7732 34.6577 25.9193 34.6344 25.6855C34.6169 25.4927 34.6169 24.5459 34.6344 23.5816Z" fill="#696969"/>
<path d="M8.37713 23.7044C8.32472 23.8271 8.28978 23.792 8.28978 23.6167C8.27231 23.4589 8.34219 23.3187 8.44701 23.3187C8.53436 23.3187 8.84882 23.4589 9.14581 23.6167C9.42533 23.792 9.66991 23.9849 9.66991 24.055C9.66991 24.1427 9.54762 24.1602 9.40786 24.1076C9.25063 24.055 9.11087 24.1427 9.07593 24.318C9.04099 24.4933 9.00605 24.4232 8.98858 24.1427C8.98858 23.8797 8.84882 23.6342 8.70906 23.5816C8.5693 23.529 8.41207 23.5992 8.37713 23.7044Z" fill="#696969"/>
<path d="M15.5573 26.3342C14.9109 26.0187 14.3868 25.7381 14.3693 25.6855C14.3693 25.6505 14.7886 25.8083 15.2952 26.0362C15.8018 26.2816 16.3958 26.4745 16.6054 26.4745C16.8326 26.4745 16.9548 26.4044 16.885 26.3167C16.8151 26.229 17.0247 26.1063 17.3567 26.0362C17.6886 25.9485 18.038 25.8784 18.1428 25.8784C18.2301 25.8609 18.3874 25.7907 18.4573 25.6855C18.5621 25.5803 18.632 25.5803 18.6844 25.7206C18.7193 25.8433 18.9115 25.9485 19.1036 25.9485C19.2958 25.9485 19.453 26.0011 19.453 26.0712C19.453 26.1589 19.7151 26.3167 20.0121 26.457C20.3964 26.5972 20.5362 26.7375 20.4139 26.8602C20.3091 26.9479 19.4705 27.0005 18.4922 26.9479C16.9723 26.8953 16.588 26.8076 15.5573 26.3342Z" fill="#696969"/>
<path d="M26.441 34.9777C26.441 34.7323 26.4934 34.4167 26.5633 34.2764C26.6332 34.1187 26.703 34.0135 26.7205 34.0485C26.738 34.0836 26.7904 34.3992 26.8603 34.7498C26.9476 35.2758 26.9127 35.4161 26.703 35.4161C26.5458 35.4161 26.441 35.2583 26.441 34.9777Z" fill="#696969"/>
<path d="M21.6542 8.5734C20.8855 8.55586 20.8331 8.53833 21.2874 8.4156C21.5843 8.34547 21.9512 8.27534 22.1084 8.25781C22.2831 8.25781 22.4578 8.32794 22.4753 8.4156C22.5102 8.5208 22.1783 8.59093 21.6542 8.5734Z" fill="#A1AEC8"/>
<path d="M22.1608 36.45C21.5843 36.45 20.9729 36.3974 20.8157 36.3273C20.641 36.2572 21.2349 36.187 22.1259 36.187C23.1217 36.1695 23.6283 36.2046 23.4711 36.3098C23.3313 36.3974 22.7374 36.45 22.1608 36.45Z" fill="#A1AEC8"/>
<path d="M19.4528 28.3504C19.2082 28.3855 18.7365 28.3855 18.4046 28.3504C18.0727 28.3153 18.2648 28.2803 18.8413 28.2803C19.4179 28.2803 19.6974 28.3153 19.4528 28.3504Z" fill="white"/>
<path d="M22.0383 36.8186C21.5317 36.8186 20.9901 36.7485 20.8504 36.6608C20.6757 36.5556 21.0426 36.503 21.8462 36.5205C22.5275 36.5381 23.0516 36.6082 23.0166 36.6959C22.9817 36.766 22.5275 36.8186 22.0383 36.8186Z" fill="white"/>
<path d="M19.4528 28.525C19.2082 28.5599 18.7365 28.5599 18.4046 28.525C18.0727 28.49 18.2648 28.4551 18.8413 28.4551C19.4179 28.4551 19.6974 28.49 19.4528 28.525Z" fill="white"/>
<path d="M35.8218 23.1427C35.7869 23.581 35.752 23.3005 35.752 22.529C35.752 21.7576 35.7869 21.407 35.8218 21.7401C35.8568 22.0732 35.8568 22.7044 35.8218 23.1427Z" fill="#CDD5F7"/>
<path d="M17.9679 10.7475C18.5445 10.3969 19.3306 10.0112 19.7149 9.88845C20.0993 9.76572 20.6408 9.67806 20.9378 9.69559C21.427 9.73066 21.4619 9.76572 21.5143 10.5547C21.5493 11.291 21.6017 11.4138 22.4228 11.5716L22.0734 11.9573C21.8637 12.1852 21.6366 12.641 21.5493 12.9742C21.4445 13.3423 21.0252 13.9385 20.4836 14.4644C19.9945 14.9378 19.2258 15.8846 18.789 16.5508C18.3348 17.217 17.7059 17.9359 17.4089 18.1287C17.0945 18.3391 16.7276 18.7248 16.5878 19.0229C16.4481 19.3034 16.1336 19.6891 15.889 19.8469C15.6445 20.0222 15.2252 20.6008 14.9631 21.1268C14.6836 21.6527 14.4041 22.1086 14.2993 22.1086C14.1945 22.1261 14.0547 22.1436 13.9499 22.1787C13.8451 22.1962 13.6878 22.2313 13.5655 22.2313C13.4607 22.2488 13.2336 22.3891 13.0938 22.5294C12.8493 22.7573 12.7619 22.7573 12.3426 22.4943C12.0631 22.3365 11.6788 22.0209 11.4692 21.793C11.242 21.5826 11.0673 21.232 11.0673 21.0391C11.0673 20.8462 10.8752 20.3553 10.6306 19.9346C10.2463 19.2859 10.2288 19.1105 10.386 18.4969C10.4908 18.1112 10.7179 17.6378 10.8926 17.4449C11.0673 17.2521 11.3818 16.691 11.5914 16.2177C11.8011 15.7268 12.4649 14.8501 13.0414 14.2365C13.6354 13.6229 14.5788 12.8164 15.1204 12.4307C15.6794 12.0625 16.2035 11.7469 16.3083 11.7469C16.4131 11.7469 16.5179 11.6242 16.5704 11.4839C16.6228 11.3436 16.7101 11.256 16.78 11.291C16.8673 11.3436 17.3914 11.0982 17.9679 10.7475Z" fill="#696969"/>
<path d="M25.1131 16.3053C25.3752 15.7794 25.7595 15.1657 25.9517 14.9378C26.1613 14.7274 26.3884 14.5521 26.4758 14.5521C26.5457 14.5521 26.7553 14.7099 26.9125 14.9027C27.0872 15.0956 27.3318 15.2534 27.4366 15.2534C27.5589 15.2534 27.8559 15.3586 28.1005 15.4638C28.3451 15.5865 28.6595 15.9897 28.7993 16.3404C28.974 16.7787 29.2535 17.0943 29.6204 17.2872C29.9348 17.4274 30.4939 17.7255 30.8432 17.9359C31.1926 18.1462 31.6119 18.4794 31.7342 18.6722C31.874 18.8651 32.0487 19.3034 32.1185 19.6365C32.2059 20.0573 32.1535 20.443 31.9613 20.8638C31.8041 21.1969 31.542 21.7053 31.3673 22.0034C31.2101 22.2839 30.8957 22.7222 30.686 22.9677C30.4589 23.2131 30.2143 23.5638 30.127 23.7566C30.0396 23.9495 29.83 24.4229 29.6553 24.8086C29.4631 25.2469 28.5722 26.2638 27.2445 27.5612C26.074 28.7008 25.0607 29.6475 24.9908 29.6651C24.921 29.7001 24.6589 30.2612 24.4143 30.9449C24.1698 31.6112 23.9252 32.7508 23.733 34.7495L22.9469 35.0125C22.3878 35.2053 21.7589 35.2579 20.7631 35.1878C19.9945 35.1352 19.086 34.9774 18.7541 34.8196C18.4222 34.6794 17.7932 34.3112 17.3565 34.0131C16.9198 33.7326 16.5005 33.4872 16.3957 33.4872C16.2908 33.4696 15.889 33.1891 15.4872 32.8209C15.0854 32.4703 14.474 31.9618 14.1246 31.6813C13.583 31.2605 13.5131 31.1203 13.5131 29.5423L14.5963 29.6475C15.2601 29.7177 16.0637 29.9456 16.6053 30.2261C17.1294 30.4891 17.671 30.6294 17.8282 30.5768C18.0029 30.5066 18.4047 30.4014 18.7017 30.3138C19.0685 30.2086 19.3131 30.2261 19.3655 30.3313C19.4179 30.454 19.6451 30.4365 20.0119 30.3138C20.3264 30.191 20.6583 30.0333 20.7457 29.9631C20.8505 29.8755 21.0776 29.8053 21.2698 29.8053C21.4794 29.8229 21.8463 29.6125 22.1083 29.367C22.3878 29.1216 22.5975 28.8936 22.5975 28.841C22.5975 28.7885 22.7023 28.4904 22.842 28.1748C22.9818 27.8768 23.1216 27.193 23.1565 26.7021C23.174 26.1936 23.174 25.7553 23.1216 25.7378C23.0692 25.7027 22.877 25.3872 22.6848 25.019C22.4926 24.6333 22.0559 24.1949 21.724 24.0021C21.2173 23.7216 21.0601 23.4936 20.7981 22.617C20.6408 22.0385 20.5011 21.4248 20.5011 21.2495C20.5011 21.0917 20.9029 20.5482 21.4095 20.0573C21.9161 19.5664 22.5625 19.0229 22.8595 18.83C23.1565 18.6547 23.6631 18.2164 24.0125 17.8833C24.3445 17.5501 24.8511 16.8313 25.1131 16.3053Z" fill="#696969"/>
</svg>
