<svg width="43" height="44" viewBox="0 0 43 44" fill="none" xmlns="http://www.w3.org/2000/svg">
<path fill-rule="evenodd" clip-rule="evenodd" d="M33.4125 0.804688C38.077 0.804688 40.5751 0.857285 40.5751 0.980012C40.5751 1.06767 40.6974 1.15534 40.8372 1.15534C40.977 1.15534 41.3788 1.43586 41.7107 1.76897C42.0426 2.10209 42.4444 2.62806 42.5842 2.90858C42.8113 3.3469 42.8462 4.52157 42.7589 17.8988L42.1824 19.0911C41.6758 20.1781 40.7498 21.1424 30.3902 31.5391C22.9131 39.0781 18.93 42.9527 18.4233 43.1982C17.9691 43.4436 17.3751 43.5839 16.8685 43.5839C16.3619 43.5839 15.733 43.4261 15.2788 43.1807C14.7896 42.9352 12.1167 40.3755 7.71431 35.9573C3.97575 32.2053 0.918522 29.0144 0.918522 28.8917C0.918522 28.7865 0.831172 28.6813 0.743823 28.6813C0.639004 28.6813 0.569124 28.5235 0.569124 28.3307C0.569124 28.1378 0.481775 27.98 0.394425 27.98C0.289606 27.98 0.219727 27.5066 0.219727 26.9281C0.219727 26.3495 0.289606 25.8761 0.394425 25.8761C0.481775 25.8761 0.569124 25.7183 0.569124 25.5255C0.569124 25.2975 2.87515 22.843 7.06792 18.5826C10.6492 14.9709 14.4577 11.1138 15.5408 10.0443C16.6065 8.95728 17.9866 7.62482 18.598 7.06378C19.5938 6.15209 19.6637 6.02936 19.2968 5.95923C19.0872 5.92417 18.9125 5.81897 18.9125 5.71378C18.9125 5.62612 18.5456 5.53845 18.0739 5.53845C17.6197 5.53845 17.183 5.46832 17.0782 5.38066C16.9733 5.293 16.4318 5.17027 15.8553 5.11767C15.2788 5.04754 14.0384 4.97742 13.095 4.92482C12.1691 4.87222 11.4004 4.87222 11.4004 4.92482C11.4004 4.97742 11.5926 5.20534 11.8372 5.45079C12.0818 5.69625 12.3962 5.8891 12.536 5.8891C12.6758 5.8891 12.798 5.97677 12.798 6.06443C12.798 6.16962 12.9553 6.23975 13.1474 6.23975C13.3396 6.23975 13.4968 6.32741 13.4968 6.41508C13.4968 6.52027 13.689 6.5904 13.9336 6.5904C14.1782 6.5904 14.3703 6.67806 14.3703 6.76573C14.3703 6.87092 14.4751 6.94105 14.58 6.94105C14.7023 6.94105 15.0167 7.02871 15.2788 7.15144C15.6107 7.30923 15.7679 7.51962 15.7679 7.81767C15.7854 8.06313 15.6631 8.36118 15.5059 8.48391C15.2962 8.6417 15.1215 8.6417 14.6673 8.48391C14.3703 8.37871 13.6017 8.0456 12.9727 7.74754C12.3438 7.46702 11.8197 7.15144 11.7848 7.08131C11.7673 7.01118 11.6101 6.94105 11.4354 6.94105C11.2782 6.94105 11.0161 6.78326 10.8764 6.5904C10.7366 6.39754 10.5619 6.23975 10.4745 6.23975C10.4047 6.23975 10.2474 6.13456 10.1251 6.02936C9.98539 5.90664 9.79322 5.60858 9.67093 5.36313C9.54864 5.11767 9.49623 4.74949 9.54864 4.5391C9.60105 4.31118 9.91551 3.97806 10.2125 3.78521C10.7017 3.48715 11.1035 3.43456 12.6233 3.43456C13.6366 3.43456 15.2089 3.53975 16.1173 3.68001C17.0258 3.82027 18.2137 4.03066 18.7378 4.13586C19.2619 4.25858 20.0131 4.41638 20.3974 4.50404C20.7818 4.60923 21.4107 4.76703 21.795 4.85469C22.1794 4.95988 22.7559 5.06508 23.0529 5.11767C23.3673 5.15274 23.6294 5.27547 23.6294 5.36313C23.6294 5.46832 23.9089 5.53845 24.2408 5.53845C24.5727 5.53845 24.8523 5.62612 24.8523 5.71378C24.8523 5.81897 25.0794 5.8891 25.3764 5.8891C25.6559 5.8891 25.9354 5.97677 25.9878 6.06443C26.0402 6.16962 26.2673 6.23975 26.5119 6.23975C26.7565 6.23975 26.9486 6.32741 26.9486 6.41508C26.9486 6.52027 27.1758 6.5904 27.4727 6.5904C27.7523 6.5904 27.9968 6.67806 27.9968 6.76573C27.9968 6.87092 28.1541 6.94105 28.3462 6.94105C28.5384 6.94105 28.8354 7.01118 28.9926 7.09884C29.1673 7.18651 29.7438 7.43196 30.2679 7.65988C30.792 7.8878 31.6655 8.32612 32.1896 8.6417C32.7137 8.93975 33.3601 9.37806 33.6221 9.60599C33.8842 9.83391 34.0938 10.1495 34.1113 10.3248C34.1113 10.4826 34.1986 10.6404 34.3035 10.6755C34.4607 10.693 34.4432 10.8333 34.286 11.1488C34.1462 11.3943 33.9541 11.6923 33.8318 11.8151C33.7095 11.9203 33.4824 12.0255 33.3426 12.0255C33.1854 12.0255 33.0631 12.1131 33.0631 12.2008C33.0631 12.306 32.8011 12.3761 32.4866 12.3761C32.0673 12.3936 31.8751 12.2885 31.7004 11.9378C31.5956 11.6924 31.5258 11.3943 31.5782 11.2891C31.6131 11.1664 31.8227 11.0086 32.0149 10.9385C32.2071 10.8508 32.3643 10.6755 32.3643 10.5352C32.3643 10.3949 32.2245 10.2372 32.0498 10.2021C31.8926 10.1495 31.5607 9.9917 31.3161 9.81638C31.0715 9.65858 30.7396 9.57092 30.5649 9.64105C30.4077 9.69365 30.2155 10.0092 30.1631 10.3248C30.1107 10.6229 30.1631 11.2014 30.2854 11.5872C30.4251 11.9729 30.8095 12.5339 31.1414 12.8495C31.5083 13.2001 32.0149 13.4456 32.3992 13.5157C32.7661 13.5683 33.3776 13.5333 33.7619 13.4281C34.1462 13.3404 34.6529 13.0599 34.8974 12.8144C35.142 12.569 35.4215 12.043 35.5264 11.6398C35.6312 11.219 35.6486 10.5703 35.5788 10.1846C35.5089 9.74625 35.2643 9.27287 34.9149 8.93975C34.6179 8.6417 34.1986 8.30858 33.9715 8.20339C33.7619 8.08066 33.3426 7.993 33.0631 7.993C32.6613 7.993 32.5041 7.8878 32.3643 7.55469C32.2595 7.30923 32.2245 6.99365 32.277 6.85339C32.3468 6.66053 32.6264 6.5904 33.3251 6.5904C33.8492 6.5904 34.3209 6.67806 34.3733 6.76573C34.4258 6.87092 34.583 6.94105 34.7227 6.94105C34.8625 6.94105 35.2992 7.2391 35.7011 7.60729C36.1029 7.95793 36.5221 8.46638 36.6619 8.7469C36.8017 9.00988 36.9938 9.58845 37.0986 10.0618C37.2209 10.6579 37.2209 11.1138 37.0637 11.7625C36.9414 12.2534 36.6794 12.867 36.4872 13.1651C36.2776 13.4456 35.9631 13.8313 35.7709 14.0066C35.5788 14.182 35.0721 14.4975 34.6354 14.7079C34.1462 14.9359 33.4998 15.0761 32.8884 15.0761C32.2944 15.0761 31.6655 14.9534 31.2288 14.743C30.8444 14.5501 30.233 14.0943 29.8486 13.6911C29.4818 13.3053 29.0625 12.7092 28.9402 12.3761C28.8004 12.043 28.6956 11.2716 28.6956 10.6755C28.6956 10.0618 28.7655 9.53586 28.8703 9.48326C28.9751 9.43066 29.045 9.25534 29.045 9.09754C29.0625 8.92222 28.8529 8.6943 28.5733 8.57157C28.3113 8.46638 27.7697 8.27352 27.3854 8.15079C27.0011 8.02806 26.6167 7.85274 26.5119 7.78261C26.4071 7.69495 26.1625 7.64235 25.9354 7.64235C25.7257 7.64235 25.5161 7.57222 25.4637 7.46703C25.4113 7.37936 25.1318 7.2917 24.8523 7.2917C24.5553 7.2917 24.3282 7.22157 24.3282 7.11638C24.3282 7.02871 24.0312 6.90599 23.6643 6.85339C23.3149 6.80079 22.7559 6.71313 22.4414 6.67806C22.1444 6.62547 21.8824 6.52027 21.8824 6.41508C21.8824 6.32741 21.7601 6.23975 21.6203 6.23975C21.4806 6.23975 21.3583 6.32741 21.3583 6.41508C21.3583 6.52027 21.2884 6.5904 21.2011 6.5904C21.1137 6.5904 16.7462 10.9034 11.5053 16.1982C6.24683 21.4755 1.94924 25.8937 1.96671 26.0164C1.96671 26.1216 1.87937 26.367 1.75708 26.5424C1.59985 26.7703 1.63479 26.9807 1.87937 27.5417C2.10647 28.0151 4.49985 30.5398 15.9426 42.006H17.8468L28.9053 30.9079C34.9848 24.7891 40.086 19.6346 40.2257 19.4592C40.3655 19.2664 40.68 18.7579 41.3613 17.5482V3.50469L40.8721 3.03131C40.6101 2.76832 40.2782 2.55793 40.1384 2.55793C39.9986 2.55793 39.8764 2.4878 39.8764 2.38261C39.8764 2.27741 37.6577 2.20728 33.5348 2.20728C29.4818 2.20728 26.9836 2.27741 26.5992 2.40014C26.2673 2.50534 25.6733 2.75079 25.289 2.92612C24.9047 3.11897 24.3631 3.45209 24.0661 3.69754C23.7691 3.92547 23.4372 4.20599 23.3149 4.31118C23.1751 4.43391 22.9655 4.41638 22.6685 4.27612C22.4239 4.15339 22.2318 3.90793 22.2318 3.75014C22.2318 3.57482 22.5462 3.11897 22.9306 2.73326C23.3149 2.34754 23.7866 1.9969 23.9788 1.9443C24.1709 1.8917 24.3282 1.78651 24.3282 1.68131C24.3282 1.59365 24.4854 1.50599 24.6776 1.50599C24.8697 1.50599 25.027 1.43586 25.027 1.33066C25.027 1.243 25.3065 1.15534 25.6384 1.15534C25.9703 1.15534 26.2498 1.08521 26.2498 0.980012C26.2498 0.857285 28.748 0.804688 33.4125 0.804688V0.804688ZM20.4848 19.4768C21.1137 19.5294 21.7251 19.6346 21.83 19.7398C21.9872 19.8625 22.1444 19.8449 22.3366 19.6521C22.4764 19.5118 22.7209 19.3891 22.8607 19.3891C23.0005 19.3891 23.2276 19.4242 23.3673 19.4768C23.5245 19.5294 23.6294 19.7748 23.6294 20.0904C23.6294 20.3885 23.5595 20.6514 23.4547 20.704C23.3498 20.7566 23.28 20.9495 23.28 21.1423C23.28 21.3352 23.3498 21.493 23.4547 21.493C23.5595 21.493 23.6294 22.054 23.6294 22.8079C23.6294 23.5443 23.5245 24.2982 23.4023 24.5086C23.2974 24.719 23.0354 25.0872 22.8432 25.3151C22.5637 25.6482 22.389 25.7183 22.0047 25.6307C21.6378 25.543 21.533 25.4203 21.533 25.0521C21.533 24.7716 21.6902 24.3859 21.8824 24.1755C22.127 23.8949 22.2318 23.5268 22.2318 22.9482C22.2318 22.3346 22.127 21.9839 21.83 21.6508C21.6203 21.4053 21.2709 21.1073 21.0438 21.0021C20.8342 20.8794 20.4673 20.7917 20.2227 20.7917C19.9782 20.7917 19.6113 20.8794 19.3842 21.0021C19.1745 21.1073 18.8251 21.3878 18.598 21.6157C18.3011 21.9313 18.2137 22.2118 18.2137 22.9833C18.2137 23.5092 18.3185 24.1229 18.4233 24.3508C18.5456 24.5612 18.7029 24.7716 18.7553 24.8242C18.8251 24.8768 19.0348 25.4203 19.2444 26.0514C19.5764 27.1209 19.5938 27.2437 19.3492 28.1203C19.1745 28.7164 18.8601 29.2599 18.4233 29.6982C18.0739 30.0488 17.4974 30.4521 17.1655 30.5573C16.8336 30.68 16.2396 30.7852 15.8553 30.7852C15.4709 30.7852 14.9119 30.68 14.5974 30.5573C14.1432 30.382 13.9685 30.3995 13.6366 30.5748C13.4095 30.7151 13.0601 30.7677 12.8505 30.7151C12.536 30.6274 12.4486 30.4872 12.4486 29.9962C12.4486 29.6631 12.536 29.3826 12.6233 29.3826C12.7107 29.3826 12.798 29.2248 12.798 29.032C12.798 28.8391 12.7107 28.6813 12.6233 28.6813C12.5185 28.6813 12.4486 28.1203 12.4486 27.3664C12.4486 26.3495 12.5185 25.9287 12.798 25.5255C13.0601 25.1222 13.2697 25.017 13.6366 25.0521C14.0209 25.0872 14.1258 25.1748 14.1607 25.6131C14.1956 25.9112 14.1258 26.2092 14.0209 26.3144C13.9161 26.4196 13.8462 26.7878 13.8462 27.156C13.8462 27.5066 13.9336 27.98 14.0209 28.2079C14.1258 28.4183 14.4926 28.769 14.8071 28.9969C15.139 29.2073 15.6107 29.3826 15.8553 29.3826C16.0998 29.3826 16.4667 29.2949 16.6938 29.1722C16.9035 29.067 17.2529 28.7865 17.48 28.5586C17.7944 28.2255 17.8643 27.9625 17.8643 27.1034C17.8643 26.5248 17.7944 26.0514 17.6896 26.0514C17.5848 26.0514 17.5149 25.8936 17.5149 25.7008C17.5149 25.5079 17.445 25.3501 17.3402 25.3501C17.2354 25.3501 17.1655 25.1924 17.1655 24.9995C17.1655 24.8066 17.0956 24.6488 16.9908 24.6488C16.886 24.6488 16.8161 24.4209 16.8161 24.1229C16.8161 23.8248 16.7462 23.5969 16.6414 23.5969C16.5366 23.5969 16.4667 23.2813 16.4667 22.8956C16.4667 22.5099 16.5366 22.1943 16.6414 22.1943C16.7462 22.1943 16.8161 22.0014 16.8161 21.756C16.8161 21.5105 16.886 21.3177 16.9908 21.3177C17.0956 21.3177 17.1655 21.2125 17.1655 21.1073C17.183 20.9846 17.4101 20.6865 17.6896 20.4411C17.9517 20.1956 18.2836 19.9151 18.4233 19.8099C18.5456 19.7047 18.8077 19.5644 18.9998 19.5118C19.192 19.4592 19.8559 19.4417 20.4848 19.4768ZM36.8366 26.9281C37.3607 26.9281 37.4306 26.9807 37.4306 27.3664C37.4306 27.6118 37.2209 28.2255 36.9764 28.7339C36.7143 29.2248 36.4523 29.6631 36.3649 29.6982C36.2776 29.7157 36.2077 29.8034 36.2077 29.9086C36.2077 30.0138 35.8932 30.5924 35.5089 31.2235C35.1245 31.8547 34.8101 32.4333 34.8101 32.5385C34.8101 32.6437 34.7402 32.7138 34.6354 32.7138C34.5306 32.7138 34.4607 32.8716 34.4607 33.0644C34.4607 33.2573 34.3908 33.4151 34.286 33.4151C34.1812 33.4151 34.1113 33.5378 34.1113 33.6781C34.1113 33.8183 34.0414 33.9411 33.9366 33.9411C33.8318 33.9411 33.7619 34.0638 33.7619 34.204C33.7619 34.3443 33.692 34.467 33.5872 34.467C33.4824 34.467 33.4125 34.6248 33.4125 34.8177C33.4125 35.0105 33.3426 35.1683 33.2378 35.1683C33.133 35.1683 33.0282 35.3086 32.9757 35.4839C32.9408 35.6417 32.6962 36.1326 32.4342 36.5709C32.1721 37.0092 31.8227 37.5878 31.648 37.8859C31.4733 38.1839 31.1239 38.8151 30.8619 39.2885C30.5998 39.7794 30.3553 40.2001 30.2854 40.2527C30.233 40.3053 30.0408 40.5859 29.8661 40.8664C29.6914 41.1469 29.5167 41.5326 29.4643 41.7079C29.4294 41.8657 29.3245 42.006 29.2197 42.006C29.1149 42.006 29.045 42.0761 29.045 42.1813C29.045 42.2865 28.9402 42.4618 28.8354 42.5846C28.7131 42.7248 28.2764 43.0053 27.8745 43.1982C27.3679 43.4612 26.7914 43.5839 26.1276 43.5839C25.2715 43.5839 24.9745 43.4962 24.1535 42.9703C23.6294 42.6372 23.0529 42.269 22.8782 42.1462C22.7209 42.0235 22.5812 41.7079 22.5812 41.445C22.5812 41.1644 22.7035 40.919 22.8432 40.8664C22.983 40.8138 23.2974 40.8138 23.542 40.8664C23.7866 40.919 23.9788 41.0066 23.9788 41.0943C23.9788 41.1644 24.433 41.4449 24.9745 41.7255C25.7607 42.1112 26.1276 42.1988 26.5992 42.1112C26.9836 42.0411 27.4203 41.7781 27.7872 41.3923C28.0842 41.0592 28.3462 40.656 28.3462 40.5157C28.3462 40.3755 28.4161 40.2527 28.5209 40.2527C28.6258 40.2527 28.6956 40.1475 28.6956 40.0424C28.6956 39.9196 28.8529 39.6391 29.045 39.4287C29.2372 39.2008 29.3944 38.9027 29.3944 38.7625C29.3944 38.6222 29.4643 38.4995 29.5691 38.4995C29.6739 38.4995 29.7438 38.4294 29.7438 38.3417C29.7438 38.254 30.1456 37.5177 30.6173 36.7112C31.089 35.9222 31.683 34.8703 31.945 34.3794C32.2071 33.906 32.4691 33.4677 32.539 33.4151C32.5914 33.3625 32.7661 33.0644 32.9059 32.7488C33.0456 32.4508 33.1854 32.1878 33.2378 32.1878C33.2902 32.1878 33.4474 31.9073 33.5872 31.5742C33.727 31.2411 33.9017 30.9605 33.989 30.9605C34.0589 30.9605 34.1113 30.8378 34.1113 30.6975C34.1113 30.5573 34.1812 30.4346 34.286 30.4346C34.3908 30.4346 34.4607 30.2768 34.4607 30.0839C34.4607 29.8911 34.5306 29.7333 34.6354 29.7333C34.7402 29.7333 34.8101 29.6281 34.8101 29.5229C34.8101 29.4001 34.9673 29.1196 35.1595 28.9092C35.3517 28.6813 35.5089 28.3833 35.5089 28.243C35.5089 28.1027 35.5613 27.98 35.6486 27.98C35.7185 27.98 35.8758 27.7521 35.998 27.454C36.1902 27.0157 36.33 26.9281 36.8366 26.9281Z" fill="white"/>
</svg>
