<svg width="44" height="43" viewBox="0 0 44 43" fill="none" xmlns="http://www.w3.org/2000/svg">
<path d="M1.22874 1.50784C1.45585 1.12212 1.945 0.631214 2.31187 0.420825C2.90585 0.0701755 3.22031 0.0175781 5.0197 0.0175781C6.22512 0.0175781 7.11609 0.087708 7.1685 0.192903C7.22091 0.280565 7.37814 0.368227 7.5179 0.368227C7.65766 0.368227 8.05946 0.648747 8.39139 0.981864C9.00154 1.5942 9.00283 1.61296 9.14171 3.63393L9.14259 3.6468C9.21247 4.78641 9.26488 6.15394 9.24741 6.67992C9.24741 7.20589 9.17753 8.10005 9.10765 8.64355C9.05525 9.20459 8.91549 9.66044 8.82814 9.66044C8.72332 9.66044 8.65344 9.76563 8.65344 9.87082C8.63597 9.99355 8.46127 10.239 8.25163 10.4143C8.04199 10.5897 7.58778 10.8526 7.25585 10.9929C6.85404 11.1507 6.01549 11.2384 4.845 11.2384C3.53476 11.2384 2.90585 11.1682 2.48657 10.9403C2.18958 10.7825 1.84019 10.5721 1.73537 10.4669C1.63055 10.3617 1.3685 9.97602 1.15886 9.60784C0.826932 9.01173 0.791992 8.71368 0.791992 5.5929C0.791992 2.31433 0.809462 2.1916 1.22874 1.50784Z" fill="white"/>
<path d="M18.5589 1.29745C18.6811 1.01693 19.083 0.648747 19.5197 0.420825C20.1486 0.10524 20.5854 0.0351106 22.1052 0.0175781C23.3281 0.0175781 24.1492 0.087708 24.551 0.263033C24.883 0.403292 25.3372 0.666279 25.5468 0.841604C25.7565 1.01693 25.9312 1.29745 25.9486 1.45524C25.9486 1.63057 26.0185 1.77082 26.1233 1.77082C26.2281 1.77082 26.298 3.15589 26.298 5.57537C26.298 9.16953 26.2805 9.41498 25.9486 9.78316C25.7565 10.0111 25.5992 10.239 25.5992 10.3091C25.5992 10.3968 25.2498 10.6247 24.8131 10.8351C24.1492 11.1858 23.7474 11.2384 22.1926 11.2384C20.7251 11.2384 20.2185 11.1682 19.6944 10.9052C19.345 10.7124 18.9257 10.4143 18.7685 10.239C18.6287 10.0637 18.4016 9.7481 18.2968 9.53771C18.1571 9.25719 18.0872 7.95979 18.0872 5.45264C18.0872 3.41888 18.1396 1.77082 18.2095 1.77082C18.2968 1.77082 18.4366 1.56044 18.5589 1.29745Z" fill="white"/>
<path d="M31.0498 3.17342C31.2245 3.17342 31.3643 3.08576 31.3643 2.9981C31.3643 2.8929 32.1504 2.82277 33.3733 2.82277C34.5438 2.82277 35.4173 2.8929 35.4697 2.9981C35.5221 3.08576 35.7143 3.17342 35.9065 3.17342C36.0986 3.17342 36.5878 3.33121 37.0071 3.52407C37.4089 3.6994 38.1251 4.19031 38.5968 4.61108C39.0685 5.03186 39.6275 5.73316 39.8546 6.18901C40.0818 6.66238 40.3962 7.36368 40.536 7.76693C40.6757 8.18771 40.798 8.78381 40.798 9.08186C40.798 9.57277 40.8504 9.66044 41.2348 9.66044C41.4793 9.66044 41.9685 9.8007 42.3354 9.99355C42.6848 10.1689 43.1215 10.5195 43.2962 10.7825C43.5583 11.1682 43.5932 11.6942 43.5932 14.6572C43.5932 16.5332 43.5408 18.076 43.4709 18.076C43.3836 18.076 43.3137 19.3559 43.2962 20.9163C43.2787 22.4942 43.1739 23.9845 43.0866 24.2474C42.9818 24.528 42.8944 25.4747 42.8944 26.3513C42.8944 27.2455 42.8245 28.052 42.7372 28.1572C42.6498 28.2624 42.5275 29.1565 42.4577 30.1734C42.4052 31.1903 42.3179 33.2591 42.283 34.7669C42.2305 36.45 42.1257 37.5371 42.0209 37.5371C41.9161 37.5371 41.8462 37.6423 41.8462 37.7474C41.8287 37.8702 41.654 38.1156 41.4444 38.291C41.2348 38.4663 41.0077 38.589 40.9378 38.589C40.8504 38.589 40.798 39.5708 40.798 42.9721H35.8191C33.0763 42.9721 30.7179 42.9371 30.5781 42.8845C30.3685 42.8143 30.3161 42.4111 30.3161 38.7643H29.2679V39.9039C29.2679 40.6228 29.1631 41.2539 28.9709 41.6046C28.8137 41.9202 28.604 42.2533 28.4818 42.3585C28.3769 42.4637 28.1149 42.639 27.9052 42.7442C27.6432 42.902 26.6299 42.9721 24.6733 42.9721C22.0004 42.9721 21.8257 42.9546 21.3715 42.5689C20.9872 42.2708 20.8998 42.0254 20.8824 41.4293C20.8824 41.026 20.9697 40.5176 21.092 40.2897C21.1968 40.0793 21.5113 39.7111 21.7733 39.4656C22.0354 39.2202 22.3848 38.9572 22.542 38.852C22.804 38.6942 22.839 38.2384 22.8914 35.1702C22.9089 33.1189 23.0137 31.4708 23.136 31.1728C23.2408 30.9098 23.5203 30.5065 23.7649 30.2611C24.0968 29.928 24.2016 29.6474 24.2016 29.0338C24.2016 28.5955 24.2715 28.2449 24.3763 28.2449C24.4811 28.2449 24.551 28.0871 24.551 27.8942C24.551 27.7013 24.6209 27.5436 24.7257 27.5436C24.8305 27.5436 24.9004 27.3507 24.9004 27.1052C24.9004 26.8598 24.8305 26.6669 24.7257 26.6669C24.6209 26.6669 24.551 26.5091 24.551 26.3163C24.551 26.1234 24.4811 25.9306 24.3763 25.878C24.2715 25.8254 24.2016 25.4923 24.2016 25.1241C24.2016 24.7734 24.3065 24.2124 24.4287 23.8968C24.5336 23.5812 24.6908 23.3358 24.7607 23.3358C24.848 23.3358 24.9004 23.2306 24.9004 23.1078C24.9004 23.0026 25.2498 22.7221 25.6866 22.4942C26.1233 22.2838 26.6649 22.1085 26.9095 22.1085C27.154 22.1085 27.6781 22.2663 28.0974 22.4591C28.4992 22.652 29.0058 22.8098 29.233 22.8098C29.4426 22.8098 29.6522 22.7046 29.6872 22.5819C29.7221 22.4767 29.8269 21.863 29.8968 21.2494C29.9842 20.6358 30.1065 20.1098 30.1938 20.0747C30.2637 20.0397 30.3161 19.8117 30.3161 19.5663C30.3161 19.3208 30.386 19.128 30.4908 19.128C30.5956 19.128 30.6655 19.0228 30.6655 18.9C30.648 18.7949 31.0498 18.2513 31.539 17.7254C32.2902 16.9189 32.4299 16.6559 32.4125 16.0949C32.4125 15.5513 32.3251 15.4111 31.9233 15.2533C31.6613 15.1306 31.1896 14.9202 30.8577 14.7624C30.5432 14.6046 30.1239 14.289 29.9492 14.0436C29.7745 13.7981 29.5474 13.5176 29.4775 13.4299C29.3902 13.3247 29.2679 12.8513 29.1805 12.378C29.0932 11.8871 29.0408 10.8702 29.0757 8.69615L28.3944 8.46823C27.748 8.27537 27.6956 8.20524 27.6956 7.6442C27.6956 7.31108 27.8179 6.66238 27.9751 6.18901C28.1324 5.73316 28.4643 5.03186 28.7263 4.64615C29.0233 4.19031 29.495 3.76953 29.9842 3.5416C30.4034 3.33121 30.8926 3.17342 31.0498 3.17342Z" fill="white"/>
<path d="M12.1125 10.8877C12.4619 10.4845 13.0733 10.0637 13.4577 9.92342C13.842 9.78316 14.3486 9.67797 14.5932 9.66044C14.8378 9.66044 15.3095 9.83576 15.6414 10.0637C15.9733 10.2741 16.3577 10.6598 16.4625 10.8877C16.6197 11.1858 16.6896 12.3604 16.6896 14.6046C16.6896 17.2695 16.6372 18.0059 16.4101 18.4617C16.2004 18.8825 16.183 19.0578 16.3402 19.128C16.4974 19.1981 16.5149 19.7416 16.445 21.1442C16.3926 22.2137 16.2703 23.8968 16.1655 24.9137C16.0607 25.9306 15.9034 27.6663 15.7986 28.7708C15.6938 29.8754 15.5715 32.1721 15.5366 33.8552C15.4842 35.5384 15.3619 36.9936 15.2745 37.0987C15.1872 37.2039 15.1173 37.3793 15.1173 37.4845C15.1173 37.6072 14.8902 37.9403 14.5932 38.2384C14.0691 38.7643 14.0691 38.7819 14.0691 40.7806C14.0691 42.4111 14.0167 42.8143 13.8071 42.8845C13.6673 42.9371 11.3089 42.9721 3.58717 42.9721V38.7643H2.85344C2.20705 38.7468 2.01488 38.6591 0.791992 37.3617L0.879342 33.2416L9.78898 33.0663L9.91127 32.102C9.98115 31.576 10.1034 30.3137 10.2083 29.2968C10.3131 28.2799 10.4878 26.3163 10.5926 24.9137C10.6974 23.5111 10.9071 21.6526 11.0468 20.7936C11.1866 19.9345 11.2914 19.0228 11.2914 18.7773C11.2739 18.5319 11.2215 17.1468 11.1691 15.7091C11.0992 14.026 11.1342 12.8163 11.2565 12.3254C11.3613 11.9046 11.7281 11.291 12.1125 10.8877Z" fill="white"/>
<path d="M2.88825 1.77057C3.08042 1.77057 3.23765 1.68291 3.23765 1.59525C3.23765 1.49005 3.91897 1.41992 4.93222 1.41992C6.4521 1.41992 6.69668 1.47252 7.58765 2.20888L7.60512 5.66278C7.60512 9.06408 7.60512 9.13421 7.22078 9.39719C6.92379 9.59005 6.34728 9.66018 5.12439 9.66018C4.18102 9.66018 3.23765 9.57252 3.01054 9.48486C2.8009 9.37966 2.52138 9.08161 2.39909 8.81862C2.25933 8.50304 2.18945 7.41603 2.18945 5.41732C2.18945 3.57642 2.25933 2.47187 2.36415 2.47187C2.4515 2.47187 2.53885 2.31408 2.53885 2.12122C2.53885 1.88745 2.65532 1.77057 2.88825 1.77057Z" fill="#696969"/>
<path d="M19.4148 2.24395L19.9214 1.8407C20.3931 1.45499 20.6202 1.41992 22.1925 1.41992C23.7473 1.41992 23.9919 1.47252 24.8828 2.20888L24.9003 5.50499C24.9003 8.66083 24.8828 8.80109 24.4985 9.22187C24.1316 9.64265 24.0268 9.66018 22.1925 9.66018C20.3581 9.66018 20.2533 9.64265 19.869 9.22187C19.5021 8.80109 19.4846 8.62577 19.4148 2.24395Z" fill="#696969"/>
<path d="M30.2985 5.10174C30.4382 4.96148 30.9274 4.71603 31.3642 4.5407C31.8009 4.38291 32.6569 4.26018 33.2858 4.24265C33.9148 4.24265 34.8057 4.33031 35.2949 4.45304C35.7666 4.5933 36.3605 4.80369 36.6051 4.92642C36.8497 5.04914 37.3738 5.46992 37.7581 5.87317C38.1599 6.27641 38.6316 6.90758 38.8413 7.2933C39.0334 7.67901 39.2431 8.43291 39.3129 8.95888C39.4003 9.62512 39.3654 10.0634 39.2256 10.3615C39.1033 10.6069 38.9461 10.8349 38.8937 10.8875C38.8238 10.9401 38.6491 11.168 38.5093 11.4134C38.3521 11.6589 38.1774 12.0797 38.125 12.3777C38.0551 12.6758 37.7756 13.1667 37.4786 13.4823C37.1991 13.7803 36.9196 14.0433 36.8672 14.0433C36.8148 14.0433 36.7798 13.6926 36.7798 13.2543C36.7798 12.5881 36.8672 12.3777 37.3388 11.9219C37.8455 11.431 37.9154 11.2556 37.9154 10.4491C37.9154 9.55499 37.8979 9.51992 36.7449 8.36278C36.081 7.73161 35.4346 7.20564 35.2949 7.20564C35.1551 7.20564 35.0328 7.13551 35.0328 7.03031C35.0328 6.92512 33.9497 6.85499 32.1503 6.85499C30.5605 6.85499 29.2678 6.80239 29.2678 6.73226C29.2678 6.6446 29.4425 6.31148 29.6521 5.97836C29.8443 5.64525 30.1413 5.242 30.2985 5.10174Z" fill="#696969"/>
<path d="M30.8401 12.6407C30.7352 12.6407 30.6654 11.8517 30.6654 10.6245V8.60823H35.0328L35.2075 9.22187C35.3648 9.74784 35.4521 9.83551 35.9063 9.83551C36.378 9.83551 36.4304 9.8881 36.4304 10.3615C36.4304 10.7823 36.3431 10.905 35.9413 11.0102C35.6792 11.0628 35.4172 11.203 35.3473 11.3082C35.2774 11.4134 35.2075 12.3952 35.2075 13.4823C35.2075 14.5517 35.1726 15.5686 35.1202 15.7089C35.0678 15.8667 34.8232 15.9719 34.5087 15.9719C34.0021 15.9719 33.9846 15.9543 33.9846 15.0952C33.9846 14.5517 33.8798 14.1134 33.7226 13.9556C33.5654 13.7978 33.1286 13.6926 32.587 13.6926C32.0979 13.6926 31.7135 13.605 31.7135 13.5173C31.7135 13.4297 31.5563 13.342 31.3642 13.342C31.1312 13.342 31.0148 13.2251 31.0148 12.9913C31.0148 12.7985 30.9449 12.6407 30.8401 12.6407Z" fill="#696969"/>
<path d="M13.0557 12.0446C13.2828 11.8167 13.6148 11.5537 13.8069 11.4485C13.9991 11.3433 14.366 11.2381 15.1172 11.2381V14.4465C15.1172 16.7258 15.0648 17.7076 14.9075 17.8654C14.7852 17.9706 14.366 18.0758 13.9467 18.0758C13.5099 18.0758 13.0907 17.9706 12.9334 17.8128C12.7238 17.6024 12.6714 17.0413 12.6714 15.0076C12.6714 12.6056 12.6889 12.4478 13.0557 12.0446Z" fill="#696969"/>
<path d="M39.9593 11.8868C40.0816 11.7641 40.3437 11.5712 40.5358 11.4485C40.728 11.3433 41.0599 11.2381 41.2696 11.2381C41.4967 11.2381 41.7937 11.3608 41.9334 11.5011C42.1431 11.7115 42.1955 12.3251 42.1955 14.6569C42.1955 16.9186 42.1431 17.6024 41.9509 17.8128C41.7937 17.9706 41.3744 18.0758 40.8154 18.0758C40.0816 18.0758 39.872 18.0056 39.6623 17.6901C39.4702 17.392 39.4003 16.7784 39.4003 15.2706C39.4003 14.166 39.4702 12.9914 39.575 12.6933C39.6623 12.3777 39.8545 12.0095 39.9593 11.8868Z" fill="#696969"/>
<path d="M36.7449 15.8667C36.7274 15.7615 36.9021 15.5862 37.1292 15.481C37.3738 15.3758 37.6358 15.3232 37.7407 15.3407C37.8455 15.3582 37.9328 15.6212 37.9678 15.9017C38.0027 16.1823 37.9328 16.4628 37.828 16.5504C37.7407 16.6206 37.4611 16.5329 37.2166 16.3751C36.9895 16.1998 36.7798 15.9719 36.7449 15.8667Z" fill="#696969"/>
<path d="M32.884 18.3738C33.0587 18.1985 33.5129 17.918 33.8973 17.7251C34.2991 17.5323 34.9804 17.392 35.5045 17.3745C36.0111 17.3745 36.4304 17.4271 36.4304 17.5147C36.4304 17.5849 36.675 17.7777 36.9545 17.953C37.2515 18.1108 37.4786 18.3738 37.4786 18.5141C37.4786 18.6543 37.5485 18.7771 37.6533 18.7771C37.7581 18.7771 37.828 19.303 37.828 20.0043C37.828 20.6706 37.7756 21.2316 37.6882 21.2316C37.6184 21.2316 37.4437 21.5121 37.3039 21.8452C37.1642 22.1784 36.9895 22.4589 36.9021 22.4589C36.8322 22.4589 36.7798 22.5816 36.7798 22.7219C36.7798 22.8621 36.675 23.0375 36.5527 23.09C36.4479 23.1426 35.8888 22.7745 35.3298 22.2485C34.7882 21.7401 34.334 21.2667 34.334 21.1965C34.334 21.1089 34.4913 20.7232 34.6834 20.3199C34.8756 19.8991 35.0328 19.3907 35.0328 19.1803C35.0328 18.8998 34.928 18.7771 34.6834 18.7771C34.4913 18.7771 34.3166 18.6719 34.2816 18.5667C34.2292 18.4089 34.1419 18.4264 33.9322 18.6543C33.775 18.8121 33.6352 18.9875 33.6352 19.0401C33.6352 19.0926 33.3907 19.7063 33.0937 20.4076C32.7967 21.0914 32.4473 21.9329 32.3075 22.2485C32.1503 22.6167 31.9407 22.8095 31.7135 22.8095C31.5214 22.8095 31.3641 22.7043 31.3467 22.5991C31.3467 22.4764 31.3467 21.9855 31.3642 21.4946C31.3816 21.0212 31.4515 20.5829 31.5214 20.5303C31.6087 20.4777 31.7135 20.2498 31.766 20.0043C31.8184 19.7589 32.028 19.3732 32.2202 19.1277C32.4123 18.8823 32.7093 18.5491 32.884 18.3738Z" fill="#696969"/>
<path d="M12.3045 21.9329C12.3919 20.916 12.5316 19.9517 12.584 19.7764C12.6714 19.5485 12.916 19.4784 13.6846 19.4784C14.2786 19.4608 14.7678 19.5485 14.9075 19.6888C15.0648 19.8465 15.0997 20.2673 15.0298 21.1439C14.9774 21.8102 14.8901 23.1602 14.8376 24.1245C14.7852 25.0888 14.6629 25.9478 14.5756 26.053C14.4882 26.1582 14.4184 27.0699 14.4184 28.1219C14.4184 29.2615 14.3485 29.9978 14.2437 29.9978C14.1389 29.9978 14.069 30.6115 14.069 31.4881C14.069 32.8907 14.0515 32.9784 13.6672 33.0836C13.4575 33.1362 12.8461 33.1537 11.3786 33.066L11.431 32.0141C11.4485 31.4355 11.5009 30.7342 11.5533 30.4362C11.5882 30.1381 11.7455 28.5251 11.8852 26.842C12.025 25.1589 12.2172 22.9498 12.3045 21.9329Z" fill="#696969"/>
<path d="M39.1382 21.7576C39.2081 21.0388 39.3304 20.2323 39.4352 19.9693C39.5925 19.4959 39.6623 19.4784 41.8461 19.4784V21.5823C41.8461 22.8095 41.7762 23.7212 41.6714 23.7738C41.5666 23.8264 41.4967 24.5978 41.4967 25.5797C41.4967 26.5089 41.4268 27.3504 41.3395 27.4556C41.2521 27.5608 41.1298 28.49 41.0774 29.5595C41.025 30.629 40.9376 31.8563 40.7979 33.1537L38.2648 33.066L38.2822 32.1017C38.2997 31.5758 38.387 30.1556 38.4919 28.9459C38.5967 27.7362 38.7714 25.9303 38.8587 24.9134C38.9635 23.8965 39.0858 22.4764 39.1382 21.7576Z" fill="#696969"/>
<path d="M33.6178 24.0017C33.5129 23.7738 33.4605 23.4582 33.5129 23.3004C33.5828 23.1251 33.7051 22.9849 33.8099 22.9849C33.8973 22.9849 34.334 23.3355 34.7708 23.7738C35.4696 24.4751 35.5395 24.5978 35.3473 24.9134C35.225 25.1063 35.0154 25.2641 34.9105 25.2641C34.7882 25.2641 34.6834 25.3342 34.6834 25.4394C34.6834 25.5446 34.2467 25.7725 33.7226 25.9654C32.9015 26.2634 32.3425 26.316 29.6696 26.316C27.5033 26.2985 26.4726 26.2459 26.2629 26.0881C26.0882 25.9654 25.966 25.7725 25.9485 25.6673C25.9485 25.5446 25.8786 25.4394 25.7738 25.4394C25.669 25.4394 25.5991 25.2465 25.5991 25.0011C25.5991 24.7556 25.669 24.5628 25.7738 24.5628C25.8786 24.5628 25.9135 24.5102 25.8786 24.4401C25.8262 24.3524 25.8437 24.2297 25.9135 24.1245C25.9834 24.0193 26.2105 23.8439 26.4376 23.7388C26.6473 23.616 26.9443 23.5108 27.084 23.5108C27.2238 23.5108 27.3461 23.581 27.3461 23.6862C27.3461 23.7913 27.4684 23.8615 27.6081 23.8615C27.7479 23.8615 27.8702 23.9316 27.8702 24.0368C27.8702 24.142 28.6563 24.2121 29.8792 24.2121C31.434 24.2121 31.9407 24.2647 32.1503 24.4751C32.2901 24.6154 32.4123 24.8608 32.4123 25.0011C32.4123 25.1413 32.5696 25.2641 32.7617 25.2641C32.9539 25.2641 33.1111 25.1939 33.1111 25.0888C33.1111 24.9836 33.2334 24.9134 33.3732 24.9134C33.5129 24.9134 33.6702 24.7907 33.7226 24.6504C33.775 24.5102 33.7226 24.2121 33.6178 24.0017Z" fill="#696969"/>
<path d="M36.4304 26.053C36.4304 25.9128 36.6051 25.5972 36.7973 25.3693C37.0943 25.0537 37.1991 25.0186 37.3214 25.1939C37.4262 25.3517 37.3913 25.6147 37.269 25.8777C37.1467 26.1232 36.9021 26.316 36.7449 26.316C36.5702 26.316 36.4304 26.1933 36.4304 26.053Z" fill="#696969"/>
<path d="M25.8961 28.6478C25.966 28.4725 26.1057 28.2446 26.1931 28.1219C26.3328 27.9641 27.7654 27.9115 37.1292 27.8939V28.9459H31.4515C26.1057 28.9459 25.7738 28.9284 25.8961 28.6478Z" fill="#696969"/>
<path d="M24.5509 31.8388C24.5509 31.6985 24.7256 31.3829 24.9527 31.155L25.337 30.7167L36.7798 30.6991V31.8388C36.7798 32.6978 36.7099 32.9959 36.5178 33.066C36.378 33.1186 34.5437 33.1537 28.6563 33.1537L27.8352 32.6277C27.3286 32.3121 26.8569 32.1368 26.6473 32.1894C26.4551 32.242 26.2804 32.4173 26.2804 32.5926C26.2629 32.7504 26.2804 33.0134 26.2979 33.1537C26.3154 33.2939 26.3852 33.4342 26.4376 33.4517C26.5075 33.4693 26.822 33.7147 27.7129 34.4686L27.6081 38.6764L26.1232 38.7115C25.1274 38.7465 24.5684 38.6939 24.4111 38.5362C24.2364 38.3784 24.184 37.5543 24.2015 35.3102C24.2015 33.4693 24.2714 32.242 24.3762 32.1894C24.481 32.1368 24.5509 31.979 24.5509 31.8388Z" fill="#696969"/>
<path d="M2.59126 37.116C2.25933 36.8881 2.20692 36.6952 2.18945 35.8011L2.20692 34.7491H13.737V37.116L13.1605 37.2388C12.8461 37.3089 10.4352 37.379 7.79728 37.379C3.79668 37.379 2.92319 37.3264 2.59126 37.116Z" fill="#696969"/>
<path d="M29.2154 36.4147C29.1979 36.029 29.1979 35.4855 29.2328 35.2225L29.2852 34.7491H40.7979V35.8011C40.7979 36.6952 40.728 36.8881 40.3961 37.116C40.0641 37.3264 39.1732 37.379 35.0328 37.379C32.2901 37.3615 29.8792 37.3089 29.6521 37.2388C29.3551 37.1336 29.2678 36.9582 29.2154 36.4147Z" fill="#696969"/>
<path d="M4.98463 40.2719C4.91475 39.3251 4.94969 39.0271 5.15933 38.9219C5.29909 38.8342 6.99367 38.7816 12.4093 38.8517L12.4617 39.816C12.4792 40.342 12.4617 40.9556 12.322 41.5693L5.07198 41.4816L4.98463 40.2719Z" fill="#696969"/>
<path d="M31.8882 40.2193C31.8882 39.7108 31.9232 39.1673 31.9931 39.0271C32.0804 38.7991 32.6045 38.7641 39.3129 38.8517V41.4816L35.7316 41.5342C33.0063 41.5517 32.1154 41.5167 32.0105 41.3589C31.9407 41.2362 31.8882 40.7102 31.8882 40.2193Z" fill="#696969"/>
<path d="M22.2798 41.2712C22.2798 41.0959 22.4545 40.7803 22.6642 40.5699C23.031 40.2193 23.2407 40.1842 27.6955 40.1667V40.605C27.6955 40.8504 27.5732 41.166 27.4334 41.3063C27.2413 41.5167 26.6822 41.5693 24.7256 41.5693C22.5069 41.5693 22.2798 41.5342 22.2798 41.2712Z" fill="#696969"/>
</svg>
