<svg width="42" height="31" viewBox="0 0 42 31" fill="none" xmlns="http://www.w3.org/2000/svg">
<path fill-rule="evenodd" clip-rule="evenodd" d="M21.0755 0.206009C22.5604 0.258606 24.2201 0.381334 24.7442 0.486529C25.2683 0.609256 25.9671 0.731983 26.2815 0.767048C26.5785 0.819645 26.8755 0.942373 26.9279 1.03004C26.9803 1.1177 27.2074 1.20536 27.452 1.20536C27.6966 1.20536 27.9237 1.29302 27.9761 1.38068C28.0285 1.46835 28.2207 1.55601 28.4129 1.55601C28.605 1.55601 28.7622 1.60861 28.7622 1.69627C28.7622 1.7664 29.1116 1.92419 29.5484 2.04692C29.9851 2.15211 30.3345 2.30991 30.3345 2.39757C30.3345 2.4677 30.5966 2.62549 30.8936 2.76575C31.208 2.90601 31.8195 3.25666 32.2562 3.55471C32.6755 3.85276 33.1472 4.18588 33.2695 4.27354C33.3918 4.37874 34.2478 5.18523 35.1562 6.07939C36.0647 6.95601 37.1827 8.28848 37.6719 9.00731C38.1436 9.72614 38.5454 10.4099 38.5454 10.4976C38.5454 10.6028 38.6153 10.6729 38.7201 10.6729C38.8249 10.6729 38.8948 10.8307 38.8948 11.0235C38.8948 11.2164 38.9647 11.3742 39.0695 11.3742C39.1743 11.3742 39.2442 11.532 39.2442 11.7248C39.2442 11.9177 39.3141 12.0755 39.4189 12.0755C39.5237 12.0755 39.5936 12.3034 39.5936 12.6015C39.5936 12.8995 39.6635 13.1274 39.7683 13.1274C39.8731 13.1274 39.943 13.2852 39.943 13.4781C39.943 13.6709 40.0129 13.8638 40.1177 13.9164C40.2225 13.969 40.2924 14.232 40.2924 14.53C40.2924 14.8281 40.3622 15.056 40.4671 15.056C40.5719 15.056 40.6418 15.3716 40.6418 15.7573C40.6418 16.143 40.7116 16.4937 40.8165 16.5463C40.9213 16.5989 41.0261 17.6859 41.0785 18.9657C41.1309 20.2281 41.096 21.9463 40.9912 22.7703C40.8863 23.5943 40.7641 24.5937 40.7291 25.0145C40.6767 25.4177 40.5719 25.7508 40.4671 25.7508C40.3622 25.7508 40.2924 25.9787 40.2924 26.2768C40.2924 26.5748 40.2225 26.8378 40.1177 26.8904C40.0129 26.943 39.943 27.1709 39.943 27.4164C39.943 27.6619 39.8731 27.8547 39.7683 27.8547C39.6635 27.8547 39.5936 28.0476 39.5936 28.293C39.5936 28.5385 39.5237 28.7313 39.4189 28.7313C39.3141 28.7313 39.2442 28.8891 39.2442 29.082C39.2442 29.2748 39.1743 29.4326 39.0695 29.4326C38.9647 29.4326 38.8948 29.5554 38.8948 29.6956C38.8948 29.8359 38.7201 30.1515 38.493 30.3969C38.2833 30.6424 38.0388 30.8352 37.9339 30.8352C37.8291 30.8352 37.5496 30.7476 37.2876 30.6248C37.008 30.5021 36.7984 30.3443 36.7984 30.2742C36.7984 30.1865 36.6761 30.1339 36.5363 30.1339C36.3966 30.1339 36.2743 30.0638 36.2743 29.9586C36.2743 29.8534 36.152 29.7833 36.0122 29.7833C35.8725 29.7833 35.7502 29.6606 35.7502 29.5203C35.7502 29.38 35.7851 29.1346 35.8376 28.9943C35.89 28.8541 36.1171 28.7313 36.3616 28.7313C36.6062 28.7313 36.8333 28.8015 36.8857 28.9067C36.9382 29.0119 37.1303 29.082 37.34 29.082C37.5321 29.082 37.8116 28.9593 37.9514 28.819C38.0912 28.6787 38.196 28.4333 38.196 28.293C38.196 28.1528 38.2659 28.03 38.3707 28.03C38.4755 28.03 38.5454 27.8372 38.5454 27.5917C38.5454 27.3463 38.6153 27.1183 38.7201 27.0658C38.8249 27.0132 38.8948 26.7852 38.8948 26.5398C38.8948 26.2943 38.9647 26.1015 39.0695 26.1015C39.1743 26.1015 39.2966 25.8034 39.349 25.4528C39.4014 25.0846 39.4713 24.3658 39.5237 23.8748C39.5586 23.3664 39.6635 22.9456 39.7683 22.9456C39.8731 22.9456 39.943 22.5073 39.943 21.017L39.1044 20.982C38.3532 20.9294 38.2833 20.8943 38.2309 20.456C38.196 19.9826 38.2309 19.9651 39.943 19.9651V18.9132C39.943 18.3346 39.8731 17.8612 39.7683 17.8612C39.6635 17.8612 39.5936 17.4229 39.5936 16.8969C39.5936 16.3709 39.5237 15.9326 39.4189 15.9326C39.3141 15.9326 39.2442 15.6521 39.2442 15.319C39.2442 14.9859 39.1743 14.7054 39.0695 14.7054C38.9647 14.7054 38.8948 14.5125 38.8948 14.267C38.8948 14.0216 38.8249 13.8287 38.7201 13.8287C38.6153 13.8287 38.5454 13.6008 38.5454 13.3028C38.5454 13.0047 38.4755 12.7768 38.3707 12.7768C38.2659 12.7768 38.196 12.619 38.196 12.4261C38.196 12.2333 38.1261 12.0755 38.0213 12.0755C37.9165 12.0755 37.8466 11.9528 37.8466 11.8125C37.8466 11.6722 37.7418 11.5495 37.6195 11.5495C37.5147 11.5495 37.2526 11.6547 37.0604 11.8125C36.8683 11.9528 36.5363 12.0755 36.3092 12.0755C36.053 12.0755 35.89 11.9469 35.8201 11.6898C35.7327 11.3742 35.8376 11.1813 36.9906 10.2346L36.2568 9.18263C35.855 8.60406 34.9116 7.53458 34.1604 6.81575C33.4092 6.09692 32.4484 5.23783 31.208 4.3612L30.6315 4.97484C30.2122 5.44822 29.9851 5.55341 29.7406 5.46575C29.5659 5.37809 29.3388 5.18523 29.2689 5.02744C29.1815 4.85211 29.1641 4.71185 29.2339 4.71185C29.3213 4.71185 29.4785 4.50146 29.6008 4.22094C29.793 3.80016 29.7755 3.7125 29.4261 3.43198C29.199 3.23913 28.8147 3.04627 28.5351 2.99367C28.2731 2.92354 28.0635 2.81835 28.0635 2.74822C28.0635 2.66055 27.8713 2.60796 27.6267 2.60796C27.3821 2.60796 27.155 2.52029 27.1026 2.43263C27.0502 2.34497 26.8231 2.25731 26.5785 2.25731C26.3339 2.25731 26.1068 2.16965 26.0544 2.08198C26.002 1.99432 25.6177 1.90666 25.1809 1.90666C24.7442 1.90666 24.3948 1.819 24.3948 1.73133C24.3948 1.62614 23.8183 1.55601 21.5996 1.55601V2.25731C21.5996 2.76575 21.5122 2.97614 21.2851 3.04627C21.1279 3.09887 20.8484 3.09887 20.6737 3.04627C20.4641 2.97614 20.3767 2.76575 20.3767 1.55601H18.9791C18.158 1.55601 17.5815 1.62614 17.5815 1.73133C17.5815 1.819 17.1797 1.90666 16.708 1.90666C16.2189 1.90666 15.8345 1.99432 15.8345 2.08198C15.8345 2.16965 15.6074 2.25731 15.3104 2.25731C15.0135 2.25731 14.7863 2.34497 14.7863 2.43263C14.7863 2.52029 14.6466 2.60796 14.4719 2.60796C14.3147 2.60796 13.7207 2.83588 13.1616 3.09887C12.4978 3.41445 12.1659 3.67744 12.1659 3.88783C12.1659 4.04562 12.2357 4.20341 12.3231 4.23848C12.4104 4.25601 12.4978 4.39627 12.5153 4.53653C12.5327 4.67679 12.5502 4.93978 12.5327 5.1151C12.5327 5.27289 12.393 5.44822 12.2532 5.50081C12.1135 5.55341 11.8689 5.55341 11.7291 5.50081C11.5894 5.44822 11.4671 5.29042 11.4671 5.15016C11.4671 5.0099 11.3972 4.88718 11.2924 4.88718C11.1875 4.88718 11.1177 4.76445 11.1177 4.62419C11.1177 4.48393 11.0129 4.3612 10.8906 4.3612C10.7857 4.37874 10.2966 4.65926 9.80743 5.02744C9.33574 5.37809 8.30502 6.30731 7.53635 7.07874C6.76767 7.85016 5.87671 8.84951 5.56225 9.32289C5.26526 9.77874 5.00321 10.2346 5.00321 10.3222C5.00321 10.4274 5.05562 10.4976 5.1255 10.4976C5.21285 10.4976 5.45743 10.6554 5.70201 10.8482C5.999 11.0937 6.12128 11.3567 6.08634 11.6372C6.06887 11.9703 5.94659 12.0755 5.61466 12.0755C5.37008 12.0755 5.05562 11.9528 4.91586 11.8125C4.7761 11.6722 4.53153 11.5495 4.39177 11.5495C4.25201 11.5495 4.0249 11.7599 3.88514 12.0404C3.74538 12.3034 3.5008 12.917 3.34357 13.3904C3.18634 13.8813 2.99418 14.4248 2.90683 14.6177C2.83695 14.8106 2.71466 15.1612 2.64478 15.4067C2.5749 15.6521 2.45261 16.2833 2.34779 16.8093C2.26044 17.3352 2.15562 18.2645 2.03333 19.9651H2.90683C3.57068 19.9651 3.78032 20.0352 3.78032 20.2281C3.78032 20.3683 3.74538 20.6138 3.69297 20.7541C3.64056 20.9294 3.36104 21.017 2.03333 21.017L2.10321 22.0339C2.13815 22.5774 2.2255 23.3138 2.29538 23.6469C2.34779 23.98 2.48755 24.6112 2.59237 25.0495C2.69719 25.4878 2.95924 26.3469 3.16887 26.9781C3.39598 27.6093 3.6755 28.3456 3.79779 28.6086C3.97249 28.9593 4.16466 29.0995 4.51406 29.082C4.79357 29.082 5.00321 29.0119 5.00321 28.9067C5.00321 28.8015 5.23032 28.7313 5.52731 28.7313C5.96406 28.7313 6.0514 28.8015 6.0514 29.1696C6.0514 29.4151 5.94659 29.7307 5.80683 29.8709C5.66707 30.0112 5.49237 30.1339 5.40502 30.1339C5.33514 30.1339 5.07309 30.2917 4.82851 30.4846C4.58394 30.6774 4.23454 30.8177 4.04237 30.8177C3.8502 30.8177 3.57068 30.6774 3.43092 30.5021C3.29116 30.3268 2.97671 29.7657 2.7496 29.2398C2.52249 28.7138 2.26044 28.1002 2.17309 27.8547C2.06827 27.6093 1.92851 27.2761 1.84116 27.1183C1.75381 26.943 1.68393 26.6099 1.68393 26.3645C1.68393 26.119 1.59659 25.8911 1.50924 25.8385C1.40442 25.7859 1.33454 25.4703 1.33454 25.1372C1.33454 24.8041 1.24719 24.4885 1.15984 24.4359C1.05502 24.3833 0.98514 23.7872 0.98514 23.1209C0.98514 22.4196 0.91526 21.8937 0.810441 21.8937C0.705622 21.8937 0.635742 21.28 0.635742 20.4034C0.635742 19.5268 0.705622 18.9132 0.810441 18.9132C0.91526 18.9132 0.98514 18.3872 0.98514 17.6859C0.98514 17.0196 1.05502 16.4235 1.15984 16.3709C1.24719 16.3183 1.33454 16.0028 1.33454 15.6696C1.33454 15.3365 1.40442 15.0209 1.50924 14.9683C1.59659 14.9158 1.68393 14.6528 1.68393 14.3547C1.68393 14.0567 1.73634 13.8287 1.80622 13.8287C1.89357 13.8287 2.0508 13.4606 2.19056 13.0047C2.33032 12.5313 2.71466 11.6547 3.04659 11.0235C3.37851 10.3924 3.97249 9.41055 4.3743 8.83198C4.75863 8.25341 5.84177 7.02614 6.7502 6.09692C7.65863 5.18523 8.88153 4.11575 9.45803 3.7125C10.0345 3.32679 10.9604 2.76575 11.502 2.4677C12.061 2.15211 12.6725 1.90666 12.8647 1.90666C13.0568 1.90666 13.2141 1.83653 13.2141 1.73133C13.2141 1.64367 13.3888 1.55601 13.5809 1.55601C13.7906 1.55601 13.9827 1.48588 14.0177 1.38068C14.0526 1.29302 14.2972 1.20536 14.5418 1.20536C14.7863 1.20536 15.0309 1.13523 15.0659 1.03004C15.1008 0.942373 15.3978 0.819645 15.6948 0.767048C16.0092 0.731983 16.6906 0.626788 17.2147 0.539126C17.7388 0.451464 18.2104 0.328736 18.2629 0.258606C18.3153 0.188477 19.5731 0.170944 21.0755 0.206009ZM31.8719 8.76185C32.3436 8.74432 32.4309 8.81445 32.4309 9.14757C32.4309 9.35796 31.9068 10.3222 31.2604 11.2865C30.6141 12.2508 30.0375 13.0573 29.9502 13.0924C29.8803 13.1099 29.8104 13.2677 29.8104 13.443C29.8104 13.6008 29.6532 13.8638 29.461 14.0041C29.2689 14.1443 29.1116 14.3372 29.1116 14.4424C29.1116 14.5476 28.9719 14.7755 28.8147 14.9683C28.64 15.1612 28.3779 15.5469 28.2382 15.8274C28.0984 16.0904 27.8363 16.4761 27.6616 16.6515C27.5044 16.8268 27.3647 17.0196 27.3647 17.0722C27.3647 17.1248 27.0851 17.5807 26.7532 18.0891C26.4213 18.58 26.0719 19.0709 26.002 19.1761C25.9147 19.2813 25.74 19.5443 25.6177 19.7898C25.4954 20.0352 25.2333 20.3859 25.0586 20.5787C24.8839 20.7716 24.7442 21.0346 24.7442 21.1573C24.7442 21.2625 24.6743 21.3677 24.5695 21.3677C24.4647 21.3677 24.3948 21.4904 24.3948 21.6307C24.3948 21.7709 24.3424 21.8937 24.255 21.8937C24.1851 21.8937 24.0104 22.1041 23.8707 22.367C23.7309 22.6476 23.5213 22.9632 23.399 23.0859C23.2942 23.1911 23.0671 23.2963 22.9273 23.2963C22.7701 23.2963 22.6478 23.3664 22.6478 23.4716C22.6478 23.5768 22.4906 23.6469 22.2984 23.6469C22.1062 23.6469 21.949 23.717 21.949 23.8222C21.949 23.9274 21.5122 23.9976 20.9882 23.9976C20.4641 23.9976 20.0273 23.9274 20.0273 23.8222C20.0273 23.717 19.905 23.6469 19.7653 23.6469C19.6255 23.6469 19.3285 23.5417 19.1189 23.4365C18.8918 23.3138 18.5424 23.0158 18.3327 22.7703C18.1056 22.5248 17.9309 22.2268 17.9309 22.1216C17.9309 21.9989 17.861 21.8937 17.7562 21.8937C17.6514 21.8937 17.5815 21.28 17.5815 20.4034C17.5815 19.5794 17.6339 18.9132 17.7213 18.9132C17.7912 18.9307 17.9659 18.6852 18.1056 18.3872C18.2454 18.0891 18.4375 17.8437 18.5074 17.8612C18.5948 17.8612 18.752 17.756 18.8918 17.6508C19.0141 17.5281 19.2761 17.2826 19.4857 17.1248C19.6779 16.9495 19.905 16.8093 19.9924 16.8093C20.0623 16.8268 20.2719 16.6515 20.4641 16.4586C20.6562 16.2658 20.9183 16.0904 21.0406 16.108C21.1454 16.108 21.2677 16.0554 21.2851 15.9852C21.3201 15.8976 21.6869 15.617 22.1237 15.319C22.5604 15.0385 22.9622 14.7229 23.0321 14.6177C23.1195 14.5125 23.3466 14.6352 24.0454 15.4067L23.5213 15.8099C23.2243 16.0203 22.7351 16.406 22.4207 16.669C21.949 17.0722 21.9141 17.1424 22.211 17.1599C22.4032 17.1599 22.6827 17.3177 22.8225 17.5106C22.9622 17.7034 23.1894 17.8612 23.3116 17.8612C23.4165 17.8612 23.5213 17.9313 23.5213 18.0365C23.5213 18.1417 23.7484 18.4573 24.0454 18.7378C24.3424 19.0359 24.5695 19.2112 24.5695 19.1411C24.5695 19.0534 24.6918 18.843 24.8315 18.6502C24.9713 18.4573 25.705 17.3878 26.4388 16.2833C27.1725 15.1787 27.8363 14.2495 27.9237 14.232C27.9936 14.1969 28.0635 14.0391 28.0635 13.8813C28.0635 13.706 28.2207 13.443 28.4129 13.3028C28.605 13.1625 28.7622 12.8995 28.7622 12.7417C28.7622 12.5664 28.8671 12.3911 28.9894 12.356C29.1116 12.3209 29.1291 12.2333 29.0418 12.1456C28.9544 12.058 28.8671 12.0755 28.8321 12.2157C28.7972 12.3209 28.6225 12.4261 28.4653 12.4261C28.2906 12.4261 28.0285 12.5839 27.8888 12.7768C27.749 12.9696 27.5568 13.1274 27.452 13.1274C27.3472 13.1274 27.1201 13.2677 26.9104 13.4255C26.7183 13.6008 26.4038 13.8287 26.2116 13.9339C25.9671 14.0742 25.8273 14.0742 25.705 13.9339C25.6002 13.8287 25.4604 13.6359 25.3906 13.5307C25.3207 13.408 25.3032 13.18 25.3556 13.0398C25.408 12.8995 25.5653 12.7768 25.705 12.7768C25.8448 12.7768 25.9671 12.7067 25.9671 12.6015C25.9671 12.4963 26.0894 12.4261 26.2291 12.4261C26.3689 12.4261 26.4912 12.356 26.4912 12.2508C26.4912 12.1632 26.6135 12.0755 26.7532 12.0755C26.893 12.0755 27.0153 12.0229 27.0153 11.9528C27.0153 11.8651 27.3297 11.6196 27.7141 11.3742C28.0984 11.1287 28.4129 10.9008 28.4129 10.8482C28.4129 10.7956 28.605 10.6554 28.8496 10.5502C29.0942 10.4274 29.3912 10.2521 29.5135 10.1469C29.6183 10.0593 30.0725 9.70861 30.5092 9.37549C31.0159 8.98978 31.505 8.76185 31.8719 8.76185Z" fill="white"/>
<path d="M19.6781 18.6327C19.8702 18.5976 20.0275 18.4924 20.0275 18.3872C20.0275 18.282 20.4642 18.2119 20.9883 18.2119C21.5124 18.2119 21.9492 18.282 21.9492 18.3872C21.9492 18.4924 22.0714 18.5626 22.2112 18.5626C22.351 18.5626 22.5955 18.7554 22.7353 19.0009C22.8751 19.2463 22.9974 19.5619 22.9974 19.7022C22.9974 19.8424 23.0672 19.9652 23.1721 19.9652C23.2769 19.9652 23.3468 20.1931 23.3468 20.4911C23.3468 20.7892 23.2769 21.0171 23.1721 21.0171C23.0672 21.0171 22.9974 21.1574 22.9974 21.3327C22.9974 21.4905 22.7353 21.8411 22.4208 22.1217C21.9841 22.5074 21.6871 22.595 21.0407 22.595C20.4992 22.595 20.01 22.4723 19.6781 22.2444C19.3811 22.0515 19.0317 21.6307 18.8919 21.3327C18.7347 21.0171 18.6299 20.6139 18.6299 20.4385C18.6299 20.2807 18.7871 19.8074 18.9793 19.4217C19.1714 18.9833 19.451 18.6678 19.6781 18.6327Z" fill="#696969"/>
</svg>
